<svg width="471" height="247" viewBox="0 0 471 247" fill="none" xmlns="http://www.w3.org/2000/svg">
<path d="M84.4886 15.4314C84.8118 15.4317 85.1281 15.3385 85.3996 15.1633C85.671 14.988 85.8859 14.738 86.0184 14.4435L88.0644 9.90148C88.3291 9.30713 88.7564 8.79957 89.2972 8.43734C89.838 8.07511 90.4702 7.87294 91.121 7.85415L224.33 3.34941C225.058 3.328 225.78 3.49457 226.425 3.83305C227.071 4.17153 227.618 4.67047 228.014 5.28177L232.259 11.8898C232.375 12.0807 232.528 12.2465 232.709 12.3774C232.89 12.5083 233.096 12.6017 233.314 12.652C233.531 12.7024 233.757 12.7087 233.977 12.6705C234.198 12.6324 234.408 12.5505 234.596 12.4299C234.784 12.3093 234.947 12.1522 235.073 11.968C235.2 11.7838 235.288 11.5762 235.333 11.3574C235.378 11.1386 235.379 10.913 235.335 10.6939C235.291 10.4748 235.204 10.2666 235.079 10.0817L230.835 3.47368C230.124 2.37517 229.141 1.47855 227.982 0.87061C226.823 0.26267 225.526 -0.0360168 224.218 0.00346254L91.0091 4.49579C89.7314 4.53335 88.4903 4.93059 87.4286 5.64179C86.3669 6.35298 85.5278 7.34923 85.0078 8.51588L82.9618 13.0579C82.848 13.3128 82.7996 13.5921 82.8211 13.8704C82.8426 14.1487 82.9333 14.4173 83.0849 14.6518C83.2365 14.8862 83.4443 15.0792 83.6894 15.2132C83.9345 15.3471 84.2092 15.4179 84.4886 15.419V15.4314Z" fill="#2D395F"/>
<path d="M333.275 56.7107L261.294 11.3868C257.379 8.9198 252.828 7.64692 248.2 7.72401L70.993 10.7065C67.734 10.761 64.5209 11.4838 61.5529 12.83C58.5848 14.1761 55.9252 16.117 53.7387 18.5323L16.3352 59.8237C12.8089 63.7204 10.8564 68.7866 10.8564 74.04V128.492C10.8558 131.666 11.5688 134.8 12.9428 137.663C14.6722 141.263 17.3847 144.301 20.7676 146.428C24.1505 148.554 28.066 149.683 32.0628 149.682H435.51C438.435 149.683 441.297 148.838 443.751 147.248C446.206 145.659 448.147 143.393 449.341 140.726L455.149 127.752C456.02 125.807 456.47 123.7 456.471 121.57V100.835C456.473 96.8902 454.934 93.0999 452.18 90.2726L436.511 74.1798C434.155 71.7656 431.059 70.2065 427.715 69.7496L333.275 56.7107Z" fill="#F7CC7E"/>
<path d="M5.70798 135.335H456.475V155.069H5.70798V135.335Z" fill="#E8993C"/>
<path d="M455.311 73.2075H416.862V76.9356C416.862 78.4043 417.152 79.8587 417.714 81.2156C418.277 82.5725 419.101 83.8055 420.141 84.844C421.18 85.8826 422.414 86.7064 423.773 87.2684C425.131 87.8305 426.586 88.1198 428.056 88.1198H455.311V73.2075Z" fill="#FBE6C4"/>
<path d="M450.996 124.564C451.34 124.565 451.68 124.498 451.997 124.367C452.314 124.236 452.602 124.044 452.845 123.801C453.088 123.559 453.281 123.271 453.412 122.954C453.544 122.637 453.611 122.298 453.611 121.955V102.867C453.612 102.524 453.544 102.184 453.413 101.867C453.282 101.55 453.089 101.261 452.846 101.019C452.603 100.776 452.315 100.584 451.998 100.452C451.68 100.321 451.34 100.254 450.996 100.254C450.653 100.254 450.313 100.322 449.996 100.453C449.679 100.585 449.391 100.777 449.148 101.02C448.906 101.262 448.713 101.551 448.582 101.868C448.451 102.184 448.384 102.524 448.384 102.867V121.955C448.384 122.647 448.66 123.311 449.149 123.8C449.639 124.29 450.304 124.564 450.996 124.564Z" fill="#E8993C"/>
<path d="M33.1769 67.3076H-0.000854492V93.4911H33.1769C35.7837 93.4911 38.2838 92.4564 40.127 90.6147C41.9703 88.7731 43.0059 86.2752 43.0059 83.6707V77.128C43.0059 74.5234 41.9703 72.0256 40.127 70.1839C38.2838 68.3423 35.7837 67.3076 33.1769 67.3076Z" fill="#FBE6C4"/>
<path d="M366.675 170.857C352.493 156.687 352.493 133.714 366.675 119.544C380.857 105.375 403.85 105.375 418.032 119.544C432.214 133.714 432.214 156.687 418.032 170.857C403.85 185.026 380.857 185.026 366.675 170.857Z" fill="#2D395F"/>
<path d="M376.705 161.241C368.077 152.621 368.077 138.645 376.705 130.025C385.333 121.405 399.321 121.405 407.948 130.025C416.576 138.645 416.576 152.621 407.948 161.241C399.321 169.862 385.333 169.862 376.705 161.241Z" fill="white"/>
<path d="M391.137 136.671H393.581L394.734 126.979H389.983L391.137 136.671Z" fill="#2D395F"/>
<path d="M393.581 153.733H391.137L389.983 163.426H394.734L393.581 153.733Z" fill="#2D395F"/>
<path d="M383.82 146.423V143.981L374.119 142.829V147.576L383.82 146.423Z" fill="#2D395F"/>
<path d="M400.896 143.981V146.423L410.598 147.576V142.829L400.896 143.981Z" fill="#2D395F"/>
<path d="M385.455 140.033L387.184 138.306L381.139 130.638L377.781 133.993L385.455 140.033Z" fill="#2D395F"/>
<path d="M399.258 150.369L397.529 152.096L403.577 159.766L406.936 156.411L399.258 150.369Z" fill="#2D395F"/>
<path d="M387.184 152.096L385.455 150.369L377.781 156.411L381.139 159.766L387.184 152.096Z" fill="#2D395F"/>
<path d="M397.529 138.306L399.258 140.033L406.936 133.993L403.577 130.638L397.529 138.306Z" fill="#2D395F"/>
<path d="M53.6396 170.858C39.4577 156.688 39.4577 133.715 53.6396 119.545C67.8216 105.376 90.8151 105.376 104.997 119.545C119.179 133.715 119.179 156.688 104.997 170.858C90.8151 185.027 67.8216 185.027 53.6396 170.858Z" fill="#2D395F"/>
<path d="M63.6657 161.243C55.038 152.623 55.038 138.647 63.6657 130.027C72.2934 121.407 86.2817 121.406 94.9094 130.027C103.537 138.647 103.537 152.623 94.9094 161.243C86.2817 169.863 72.2934 169.863 63.6657 161.243Z" fill="white"/>
<path d="M78.0957 136.671H80.5397L81.6934 126.979H76.9421L78.0957 136.671Z" fill="#2D395F"/>
<path d="M80.5397 153.733H78.0957L76.9421 163.426H81.6934L80.5397 153.733Z" fill="#2D395F"/>
<path d="M70.7793 146.423V143.981L61.0778 142.829V147.576L70.7793 146.423Z" fill="#2D395F"/>
<path d="M87.8571 143.981V146.423L97.5586 147.576V142.829L87.8571 143.981Z" fill="#2D395F"/>
<path d="M72.4176 140.033L74.1465 138.306L68.0986 130.638L64.7404 133.993L72.4176 140.033Z" fill="#2D395F"/>
<path d="M86.2204 150.369L84.4916 152.096L90.5363 159.766L93.8945 156.411L86.2204 150.369Z" fill="#2D395F"/>
<path d="M74.1465 152.096L72.4176 150.369L64.7404 156.411L68.0986 159.766L74.1465 152.096Z" fill="#2D395F"/>
<path d="M84.4916 138.306L86.2204 140.033L93.8945 133.993L90.5363 130.638L84.4916 138.306Z" fill="#2D395F"/>
<path d="M170.511 56.266H30.8974L62.8625 21.3682C64.3818 19.7105 66.2234 18.3795 68.2747 17.4565C70.326 16.5335 72.544 16.0378 74.7934 15.9998L170.518 14.2383L170.511 56.266Z" fill="#FBE6C4"/>
<path d="M300.624 42.0156L324.025 56.2661H297.287L300.624 42.0156Z" fill="#FBE6C4"/>
<path d="M295.564 56.2662H183.121L177.595 14.1081L247.71 12.8156C250.857 12.7593 253.956 13.5987 256.643 15.2358L299.115 41.0992L295.564 56.2662Z" fill="#FBE6C4"/>
<path d="M347.133 78.7031C348.218 78.7023 349.259 78.2709 350.026 77.5037C350.794 76.7364 351.225 75.6962 351.225 74.6116C351.225 73.527 350.794 72.4867 350.026 71.7195C349.259 70.9523 348.218 70.5208 347.133 70.52C346.046 70.52 345.005 70.9511 344.237 71.7184C343.469 72.4857 343.037 73.5264 343.037 74.6116C343.037 75.6967 343.469 76.7374 344.237 77.5048C345.005 78.2721 346.046 78.7031 347.133 78.7031Z" fill="#FBE6C4"/>
<path opacity="0.5" d="M435.832 130.324C435.832 130.324 424.461 99.291 389.98 99.6172C355.5 99.9434 347.132 132.437 347.132 132.437C347.132 132.437 349.98 93.7548 389.98 92.1424C429.98 90.53 435.832 130.324 435.832 130.324Z" fill="#FBE6C4"/>
<path opacity="0.5" d="M126.043 130.324C126.043 130.324 114.675 99.2907 80.1911 99.6169C45.7074 99.9431 37.343 132.436 37.343 132.436C37.343 132.436 40.1974 93.767 80.1911 92.1422C120.185 90.5174 126.043 130.324 126.043 130.324Z" fill="#FBE6C4"/>
<path d="M17.0912 71.9829H18.4905C19.4213 71.9829 20.1758 72.7368 20.1758 73.6668V86.6342C20.1758 87.5642 19.4213 88.318 18.4905 88.318H17.0912C16.1605 88.318 15.4059 87.5642 15.4059 86.6342V73.6668C15.4059 72.7368 16.1605 71.9829 17.0912 71.9829Z" fill="#F36F62"/>
<path opacity="0.5" d="M345.498 108.916H122.93L132.843 130.638H340.044L345.498 108.916Z" fill="#FBE6C4"/>
<path opacity="0.5" d="M328.732 58.6704H28.438L43.0026 63.4392H318.378L328.732 58.6704Z" fill="#FBE6C4"/>
<path d="M202.688 123.98H319.448C320.772 123.978 322.041 123.452 322.977 122.517C323.914 121.582 324.44 120.313 324.442 118.991V56.266C324.447 56.2081 324.44 56.1498 324.421 56.0948C324.402 56.0398 324.372 55.9893 324.333 55.9464C324.294 55.9036 324.246 55.8694 324.193 55.846C324.139 55.8226 324.082 55.8106 324.024 55.8106C323.965 55.8106 323.908 55.8226 323.855 55.846C323.801 55.8694 323.754 55.9036 323.714 55.9464C323.675 55.9893 323.645 56.0398 323.626 56.0948C323.607 56.1498 323.6 56.2081 323.605 56.266V118.991C323.604 120.092 323.165 121.147 322.386 121.925C321.606 122.703 320.55 123.14 319.448 123.141H202.688C200.575 123.142 198.522 122.44 196.852 121.146C195.181 119.853 193.989 118.041 193.463 115.996L178.009 56.1915L174.781 14.1979C174.777 14.1433 174.762 14.09 174.737 14.0411C174.712 13.9923 174.678 13.9488 174.636 13.9131C174.594 13.8775 174.546 13.8504 174.494 13.8335C174.442 13.8165 174.387 13.81 174.332 13.8143C174.277 13.8185 174.224 13.8336 174.175 13.8584C174.126 13.8833 174.082 13.9176 174.047 13.9593C174.011 14.001 173.984 14.0492 173.967 14.1014C173.95 14.1535 173.944 14.2085 173.948 14.2632L177.182 56.3282V56.3655L192.642 116.213C193.217 118.438 194.516 120.409 196.335 121.815C198.153 123.221 200.389 123.983 202.688 123.98Z" fill="#E8993C"/>
<path d="M188.41 66.4098H206.404L208.012 60.4697H186.544L188.41 66.4098Z" fill="#E8993C"/>
<path d="M301.102 38.3174L303.985 39.2254C304.904 39.5149 305.414 40.4937 305.124 41.4117L298.769 61.5508C298.479 62.4688 297.499 62.9783 296.58 62.6889L293.698 61.7808C292.779 61.4914 292.269 60.5125 292.559 59.5945L298.914 39.4555C299.204 38.5375 300.183 38.0279 301.102 38.3174Z" fill="#E8993C"/>
<path d="M138.363 155.069H320.001C320.716 155.069 321.402 154.785 321.908 154.28C322.413 153.775 322.697 153.089 322.697 152.375C322.697 151.661 322.413 150.976 321.908 150.471C321.402 149.965 320.716 149.682 320.001 149.682H138.363C137.648 149.682 136.963 149.965 136.457 150.471C135.951 150.976 135.667 151.661 135.667 152.375C135.667 153.089 135.951 153.775 136.457 154.28C136.963 154.785 137.648 155.069 138.363 155.069Z" fill="#F36F62"/>
<path d="M138.363 218.788H320.001C320.716 218.788 321.402 218.504 321.908 217.999C322.413 217.494 322.697 216.809 322.697 216.094C322.696 215.38 322.412 214.696 321.907 214.192C321.401 213.687 320.716 213.404 320.001 213.404H138.363C137.649 213.404 136.964 213.687 136.458 214.192C135.953 214.696 135.668 215.38 135.667 216.094C135.667 216.809 135.951 217.494 136.457 217.999C136.963 218.504 137.648 218.788 138.363 218.788Z" fill="#F36F62"/>
<path d="M186.669 154.201L189.008 151.146L230.014 182.493L227.675 185.548L186.669 154.201Z" fill="#F36F62"/>
<path d="M229.167 185.6L226.828 182.545L267.835 151.198L270.174 154.252L229.167 185.6Z" fill="#F36F62"/>
<path d="M271.697 215.598L269.357 218.653L228.351 187.306L230.69 184.251L271.697 215.598Z" fill="#F36F62"/>
<path d="M229.2 184.194L231.539 187.249L190.533 218.596L188.193 215.541L229.2 184.194Z" fill="#F36F62"/>
<path d="M224.296 195.733C217.94 193.103 214.922 185.823 217.555 179.472C220.187 173.122 227.474 170.106 233.83 172.737C240.185 175.367 243.204 182.647 240.571 188.998C237.938 195.348 230.652 198.363 224.296 195.733Z" fill="#D8433D"/>
<path d="M229.062 192.033C230.606 192.033 232.115 191.575 233.399 190.719C234.682 189.862 235.682 188.644 236.273 187.219C236.864 185.794 237.018 184.226 236.717 182.714C236.416 181.201 235.673 179.811 234.581 178.721C233.49 177.63 232.099 176.888 230.585 176.587C229.071 176.286 227.502 176.44 226.076 177.031C224.65 177.621 223.431 178.62 222.573 179.903C221.716 181.185 221.258 182.693 221.258 184.235C221.26 186.302 222.083 188.284 223.546 189.746C225.01 191.208 226.993 192.03 229.062 192.033ZM229.062 176.748C230.545 176.748 231.993 177.187 233.226 178.009C234.458 178.832 235.419 180.002 235.986 181.37C236.553 182.738 236.701 184.243 236.412 185.696C236.123 187.148 235.409 188.482 234.361 189.529C233.313 190.576 231.978 191.289 230.524 191.578C229.071 191.867 227.564 191.719 226.195 191.152C224.825 190.585 223.655 189.626 222.832 188.395C222.008 187.163 221.569 185.716 221.569 184.235C221.571 182.25 222.362 180.347 223.766 178.943C225.171 177.54 227.076 176.75 229.062 176.748Z" fill="white"/>
<path d="M409.066 186.353H463.19C464.674 186.353 465.877 187.578 465.877 189.088V203.825C465.877 205.335 464.674 206.56 463.19 206.56H409.066C407.582 206.56 406.379 205.335 406.379 203.825V189.088C406.379 187.578 407.582 186.353 409.066 186.353Z" fill="#2D395F"/>
<path d="M406.379 190.843H465.877V191.966H406.379V190.843Z" fill="#57617F"/>
<path d="M406.379 200.947H465.877V202.069H406.379V200.947Z" fill="#57617F"/>
<path d="M403.504 206.56H458.649C460.161 206.56 461.387 207.784 461.387 209.295V224.031C461.387 225.542 460.161 226.767 458.649 226.767H403.504C401.992 226.767 400.766 225.542 400.766 224.031V209.295C400.766 207.784 401.992 206.56 403.504 206.56Z" fill="#171D30"/>
<path d="M400.766 209.928H461.387V212.173H400.766V209.928Z" fill="#57617F"/>
<path d="M400.766 221.154H461.387V222.276H400.766V221.154Z" fill="#57617F"/>
<path d="M412.486 226.767H467.631C469.143 226.767 470.369 227.991 470.369 229.502V244.238C470.369 245.749 469.143 246.974 467.631 246.974H412.486C410.974 246.974 409.748 245.749 409.748 244.238V229.502C409.748 227.991 410.974 226.767 412.486 226.767Z" fill="#222B47"/>
<path d="M409.748 230.134H470.369V232.379H409.748V230.134Z" fill="#57617F"/>
<path d="M409.748 240.238H470.369V242.483H409.748V240.238Z" fill="#57617F"/>
<path d="M334.401 227.083V234.387L345.234 238.528C346.47 239.001 347.533 239.837 348.283 240.927C349.033 242.016 349.433 243.308 349.432 244.63H323.291V227.071L334.401 227.083Z" fill="#2D395F"/>
<path d="M343.195 237.78L343.682 237.97L342.724 240.421L342.237 240.231L343.195 237.78Z" fill="#74A0DD"/>
<path d="M341.164 236.956L341.65 237.146L340.692 239.596L340.205 239.407L341.164 236.956Z" fill="#74A0DD"/>
<path d="M339.011 236.119L339.498 236.309L338.54 238.76L338.053 238.57L339.011 236.119Z" fill="#74A0DD"/>
<path d="M336.677 235.209L337.164 235.399L336.206 237.85L335.719 237.66L336.677 235.209Z" fill="#74A0DD"/>
<path d="M323.291 244.639H349.436V245.853H323.291V244.639Z" fill="#74A0DD"/>
<path d="M248.423 225.169L244.356 231.547L253.439 238.764C254.477 239.585 255.241 240.701 255.63 241.966C256.019 243.23 256.014 244.583 255.615 245.844L230.681 237.991L239.844 222.457L248.423 225.169Z" fill="#2D395F"/>
<path d="M251.521 237.322L251.928 237.649L250.276 239.699L249.869 239.372L251.521 237.322Z" fill="#74A0DD"/>
<path d="M249.861 235.978L250.268 236.306L248.616 238.356L248.209 238.028L249.861 235.978Z" fill="#74A0DD"/>
<path d="M248.04 234.483L248.447 234.811L246.796 236.86L246.389 236.533L248.04 234.483Z" fill="#74A0DD"/>
<path d="M246.107 232.967L246.514 233.294L244.862 235.344L244.455 235.017L246.107 232.967Z" fill="#74A0DD"/>
<path d="M230.669 237.986L255.604 245.841L255.238 247L230.304 239.145L230.669 237.986Z" fill="#74A0DD"/>
<path d="M297.286 108.916L235.956 221.242L253.089 226.638L326.354 120.507L297.286 108.916Z" fill="#74A0DD"/>
<path d="M334.212 120.162L331.839 130.628L337.492 162.938C338.511 168.772 338.88 174.701 338.59 180.615L336.298 227.083H320.997L317.641 172.187L297.275 108.916L334.212 120.162Z" fill="#74A0DD"/>
<path d="M335.626 115.275L337.871 118.46C338.703 119.608 339.828 120.512 341.129 121.078L359.761 129.172L363.707 122.871L349.438 114.318C347.855 113.37 346.489 112.1 345.43 110.59L339.646 101.363L335.626 115.275Z" fill="#F2A392"/>
<path d="M354.918 57.9532C354.896 57.888 356.619 58.9381 358.69 56.8286C358.733 57.2391 358.68 57.654 358.534 58.0402C358.388 58.4264 358.154 58.7732 357.85 59.053C357.85 59.053 359.461 58.8386 361.115 57.2076C361.115 57.2076 360.568 63.8373 354.377 62.0479L353.444 58.0091L354.918 57.9532Z" fill="#2D395F"/>
<path d="M349.942 52.8054C353.673 53.6536 355.306 56.5739 355.396 60.9699L356.27 65.3938L354.388 65.4622L354.298 65.8475C353.875 67.6968 352.734 69.3025 351.126 70.3113C349.518 71.3201 347.575 71.6494 345.724 71.2267C343.873 70.804 342.266 69.664 341.256 68.0574C340.246 66.4508 339.917 64.5093 340.34 62.66L341.363 58.1832C341.572 57.2666 341.959 56.4002 342.504 55.6336C343.048 54.867 343.739 54.2153 344.535 53.7157C345.332 53.2162 346.22 52.8786 347.148 52.7224C348.076 52.5662 349.025 52.5944 349.942 52.8054Z" fill="#F2A392"/>
<path d="M337.382 76C337.823 76.2319 338.305 76.3748 338.801 76.4205C339.297 76.4662 339.797 76.4139 340.272 76.2664C340.748 76.119 341.19 75.8794 341.573 75.5613C341.956 75.2432 342.272 74.8528 342.504 74.4125L347.93 64.1168L341.223 60.5845L335.794 70.8833C335.326 71.7724 335.23 72.8107 335.528 73.7702C335.826 74.7296 336.493 75.5316 337.382 76Z" fill="#F2A392"/>
<path d="M356.166 58.3135L341.241 56.9093C341.241 56.9093 341.81 50.4815 348.277 50.4411C354.745 50.4007 356.166 58.3135 356.166 58.3135Z" fill="#74A0DD"/>
<path d="M350.09 57.7414L348.035 60.8481C347.844 61.1361 347.578 61.3666 347.265 61.515C346.953 61.6633 346.606 61.7238 346.262 61.6901L345.043 61.5689L342.195 63.8865C341.942 64.0937 341.645 64.2421 341.327 64.3211C341.01 64.4 340.678 64.4076 340.357 64.3432L339.356 64.1443C339.356 64.1443 338.299 59.3538 341.256 56.9243L350.09 57.7414Z" fill="#2D395F"/>
<path d="M343.531 60.9668C343.405 61.207 343.353 61.479 343.382 61.7486C343.411 62.0181 343.519 62.2731 343.692 62.4815C343.866 62.6899 344.097 62.8422 344.357 62.9194C344.617 62.9966 344.894 62.9952 345.154 62.9154C345.413 62.8355 345.643 62.6808 345.814 62.4706C345.985 62.2605 346.091 62.0044 346.117 61.7346C346.143 61.4648 346.088 61.1933 345.96 60.9544C345.832 60.7155 345.636 60.5198 345.396 60.3921C345.236 60.3066 345.061 60.2536 344.88 60.2363C344.7 60.2189 344.517 60.2375 344.344 60.291C344.17 60.3444 344.009 60.4316 343.87 60.5476C343.73 60.6636 343.615 60.8061 343.531 60.9668Z" fill="#F2A392"/>
<path d="M341.963 54.6782C342.025 54.5229 333.822 54.8429 335.147 55.7439C336.471 56.6448 342.404 56.9866 342.404 56.9866C342.105 56.6917 341.903 56.3132 341.824 55.901C341.745 55.4888 341.794 55.0624 341.963 54.6782Z" fill="#74A0DD"/>
<path d="M352.853 62.8154C352.542 63.4367 352.542 64.0581 352.881 64.2476C353.22 64.4371 353.755 64.0736 354.078 63.4616C354.401 62.8495 354.389 62.2189 354.05 62.0294C353.711 61.8399 353.176 62.2033 352.853 62.8154Z" fill="#2D395F"/>
<path d="M353.291 62.5387C353.166 62.7686 353.172 63.011 353.291 63.0793C353.409 63.1476 353.62 63.011 353.741 62.7686C353.863 62.5263 353.856 62.2964 353.741 62.2312C353.626 62.1659 353.399 62.3088 353.291 62.5387Z" fill="white"/>
<path d="M354.686 61.2335L351.744 61.3796C351.744 61.3796 354.673 58.8911 354.686 61.2335Z" fill="#2D395F"/>
<path d="M349.455 66.478C349.1 66.8756 349.38 67.7206 350.077 68.342C350.773 68.9633 351.631 69.1653 351.992 68.7676C352.353 68.3699 352.067 67.5249 351.37 66.9036C350.674 66.2822 349.812 66.0834 349.455 66.478Z" fill="white"/>
<path d="M345.474 62.2562C345.516 62.2554 345.556 62.2386 345.586 62.2091C345.616 62.1797 345.634 62.1398 345.636 62.0977C345.651 61.6393 345.503 61.1903 345.219 60.8302C345.114 60.7207 344.988 60.6336 344.849 60.5743C344.709 60.515 344.559 60.4848 344.407 60.4854C344.385 60.4836 344.363 60.4865 344.343 60.4939C344.322 60.5013 344.303 60.513 344.287 60.5283C344.271 60.5436 344.259 60.562 344.25 60.5825C344.242 60.6029 344.239 60.6249 344.239 60.6469C344.239 60.6683 344.242 60.6895 344.25 60.7095C344.257 60.7294 344.269 60.7476 344.284 60.763C344.298 60.7784 344.316 60.7906 344.336 60.7989C344.356 60.8073 344.377 60.8116 344.398 60.8116C344.507 60.8099 344.615 60.8305 344.715 60.8722C344.816 60.9139 344.907 60.9757 344.983 61.0539C345.204 61.3514 345.319 61.7147 345.309 62.0853C345.308 62.107 345.312 62.1285 345.319 62.1488C345.327 62.1691 345.338 62.1877 345.353 62.2036C345.368 62.2195 345.385 62.2323 345.405 62.2413C345.425 62.2503 345.446 62.2554 345.468 62.2562H345.474Z" fill="#2D395F"/>
<path d="M334.213 120.162L346.147 78.8835C346.345 78.198 346.403 77.4795 346.317 76.7711C346.231 76.0628 346.002 75.3791 345.646 74.7609C345.289 74.1428 344.811 73.6029 344.24 73.1737C343.67 72.7445 343.018 72.4348 342.325 72.263L336.193 70.7408C333.731 70.1227 331.158 70.0815 328.677 70.6204C326.196 71.1593 323.873 72.2637 321.89 73.8475C313.839 80.3095 301.088 92.727 297.282 108.913L334.213 120.162Z" fill="#2D395F"/>
<path d="M336.191 70.7655C336.191 70.7655 316.639 78.2216 303.648 111.395L300.308 110.407C300.308 110.407 309.742 81.6328 333.797 70.3306L336.191 70.7655Z" fill="#74A0DD"/>
<path d="M345.499 74.6113L358.785 92.9068L344.631 104.604L330.865 87.1749L345.499 74.6113Z" fill="#2D395F"/>
<path d="M357.215 94.2056L363.885 102.765C365.004 104.158 366.553 105.141 368.291 105.561L394.958 112.01L398.409 111.672C398.509 111.672 398.608 111.65 398.72 111.631L403.695 110.699L403.568 111.585C403.531 111.841 403.432 112.085 403.281 112.295C403.129 112.506 402.929 112.677 402.697 112.793L400.971 113.769L399.961 114.744C399.867 114.835 399.794 114.946 399.747 115.068C399.701 115.19 399.682 115.321 399.691 115.452C399.701 115.582 399.74 115.709 399.804 115.823C399.868 115.937 399.957 116.035 400.063 116.111L403.136 118.286L406.867 120.004C407.124 120.123 407.324 120.339 407.424 120.605C407.523 120.871 407.514 121.165 407.399 121.424L406.845 122.666C406.783 122.805 406.693 122.929 406.58 123.03C406.467 123.131 406.334 123.207 406.189 123.253L403.481 123.676C401.181 124.036 398.827 123.631 396.78 122.523L392.38 120.144L392.414 120.038L361.833 115.378C359.763 115.063 357.848 114.097 356.366 112.619L346.656 102.923L357.215 94.2056Z" fill="#F2A392"/>
<path d="M368.212 227.889H425.465V246.973H368.212V227.889Z" fill="#F36F62"/>
<path d="M410.87 227.889H414.238V233.502H410.87V227.889Z" fill="#F7CC7E"/>
<path d="M378.314 227.889H382.805V233.502H378.314V227.889Z" fill="#F7CC7E"/>
<path d="M360.253 227.889L353.617 213.295H408.902L417.605 227.889H360.253Z" fill="#D8433D"/>
<path d="M353.815 213.295C353.815 213.295 348.131 226.274 360.354 227.889L353.815 213.295Z" fill="#F36F62"/>
<path d="M408.388 213.295C408.107 214.273 407.896 215.295 407.759 216.343C407.608 217.392 407.523 218.462 407.506 219.536C407.485 220.619 407.556 221.701 407.715 222.755C407.885 223.806 408.195 224.79 408.625 225.644C408.348 224.689 408.15 223.684 408.036 222.652C407.94 221.624 407.899 220.587 407.915 219.549C407.931 218.505 407.983 217.463 408.072 216.427C408.158 215.389 408.264 214.345 408.388 213.295Z" fill="#F36F62"/>
<path d="M360.353 227.889H368.211V246.973H360.353V227.889Z" fill="#D8433D"/>
<path d="M20.2034 170.636H170.633V246.974H20.2034V170.636Z" fill="#D8433D"/>
<path d="M116.747 174.004H168.387V188.598H116.747V174.004Z" fill="#F36F62"/>
<path d="M138.076 175.127H147.057V177.372H138.076V175.127Z" fill="#D8433D"/>
<path d="M116.747 190.843H168.387V206.56H116.747V190.843Z" fill="#F36F62"/>
<path d="M138.076 193.088H147.057V195.334H138.076V193.088Z" fill="#D8433D"/>
<path d="M116.747 208.805H168.387V223.399H116.747V208.805Z" fill="#F36F62"/>
<path d="M138.076 211.05H147.057V212.173H138.076V211.05Z" fill="#D8433D"/>
<path d="M116.747 226.767H168.387V241.36H116.747V226.767Z" fill="#F36F62"/>
<path d="M138.076 227.889H147.057V230.134H138.076V227.889Z" fill="#D8433D"/>
<path d="M22.4482 241.36H114.502V174.004H22.4482V241.36ZM113.881 240.741H23.0689V174.624H113.881V240.741Z" fill="#F36F62"/>
<path d="M55.5773 197.323H56.5989V186.051C56.1167 185.893 55.7062 185.567 55.4413 185.131C55.1763 184.695 55.0743 184.178 55.1536 183.673C55.2329 183.168 55.4883 182.709 55.8738 182.377C56.2594 182.045 56.7498 181.862 57.2568 181.862C57.7638 181.862 58.2542 182.045 58.6398 182.377C59.0253 182.709 59.2807 183.168 59.36 183.673C59.4393 184.178 59.3373 184.695 59.0723 185.131C58.8074 185.567 58.3968 185.893 57.9146 186.051V197.323H58.9363L60.6172 200.258L58.9363 203.192H58.6393C58.6393 203.171 58.6393 203.153 58.6393 203.132V200.084C58.6393 199.712 58.4928 199.356 58.2322 199.093C57.9715 198.83 57.618 198.683 57.2494 198.683C56.8807 198.683 56.5272 198.83 56.2666 199.093C56.0059 199.356 55.8595 199.712 55.8595 200.084V203.132C55.8595 203.153 55.8595 203.171 55.8595 203.192H55.5625L53.8815 200.258L55.5773 197.323Z" fill="#F36F62"/>
<path d="M46.0416 201.392H47.4068V187.147C46.7646 186.947 46.218 186.535 45.8654 185.985C45.5127 185.435 45.3771 184.783 45.483 184.147C45.5888 183.51 45.9292 182.93 46.4428 182.511C46.9565 182.092 47.6097 181.862 48.2852 181.862C48.9606 181.862 49.6138 182.092 50.1275 182.511C50.6411 182.93 50.9815 183.51 51.0873 184.147C51.1932 184.783 51.0576 185.435 50.705 185.985C50.3523 186.535 49.8057 186.947 49.1635 187.147V201.392H50.5158L52.7578 205.098L50.5158 208.805H50.1017C50.1017 208.777 50.1017 208.755 50.1017 208.728V204.87C50.1121 204.631 50.072 204.393 49.9836 204.17C49.8953 203.947 49.7605 203.743 49.5875 203.571C49.4145 203.399 49.2067 203.262 48.9768 203.168C48.7469 203.074 48.4995 203.026 48.2496 203.026C47.9996 203.026 47.7522 203.074 47.5223 203.168C47.2924 203.262 47.0847 203.399 46.9117 203.571C46.7386 203.743 46.6039 203.947 46.5156 204.17C46.4272 204.393 46.387 204.631 46.3974 204.87V208.718C46.3974 208.746 46.3974 208.768 46.3974 208.796H46.0189L43.777 205.089L46.0416 201.392Z" fill="#F36F62"/>
<path d="M35.3734 205.46H37.0772V188.249C36.2745 188.008 35.5912 187.51 35.1504 186.845C34.7095 186.181 34.54 185.393 34.6722 184.623C34.8044 183.853 35.2297 183.152 35.8716 182.646C36.5136 182.14 37.33 181.862 38.1742 181.862C39.0183 181.862 39.8348 182.14 40.4767 182.646C41.1187 183.152 41.544 183.853 41.6762 184.623C41.8084 185.393 41.6388 186.181 41.198 186.845C40.7571 187.51 40.0739 188.008 39.2711 188.249V205.46H40.975L43.7773 209.939L40.975 214.418H40.4552C40.457 214.388 40.457 214.357 40.4552 214.327V209.678C40.4552 209.111 40.2113 208.567 39.777 208.166C39.3428 207.765 38.7538 207.54 38.1397 207.54C37.5255 207.54 36.9365 207.765 36.5023 208.166C36.068 208.567 35.824 209.111 35.824 209.678V214.327C35.824 214.36 35.824 214.388 35.824 214.418H35.3537L32.5513 209.939L35.3734 205.46Z" fill="#F36F62"/>
<path d="M71.2814 181.862C72.0257 181.862 72.7396 182.134 73.2659 182.618C73.7922 183.101 74.0879 183.757 74.0879 184.441V192.525C74.0867 193.112 73.8683 193.68 73.4688 194.137C73.0693 194.595 72.5124 194.913 71.8896 195.041V214.413L71.2814 215.541L70.6731 214.413V195.041C70.0501 194.914 69.4928 194.595 69.0932 194.138C68.6936 193.681 68.4755 193.112 68.4749 192.525V184.441C68.4749 183.757 68.7705 183.101 69.2969 182.618C69.8232 182.134 70.5371 181.862 71.2814 181.862Z" fill="#F36F62"/>
<path d="M78.5775 181.862C78.8724 181.862 79.1644 181.919 79.437 182.032C79.7096 182.144 79.9573 182.308 80.166 182.516C80.3746 182.723 80.5402 182.97 80.6531 183.241C80.7661 183.513 80.8242 183.804 80.8242 184.098V191.102C80.8236 191.611 80.6489 192.105 80.3287 192.502C80.0086 192.899 79.5622 193.175 79.0633 193.285V210.076L78.5775 211.05L78.0916 210.076V193.285C77.5929 193.175 77.147 192.899 76.8273 192.502C76.5077 192.105 76.3336 191.611 76.3338 191.102V184.098C76.3338 183.505 76.5702 182.936 76.9909 182.517C77.4117 182.098 77.9824 181.862 78.5775 181.862Z" fill="#F36F62"/>
<path d="M93.0722 203.637C93.0722 203.499 93.0457 203.362 92.9943 203.234C92.9429 203.106 92.8676 202.99 92.7727 202.893C92.6778 202.795 92.5651 202.717 92.441 202.665C92.317 202.612 92.184 202.584 92.0497 202.584C91.9154 202.584 91.7825 202.612 91.6584 202.665C91.5344 202.717 91.4217 202.795 91.3268 202.893C91.2318 202.99 91.1565 203.106 91.1051 203.234C91.0537 203.362 91.0273 203.499 91.0273 203.637V205.431L89.8045 204.705V202.037L91.0243 201.311V185.989L89.8045 185.263V182.595L91.0243 181.868V183.656C91.0243 183.935 91.132 184.203 91.3238 184.401C91.5155 184.598 91.7755 184.709 92.0467 184.709C92.3179 184.709 92.578 184.598 92.7697 184.401C92.9615 184.203 93.0692 183.935 93.0692 183.656V181.862L94.2919 182.589V185.257L93.0692 185.983V201.314L94.2949 202.043V204.711L93.0722 205.437V203.637Z" fill="#F36F62"/>
<path d="M101.75 209.854C101.75 209.494 101.615 209.15 101.376 208.896C101.136 208.642 100.811 208.499 100.472 208.499C100.133 208.499 99.8076 208.642 99.5679 208.896C99.3281 209.15 99.1935 209.494 99.1935 209.854V212.173L97.6653 211.239V207.815L99.1905 206.881V187.16L97.6624 186.227V182.802L99.1905 181.869V184.169C99.1905 184.528 99.3252 184.873 99.5649 185.126C99.8047 185.38 100.13 185.523 100.469 185.523C100.808 185.523 101.133 185.38 101.373 185.126C101.613 184.873 101.747 184.528 101.747 184.169V181.862L103.272 182.796V186.22L101.747 187.154V206.871L103.275 207.805V211.229L101.747 212.163L101.75 209.854Z" fill="#F36F62"/>
<path d="M56.1268 212.173H60.6172V222.276H56.1268V212.173Z" fill="#E6F2FE"/>
<path d="M52.7587 246.974H65.1074V225.996C65.1074 225.212 64.9477 224.436 64.6372 223.712C64.3268 222.989 63.8719 222.331 63.2983 221.777C62.7248 221.223 62.0439 220.784 61.2947 220.484C60.5454 220.185 59.7424 220.031 58.9315 220.031C57.2944 220.031 55.7243 220.66 54.5667 221.778C53.4091 222.897 52.7587 224.414 52.7587 225.996V246.974Z" fill="#2D395F"/>
<path d="M50.514 243.606H66.2305V246.974H50.514V243.606Z" fill="#2D395F"/>
<path d="M55.0031 209.928H62.8613V212.173H55.0031V209.928Z" fill="#2D395F"/>
<path d="M47.1448 233.502H52.7578V239.115H47.1448V233.502Z" fill="#2D395F"/>
<path d="M30.3054 234.625H47.1445V237.993H30.3054V234.625Z" fill="#E6F2FE"/>
</svg>
