<svg width="141" height="139" viewBox="0 0 141 139" fill="none" xmlns="http://www.w3.org/2000/svg">
<path d="M14.5216 53.307C13.3915 27.7672 49.2829 -4.32715 80.2245 1.02944C112.906 6.67985 141.565 77.615 110.59 101.528C79.6143 125.44 15.7082 79.2085 14.5216 53.307Z" fill="#E1F3FF"/>
<path d="M92.3047 105.042C92.3047 105.042 110.567 81.1747 140.062 94.8713C140.062 94.8713 126.139 120.242 95.3672 107.393L92.3047 105.042Z" fill="url(#paint0_linear_2268:2463)"/>
<g style="mix-blend-mode:soft-light">
<path d="M140.006 94.9164L92.2485 105.087L96.7689 107.065C96.7689 107.065 122.817 118.038 140.006 94.9164Z" fill="#BDE0FF"/>
</g>
<path d="M42.265 106.059C42.265 106.059 10.7471 98.1485 0 59.5449C0 59.5449 28.365 52.2446 49.4072 95.9448L42.265 106.059Z" fill="#1B437C"/>
<g style="mix-blend-mode:soft-light">
<path d="M2.41797 61.4321L44.6943 101.256L36.7837 102.307C36.7837 102.307 9.04025 92.7354 2.41797 61.4321Z" fill="#BDE0FF"/>
</g>
<path d="M99.8765 95.9224C99.8765 95.9224 107.052 71.5127 128.626 74.0779C128.626 74.0779 126.004 98.951 99.8765 95.9224Z" fill="#00257B"/>
<g style="mix-blend-mode:soft-light">
<path d="M128.626 74.0778L100.849 94.3175C100.849 94.3175 121.36 100.33 128.626 74.0778Z" fill="#BDE0FF"/>
</g>
<path d="M99.3565 1.50399C96.6217 4.37439 114.33 29.756 120.828 30.5923C127.326 31.4285 126.784 15.7204 122.455 8.4992C118.127 1.27798 102.882 -2.21398 99.3565 1.50399Z" fill="#E1F3FF"/>
<path d="M70.303 48.2778C62.8976 48.2756 55.658 50.4695 49.4996 54.5821C43.3412 58.6946 38.5407 64.5411 35.7052 71.3821C32.8698 78.2231 32.1267 85.7513 33.5701 93.0146C35.0134 100.278 38.5783 106.95 43.8139 112.187C49.0495 117.424 55.7205 120.991 62.9834 122.437C70.2463 123.882 77.7747 123.142 84.6166 120.308C91.4584 117.475 97.3063 112.676 101.421 106.519C105.535 100.362 107.731 93.1228 107.731 85.7174C107.731 75.7898 103.788 66.2686 96.7695 59.2476C89.7506 52.2267 80.2306 48.2808 70.303 48.2778ZM70.303 109.506C65.6093 109.506 61.021 108.114 57.1184 105.506C53.2157 102.898 50.1739 99.1921 48.3777 94.8557C46.5815 90.5193 46.1116 85.7476 47.0273 81.1441C47.9429 76.5406 50.2032 72.312 53.5221 68.9931C56.8411 65.6742 61.0696 63.4139 65.6731 62.4982C70.2766 61.5825 75.0483 62.0525 79.3847 63.8487C83.7211 65.6449 87.4275 68.6866 90.0352 72.5893C92.6428 76.492 94.0347 81.0802 94.0347 85.7739C94.0049 92.0536 91.4932 98.0667 87.0475 102.502C82.6017 106.937 76.5827 109.434 70.303 109.449V109.506Z" fill="url(#paint1_linear_2268:2463)"/>
<path d="M33.7217 64.0989C33.7217 64.0989 26.8621 80.6998 34.9308 98.0013C34.9308 98.0013 48.1867 122.558 70.3024 123.157C92.4181 123.756 105.663 98.0013 105.663 98.0013C105.663 98.0013 113.426 78.7899 105.99 61.9404L95.006 62.1212C95.006 62.1212 101.086 112.003 70.3024 109.506C39.519 107.008 42.2877 72.3146 42.2877 72.3146L33.7217 64.0989Z" fill="url(#paint2_linear_2268:2463)"/>
<path d="M70.2905 38.4233C62.5964 38.4211 55.0745 40.7008 48.6761 44.974C42.2777 49.2473 37.2904 55.3221 34.3449 62.4301C31.3994 69.5382 30.6282 77.3601 32.1287 84.9065C33.6292 92.4529 37.3341 99.3848 42.7746 104.825C48.2152 110.266 55.1471 113.971 62.6935 115.471C70.2399 116.972 78.0618 116.201 85.1699 113.255C92.2779 110.31 98.3527 105.322 102.626 98.9239C106.899 92.5256 109.179 85.0036 109.177 77.3094C109.174 66.9971 105.076 57.108 97.7839 49.8161C90.4919 42.5242 80.6029 38.4263 70.2905 38.4233ZM70.2905 103.347C65.1498 103.347 60.1246 101.822 55.8502 98.9661C51.5759 96.1101 48.2445 92.0507 46.2772 87.3013C44.3099 82.5519 43.7952 77.3258 44.7981 72.2839C45.801 67.2419 48.2765 62.6106 51.9115 58.9756C55.5465 55.3406 60.1779 52.8651 65.2198 51.8622C70.2617 50.8593 75.4878 51.374 80.2372 53.3413C84.9866 55.3086 89.046 58.64 91.902 62.9143C94.758 67.1887 96.2824 72.2139 96.2824 77.3546C96.2645 84.2426 93.5204 90.8434 88.6498 95.7139C83.7793 100.584 77.1785 103.329 70.2905 103.347Z" fill="url(#paint3_radial_2268:2463)"/>
<path d="M108.126 68.1223C105.883 58.8751 100.327 50.7714 92.5098 45.3455C84.6929 39.9197 75.1578 37.5483 65.71 38.6803C56.2621 39.8124 47.5572 44.3694 41.2435 51.4884C34.9297 58.6075 31.4454 67.7944 31.4502 77.3099C31.445 81.4141 32.0974 85.4927 33.3827 89.3905C35.026 94.4193 37.6775 99.0603 41.1749 103.03C44.6723 106.999 48.9424 110.214 53.7241 112.478C58.8973 114.947 64.5591 116.221 70.2911 116.207C80.6026 116.195 90.4882 112.093 97.7785 104.801C105.069 97.5082 109.168 87.6214 109.177 77.3099C109.198 74.2163 108.845 71.1314 108.126 68.1223ZM70.3363 103.347C63.966 103.349 57.8168 101.011 53.0565 96.7779C48.2962 92.5447 45.2562 86.7107 44.514 80.3837C44.387 79.364 44.3229 78.3375 44.3219 77.3099C44.3219 70.409 47.0633 63.7906 51.943 58.9109C56.8227 54.0312 63.441 51.2898 70.342 51.2898C77.2429 51.2898 83.8613 54.0312 88.741 58.9109C93.6207 63.7906 96.3621 70.409 96.3621 77.3099C96.3737 77.4491 96.3737 77.5889 96.3621 77.728C96.2639 84.5704 93.4714 91.098 88.5905 95.8943C83.7096 100.691 77.1341 103.369 70.2911 103.347H70.3363Z" fill="#3996F7"/>
<path d="M70.2912 51.295C65.1505 51.295 60.1252 52.8194 55.8509 55.6755C51.5765 58.5315 48.2451 62.5909 46.2778 67.3403C44.3106 72.0897 43.7959 77.3157 44.7988 82.3577C45.8017 87.3996 48.2771 92.0309 51.9121 95.6659C55.5472 99.301 60.1785 101.776 65.2204 102.779C70.2624 103.782 75.4885 103.268 80.2378 101.3C84.9872 99.333 89.0466 96.0016 91.9026 91.7272C94.7587 87.4529 96.283 82.4276 96.283 77.2869C96.2681 70.398 93.5249 63.7956 88.6537 58.9244C83.7825 54.0532 77.1801 51.31 70.2912 51.295ZM70.2912 102.024C65.4026 102.027 60.6231 100.579 56.5572 97.8647C52.4914 95.1503 49.3219 91.2912 47.4496 86.7753C45.5772 82.2595 45.0862 77.2898 46.0385 72.4948C46.9909 67.6999 49.3439 63.295 52.7999 59.8375C56.2558 56.3799 60.6596 54.0249 65.4541 53.0704C70.2486 52.1158 75.2185 52.6046 79.7353 54.4749C84.252 56.3451 88.1126 59.5129 90.8288 63.5775C93.545 67.6421 94.9948 72.4209 94.9948 77.3095C94.9963 80.5546 94.3584 83.7682 93.1176 86.7666C91.8768 89.7651 90.0573 92.4898 87.7633 94.7849C85.4692 97.08 82.7453 98.9007 79.7474 100.143C76.7495 101.385 73.5362 102.024 70.2912 102.024Z" fill="url(#paint4_linear_2268:2463)"/>
<g style="mix-blend-mode:soft-light" opacity="0.5">
<path d="M65.4771 102.895L53.7243 112.478C48.9425 110.214 44.6725 106.999 41.1751 103.03C37.6776 99.0599 35.0262 94.419 33.3828 89.3901L44.5141 80.3495C45.1628 85.8459 47.5439 90.9933 51.3127 95.0465C55.0814 99.0997 60.0423 101.848 65.4771 102.895Z" fill="white"/>
</g>
<g style="mix-blend-mode:soft-light" opacity="0.5">
<path d="M96.2938 77.7277C96.3054 77.5885 96.3054 77.4487 96.2938 77.3095C96.3025 71.8873 94.6152 66.598 91.4682 62.1825C88.3211 57.7669 83.872 54.4461 78.7437 52.6851L89.8523 43.6444C94.3911 46.2817 98.3497 49.8097 101.49 54.0162C104.63 58.2226 106.887 63.0207 108.126 68.122L96.2938 77.7277Z" fill="white"/>
</g>
<path d="M57.6001 114.082C57.6001 114.082 75.9187 119.507 96.3167 106.172C96.3167 106.217 82.88 121.428 57.6001 114.082Z" fill="#4FB5FB"/>
<g style="mix-blend-mode:soft-light" opacity="0.5">
<path d="M53.724 112.478L55.7808 120.174C55.7808 120.174 40.536 115.326 33.8685 95.4474L33.3374 89.3901C35.0493 94.3906 37.7312 99.004 41.2296 102.966C44.728 106.928 48.9739 110.16 53.724 112.478Z" fill="white"/>
</g>
<path d="M122.398 60.9121L130.524 48.4473L134.852 51.4081L126.207 63.1044L122.398 60.9121Z" fill="#F0BC5E"/>
<path d="M28.4331 38.74L41.1239 28.8518L44.209 33.1235L32.5805 42.3224L28.4331 38.74Z" fill="#F0BC5E"/>
<path d="M21.2342 101.505L11.9789 106.183L9.65088 101.505L19.0984 95.9901L21.2342 101.505Z" fill="#4F31E0"/>
<path d="M83.1064 29.2701L89.7513 36.5591L92.3618 33.5531L86.0899 26.637L83.1064 29.2701Z" fill="#6877FF"/>
<path d="M42.5811 71.388L51.0341 56.7874L69.364 71.3767C69.364 71.3767 90.1575 50.199 106.657 44.8424L111.256 63.6357C111.256 63.6357 90.4739 68.6871 70.9913 92.5431L42.5811 71.388Z" fill="#FFFED6"/>
<path d="M42.5811 78.1233L51.0341 63.5226L69.364 78.1119C69.364 78.1119 90.1575 56.9342 106.657 51.5776L111.256 70.3709C111.256 70.3709 90.4739 75.4224 70.9913 99.2784L42.5811 78.1233Z" fill="#F0BC5E"/>
<path d="M106.623 44.8424V51.5777L111.222 70.3709V61.884L106.623 44.8424Z" fill="#955E24"/>
<path d="M51.0228 56.7871V63.5224L42.5811 78.1231V71.3878L51.0228 56.7871Z" fill="#955E24"/>
<g style="mix-blend-mode:soft-light">
<path d="M106.623 44.8876V51.6681C101.431 53.6464 96.4986 56.2456 91.9317 59.4091C83.8444 64.9763 76.2794 71.2666 69.3301 78.2024V71.4219C74.4985 66.1753 80.0308 61.3001 85.8858 56.8325C89.6949 53.9218 93.7012 51.2786 97.8759 48.922C100.647 47.284 103.578 45.9323 106.623 44.8876Z" fill="#F2C46D"/>
</g>
<g style="mix-blend-mode:soft-light">
<path d="M99.877 54.4707L91.9664 59.3187L89.356 54.3125C92.0933 52.3118 94.9585 50.4923 97.9333 48.8655L99.877 54.4707Z" fill="white"/>
</g>
<defs>
<linearGradient id="paint0_linear_2268:2463" x1="16294.8" y1="14690.7" x2="17445" y2="15504.2" gradientUnits="userSpaceOnUse">
<stop stop-color="#1C257B"/>
<stop offset="1" stop-color="#6A2C9A"/>
</linearGradient>
<linearGradient id="paint1_linear_2268:2463" x1="27992.7" y1="11061.5" x2="32953.5" y2="11061.5" gradientUnits="userSpaceOnUse">
<stop stop-color="#1C257B"/>
<stop offset="1" stop-color="#6A2C9A"/>
</linearGradient>
<linearGradient id="paint2_linear_2268:2463" x1="29105.7" y1="9437.6" x2="34518.6" y2="9437.6" gradientUnits="userSpaceOnUse">
<stop stop-color="#1C257B"/>
<stop offset="1" stop-color="#6A2C9A"/>
</linearGradient>
<radialGradient id="paint3_radial_2268:2463" cx="0" cy="0" r="1" gradientUnits="userSpaceOnUse" gradientTransform="translate(86.7106 42.5142) scale(38.8861)">
<stop stop-color="#39AEF7"/>
<stop offset="1" stop-color="#6840D5"/>
</radialGradient>
<linearGradient id="paint4_linear_2268:2463" x1="70.2912" y1="103.347" x2="70.2912" y2="51.295" gradientUnits="userSpaceOnUse">
<stop stop-color="#60B3F7"/>
<stop offset="1" stop-color="#364AC2"/>
</linearGradient>
</defs>
</svg>
