<svg width="319" height="26" viewBox="0 0 319 26" fill="none" xmlns="http://www.w3.org/2000/svg">
<path d="M55.5078 12.6992C55.4453 13.4023 55.2812 14.0352 55.0156 14.5977C54.7578 15.1602 54.4141 15.6406 53.9844 16.0391C53.5625 16.4375 53.0625 16.7422 52.4844 16.9531C51.9062 17.1641 51.2734 17.2695 50.5859 17.2695C48.9141 17.2695 47.5703 16.6914 46.5547 15.5352C45.5781 14.4648 45.0898 13.082 45.0898 11.3867C45.0898 9.66797 45.5859 8.24219 46.5781 7.10938C47.5547 5.99219 48.8906 5.43359 50.5859 5.43359C51.2266 5.43359 51.8125 5.52344 52.3438 5.70312C52.875 5.875 53.3633 6.13672 53.8086 6.48828C54.2773 6.86328 54.6445 7.30859 54.9102 7.82422C55.1758 8.33203 55.3438 8.90234 55.4141 9.53516H53.0586C53.0195 9.24609 52.9258 8.97656 52.7773 8.72656C52.6367 8.47656 52.4531 8.26562 52.2266 8.09375C52.0078 7.91406 51.7578 7.77344 51.4766 7.67188C51.1953 7.57031 50.8984 7.51953 50.5859 7.51953C50.0703 7.51953 49.6172 7.62109 49.2266 7.82422C48.8438 8.01953 48.5117 8.31641 48.2305 8.71484C48.0039 9.06641 47.832 9.46484 47.7148 9.91016C47.5977 10.3555 47.5391 10.8477 47.5391 11.3867C47.5391 11.918 47.5977 12.3984 47.7148 12.8281C47.832 13.2578 48.0039 13.6484 48.2305 14C48.7852 14.7812 49.5703 15.1719 50.5859 15.1719C52.0859 15.1719 52.9414 14.3477 53.1523 12.6992H55.5078ZM62.1406 10.7656C62.0469 10.7344 61.9336 10.7148 61.8008 10.707C61.6758 10.6914 61.5352 10.6836 61.3789 10.6836C59.9023 10.6836 59.1641 11.5742 59.1641 13.3555V17H56.9609V8.82031H59.0703V10.332H59.0938C59.5781 9.19141 60.4102 8.62109 61.5898 8.62109C61.6758 8.62109 61.7656 8.625 61.8594 8.63281C61.9531 8.64062 62.0469 8.65234 62.1406 8.66797V10.7656ZM64.8477 13.4492C64.8945 14.8398 65.5664 15.5352 66.8633 15.5352C67.0742 15.5352 67.2695 15.5078 67.4492 15.4531C67.6367 15.3906 67.8008 15.3086 67.9414 15.207C68.0898 15.1055 68.2109 14.9883 68.3047 14.8555C68.4062 14.7227 68.4805 14.582 68.5273 14.4336H70.5898C70.1289 16.2852 68.8555 17.2109 66.7695 17.2109C66.1445 17.2109 65.5781 17.1094 65.0703 16.9062C64.5625 16.6953 64.1289 16.4023 63.7695 16.0273C63.4102 15.6523 63.1328 15.2031 62.9375 14.6797C62.7422 14.1484 62.6445 13.5625 62.6445 12.9219C62.6445 11.6719 63.0273 10.6406 63.793 9.82812C64.5898 9.00781 65.582 8.59766 66.7695 8.59766C68.1133 8.59766 69.1445 9.09375 69.8633 10.0859C70.5352 10.9688 70.8242 12.0898 70.7305 13.4492H64.8477ZM68.5039 12.0312C68.3789 10.8672 67.7852 10.2852 66.7227 10.2852C66.1133 10.2852 65.625 10.4922 65.2578 10.9062C65.0078 11.2266 64.8711 11.6016 64.8477 12.0312H68.5039ZM77.3047 17C77.1953 16.8281 77.1406 16.5625 77.1406 16.2031C76.5234 16.875 75.6172 17.2109 74.4219 17.2109C74.0234 17.2109 73.6562 17.1602 73.3203 17.0586C72.9844 16.957 72.6953 16.8047 72.4531 16.6016C72.2109 16.3906 72.0234 16.1328 71.8906 15.8281C71.7578 15.5234 71.6914 15.1719 71.6914 14.7734C71.6914 13.3672 72.6016 12.5352 74.4219 12.2773C75.0156 12.1914 75.4648 12.1289 75.7695 12.0898C76.0742 12.0508 76.2344 12.0234 76.25 12.0078C76.7812 11.8672 77.0469 11.5938 77.0469 11.1875C77.0469 10.4531 76.5664 10.0859 75.6055 10.0859C74.7227 10.0859 74.2344 10.5117 74.1406 11.3633H71.9609C72.0312 9.51953 73.2695 8.59766 75.6758 8.59766C78.0742 8.59766 79.2734 9.39844 79.2734 11V15.582C79.2734 16.3633 79.3711 16.8359 79.5664 17H77.3047ZM77.0469 12.9922C76.8594 13.1641 76.4805 13.2852 75.9102 13.3555C75.5586 13.418 75.2695 13.4727 75.043 13.5195C74.8242 13.5664 74.6602 13.6133 74.5508 13.6602C74.1133 13.8633 73.8945 14.1992 73.8945 14.668C73.8945 15.3711 74.3438 15.7227 75.2422 15.7227C76.4453 15.7227 77.0469 15.0938 77.0469 13.8359V12.9922ZM85.4492 17.0234C85.0586 17.0703 84.6094 17.0938 84.1016 17.0938C82.4219 17.0938 81.582 16.4297 81.582 15.1016V10.3086H80.2344V8.82031H81.582V6.34766H83.7852V8.82031H85.4492V10.3086H83.7852V14.3633C83.7852 14.8008 83.8828 15.0781 84.0781 15.1953C84.2031 15.2812 84.418 15.3242 84.7227 15.3242C84.9805 15.3242 85.2227 15.2969 85.4492 15.2422V17.0234ZM88.332 13.4492C88.3789 14.8398 89.0508 15.5352 90.3477 15.5352C90.5586 15.5352 90.7539 15.5078 90.9336 15.4531C91.1211 15.3906 91.2852 15.3086 91.4258 15.207C91.5742 15.1055 91.6953 14.9883 91.7891 14.8555C91.8906 14.7227 91.9648 14.582 92.0117 14.4336H94.0742C93.6133 16.2852 92.3398 17.2109 90.2539 17.2109C89.6289 17.2109 89.0625 17.1094 88.5547 16.9062C88.0469 16.6953 87.6133 16.4023 87.2539 16.0273C86.8945 15.6523 86.6172 15.2031 86.4219 14.6797C86.2266 14.1484 86.1289 13.5625 86.1289 12.9219C86.1289 11.6719 86.5117 10.6406 87.2773 9.82812C88.0742 9.00781 89.0664 8.59766 90.2539 8.59766C91.5977 8.59766 92.6289 9.09375 93.3477 10.0859C94.0195 10.9688 94.3086 12.0898 94.2148 13.4492H88.332ZM91.9883 12.0312C91.8633 10.8672 91.2695 10.2852 90.207 10.2852C89.5977 10.2852 89.1094 10.4922 88.7422 10.9062C88.4922 11.2266 88.3555 11.6016 88.332 12.0312H91.9883ZM101.316 17V15.9688H101.293C100.801 16.7969 99.9688 17.2109 98.7969 17.2109C97.6328 17.2109 96.7305 16.7656 96.0898 15.875C95.793 15.4609 95.5664 15.0039 95.4102 14.5039C95.2539 13.9961 95.1758 13.4375 95.1758 12.8281C95.1758 12.2344 95.2539 11.6992 95.4102 11.2227C95.5664 10.7383 95.793 10.2969 96.0898 9.89844C96.7305 9.03125 97.6172 8.59766 98.75 8.59766C99.8672 8.59766 100.684 8.97266 101.199 9.72266H101.223V5.69141H103.402V17H101.316ZM101.293 12.875C101.293 11.1484 100.645 10.2852 99.3477 10.2852C98.0352 10.2852 97.3789 11.1562 97.3789 12.8984C97.3789 13.2578 97.418 13.5859 97.4961 13.8828C97.582 14.1797 97.7031 14.4492 97.8594 14.6914C98.2266 15.2539 98.7227 15.5352 99.3477 15.5352C100.645 15.5352 101.293 14.6484 101.293 12.875ZM119.258 12.8984C119.258 14.2969 118.898 15.3906 118.18 16.1797C117.867 16.5312 117.512 16.793 117.113 16.9648C116.723 17.1289 116.293 17.2109 115.824 17.2109C114.574 17.2109 113.711 16.8047 113.234 15.9922H113.211V17H111.102V5.69141H113.305V9.75781H113.352C113.602 9.36719 113.941 9.07812 114.371 8.89062C114.801 8.69531 115.309 8.59766 115.895 8.59766C116.801 8.59766 117.562 8.94141 118.18 9.62891C118.898 10.4336 119.258 11.5234 119.258 12.8984ZM117.078 12.9219C117.078 12.5469 117.035 12.1992 116.949 11.8789C116.863 11.5508 116.738 11.2695 116.574 11.0352C116.41 10.8008 116.207 10.6172 115.965 10.4844C115.73 10.3516 115.461 10.2852 115.156 10.2852C114.844 10.2852 114.566 10.3516 114.324 10.4844C114.09 10.6172 113.891 10.8008 113.727 11.0352C113.562 11.2695 113.438 11.5508 113.352 11.8789C113.273 12.1992 113.234 12.5469 113.234 12.9219C113.234 13.2969 113.27 13.6328 113.34 13.9297C113.418 14.2266 113.535 14.4883 113.691 14.7148C114.043 15.2617 114.531 15.5352 115.156 15.5352C115.766 15.5352 116.246 15.2617 116.598 14.7148C116.754 14.4727 116.871 14.2031 116.949 13.9062C117.035 13.6094 117.078 13.2812 117.078 12.9219ZM124.766 18.0312C124.305 19.2656 123.344 19.8828 121.883 19.8828C121.414 19.8828 120.965 19.8594 120.535 19.8125V17.9141C120.691 17.9531 120.836 17.9805 120.969 17.9961C121.109 18.0195 121.246 18.0312 121.379 18.0312C122.246 18.0312 122.68 17.6953 122.68 17.0234C122.68 16.9375 122.672 16.8516 122.656 16.7656C122.641 16.6797 122.613 16.5898 122.574 16.4961L119.75 8.82031H122.07L123.922 14.3633H123.945L125.703 8.82031H128.105L124.766 18.0312Z" fill="#173053"/>
<path d="M200.048 19C200.792 19 201.536 18.856 202.232 18.544C202.928 18.256 203.552 17.824 204.08 17.296C205.184 16.192 205.784 14.752 205.784 13.216C205.784 11.68 205.184 10.24 204.08 9.16C203.72 8.776 203.288 8.464 202.832 8.2C203.096 7.624 203.264 6.976 203.264 6.28C203.264 5.128 202.784 4 201.968 3.208C201.176 2.392 200.048 1.912 198.896 1.912H192.56V19H200.048ZM195.752 15.856V10.624H200.048C201.44 10.648 202.592 11.824 202.592 13.216C202.592 14.632 201.44 15.808 200.024 15.856H195.752ZM195.752 7.48V5.056H198.872C199.544 5.104 200.072 5.632 200.072 6.28C200.072 6.928 199.544 7.48 198.872 7.48H195.752ZM212.73 19.264C213.787 19.24 214.723 18.976 215.587 18.472H215.611C215.971 18.28 216.307 17.992 216.571 17.752L216.931 17.44L214.939 15.712L214.675 15.928C214.219 16.312 213.451 16.744 212.755 16.792H212.73C211.483 16.792 210.355 15.712 210.043 14.224L210.019 14.056H218.083C218.083 13.888 218.083 13.696 218.083 13.504C218.083 12.952 218.035 12.472 217.915 12.016C217.675 11.032 217.195 10.168 216.571 9.496C216.139 8.992 215.563 8.56 214.843 8.224C214.195 7.912 213.499 7.768 212.73 7.768C211.987 7.768 211.267 7.912 210.619 8.224C209.923 8.56 209.371 8.968 208.891 9.496C208.243 10.168 207.787 11.056 207.571 12.016C207.451 12.52 207.379 13.024 207.379 13.504C207.379 13.744 207.403 13.96 207.427 14.176C207.547 15.424 208.051 16.624 208.891 17.536C209.419 18.088 209.995 18.52 210.619 18.784C211.291 19.096 212.011 19.264 212.707 19.264H212.73ZM212.73 10.264C213.667 10.264 214.579 10.888 215.131 11.92L215.227 12.112H210.259L210.355 11.92C210.859 10.912 211.795 10.264 212.73 10.264ZM225.408 19V5.08H229.608V1.912H217.992V5.08H222.192V19H225.408ZM235.262 19.216C236.126 19.216 237.11 19.096 237.974 18.256L238.094 18.136V19H240.998V8.008H238.094V8.968L237.974 8.872C237.182 8.152 236.27 7.792 235.262 7.792C233.726 7.792 232.286 8.368 231.206 9.448C230.126 10.552 229.526 11.992 229.526 13.504C229.526 15.016 230.126 16.456 231.206 17.56C232.31 18.64 233.75 19.216 235.262 19.216ZM235.262 10.6C236.798 10.6 238.094 11.944 238.094 13.504C238.094 15.088 236.798 16.408 235.262 16.408C233.726 16.408 232.43 15.088 232.43 13.504C232.43 11.944 233.726 10.6 235.262 10.6ZM248.012 19.096C248.732 19.096 249.452 18.952 250.004 18.688C250.7 18.352 251.18 17.92 251.54 17.416C251.9 16.912 252.092 16.288 252.092 15.592C252.092 14.92 251.924 14.296 251.564 13.792C251.324 13.48 251.036 13.168 250.364 12.784C250.028 12.64 249.5 12.448 247.868 12.064C246.62 11.776 246.38 11.536 246.38 11.2C246.38 11.032 246.548 10.768 246.86 10.6C247.124 10.48 247.412 10.432 247.724 10.432C248.156 10.432 248.876 10.552 249.716 11.224L250.052 11.488L251.756 9.52L251.396 9.232C250.532 8.56 249.476 8.104 248.42 7.936C248.18 7.912 247.916 7.888 247.652 7.888C246.908 7.888 246.284 8.008 245.732 8.272C245.06 8.608 244.604 8.968 244.292 9.424C243.908 9.976 243.716 10.576 243.716 11.2C243.716 11.8 243.86 12.328 244.148 12.808C244.436 13.288 244.844 13.672 245.348 13.96C245.732 14.176 246.548 14.44 247.844 14.704C249.26 14.944 249.428 15.304 249.428 15.592C249.428 15.928 249.26 16.168 248.9 16.312C248.612 16.456 248.324 16.504 247.916 16.504C247.364 16.504 246.5 16.336 245.444 15.448L245.108 15.136L243.308 17.128L243.668 17.416C244.556 18.208 245.684 18.736 246.884 18.976C247.316 19.048 247.676 19.096 248.012 19.096ZM265.713 19L260.313 11.944L264.441 8.008H260.193L257.169 10.912V1.384H254.049V19H257.169V15.136L258.153 14.128L261.969 19H265.713Z" fill="#173053"/>
<path fill-rule="evenodd" clip-rule="evenodd" d="M147.419 0C149.807 0 152.197 0 154.586 0C154.603 0.0969403 154.501 0.235652 154.426 0.366482C152.105 4.37413 149.736 8.49528 147.419 12.5258C149.8 16.7005 152.27 20.9084 154.608 25.0508C152.221 25.0508 149.83 25.0508 147.442 25.0508C144.915 20.9289 142.502 16.695 140 12.5479C142.456 8.34869 144.938 4.17395 147.419 0Z" fill="#1B447C"/>
<path fill-rule="evenodd" clip-rule="evenodd" d="M171.391 0C169.002 0 166.614 0 164.224 0C164.206 0.0969403 164.308 0.235652 164.384 0.366482C166.704 4.37413 169.073 8.49528 171.391 12.5258C169.01 16.7005 166.54 20.9084 164.201 25.0508C166.59 25.0508 168.98 25.0508 171.369 25.0508C173.894 20.9289 176.309 16.695 178.811 12.5479C176.355 8.34869 173.872 4.17395 171.391 0Z" fill="#1B447C"/>
<path fill-rule="evenodd" clip-rule="evenodd" d="M164.224 0L166.742 4.44901L154.608 25.0508L152.164 20.7673L164.224 0Z" fill="#173154"/>
</svg>
