<svg width="56" height="63" viewBox="0 0 56 63" fill="none" xmlns="http://www.w3.org/2000/svg">
<rect width="45" height="57" rx="5" fill="#EBE1DC"/>
<path d="M4 0H40C42.7614 0 45 2.23858 45 5V48C45 50.7614 42.7614 53 40 53H9C6.23858 53 4 50.7614 4 48V0Z" fill="#FFF5F5"/>
<circle cx="10.6718" cy="8.16934" r="3.31192" fill="#017297"/>
<circle cx="10.6718" cy="19.5033" r="3.31192" fill="#017297"/>
<circle cx="10.6718" cy="30.8373" r="3.31192" fill="#017297"/>
<circle cx="10.6718" cy="42.1718" r="3.31192" fill="#017297"/>
<rect x="17" y="41" width="25" height="2" rx="1" fill="#017297"/>
<circle cx="41.73" cy="49.6787" r="13.3213" fill="#017297"/>
<ellipse cx="41.8038" cy="49.9734" rx="11.3341" ry="11.2605" fill="#EEF5F6"/>
<rect x="34.7383" y="47.6914" width="13.6893" height="4.56308" rx="2.28154" fill="#FE646F"/>
<rect x="36.5049" y="47.6914" width="11.9229" height="4.56308" rx="2.28154" fill="#FD8087"/>
<path d="M30.175 49.6787C30.175 60.9277 41.508 62.9991 41.6564 62.9999C34.3399 62.9999 28.4087 57.0358 28.4087 49.6787C28.4087 42.3216 34.3399 36.3574 41.6564 36.3574C41.6564 36.3574 30.175 38.7256 30.175 49.6787Z" fill="#025F80"/>
<path d="M33.4524 49.9734C33.4524 59.4823 41.6769 61.2332 41.8038 61.2339C35.5442 61.2339 30.4697 56.1924 30.4697 49.9734C30.4697 43.7544 35.5442 38.7129 41.8038 38.7129C41.8038 38.7129 33.4524 40.7148 33.4524 49.9734Z" fill="#DEDBEE"/>
<rect x="17" y="19" width="25" height="2" rx="1" fill="#017297"/>
<rect x="17" y="7" width="16" height="2" rx="1" fill="#017297"/>
<rect x="34" y="7" width="8" height="2" rx="1" fill="#017297"/>
<rect x="17" y="30" width="7" height="2" rx="1" fill="#017297"/>
<rect x="25" y="30" width="17" height="2" rx="1" fill="#017297"/>
</svg>
