<svg width="114" height="136" viewBox="0 0 114 136" fill="none" xmlns="http://www.w3.org/2000/svg">
<path d="M31.2701 97.0666C13.1301 84.6966 9.67011 43.4866 29.2701 24.9966C49.9901 5.44662 113.5 22.3966 113.93 55.9966C114.36 89.5966 49.6601 109.607 31.2701 97.0666Z" fill="#E1F3FF"/>
<path d="M72.71 121.697C72.71 121.697 78.26 96.4968 106.21 96.4868C106.21 96.4868 104.57 121.277 75.96 122.487L72.71 121.697Z" fill="#1B437C"/>
<g style="mix-blend-mode:soft-light">
<path d="M106.21 96.4868L72.71 121.697L76.98 121.577C76.98 121.577 101.22 120.727 106.21 96.4868Z" fill="#1B437C"/>
</g>
<path d="M45.91 129.096C45.91 129.096 18.04 130.096 0 100.726C0 100.726 24.91 90.1564 52.64 121.236L45.91 129.096Z" fill="#1B437C"/>
<g style="mix-blend-mode:soft-light">
<path d="M2.4502 101.707L46.7802 124.557L40.4702 127.307C40.4702 127.307 15.3302 125.977 2.4502 101.707Z" fill="#BDE0FF"/>
</g>
<path d="M44.85 105.946C44.85 105.946 44.73 84.0964 26.32 81.0864C26.32 81.0864 22.6 102.246 44.85 105.946Z" fill="#1B437C"/>
<g style="mix-blend-mode:soft-light">
<path d="M26.32 81.0864L44.43 104.386C44.43 104.386 26.09 104.486 26.32 81.0864Z" fill="#BDE0FF"/>
</g>
<path d="M67.3999 16.1465L81.7399 16.7665L81.3699 21.4565L68.1399 20.9865L67.3999 16.1465Z" fill="#F0BC5E"/>
<path d="M29.77 43.9667L35.7 50.4767L38.03 47.7867L32.43 41.6167L29.77 43.9667Z" fill="#6877FF"/>
<path d="M104.78 78.7767C104.785 78.6901 104.785 78.6033 104.78 78.5167L108.4 78.2367C108.478 75.9256 107.742 73.6605 106.32 71.8367L103.44 73.6067C102.739 72.3401 101.786 71.2311 100.638 70.3487C99.4908 69.4662 98.1742 68.829 96.7702 68.4767L97.5102 65.4767C95.3381 64.6966 92.9623 64.6966 90.7902 65.4767L91.5302 68.4767C90.1271 68.8312 88.8115 69.4692 87.6643 70.3515C86.5172 71.2338 85.5629 72.3416 84.8602 73.6067L81.9802 71.8367C80.5683 73.6657 79.8333 75.9271 79.9002 78.2367L83.5302 78.5167C83.525 78.6033 83.525 78.6901 83.5302 78.7767C83.5224 81.4458 84.5265 84.0186 86.3402 85.9767L83.2802 88.5867C84.5735 90.4969 86.4945 91.8943 88.7102 92.5367L90.3002 88.6867C92.7841 89.6464 95.5364 89.6464 98.0202 88.6867L99.6102 92.5367C101.828 91.8926 103.751 90.4958 105.05 88.5867L101.98 85.9767C103.789 84.0165 104.79 81.4442 104.78 78.7767ZM95.6002 82.8567C95.1365 83.0302 94.6453 83.1183 94.1502 83.1167C93.0323 83.1023 91.9609 82.6666 91.1502 81.8967C90.3562 81.1349 89.8869 80.0961 89.8402 78.9967C89.8352 78.9235 89.8352 78.85 89.8402 78.7767C89.8388 78.1319 89.986 77.4955 90.2702 76.9167C90.5331 76.3502 90.9176 75.8487 91.3964 75.4477C91.8751 75.0467 92.4364 74.7561 93.0402 74.5967C93.4101 74.487 93.7943 74.4331 94.1802 74.4367C94.566 74.4338 94.9501 74.4877 95.3202 74.5967C95.924 74.7561 96.4853 75.0467 96.964 75.4477C97.4428 75.8487 97.8273 76.3502 98.0902 76.9167C98.3744 77.4955 98.5216 78.1319 98.5202 78.7767C98.5252 78.85 98.5252 78.9235 98.5202 78.9967C98.4735 80.0961 98.0042 81.1349 97.2102 81.8967C96.7551 82.337 96.2039 82.6657 95.6002 82.8567Z" fill="url(#paint0_linear_2268:2372)"/>
<path d="M104.77 75.8568V75.5968L108.39 75.3168C108.464 73.0063 107.728 70.7426 106.31 68.9168L103.43 70.6868C102.727 69.4217 101.773 68.3139 100.626 67.4316C99.4789 66.5493 98.1633 65.9113 96.7602 65.5568L97.5002 62.5568C95.3242 61.7792 92.9461 61.7792 90.7702 62.5568L91.5102 65.5568C90.1089 65.9125 88.7952 66.5511 87.6499 67.4333C86.5045 68.3156 85.5518 69.4227 84.8502 70.6868L81.9602 68.9168C80.5483 70.7458 79.8133 73.0072 79.8802 75.3168L83.5102 75.5968V75.8568C83.5023 78.5258 84.5065 81.0987 86.3202 83.0568L83.2502 85.6768C84.5533 87.5818 86.4753 88.9774 88.6902 89.6268L90.2802 85.7668C92.764 86.7265 95.5163 86.7265 98.0002 85.7668L99.5902 89.6268C101.805 88.9774 103.727 87.5818 105.03 85.6768L101.96 83.0568C103.774 81.0987 104.778 78.5258 104.77 75.8568ZM95.6002 79.9368C95.1371 80.1125 94.6454 80.2006 94.1502 80.1968C93.6513 80.2043 93.1557 80.1161 92.6902 79.9368C92.0991 79.7302 91.5647 79.3876 91.1302 78.9368C90.3362 78.175 89.8669 77.1361 89.8202 76.0368C89.8152 75.9636 89.8152 75.89 89.8202 75.8168C89.8154 75.1728 89.9591 74.5363 90.2402 73.9568C90.5054 73.3919 90.8906 72.8917 91.369 72.491C91.8474 72.0903 92.4075 71.7988 93.0102 71.6368C93.7586 71.4236 94.5517 71.4236 95.3002 71.6368C95.9028 71.7988 96.4629 72.0903 96.9413 72.491C97.4197 72.8917 97.805 73.3919 98.0702 73.9568C98.3544 74.5356 98.5015 75.172 98.5002 75.8168C98.51 75.8898 98.51 75.9638 98.5002 76.0368C98.4535 77.1361 97.9842 78.175 97.1902 78.9368C96.7488 79.3938 96.2032 79.7369 95.6002 79.9368Z" fill="url(#paint1_linear_2268:2372)"/>
<path d="M88.3601 88.9366C86.6306 88.3295 85.1202 87.2228 84.0201 85.7566L87.1301 83.1066L86.7301 82.6766C85.0133 80.8212 84.0629 78.3845 84.0701 75.8566C84.0654 75.7834 84.0654 75.7099 84.0701 75.6366V75.0766L80.3901 74.7966C80.4419 72.9632 81.0256 71.1843 82.0701 69.6766L85.0001 71.4766L85.2901 70.9666C85.9529 69.7675 86.8549 68.7173 87.9404 67.8813C89.0259 67.0453 90.2715 66.4412 91.6001 66.1066L92.1401 65.9666L91.3901 62.8866C92.2353 62.6251 93.1154 62.4936 94.0001 62.4966C94.9378 62.497 95.8706 62.6317 96.7701 62.8966L96.0301 65.9666L96.5701 66.1066C97.9005 66.44 99.1482 67.0435 100.235 67.8796C101.323 68.7156 102.226 69.7664 102.89 70.9666L103.18 71.4766L106.12 69.6666C107.159 71.179 107.733 72.9623 107.77 74.7966L104.11 75.0766V75.6366C104.115 75.7099 104.115 75.7834 104.11 75.8566C104.115 78.3858 103.161 80.8227 101.44 82.6766L101.04 83.1066L104.17 85.7666C103.06 87.2249 101.543 88.3212 99.8101 88.9166L98.2101 85.0366L97.6901 85.2466C95.3378 86.1536 92.7324 86.1536 90.3801 85.2466L89.8701 85.0366L88.3601 88.9366ZM94.1401 70.9366C93.6971 70.9334 93.2559 70.994 92.8301 71.1166C91.798 71.4041 90.8879 72.0206 90.2381 72.8725C89.5883 73.7245 89.2344 74.7652 89.2301 75.8366C89.2301 75.9466 89.2301 76.0566 89.2301 76.1566C89.2962 77.3762 89.8256 78.5244 90.7101 79.3666C91.2103 79.8589 91.8154 80.2315 92.4801 80.4566C93.5415 80.8503 94.7088 80.8503 95.7701 80.4566C96.431 80.2296 97.0324 79.8571 97.5301 79.3666C98.4226 78.5054 98.9521 77.3355 99.0101 76.0966C99.0171 76.0134 99.0171 75.9298 99.0101 75.8466C99.0167 75.1144 98.8487 74.3911 98.5201 73.7366C98.1274 72.8996 97.5037 72.1923 96.7224 71.698C95.941 71.2037 95.0347 70.943 94.1101 70.9466L94.1401 70.9366Z" fill="url(#paint2_linear_2268:2372)"/>
<path d="M105.03 85.6768V88.5868C103.75 90.5142 101.819 91.9163 99.5898 92.5368V89.6268C101.702 88.7812 103.572 87.4239 105.03 85.6768Z" fill="url(#paint3_linear_2268:2372)"/>
<path d="M88.6902 89.6268V92.5368C86.4912 91.8608 84.5804 90.4708 83.2603 88.5868V85.6768C83.2603 85.6768 85.6002 88.8468 88.6902 89.6268Z" fill="url(#paint4_linear_2268:2372)"/>
<path d="M108.39 75.3164V78.2364L104.77 78.5164V75.5964L108.39 75.3164Z" fill="url(#paint5_linear_2268:2372)"/>
<path d="M97.2102 65.6866L97.5002 65.4366V62.5166L96.7603 65.5566L97.2102 65.6866Z" fill="url(#paint6_linear_2268:2372)"/>
<path d="M90.77 62.5166L90.78 65.4366L91.06 65.6866L91.51 65.5566L90.77 62.5166Z" fill="url(#paint7_linear_2268:2372)"/>
<path d="M79.8799 75.3164L79.8899 78.2364L83.5199 78.5164L83.5099 75.5964L79.8799 75.3164Z" fill="url(#paint8_linear_2268:2372)"/>
<path style="mix-blend-mode:multiply" d="M88.6899 92.5366V89.6266L90.2799 85.7666V88.6866L88.6899 92.5366Z" fill="url(#paint9_linear_2268:2372)"/>
<path style="mix-blend-mode:multiply" d="M98 88.6866V85.7666L99.59 89.6266V92.2466L98 88.6866Z" fill="url(#paint10_linear_2268:2372)"/>
<path d="M110.4 47.4365L104.41 51.0665L102.02 46.5265L108.56 42.7065L110.4 47.4365Z" fill="#4F31E0"/>
<path d="M56.2498 0.586591C49.5898 -1.97341 44.0798 4.42659 44.6698 8.58659C45.2598 12.7466 58.5598 11.0166 60.2298 8.95659C61.8998 6.89659 58.0898 1.29659 56.2498 0.586591Z" fill="#E1F3FF"/>
<path d="M85.3197 114.886C86.3197 112.006 87.0097 105.136 85.3197 100.886L81.2197 106.576C80.8239 103.733 79.8286 101.006 78.2997 98.5764L81.4097 96.4364C79.9498 93.7075 77.7164 91.4706 74.9897 90.0064L72.9897 92.9264C70.6094 91.1919 67.8792 89.9974 64.9897 89.4264L65.6097 86.1264C62.6459 85.2313 59.4836 85.2313 56.5197 86.1264L57.1397 89.4264C54.2476 89.9945 51.5162 91.1929 49.1397 92.9364L47.1397 90.0064C44.4196 91.4828 42.1861 93.7163 40.7097 96.4364L43.8397 98.5764C42.3035 101.004 41.3044 103.731 40.9097 106.576L36.8197 105.816C35.9429 108.78 35.9429 111.933 36.8197 114.896L41.2597 114.066C41.889 116.774 43.074 119.321 44.7397 121.546L40.7397 124.296C42.2176 127.013 44.451 129.243 47.1697 130.716L50.0597 126.486C52.3227 127.966 54.865 128.967 57.5297 129.426L56.5297 134.616C59.4965 135.492 62.653 135.492 65.6197 134.616L64.6197 129.446C67.2843 128.976 69.8276 127.976 72.0997 126.506L74.9797 130.716C77.7014 129.25 79.9334 127.018 81.3997 124.296L77.3997 121.546C79.0634 119.321 80.2452 116.774 80.8697 114.066L85.3197 114.886ZM68.2197 115.246C67.5478 116.062 66.7432 116.758 65.8397 117.306C64.8421 117.906 63.739 118.31 62.5897 118.496C62.088 118.585 61.5793 118.629 61.0697 118.626C60.5569 118.629 60.0449 118.585 59.5397 118.496C58.395 118.311 57.2956 117.911 56.2997 117.316C54.9283 116.498 53.7938 115.336 53.0082 113.945C52.2226 112.555 51.813 110.984 51.8197 109.386C51.8197 109.136 51.8197 108.866 51.8197 108.626C51.9257 107.292 52.3179 105.996 52.9697 104.826C53.5861 103.762 54.4008 102.825 55.3697 102.066C56.4856 101.208 57.7813 100.613 59.1597 100.326C60.3969 100.073 61.6726 100.073 62.9097 100.326C64.2882 100.613 65.5839 101.208 66.6997 102.066C67.6658 102.825 68.4771 103.762 69.0897 104.826C69.7491 105.993 70.1451 107.29 70.2497 108.626C70.2497 108.866 70.2497 109.136 70.2497 109.386C70.2519 110.274 70.1239 111.156 69.8697 112.006C69.5392 113.185 68.9784 114.286 68.2197 115.246Z" fill="#C18C2C"/>
<path d="M85.3301 109.957C86.053 107.516 86.1934 104.941 85.7401 102.437C85.6415 101.907 85.5045 101.386 85.3301 100.877L81.2401 101.647C80.8401 98.8043 79.8451 96.0783 78.32 93.6466L81.43 91.5166C80.9685 90.601 80.3977 89.7448 79.7301 88.9666C78.4356 87.3645 76.8299 86.0412 75.0101 85.0766L73.0101 87.9966C70.6304 86.2627 67.8997 85.0715 65.0101 84.5066L65.63 81.1966C62.6647 80.3114 59.5054 80.3114 56.5401 81.1966L57.16 84.5066C54.2681 85.0698 51.5364 86.2649 49.16 88.0066L47.16 85.0766C44.4422 86.5572 42.2122 88.7942 40.74 91.5166L43.8701 93.6466C42.3302 96.0719 41.3308 98.8004 40.94 101.647L36.85 100.877C36.4731 102.049 36.2578 103.266 36.21 104.497C36.0777 106.341 36.2948 108.193 36.85 109.957L41.2901 109.137C41.9201 111.842 43.1014 114.388 44.7601 116.617L40.7601 119.367C41.3834 120.548 42.1712 121.636 43.1 122.597C44.2572 123.894 45.6395 124.971 47.18 125.777L50.08 121.547C52.3437 123.027 54.8854 124.031 57.55 124.497L56.55 129.667C59.5154 130.552 62.6747 130.552 65.6401 129.667L64.6401 124.507C66.3695 124.199 68.0507 123.664 69.6401 122.917C70.4819 122.52 71.297 122.069 72.0801 121.567L74.97 125.777C77.6931 124.317 79.926 122.087 81.3901 119.367L77.3901 116.617C79.0596 114.394 80.245 111.846 80.87 109.137L85.3301 109.957ZM68.2301 110.317C67.5543 111.135 66.7465 111.835 65.84 112.387C64.8442 112.981 63.7448 113.381 62.6 113.567C61.5919 113.753 60.5582 113.753 59.55 113.567C58.4999 113.409 57.4849 113.07 56.55 112.567L56.3 112.437C55.3923 111.882 54.5844 111.179 53.91 110.357C53.1338 109.402 52.5528 108.305 52.2001 107.127L52.14 106.907C51.9343 106.12 51.8301 105.31 51.83 104.497C51.83 104.247 51.83 103.977 51.83 103.737C51.9824 101.561 52.9249 99.5158 54.4801 97.9866C54.7631 97.6983 55.0637 97.4278 55.38 97.1766C56.4915 96.3107 57.7889 95.715 59.1701 95.4366C59.7856 95.312 60.412 95.2483 61.0401 95.2466C61.373 95.2244 61.7071 95.2244 62.0401 95.2466C62.35 95.2466 62.65 95.3366 62.96 95.3866C64.3338 95.669 65.6239 96.2644 66.7301 97.1266C67.6999 97.8867 68.5176 98.8231 69.1401 99.8866C69.7862 101.058 70.178 102.353 70.2901 103.687C70.2901 103.927 70.2901 104.197 70.2901 104.447C70.2866 105.337 70.1587 106.222 69.91 107.077C69.82 107.387 69.7001 107.697 69.5801 107.997C69.2445 108.831 68.7898 109.613 68.2301 110.317Z" fill="#FFFED6"/>
<g style="mix-blend-mode:soft-light">
<path d="M56.6001 112.527L44.7801 116.617C43.1214 114.389 41.9401 111.842 41.3101 109.137L36.8701 109.957C36.3148 108.193 36.0977 106.341 36.2301 104.497L54.5601 97.9468C53.0049 99.476 52.0624 101.521 51.9101 103.697C51.9101 103.937 51.9101 104.207 51.9101 104.457C51.9101 105.27 52.0143 106.08 52.2201 106.867L52.2801 107.087C52.6328 108.265 53.2138 109.363 53.9901 110.317C54.6644 111.139 55.4724 111.842 56.3801 112.397L56.6001 112.527Z" fill="white"/>
</g>
<g style="mix-blend-mode:soft-light">
<path d="M69.9398 107.087C70.1884 106.232 70.3163 105.347 70.3198 104.457C70.3198 104.207 70.3198 103.937 70.3198 103.697C70.2078 102.363 69.816 101.068 69.1698 99.8965C68.5474 98.833 67.7297 97.8967 66.7598 97.1365C65.6537 96.2744 64.3636 95.6789 62.9898 95.3965C62.6798 95.3465 62.3798 95.2865 62.0698 95.2565L79.7598 88.9365C80.4274 89.7147 80.9982 90.571 81.4598 91.4865L78.3498 93.6165C79.8749 96.0482 80.8699 98.7742 81.2698 101.617L85.3598 100.847C85.5343 101.356 85.6713 101.877 85.7698 102.407L69.5998 108.007C69.7298 107.707 69.8498 107.397 69.9398 107.087Z" fill="white"/>
</g>
<path d="M61.1398 129.247C60.0274 129.254 58.9175 129.14 57.8298 128.907L58.8298 123.617L57.6998 123.427C55.2018 122.985 52.82 122.039 50.6998 120.647L49.7798 120.047L46.8298 124.337C45.0122 123.128 43.455 121.567 42.2498 119.747L46.3898 116.917L45.6898 115.977C44.1138 113.879 42.9964 111.474 42.4098 108.917L42.1598 107.917L37.6698 108.757C37.2298 106.616 37.2298 104.408 37.6698 102.267L41.9198 103.067L42.0798 101.887C42.4396 99.1898 43.3813 96.6034 44.8398 94.3066L45.4298 93.3866L42.2398 91.2266C43.441 89.3971 45.0029 87.8318 46.8298 86.6266L48.9098 89.6266L49.8498 88.9366C52.0929 87.2858 54.6754 86.1551 57.4098 85.6266L58.5098 85.4166L57.8698 82.0166C58.9203 81.7831 59.9938 81.669 61.0698 81.6766C62.1789 81.6699 63.2854 81.7839 64.3698 82.0166L63.7298 85.4166L64.8298 85.6266C67.5662 86.1533 70.1516 87.2803 72.3998 88.9266L73.3398 89.6166L75.4098 86.6166C77.2416 87.8201 78.8043 89.3897 79.9998 91.2266L76.8298 93.3866L77.4098 94.3066C78.8562 96.613 79.7969 99.1999 80.1698 101.897L80.3298 103.067L84.5798 102.267C85.0298 104.407 85.0298 106.617 84.5798 108.757L80.0798 107.917L79.8398 108.977C79.2497 111.53 78.1325 113.931 76.5598 116.027L75.8598 116.967L79.9998 119.807C78.8034 121.635 77.2404 123.194 75.4098 124.387L72.4798 120.107L71.5598 120.707C70.8184 121.183 70.0468 121.611 69.2498 121.987C67.7437 122.696 66.1496 123.2 64.5098 123.487L63.3798 123.677L64.3798 128.967C63.3135 129.179 62.2268 129.273 61.1398 129.247ZM61.0698 94.1166C60.3643 94.12 59.6608 94.1937 58.9698 94.3366C57.4212 94.6484 55.9662 95.316 54.7198 96.2866C53.6335 97.1348 52.7203 98.1839 52.0298 99.3766C51.2975 100.691 50.8575 102.147 50.7398 103.647C50.7239 103.93 50.7239 104.214 50.7398 104.497C50.741 105.408 50.8587 106.315 51.0898 107.197C51.0898 107.337 51.1498 107.417 51.1698 107.477C51.5616 108.788 52.2109 110.009 53.0798 111.067C53.8333 111.987 54.7358 112.775 55.7498 113.397C56.8766 114.061 58.1181 114.509 59.4098 114.717C59.9708 114.818 60.5398 114.868 61.1098 114.867C61.6898 114.867 62.2686 114.817 62.8398 114.717C64.1237 114.509 65.3559 114.058 66.4698 113.387C67.482 112.77 68.3844 111.99 69.1398 111.077C70.6535 109.217 71.4831 106.894 71.4898 104.497C71.4898 104.217 71.4898 103.907 71.4898 103.637C71.3672 102.144 70.9274 100.695 70.1998 99.3866C69.5104 98.1903 68.5971 97.1378 67.5098 96.2866C66.2635 95.316 64.8085 94.6484 63.2598 94.3366C62.5406 94.1755 61.8068 94.0883 61.0698 94.0766V94.1166Z" fill="#F0BC5E"/>
<path d="M81.4298 91.4868L81.4198 96.4068L80.2898 97.1868L78.3198 93.6268L81.4298 91.4868Z" fill="#955E24"/>
<path d="M81.42 124.246V119.316C81.42 119.316 78.5 123.966 75 125.736V130.666C75 130.666 79.97 128.246 81.42 124.246Z" fill="#955E24"/>
<path d="M40.7002 124.246V119.316C42.1782 122.029 44.4072 124.258 47.1202 125.736V130.666C47.1202 130.666 43.7202 129.506 40.7002 124.246Z" fill="#955E24"/>
<path d="M36.8098 114.886V109.966C36.0379 106.986 36.0379 103.857 36.8098 100.876C35.0666 105.384 35.0666 110.379 36.8098 114.886Z" fill="#955E24"/>
<path d="M40.7002 96.4068L40.7102 91.4868L43.8402 93.6268L41.8402 97.1868L40.7002 96.4068Z" fill="#955E24"/>
<path d="M56.5303 83.7965V81.1665L57.1503 84.4665H56.6503L56.5303 83.7965Z" fill="url(#paint11_linear_2268:2372)"/>
<path d="M65.6102 81.1665V83.7965L65.4702 84.5665L64.9902 84.4665L65.6102 81.1665Z" fill="url(#paint12_linear_2268:2372)"/>
<path style="mix-blend-mode:multiply" opacity="0.62" d="M75.0001 130.706L75.0101 125.776L72.1301 121.566L72.1201 126.496L75.0001 130.706Z" fill="url(#paint13_linear_2268:2372)"/>
<path style="mix-blend-mode:multiply" opacity="0.62" d="M80.8799 114.056L80.8899 109.126L85.3299 109.966L85.3199 114.886L80.8799 114.056Z" fill="url(#paint14_linear_2268:2372)"/>
<path style="mix-blend-mode:multiply" opacity="0.62" d="M50.0199 126.487L50.0299 121.557L47.1299 125.777V130.707L50.0199 126.487Z" fill="url(#paint15_linear_2268:2372)"/>
<path style="mix-blend-mode:multiply" opacity="0.62" d="M41.25 114.056V109.126L36.8201 109.966L36.8101 114.886L41.25 114.056Z" fill="url(#paint16_linear_2268:2372)"/>
<g style="mix-blend-mode:multiply" opacity="0.86">
<path d="M64.6499 124.507L65.6499 129.667C62.4399 131.137 57.7499 129.997 56.5599 129.667L57.5599 124.497C54.8953 124.031 52.3535 123.028 50.0899 121.547L47.1899 125.777C45.6493 124.971 44.2671 123.894 43.1099 122.597L52.1999 106.867L52.2599 107.087C52.6126 108.265 53.1936 109.363 53.9699 110.317C55.3785 112.066 57.3902 113.225 59.6099 113.567C60.618 113.753 61.6518 113.753 62.6599 113.567C63.8046 113.381 64.904 112.981 65.8999 112.387C66.8063 111.835 67.6142 111.135 68.2899 110.317L69.7399 122.917C68.1221 123.672 66.4101 124.207 64.6499 124.507Z" fill="#C99AC7"/>
</g>
<path d="M65.5998 129.677V134.607C65.5998 134.607 62.3198 136.177 56.5098 134.607V129.677C59.5034 130.34 62.6061 130.34 65.5998 129.677Z" fill="#955E24"/>
<path d="M82.4601 53.3064C82.5121 47.6167 80.8538 42.0425 77.7002 37.3064L74.6001 36.8664L73.8401 49.8664C72.0092 51.8262 69.5847 53.1298 66.9401 53.5764C64.4881 52.4897 62.4609 50.6276 61.1702 48.2764L63.6601 35.4364L60.6001 35.0864C56.3582 38.903 53.3677 43.9117 52.0201 49.4564C52.0201 49.4564 51.5601 52.4564 51.6101 52.7364C51.8501 54.4264 53.5101 57.2364 58.4301 59.9264L55.1301 101.406C53.2281 102.407 51.6949 103.989 50.7536 105.921C49.8122 107.853 49.5119 110.036 49.8961 112.15C50.2804 114.265 51.3293 116.202 52.8902 117.679C54.4511 119.157 56.4427 120.098 58.5753 120.366C60.7079 120.634 62.8703 120.214 64.748 119.168C66.6257 118.122 68.1208 116.505 69.0159 114.551C69.911 112.597 70.1594 110.408 69.7249 108.303C69.2904 106.198 68.1958 104.286 66.6001 102.846L73.6702 61.8464C78.9802 60.4864 81.3301 58.2564 82.0601 56.5664C82.2001 56.2464 82.4601 53.3064 82.4601 53.3064ZM62.0301 115.546L56.4202 114.846L54.2302 109.636L57.6401 105.136L63.2501 105.846L65.4401 111.046L62.0301 115.546Z" fill="url(#paint17_linear_2268:2372)"/>
<path d="M82.0501 56.5865C82.1021 50.8968 80.4438 45.3226 77.2901 40.5865L74.2201 40.1965L73.4601 53.2465C71.6224 55.2029 69.1961 56.5056 66.5501 56.9565C64.099 55.8634 62.0726 53.9986 60.7801 51.6465L63.2701 38.8165L60.2001 38.4265C55.9635 42.2263 52.9672 47.2121 51.6001 52.7365C51.6001 52.7365 52.1701 60.0265 58.0001 63.2165L54.7101 104.697C52.8034 105.693 51.2647 107.272 50.3181 109.204C49.3716 111.136 49.0667 113.32 49.4479 115.437C49.8291 117.555 50.8764 119.495 52.4373 120.976C53.9982 122.456 55.9911 123.4 58.1256 123.669C60.2602 123.938 62.4248 123.518 64.3042 122.471C66.1835 121.424 67.6794 119.804 68.5738 117.847C69.4683 115.89 69.7146 113.699 69.2768 111.593C68.8391 109.486 67.7401 107.575 66.1401 106.137L73.2101 65.1365C79.6901 63.5065 82.0501 56.5865 82.0501 56.5865ZM61.6001 118.837L56.0001 118.127L53.8101 112.927L57.2201 108.427L62.8201 109.127L65.0201 114.337L61.6001 118.837Z" fill="url(#paint18_linear_2268:2372)"/>
<path d="M60.6382 35.0821L60.2251 38.3662L63.2909 38.7519L63.7041 35.4678L60.6382 35.0821Z" fill="#E5E2FF"/>
<path d="M74.6421 36.8736L74.229 40.1577L77.2948 40.5434L77.708 37.2593L74.6421 36.8736Z" fill="#E5E2FF"/>
<path d="M56.4366 114.854L56.0234 118.138L61.6292 118.844L62.0424 115.559L56.4366 114.854Z" fill="#E5E2FF"/>
<path d="M60.08 67.7364L57.29 101.426C58.2901 102.105 59.437 102.537 60.6365 102.687C61.836 102.836 63.0539 102.699 64.19 102.286L70.19 69.0064C65.44 65.7864 60.08 67.7364 60.08 67.7364ZM63.08 101.856C62.2804 101.966 61.4697 101.966 60.67 101.856C59.9209 101.765 59.1895 101.563 58.5 101.256L60.94 68.0764C62.4254 67.8393 63.9364 67.809 65.43 67.9864C66.7681 68.1561 68.0728 68.5269 69.3 69.0864L63.08 101.856Z" fill="url(#paint19_linear_2268:2372)"/>
<path d="M63.04 101.856L64.19 102.286C63.0701 102.783 61.8363 102.965 60.6208 102.813C59.4053 102.662 58.2539 102.182 57.29 101.426L58.46 101.296C59.9068 101.898 61.4909 102.092 63.04 101.856Z" fill="#E5E2FF"/>
<path style="mix-blend-mode:multiply" opacity="0.62" d="M60.0801 67.7366L60.9001 68.1166C63.7244 67.6176 66.6332 67.9655 69.2601 69.1166L70.1501 68.9966C68.6764 68.0383 67.0048 67.4262 65.2608 67.2062C63.5167 66.9863 61.7455 67.1642 60.0801 67.7266V67.7366Z" fill="url(#paint20_linear_2268:2372)"/>
<path style="mix-blend-mode:multiply" opacity="0.62" d="M58.0302 63.2466C62.8907 65.0249 68.0896 65.6846 73.2402 65.1766L72.3402 70.4166C72.3402 70.4166 71.6102 67.2666 66.2402 66.3166C59.9602 65.2066 57.7002 69.3966 57.7002 69.3966L58.0302 63.2466Z" fill="url(#paint21_linear_2268:2372)"/>
<path style="mix-blend-mode:screen" opacity="0.5" d="M72.3401 70.3864C71.9153 69.3745 71.2241 68.4967 70.3401 67.8464L63.6001 106.756L66.1401 106.136L72.3401 70.3864Z" fill="url(#paint22_linear_2268:2372)"/>
<defs>
<linearGradient id="paint0_linear_2268:2372" x1="79.8802" y1="78.6967" x2="108.39" y2="78.6967" gradientUnits="userSpaceOnUse">
<stop stop-color="#3D2C97"/>
<stop offset="1" stop-color="#183683"/>
</linearGradient>
<linearGradient id="paint1_linear_2268:2372" x1="94.1302" y1="89.6268" x2="94.1302" y2="61.9368" gradientUnits="userSpaceOnUse">
<stop stop-color="#7459F1"/>
<stop offset="1" stop-color="#60B3F7"/>
</linearGradient>
<linearGradient id="paint2_linear_2268:2372" x1="7952.96" y1="3676.59" x2="7952.96" y2="2977.51" gradientUnits="userSpaceOnUse">
<stop stop-color="#744FD8"/>
<stop offset="1" stop-color="#3996F7"/>
</linearGradient>
<linearGradient id="paint3_linear_2268:2372" x1="1693.46" y1="1024.54" x2="1723.05" y2="1024.54" gradientUnits="userSpaceOnUse">
<stop stop-color="#3D2C97"/>
<stop offset="1" stop-color="#183683"/>
</linearGradient>
<linearGradient id="paint4_linear_2268:2372" x1="1585.47" y1="1024.54" x2="1615.01" y2="1024.54" gradientUnits="userSpaceOnUse">
<stop stop-color="#3D2C97"/>
<stop offset="1" stop-color="#183683"/>
</linearGradient>
<linearGradient id="paint5_linear_2268:2372" x1="1184.14" y1="474.26" x2="1197.25" y2="474.26" gradientUnits="userSpaceOnUse">
<stop stop-color="#3D2C97"/>
<stop offset="1" stop-color="#183683"/>
</linearGradient>
<linearGradient id="paint6_linear_2268:2372" x1="311.476" y1="417.082" x2="312.023" y2="417.082" gradientUnits="userSpaceOnUse">
<stop stop-color="#3D2C97"/>
<stop offset="1" stop-color="#183683"/>
</linearGradient>
<linearGradient id="paint7_linear_2268:2372" x1="301.053" y1="417.082" x2="301.601" y2="417.082" gradientUnits="userSpaceOnUse">
<stop stop-color="#3D2C97"/>
<stop offset="1" stop-color="#183683"/>
</linearGradient>
<linearGradient id="paint8_linear_2268:2372" x1="1081.25" y1="479.38" x2="1081.25" y2="469.14" gradientUnits="userSpaceOnUse">
<stop stop-color="#3D2C97"/>
<stop offset="1" stop-color="#183683"/>
</linearGradient>
<linearGradient id="paint9_linear_2268:2372" x1="538.484" y1="1035.53" x2="538.484" y2="989.695" gradientUnits="userSpaceOnUse">
<stop stop-color="#8B8BE0"/>
<stop offset="1" stop-color="#A177B7"/>
</linearGradient>
<linearGradient id="paint10_linear_2268:2372" x1="562.581" y1="992.966" x2="562.581" y2="950.976" gradientUnits="userSpaceOnUse">
<stop stop-color="#8B8BE0"/>
<stop offset="1" stop-color="#A177B7"/>
</linearGradient>
<linearGradient id="paint11_linear_2268:2372" x1="56.8403" y1="84.4665" x2="56.8403" y2="81.1665" gradientUnits="userSpaceOnUse">
<stop stop-color="#3D2CB0"/>
<stop offset="1" stop-color="#0355C7"/>
</linearGradient>
<linearGradient id="paint12_linear_2268:2372" x1="225.383" y1="531.056" x2="225.383" y2="519.496" gradientUnits="userSpaceOnUse">
<stop stop-color="#3D2CB0"/>
<stop offset="1" stop-color="#0355C7"/>
</linearGradient>
<linearGradient id="paint13_linear_2268:2372" x1="843.638" y1="1752.69" x2="843.638" y2="1669.15" gradientUnits="userSpaceOnUse">
<stop stop-color="#8B8BE0"/>
<stop offset="1" stop-color="#A177B7"/>
</linearGradient>
<linearGradient id="paint14_linear_2268:2372" x1="1311.31" y1="1045.93" x2="1311.31" y2="1012.75" gradientUnits="userSpaceOnUse">
<stop stop-color="#8B8BE0"/>
<stop offset="1" stop-color="#A177B7"/>
</linearGradient>
<linearGradient id="paint15_linear_2268:2372" x1="748.87" y1="1754.47" x2="748.87" y2="1670.74" gradientUnits="userSpaceOnUse">
<stop stop-color="#8B8BE0"/>
<stop offset="1" stop-color="#A177B7"/>
</linearGradient>
<linearGradient id="paint16_linear_2268:2372" x1="1068.8" y1="1045.93" x2="1068.8" y2="1012.75" gradientUnits="userSpaceOnUse">
<stop stop-color="#8B8BE0"/>
<stop offset="1" stop-color="#A177B7"/>
</linearGradient>
<linearGradient id="paint17_linear_2268:2372" x1="58.8083" y1="118.752" x2="68.9927" y2="34.7307" gradientUnits="userSpaceOnUse">
<stop stop-color="#DBCCFF"/>
<stop offset="1" stop-color="#D1BBFF"/>
</linearGradient>
<linearGradient id="paint18_linear_2268:2372" x1="58.4111" y1="122.029" x2="68.5955" y2="38.0077" gradientUnits="userSpaceOnUse">
<stop stop-color="#B5A6E7"/>
<stop offset="1" stop-color="#7760BF"/>
</linearGradient>
<linearGradient id="paint19_linear_2268:2372" x1="3406.39" y1="5409.48" x2="3406.39" y2="4135.92" gradientUnits="userSpaceOnUse">
<stop stop-color="#B5A6E7"/>
<stop offset="1" stop-color="#7760BF"/>
</linearGradient>
<linearGradient id="paint20_linear_2268:2372" x1="2569.04" y1="601.093" x2="2670.33" y2="613.37" gradientUnits="userSpaceOnUse">
<stop stop-color="#8B8BE0"/>
<stop offset="1" stop-color="#A177B7"/>
</linearGradient>
<linearGradient id="paint21_linear_2268:2372" x1="64.8672" y1="68.7671" x2="65.6052" y2="62.6786" gradientUnits="userSpaceOnUse">
<stop stop-color="white"/>
<stop offset="1" stop-color="#A177B7"/>
</linearGradient>
<linearGradient id="paint22_linear_2268:2372" x1="65.8214" y1="105.398" x2="70.5542" y2="66.3522" gradientUnits="userSpaceOnUse">
<stop/>
<stop offset="1" stop-color="white"/>
</linearGradient>
</defs>
</svg>
