<svg width="339" height="371" viewBox="0 0 339 371" fill="none" xmlns="http://www.w3.org/2000/svg">
<path d="M63.5078 357.699C63.4453 358.402 63.2812 359.035 63.0156 359.598C62.7578 360.16 62.4141 360.641 61.9844 361.039C61.5625 361.438 61.0625 361.742 60.4844 361.953C59.9062 362.164 59.2734 362.27 58.5859 362.27C56.9141 362.27 55.5703 361.691 54.5547 360.535C53.5781 359.465 53.0898 358.082 53.0898 356.387C53.0898 354.668 53.5859 353.242 54.5781 352.109C55.5547 350.992 56.8906 350.434 58.5859 350.434C59.2266 350.434 59.8125 350.523 60.3438 350.703C60.875 350.875 61.3633 351.137 61.8086 351.488C62.2773 351.863 62.6445 352.309 62.9102 352.824C63.1758 353.332 63.3438 353.902 63.4141 354.535H61.0586C61.0195 354.246 60.9258 353.977 60.7773 353.727C60.6367 353.477 60.4531 353.266 60.2266 353.094C60.0078 352.914 59.7578 352.773 59.4766 352.672C59.1953 352.57 58.8984 352.52 58.5859 352.52C58.0703 352.52 57.6172 352.621 57.2266 352.824C56.8438 353.02 56.5117 353.316 56.2305 353.715C56.0039 354.066 55.832 354.465 55.7148 354.91C55.5977 355.355 55.5391 355.848 55.5391 356.387C55.5391 356.918 55.5977 357.398 55.7148 357.828C55.832 358.258 56.0039 358.648 56.2305 359C56.7852 359.781 57.5703 360.172 58.5859 360.172C60.0859 360.172 60.9414 359.348 61.1523 357.699H63.5078ZM70.1406 355.766C70.0469 355.734 69.9336 355.715 69.8008 355.707C69.6758 355.691 69.5352 355.684 69.3789 355.684C67.9023 355.684 67.1641 356.574 67.1641 358.355V362H64.9609V353.82H67.0703V355.332H67.0938C67.5781 354.191 68.4102 353.621 69.5898 353.621C69.6758 353.621 69.7656 353.625 69.8594 353.633C69.9531 353.641 70.0469 353.652 70.1406 353.668V355.766ZM72.8477 358.449C72.8945 359.84 73.5664 360.535 74.8633 360.535C75.0742 360.535 75.2695 360.508 75.4492 360.453C75.6367 360.391 75.8008 360.309 75.9414 360.207C76.0898 360.105 76.2109 359.988 76.3047 359.855C76.4062 359.723 76.4805 359.582 76.5273 359.434H78.5898C78.1289 361.285 76.8555 362.211 74.7695 362.211C74.1445 362.211 73.5781 362.109 73.0703 361.906C72.5625 361.695 72.1289 361.402 71.7695 361.027C71.4102 360.652 71.1328 360.203 70.9375 359.68C70.7422 359.148 70.6445 358.562 70.6445 357.922C70.6445 356.672 71.0273 355.641 71.793 354.828C72.5898 354.008 73.582 353.598 74.7695 353.598C76.1133 353.598 77.1445 354.094 77.8633 355.086C78.5352 355.969 78.8242 357.09 78.7305 358.449H72.8477ZM76.5039 357.031C76.3789 355.867 75.7852 355.285 74.7227 355.285C74.1133 355.285 73.625 355.492 73.2578 355.906C73.0078 356.227 72.8711 356.602 72.8477 357.031H76.5039ZM85.3047 362C85.1953 361.828 85.1406 361.562 85.1406 361.203C84.5234 361.875 83.6172 362.211 82.4219 362.211C82.0234 362.211 81.6562 362.16 81.3203 362.059C80.9844 361.957 80.6953 361.805 80.4531 361.602C80.2109 361.391 80.0234 361.133 79.8906 360.828C79.7578 360.523 79.6914 360.172 79.6914 359.773C79.6914 358.367 80.6016 357.535 82.4219 357.277C83.0156 357.191 83.4648 357.129 83.7695 357.09C84.0742 357.051 84.2344 357.023 84.25 357.008C84.7812 356.867 85.0469 356.594 85.0469 356.188C85.0469 355.453 84.5664 355.086 83.6055 355.086C82.7227 355.086 82.2344 355.512 82.1406 356.363H79.9609C80.0312 354.52 81.2695 353.598 83.6758 353.598C86.0742 353.598 87.2734 354.398 87.2734 356V360.582C87.2734 361.363 87.3711 361.836 87.5664 362H85.3047ZM85.0469 357.992C84.8594 358.164 84.4805 358.285 83.9102 358.355C83.5586 358.418 83.2695 358.473 83.043 358.52C82.8242 358.566 82.6602 358.613 82.5508 358.66C82.1133 358.863 81.8945 359.199 81.8945 359.668C81.8945 360.371 82.3438 360.723 83.2422 360.723C84.4453 360.723 85.0469 360.094 85.0469 358.836V357.992ZM93.4492 362.023C93.0586 362.07 92.6094 362.094 92.1016 362.094C90.4219 362.094 89.582 361.43 89.582 360.102V355.309H88.2344V353.82H89.582V351.348H91.7852V353.82H93.4492V355.309H91.7852V359.363C91.7852 359.801 91.8828 360.078 92.0781 360.195C92.2031 360.281 92.418 360.324 92.7227 360.324C92.9805 360.324 93.2227 360.297 93.4492 360.242V362.023ZM96.332 358.449C96.3789 359.84 97.0508 360.535 98.3477 360.535C98.5586 360.535 98.7539 360.508 98.9336 360.453C99.1211 360.391 99.2852 360.309 99.4258 360.207C99.5742 360.105 99.6953 359.988 99.7891 359.855C99.8906 359.723 99.9648 359.582 100.012 359.434H102.074C101.613 361.285 100.34 362.211 98.2539 362.211C97.6289 362.211 97.0625 362.109 96.5547 361.906C96.0469 361.695 95.6133 361.402 95.2539 361.027C94.8945 360.652 94.6172 360.203 94.4219 359.68C94.2266 359.148 94.1289 358.562 94.1289 357.922C94.1289 356.672 94.5117 355.641 95.2773 354.828C96.0742 354.008 97.0664 353.598 98.2539 353.598C99.5977 353.598 100.629 354.094 101.348 355.086C102.02 355.969 102.309 357.09 102.215 358.449H96.332ZM99.9883 357.031C99.8633 355.867 99.2695 355.285 98.207 355.285C97.5977 355.285 97.1094 355.492 96.7422 355.906C96.4922 356.227 96.3555 356.602 96.332 357.031H99.9883ZM109.316 362V360.969H109.293C108.801 361.797 107.969 362.211 106.797 362.211C105.633 362.211 104.73 361.766 104.09 360.875C103.793 360.461 103.566 360.004 103.41 359.504C103.254 358.996 103.176 358.438 103.176 357.828C103.176 357.234 103.254 356.699 103.41 356.223C103.566 355.738 103.793 355.297 104.09 354.898C104.73 354.031 105.617 353.598 106.75 353.598C107.867 353.598 108.684 353.973 109.199 354.723H109.223V350.691H111.402V362H109.316ZM109.293 357.875C109.293 356.148 108.645 355.285 107.348 355.285C106.035 355.285 105.379 356.156 105.379 357.898C105.379 358.258 105.418 358.586 105.496 358.883C105.582 359.18 105.703 359.449 105.859 359.691C106.227 360.254 106.723 360.535 107.348 360.535C108.645 360.535 109.293 359.648 109.293 357.875ZM127.258 357.898C127.258 359.297 126.898 360.391 126.18 361.18C125.867 361.531 125.512 361.793 125.113 361.965C124.723 362.129 124.293 362.211 123.824 362.211C122.574 362.211 121.711 361.805 121.234 360.992H121.211V362H119.102V350.691H121.305V354.758H121.352C121.602 354.367 121.941 354.078 122.371 353.891C122.801 353.695 123.309 353.598 123.895 353.598C124.801 353.598 125.562 353.941 126.18 354.629C126.898 355.434 127.258 356.523 127.258 357.898ZM125.078 357.922C125.078 357.547 125.035 357.199 124.949 356.879C124.863 356.551 124.738 356.27 124.574 356.035C124.41 355.801 124.207 355.617 123.965 355.484C123.73 355.352 123.461 355.285 123.156 355.285C122.844 355.285 122.566 355.352 122.324 355.484C122.09 355.617 121.891 355.801 121.727 356.035C121.562 356.27 121.438 356.551 121.352 356.879C121.273 357.199 121.234 357.547 121.234 357.922C121.234 358.297 121.27 358.633 121.34 358.93C121.418 359.227 121.535 359.488 121.691 359.715C122.043 360.262 122.531 360.535 123.156 360.535C123.766 360.535 124.246 360.262 124.598 359.715C124.754 359.473 124.871 359.203 124.949 358.906C125.035 358.609 125.078 358.281 125.078 357.922ZM132.766 363.031C132.305 364.266 131.344 364.883 129.883 364.883C129.414 364.883 128.965 364.859 128.535 364.812V362.914C128.691 362.953 128.836 362.98 128.969 362.996C129.109 363.02 129.246 363.031 129.379 363.031C130.246 363.031 130.68 362.695 130.68 362.023C130.68 361.938 130.672 361.852 130.656 361.766C130.641 361.68 130.613 361.59 130.574 361.496L127.75 353.82H130.07L131.922 359.363H131.945L133.703 353.82H136.105L132.766 363.031Z" fill="#173053"/>
<path d="M208.048 364C208.792 364 209.536 363.856 210.232 363.544C210.928 363.256 211.552 362.824 212.08 362.296C213.184 361.192 213.784 359.752 213.784 358.216C213.784 356.68 213.184 355.24 212.08 354.16C211.72 353.776 211.288 353.464 210.832 353.2C211.096 352.624 211.264 351.976 211.264 351.28C211.264 350.128 210.784 349 209.968 348.208C209.176 347.392 208.048 346.912 206.896 346.912H200.56V364H208.048ZM203.752 360.856V355.624H208.048C209.44 355.648 210.592 356.824 210.592 358.216C210.592 359.632 209.44 360.808 208.024 360.856H203.752ZM203.752 352.48V350.056H206.872C207.544 350.104 208.072 350.632 208.072 351.28C208.072 351.928 207.544 352.48 206.872 352.48H203.752ZM220.73 364.264C221.787 364.24 222.723 363.976 223.587 363.472H223.611C223.971 363.28 224.307 362.992 224.571 362.752L224.931 362.44L222.939 360.712L222.675 360.928C222.219 361.312 221.451 361.744 220.755 361.792H220.73C219.483 361.792 218.355 360.712 218.043 359.224L218.019 359.056H226.083C226.083 358.888 226.083 358.696 226.083 358.504C226.083 357.952 226.035 357.472 225.915 357.016C225.675 356.032 225.195 355.168 224.571 354.496C224.139 353.992 223.563 353.56 222.843 353.224C222.195 352.912 221.499 352.768 220.73 352.768C219.987 352.768 219.267 352.912 218.619 353.224C217.923 353.56 217.371 353.968 216.891 354.496C216.243 355.168 215.787 356.056 215.571 357.016C215.451 357.52 215.379 358.024 215.379 358.504C215.379 358.744 215.403 358.96 215.427 359.176C215.547 360.424 216.051 361.624 216.891 362.536C217.419 363.088 217.995 363.52 218.619 363.784C219.291 364.096 220.011 364.264 220.707 364.264H220.73ZM220.73 355.264C221.667 355.264 222.579 355.888 223.131 356.92L223.227 357.112H218.259L218.355 356.92C218.859 355.912 219.795 355.264 220.73 355.264ZM233.408 364V350.08H237.608V346.912H225.992V350.08H230.192V364H233.408ZM243.262 364.216C244.126 364.216 245.11 364.096 245.974 363.256L246.094 363.136V364H248.998V353.008H246.094V353.968L245.974 353.872C245.182 353.152 244.27 352.792 243.262 352.792C241.726 352.792 240.286 353.368 239.206 354.448C238.126 355.552 237.526 356.992 237.526 358.504C237.526 360.016 238.126 361.456 239.206 362.56C240.31 363.64 241.75 364.216 243.262 364.216ZM243.262 355.6C244.798 355.6 246.094 356.944 246.094 358.504C246.094 360.088 244.798 361.408 243.262 361.408C241.726 361.408 240.43 360.088 240.43 358.504C240.43 356.944 241.726 355.6 243.262 355.6ZM256.012 364.096C256.732 364.096 257.452 363.952 258.004 363.688C258.7 363.352 259.18 362.92 259.54 362.416C259.9 361.912 260.092 361.288 260.092 360.592C260.092 359.92 259.924 359.296 259.564 358.792C259.324 358.48 259.036 358.168 258.364 357.784C258.028 357.64 257.5 357.448 255.868 357.064C254.62 356.776 254.38 356.536 254.38 356.2C254.38 356.032 254.548 355.768 254.86 355.6C255.124 355.48 255.412 355.432 255.724 355.432C256.156 355.432 256.876 355.552 257.716 356.224L258.052 356.488L259.756 354.52L259.396 354.232C258.532 353.56 257.476 353.104 256.42 352.936C256.18 352.912 255.916 352.888 255.652 352.888C254.908 352.888 254.284 353.008 253.732 353.272C253.06 353.608 252.604 353.968 252.292 354.424C251.908 354.976 251.716 355.576 251.716 356.2C251.716 356.8 251.86 357.328 252.148 357.808C252.436 358.288 252.844 358.672 253.348 358.96C253.732 359.176 254.548 359.44 255.844 359.704C257.26 359.944 257.428 360.304 257.428 360.592C257.428 360.928 257.26 361.168 256.9 361.312C256.612 361.456 256.324 361.504 255.916 361.504C255.364 361.504 254.5 361.336 253.444 360.448L253.108 360.136L251.308 362.128L251.668 362.416C252.556 363.208 253.684 363.736 254.884 363.976C255.316 364.048 255.676 364.096 256.012 364.096ZM273.713 364L268.313 356.944L272.441 353.008H268.193L265.169 355.912V346.384H262.049V364H265.169V360.136L266.153 359.128L269.969 364H273.713Z" fill="#173053"/>
<path fill-rule="evenodd" clip-rule="evenodd" d="M155.419 345C157.807 345 160.197 345 162.586 345C162.603 345.097 162.501 345.236 162.426 345.366C160.105 349.374 157.736 353.495 155.419 357.526C157.8 361.701 160.27 365.908 162.608 370.051C160.221 370.051 157.83 370.051 155.442 370.051C152.915 365.929 150.502 361.695 148 357.548C150.456 353.349 152.938 349.174 155.419 345Z" fill="#1B447C"/>
<path fill-rule="evenodd" clip-rule="evenodd" d="M179.39 345C177.002 345 174.613 345 172.224 345C172.205 345.097 172.308 345.236 172.384 345.366C174.704 349.374 177.073 353.495 179.39 357.526C177.009 361.701 174.539 365.908 172.201 370.051C174.59 370.051 176.979 370.051 179.369 370.051C181.894 365.929 184.309 361.695 186.81 357.548C184.354 353.349 181.872 349.174 179.39 345Z" fill="#1B447C"/>
<path fill-rule="evenodd" clip-rule="evenodd" d="M172.224 345L174.742 349.449L162.608 370.051L160.164 365.767L172.224 345Z" fill="#173154"/>
<path opacity="0.62" fill-rule="evenodd" clip-rule="evenodd" d="M339 183.359C339 255.404 226.661 302 154.905 302C120.46 302 87.4254 288.265 63.0647 263.814C38.7041 239.364 25.0124 206.201 25 171.617C25 99.5713 83.1965 9 154.905 9C226.614 9 339 111.361 339 183.359Z" fill="#1B437C"/>
<path fill-rule="evenodd" clip-rule="evenodd" d="M215.676 254.12L217.216 276.68L231.836 275.15L230.176 252.11L215.676 254.12Z" fill="url(#paint0_linear_2271:3633)"/>
<path fill-rule="evenodd" clip-rule="evenodd" d="M168.355 232.23L181.785 122.94L290.785 139.69L273.645 248.41L168.355 232.23Z" fill="url(#paint1_linear_2271:3633)"/>
<path fill-rule="evenodd" clip-rule="evenodd" d="M165.976 237.51L178.256 132.13L289.316 149.03L276.436 252.55C275.957 255.263 274.446 257.686 272.22 259.31C269.994 260.934 267.226 261.633 264.496 261.26L175.146 249.08C172.419 248.708 169.943 247.296 168.234 245.139C166.524 242.983 165.715 240.249 165.976 237.51Z" fill="url(#paint2_linear_2271:3633)"/>
<path fill-rule="evenodd" clip-rule="evenodd" d="M156.366 222.45L180.566 128.83L285.146 142.1L265.666 244.57C265.013 247.248 263.349 249.569 261.023 251.047C258.696 252.526 255.888 253.046 253.186 252.5L164.776 234.65C162.069 234.099 159.68 232.521 158.111 230.246C156.543 227.971 155.918 225.177 156.366 222.45Z" fill="url(#paint3_linear_2271:3633)"/>
<path fill-rule="evenodd" clip-rule="evenodd" d="M162.896 234.4L176.966 129.24L291.666 147.35L273.126 251.35C272.6 254.055 271.047 256.452 268.794 258.038C266.54 259.624 263.76 260.277 261.036 259.86L171.916 246.17C169.179 245.762 166.707 244.307 165.024 242.11C163.341 239.914 162.578 237.149 162.896 234.4Z" fill="url(#paint4_linear_2271:3633)"/>
<path fill-rule="evenodd" clip-rule="evenodd" d="M307.886 31.84C308.194 29.1005 307.428 26.3483 305.75 24.1612C304.072 21.974 301.612 20.5221 298.886 20.11L209.776 6.41999C207.049 5.99434 204.262 6.64345 202.004 8.23069C199.745 9.81793 198.19 12.2195 197.666 14.93L180.566 119.12L292.476 136.79L307.886 31.84ZM191.186 115.05C190.796 114.99 190.422 114.854 190.084 114.65C189.747 114.445 189.453 114.176 189.22 113.858C188.986 113.54 188.817 113.179 188.723 112.796C188.629 112.413 188.612 112.015 188.671 111.625C188.731 111.235 188.867 110.861 189.072 110.523C189.276 110.186 189.545 109.892 189.863 109.658C190.181 109.425 190.542 109.256 190.925 109.162C191.308 109.068 191.706 109.05 192.096 109.11C192.884 109.231 193.592 109.659 194.063 110.302C194.535 110.944 194.732 111.747 194.611 112.535C194.491 113.323 194.062 114.03 193.42 114.502C192.777 114.973 191.974 115.171 191.186 115.05ZM209.086 117.8C208.5 117.71 207.954 117.449 207.516 117.049C207.078 116.649 206.769 116.128 206.627 115.552C206.485 114.977 206.517 114.372 206.719 113.814C206.92 113.256 207.283 112.771 207.76 112.419C208.237 112.067 208.808 111.865 209.401 111.838C209.993 111.81 210.58 111.959 211.088 112.265C211.596 112.571 212.002 113.021 212.254 113.558C212.507 114.094 212.594 114.694 212.506 115.28C212.448 115.67 212.313 116.045 212.109 116.383C211.905 116.721 211.637 117.016 211.319 117.25C211.002 117.484 210.641 117.653 210.258 117.747C209.874 117.842 209.476 117.86 209.086 117.8ZM226.986 120.55C226.4 120.46 225.854 120.199 225.416 119.799C224.978 119.399 224.669 118.878 224.527 118.302C224.385 117.727 224.417 117.122 224.619 116.564C224.82 116.006 225.183 115.521 225.66 115.169C226.137 114.817 226.708 114.615 227.301 114.588C227.893 114.56 228.48 114.709 228.988 115.015C229.496 115.321 229.902 115.771 230.154 116.308C230.407 116.844 230.494 117.444 230.406 118.03C230.348 118.42 230.213 118.795 230.009 119.133C229.805 119.471 229.537 119.766 229.219 120C228.902 120.234 228.541 120.403 228.158 120.497C227.775 120.592 227.376 120.61 226.986 120.55ZM244.896 123.3C244.31 123.21 243.764 122.949 243.326 122.549C242.888 122.149 242.579 121.628 242.437 121.052C242.295 120.477 242.327 119.872 242.529 119.314C242.73 118.756 243.093 118.271 243.57 117.919C244.047 117.567 244.618 117.365 245.211 117.338C245.803 117.31 246.39 117.459 246.898 117.765C247.406 118.071 247.812 118.521 248.064 119.058C248.317 119.594 248.404 120.194 248.316 120.78C248.258 121.17 248.123 121.545 247.919 121.883C247.715 122.221 247.447 122.516 247.129 122.75C246.812 122.984 246.451 123.153 246.068 123.247C245.684 123.342 245.286 123.36 244.896 123.3ZM262.796 126.05C262.21 125.96 261.664 125.699 261.226 125.299C260.788 124.899 260.479 124.378 260.337 123.802C260.195 123.227 260.227 122.622 260.429 122.064C260.63 121.506 260.993 121.021 261.47 120.669C261.947 120.317 262.518 120.115 263.111 120.088C263.703 120.06 264.29 120.209 264.798 120.515C265.306 120.821 265.712 121.271 265.964 121.808C266.217 122.344 266.304 122.944 266.216 123.53C266.158 123.92 266.023 124.295 265.819 124.633C265.615 124.971 265.347 125.266 265.029 125.5C264.712 125.734 264.351 125.903 263.968 125.997C263.584 126.092 263.186 126.11 262.796 126.05ZM280.696 128.8C280.11 128.71 279.563 128.448 279.125 128.048C278.688 127.647 278.379 127.125 278.237 126.549C278.096 125.973 278.129 125.368 278.332 124.81C278.534 124.252 278.898 123.767 279.376 123.416C279.854 123.065 280.426 122.864 281.019 122.838C281.612 122.811 282.199 122.962 282.706 123.269C283.214 123.577 283.619 124.028 283.87 124.566C284.121 125.103 284.206 125.703 284.116 126.29C284.057 126.682 283.92 127.059 283.714 127.398C283.508 127.737 283.236 128.032 282.915 128.265C282.594 128.499 282.23 128.666 281.844 128.758C281.458 128.85 281.058 128.864 280.666 128.8H280.696Z" fill="url(#paint5_linear_2271:3633)"/>
<path fill-rule="evenodd" clip-rule="evenodd" d="M298.666 21.7796L209.526 8.08964C206.803 7.66934 204.023 8.31973 201.769 9.90443C199.515 11.4891 197.962 13.885 197.436 16.5896L191.086 55.2296L180.316 120.78L292.226 138.45L296.976 106.1L307.666 33.4996C307.971 30.7617 307.204 28.0121 305.527 25.8272C303.849 23.6422 301.39 22.1917 298.666 21.7796ZM194.366 114.19C194.276 114.776 194.014 115.323 193.612 115.761C193.211 116.198 192.689 116.507 192.112 116.648C191.535 116.789 190.93 116.755 190.372 116.551C189.814 116.348 189.33 115.983 188.979 115.504C188.629 115.024 188.429 114.452 188.404 113.859C188.379 113.266 188.531 112.678 188.84 112.171C189.149 111.665 189.602 111.261 190.14 111.011C190.679 110.762 191.28 110.678 191.866 110.77C192.647 110.897 193.346 111.329 193.81 111.969C194.275 112.61 194.468 113.408 194.346 114.19H194.366ZM212.266 116.95C212.175 117.535 211.911 118.081 211.51 118.517C211.108 118.953 210.586 119.261 210.01 119.4C209.434 119.54 208.829 119.506 208.273 119.303C207.716 119.099 207.232 118.735 206.882 118.257C206.531 117.778 206.331 117.207 206.305 116.614C206.28 116.022 206.43 115.436 206.738 114.929C207.046 114.422 207.496 114.017 208.034 113.767C208.571 113.516 209.17 113.43 209.756 113.52C210.541 113.645 211.244 114.077 211.711 114.72C212.178 115.363 212.37 116.165 212.246 116.95H212.266ZM230.176 119.7C230.085 120.285 229.821 120.831 229.42 121.267C229.018 121.703 228.496 122.011 227.92 122.15C227.344 122.29 226.739 122.256 226.183 122.053C225.626 121.849 225.142 121.485 224.792 121.007C224.441 120.528 224.241 119.957 224.215 119.364C224.19 118.772 224.34 118.186 224.648 117.679C224.955 117.172 225.406 116.767 225.944 116.517C226.481 116.266 227.08 116.18 227.666 116.27C228.451 116.395 229.154 116.827 229.621 117.47C230.088 118.113 230.28 118.915 230.156 119.7H230.176ZM248.076 122.45C247.986 123.036 247.725 123.583 247.324 124.021C246.923 124.458 246.402 124.767 245.826 124.909C245.249 125.05 244.644 125.017 244.086 124.814C243.529 124.612 243.044 124.248 242.693 123.77C242.341 123.292 242.14 122.72 242.114 122.127C242.088 121.534 242.238 120.947 242.546 120.44C242.853 119.932 243.304 119.527 243.842 119.276C244.38 119.025 244.98 118.94 245.566 119.03C246.349 119.155 247.05 119.585 247.517 120.226C247.983 120.867 248.177 121.666 248.056 122.45H248.076ZM265.976 125.19C265.886 125.776 265.624 126.323 265.222 126.761C264.821 127.198 264.299 127.507 263.722 127.648C263.145 127.789 262.54 127.755 261.982 127.551C261.424 127.348 260.94 126.983 260.589 126.504C260.239 126.024 260.039 125.452 260.014 124.859C259.989 124.266 260.141 123.678 260.45 123.171C260.759 122.665 261.212 122.261 261.75 122.011C262.289 121.762 262.89 121.678 263.476 121.77C264.257 121.897 264.956 122.329 265.42 122.969C265.885 123.61 266.078 124.408 265.956 125.19H265.976ZM283.886 127.95C283.795 128.535 283.532 129.08 283.131 129.517C282.73 129.953 282.209 130.261 281.633 130.401C281.058 130.542 280.453 130.508 279.897 130.306C279.34 130.103 278.856 129.74 278.505 129.263C278.154 128.785 277.952 128.215 277.925 127.623C277.899 127.031 278.048 126.444 278.354 125.937C278.66 125.429 279.109 125.024 279.645 124.772C280.182 124.52 280.78 124.432 281.366 124.52C281.756 124.581 282.129 124.718 282.466 124.923C282.802 125.128 283.095 125.398 283.327 125.717C283.559 126.035 283.726 126.396 283.819 126.779C283.911 127.163 283.928 127.56 283.866 127.95H283.886Z" fill="url(#paint6_linear_2271:3633)"/>
<path fill-rule="evenodd" clip-rule="evenodd" d="M176.966 129.24L181.986 127.86L286.986 142.4L291.626 147.35L176.966 129.24Z" fill="url(#paint7_linear_2271:3633)"/>
<path fill-rule="evenodd" clip-rule="evenodd" d="M189.116 137.36C189.055 137.757 188.916 138.139 188.708 138.482C188.499 138.826 188.225 139.125 187.901 139.363C187.577 139.601 187.209 139.772 186.819 139.868C186.428 139.963 186.023 139.981 185.626 139.92C185.229 139.859 184.847 139.72 184.504 139.512C184.16 139.303 183.861 139.029 183.623 138.705C183.385 138.381 183.214 138.013 183.118 137.623C183.023 137.233 183.005 136.827 183.066 136.43C183.189 135.628 183.626 134.907 184.281 134.427C184.935 133.947 185.754 133.747 186.556 133.87C187.358 133.993 188.079 134.43 188.559 135.085C189.039 135.739 189.239 136.558 189.116 137.36Z" fill="#D69A8D"/>
<path fill-rule="evenodd" clip-rule="evenodd" d="M207.346 140.16C207.274 140.644 207.087 141.104 206.8 141.501C206.514 141.898 206.137 142.22 205.7 142.441C205.263 142.662 204.78 142.775 204.29 142.77C203.801 142.766 203.32 142.644 202.887 142.415C202.454 142.186 202.083 141.856 201.804 141.454C201.525 141.052 201.347 140.589 201.284 140.103C201.221 139.618 201.276 139.124 201.443 138.664C201.61 138.204 201.886 137.791 202.246 137.46C202.711 137.031 203.298 136.757 203.926 136.676C204.554 136.594 205.191 136.71 205.751 137.006C206.31 137.302 206.764 137.764 207.049 138.329C207.335 138.894 207.439 139.534 207.346 140.16Z" fill="#D69A8D"/>
<path fill-rule="evenodd" clip-rule="evenodd" d="M225.566 142.96C225.506 143.354 225.368 143.732 225.162 144.073C224.955 144.414 224.684 144.711 224.362 144.947C224.041 145.182 223.676 145.353 223.289 145.448C222.902 145.543 222.5 145.56 222.106 145.5C221.712 145.44 221.334 145.302 220.993 145.096C220.652 144.889 220.356 144.617 220.12 144.296C219.884 143.975 219.714 143.61 219.619 143.223C219.524 142.836 219.506 142.434 219.566 142.04C219.671 141.36 219.998 140.734 220.496 140.26C220.829 139.935 221.233 139.692 221.676 139.55C222.119 139.408 222.589 139.371 223.049 139.442C223.508 139.512 223.945 139.689 224.325 139.958C224.705 140.227 225.017 140.58 225.236 140.99C225.568 141.59 225.685 142.285 225.566 142.96Z" fill="#D69A8D"/>
<path fill-rule="evenodd" clip-rule="evenodd" d="M243.806 145.76C243.6 146.475 243.141 147.091 242.514 147.492C241.888 147.893 241.136 148.052 240.401 147.939C239.665 147.826 238.996 147.449 238.519 146.879C238.041 146.308 237.787 145.584 237.806 144.84C237.903 144.213 238.193 143.632 238.635 143.177C239.077 142.722 239.649 142.415 240.273 142.3C240.897 142.185 241.541 142.266 242.117 142.533C242.692 142.8 243.171 143.239 243.486 143.79C243.814 144.391 243.927 145.086 243.806 145.76Z" fill="#D69A8D"/>
<path fill-rule="evenodd" clip-rule="evenodd" d="M262.036 148.57C261.831 149.286 261.371 149.902 260.743 150.304C260.115 150.705 259.363 150.863 258.626 150.749C257.89 150.635 257.221 150.256 256.744 149.684C256.267 149.111 256.016 148.385 256.036 147.64C256.131 147.012 256.418 146.43 256.859 145.973C257.301 145.517 257.873 145.21 258.497 145.094C259.121 144.978 259.766 145.06 260.341 145.329C260.916 145.597 261.394 146.038 261.706 146.59C262.04 147.192 262.157 147.891 262.036 148.57Z" fill="#D69A8D"/>
<path fill-rule="evenodd" clip-rule="evenodd" d="M280.266 151.37C280.06 152.086 279.6 152.702 278.973 153.104C278.345 153.505 277.592 153.663 276.856 153.549C276.12 153.435 275.45 153.056 274.973 152.484C274.497 151.911 274.245 151.185 274.266 150.44C274.471 149.724 274.931 149.107 275.559 148.706C276.187 148.305 276.939 148.146 277.676 148.26C278.412 148.374 279.081 148.753 279.558 149.326C280.035 149.898 280.287 150.625 280.266 151.37Z" fill="#D69A8D"/>
<path fill-rule="evenodd" clip-rule="evenodd" d="M188.746 135.39C188.407 135.704 188.002 135.937 187.56 136.072C187.118 136.207 186.652 136.241 186.196 136.17C185.741 136.102 185.308 135.931 184.93 135.669C184.552 135.407 184.239 135.062 184.016 134.66C184.348 134.337 184.752 134.096 185.194 133.955C185.635 133.814 186.104 133.777 186.562 133.848C187.021 133.919 187.456 134.095 187.835 134.362C188.214 134.63 188.526 134.982 188.746 135.39Z" fill="#AC5E63"/>
<path fill-rule="evenodd" clip-rule="evenodd" d="M206.976 138.19C206.64 138.507 206.235 138.743 205.792 138.879C205.35 139.014 204.882 139.045 204.426 138.97C203.971 138.902 203.538 138.73 203.16 138.469C202.782 138.207 202.469 137.862 202.246 137.46C202.579 137.137 202.982 136.895 203.424 136.754C203.866 136.614 204.334 136.577 204.793 136.648C205.251 136.719 205.687 136.895 206.066 137.162C206.444 137.43 206.756 137.781 206.976 138.19Z" fill="#AC5E63"/>
<path fill-rule="evenodd" clip-rule="evenodd" d="M225.206 140.99C224.873 141.315 224.469 141.558 224.026 141.7C223.583 141.842 223.113 141.879 222.654 141.808C222.194 141.738 221.757 141.561 221.377 141.292C220.998 141.023 220.685 140.67 220.466 140.26C220.799 139.935 221.203 139.692 221.646 139.55C222.088 139.408 222.558 139.371 223.018 139.442C223.478 139.512 223.915 139.689 224.294 139.958C224.674 140.227 224.986 140.58 225.206 140.99Z" fill="#AC5E63"/>
<path fill-rule="evenodd" clip-rule="evenodd" d="M243.436 143.79C243.104 144.113 242.701 144.355 242.26 144.497C241.819 144.639 241.35 144.676 240.892 144.606C240.434 144.536 239.998 144.361 239.619 144.095C239.239 143.828 238.927 143.478 238.706 143.07C239.038 142.747 239.441 142.505 239.882 142.363C240.324 142.222 240.792 142.184 241.25 142.254C241.708 142.324 242.144 142.499 242.524 142.765C242.903 143.032 243.215 143.383 243.436 143.79Z" fill="#AC5E63"/>
<path fill-rule="evenodd" clip-rule="evenodd" d="M261.666 146.59C261.333 146.913 260.931 147.155 260.489 147.297C260.048 147.438 259.58 147.476 259.122 147.406C258.663 147.336 258.227 147.161 257.848 146.895C257.469 146.628 257.156 146.277 256.936 145.87C257.268 145.547 257.67 145.305 258.112 145.163C258.553 145.021 259.021 144.984 259.48 145.054C259.938 145.123 260.374 145.298 260.753 145.565C261.132 145.832 261.445 146.182 261.666 146.59Z" fill="#AC5E63"/>
<path fill-rule="evenodd" clip-rule="evenodd" d="M279.896 149.39C279.562 149.708 279.159 149.945 278.718 150.082C278.278 150.219 277.812 150.252 277.356 150.18C276.898 150.111 276.461 149.937 276.081 149.672C275.701 149.406 275.388 149.057 275.166 148.65C275.498 148.326 275.901 148.084 276.342 147.943C276.784 147.801 277.252 147.764 277.71 147.833C278.168 147.903 278.604 148.078 278.983 148.345C279.363 148.611 279.675 148.962 279.896 149.37V149.39Z" fill="#AC5E63"/>
<path d="M174.671 160.098L174.575 160.72L282.708 177.325L282.803 176.702L174.671 160.098Z" fill="#E54D98"/>
<path d="M171.894 170.765L171.799 171.387L279.931 187.992L280.027 187.369L171.894 170.765Z" fill="#C9A4AC"/>
<path d="M171.345 181.769L171.249 182.392L279.382 198.997L279.477 198.374L171.345 181.769Z" fill="#C9A4AC"/>
<path d="M169.677 192.605L169.581 193.228L277.714 209.833L277.809 209.21L169.677 192.605Z" fill="#C9A4AC"/>
<path d="M168.017 203.452L167.922 204.074L276.054 220.679L276.15 220.056L168.017 203.452Z" fill="#C9A4AC"/>
<path d="M166.408 214.302L166.305 214.924L272.981 232.718L273.084 232.096L166.408 214.302Z" fill="#C9A4AC"/>
<path d="M271.666 241.3L164.646 225.77L164.736 225.14L271.755 240.67L271.666 241.3Z" fill="#C9A4AC"/>
<path d="M165.927 236.409L165.834 237.032L269.867 252.524L269.96 251.901L165.927 236.409Z" fill="#C9A4AC"/>
<path d="M267.72 143.678L247.965 257.811L248.586 257.918L268.341 143.785L267.72 143.678Z" fill="#E54D98"/>
<path d="M277.506 150.75C277.357 150.745 277.211 150.711 277.076 150.65C276.897 150.571 276.747 150.439 276.647 150.272C276.547 150.104 276.501 149.91 276.517 149.715C276.532 149.521 276.608 149.336 276.733 149.186C276.858 149.036 277.027 148.929 277.216 148.88C277.466 148.55 278.286 147.08 279.276 141.2C280.616 133.37 280.276 129.43 279.486 128.37C279.416 128.26 279.346 128.21 279.326 128.21C279.095 128.153 278.895 128.011 278.764 127.814C278.632 127.616 278.58 127.377 278.616 127.142C278.652 126.908 278.775 126.696 278.96 126.547C279.145 126.399 279.379 126.325 279.616 126.34C279.901 126.388 280.174 126.495 280.416 126.653C280.659 126.811 280.866 127.018 281.026 127.26C282.726 129.62 282.026 136.32 281.146 141.52C279.756 149.71 278.546 150.35 278.096 150.59C277.915 150.69 277.712 150.745 277.506 150.75Z" fill="#11002D"/>
<path d="M259.226 147.94C259.078 147.942 258.931 147.911 258.796 147.85C258.575 147.736 258.405 147.544 258.318 147.311C258.231 147.078 258.234 146.821 258.326 146.59C258.383 146.463 258.467 146.351 258.573 146.261C258.678 146.171 258.802 146.105 258.936 146.07C259.186 145.74 259.996 144.27 260.996 138.4C262.326 130.56 261.996 126.63 261.206 125.56C261.126 125.45 261.066 125.4 261.046 125.4C260.914 125.393 260.784 125.359 260.666 125.299C260.548 125.239 260.443 125.155 260.359 125.053C260.275 124.95 260.214 124.831 260.178 124.703C260.143 124.575 260.135 124.441 260.155 124.31C260.174 124.179 260.221 124.054 260.292 123.942C260.363 123.83 260.457 123.734 260.568 123.66C260.678 123.587 260.802 123.537 260.933 123.515C261.064 123.492 261.198 123.497 261.326 123.53C261.612 123.579 261.884 123.686 262.127 123.844C262.369 124.002 262.577 124.208 262.736 124.45C264.446 126.81 263.736 133.51 262.866 138.71C261.466 146.9 260.266 147.54 259.806 147.79C259.628 147.886 259.429 147.938 259.226 147.94Z" fill="#11002D"/>
<path d="M241.666 145.65C241.577 145.664 241.485 145.664 241.396 145.65C241.162 145.567 240.967 145.401 240.848 145.183C240.73 144.965 240.697 144.711 240.756 144.47C241.597 141.569 242.265 138.62 242.756 135.64C243.545 131.14 244.046 126.594 244.256 122.03C244.274 121.777 244.387 121.54 244.572 121.367C244.758 121.195 245.002 121.099 245.256 121.1C245.509 121.117 245.746 121.231 245.918 121.416C246.091 121.602 246.187 121.846 246.186 122.1C245.973 126.731 245.465 131.343 244.666 135.91C244.175 138.966 243.508 141.991 242.666 144.97C242.596 145.177 242.461 145.355 242.28 145.478C242.1 145.601 241.884 145.661 241.666 145.65Z" fill="#11002D"/>
<path d="M222.966 142.77C222.712 142.754 222.472 142.642 222.298 142.456C222.123 142.27 222.026 142.025 222.026 141.77C222.12 138.67 222.387 135.579 222.826 132.51C223.434 127.893 224.339 123.32 225.536 118.82C225.607 118.58 225.769 118.377 225.989 118.257C226.208 118.137 226.466 118.109 226.706 118.18C226.946 118.25 227.149 118.413 227.269 118.632C227.389 118.851 227.417 119.11 227.346 119.35C226.172 123.779 225.277 128.278 224.666 132.82C224.233 135.802 223.973 138.807 223.886 141.82C223.875 142.063 223.775 142.293 223.606 142.468C223.436 142.643 223.209 142.75 222.966 142.77Z" fill="#11002D"/>
<path d="M186.226 136.72C186.072 136.717 185.919 136.683 185.778 136.619C185.637 136.555 185.511 136.464 185.406 136.35C185.036 135.99 184.076 135.01 185.216 126.78C185.926 121.55 187.276 114.95 189.606 113.21C189.833 113.028 190.095 112.894 190.375 112.817C190.655 112.74 190.948 112.72 191.236 112.76C191.368 112.768 191.497 112.804 191.614 112.865C191.731 112.926 191.834 113.01 191.916 113.113C191.999 113.216 192.059 113.335 192.093 113.462C192.127 113.59 192.135 113.723 192.114 113.853C192.094 113.984 192.047 114.108 191.976 114.22C191.905 114.331 191.811 114.426 191.701 114.499C191.592 114.572 191.468 114.621 191.338 114.644C191.208 114.666 191.074 114.662 190.946 114.63C190.871 114.642 190.802 114.677 190.746 114.73C189.686 115.52 188.166 119.17 187.086 127.04C186.276 132.94 186.616 134.59 186.756 134.98C186.917 135.088 187.04 135.242 187.11 135.422C187.181 135.602 187.194 135.799 187.15 135.987C187.105 136.174 187.004 136.344 186.861 136.474C186.717 136.603 186.538 136.685 186.346 136.71L186.226 136.72Z" fill="#11002D"/>
<path d="M204.516 139.53C204.36 139.527 204.206 139.493 204.063 139.429C203.92 139.366 203.792 139.274 203.686 139.16C203.326 138.8 202.366 137.82 203.496 129.59C204.216 124.36 205.566 117.76 207.896 116.02C208.121 115.838 208.381 115.705 208.659 115.627C208.938 115.55 209.229 115.53 209.516 115.57C209.647 115.578 209.776 115.614 209.893 115.675C210.01 115.736 210.113 115.82 210.196 115.923C210.278 116.026 210.338 116.145 210.373 116.272C210.407 116.4 210.414 116.533 210.394 116.663C210.373 116.794 210.326 116.918 210.255 117.03C210.184 117.141 210.091 117.236 209.981 117.309C209.871 117.382 209.747 117.431 209.617 117.454C209.487 117.476 209.354 117.471 209.226 117.44C209.151 117.454 209.082 117.488 209.026 117.54C207.966 118.33 206.456 121.97 205.376 129.85C204.556 135.75 204.896 137.4 205.036 137.79C205.152 137.864 205.251 137.964 205.323 138.082C205.396 138.199 205.441 138.332 205.456 138.47C205.472 138.593 205.464 138.718 205.432 138.838C205.4 138.958 205.344 139.07 205.267 139.168C205.191 139.265 205.095 139.347 204.987 139.407C204.879 139.468 204.759 139.506 204.636 139.52L204.516 139.53Z" fill="#11002D"/>
<path fill-rule="evenodd" clip-rule="evenodd" d="M237.726 256.24C237.726 256.24 235.376 273.16 229.566 282.36L245.346 284.9C248.61 276.37 250.956 267.516 252.346 258.49L237.726 256.24Z" fill="url(#paint8_linear_2271:3633)"/>
<g style="mix-blend-mode:soft-light" opacity="0.3">
<path fill-rule="evenodd" clip-rule="evenodd" d="M307.666 33.4996L297.006 106.1L191.086 55.2296L197.436 16.5896C197.962 13.885 199.515 11.4891 201.769 9.90443C204.023 8.31973 206.803 7.66934 209.526 8.08964L298.666 21.7796C301.39 22.1917 303.848 23.6422 305.526 25.8272C307.204 28.0121 307.971 30.7617 307.666 33.4996Z" fill="#FBC2DD"/>
</g>
<g style="mix-blend-mode:multiply" opacity="0.3">
<path fill-rule="evenodd" clip-rule="evenodd" d="M211.706 252.24L281.566 203.78L280.306 213.26L223.756 254.09L211.706 252.24Z" fill="#AC2A41"/>
</g>
<path fill-rule="evenodd" clip-rule="evenodd" d="M198.506 45.65C198.506 45.65 175.926 27.75 166.726 15.65L186.096 0C186.096 0 198.666 20.91 211.576 32.53L198.506 45.65Z" fill="url(#paint9_linear_2271:3633)"/>
<g style="mix-blend-mode:multiply" opacity="0.3">
<path fill-rule="evenodd" clip-rule="evenodd" d="M197.446 16.5898L193.366 41.3998L198.506 45.5998L211.576 32.5198L197.446 16.5898Z" fill="#953345"/>
</g>
<path fill-rule="evenodd" clip-rule="evenodd" d="M316.536 94.3197C314.726 92.8097 319.816 86.5797 321.786 85.2197C324.186 83.5697 327.256 82.2197 329.076 83.6897C330.896 85.1597 329.246 90.1497 327.346 92.4397C325.446 94.7297 318.346 95.8197 316.536 94.3197Z" fill="#728AAE"/>
<path fill-rule="evenodd" clip-rule="evenodd" d="M48.106 24.53C49.246 22.47 56.3159 26.31 58.0159 28C60.0759 30.05 62.016 32.81 60.866 34.87C59.716 36.93 54.546 36.24 51.946 34.79C49.346 33.34 46.956 26.59 48.106 24.53Z" fill="#728AAE"/>
<path fill-rule="evenodd" clip-rule="evenodd" d="M76.1159 280.65L143.476 212.39L137.376 206.61L132.916 209.55C132.392 209.98 131.729 210.203 131.052 210.179C130.374 210.154 129.729 209.883 129.238 209.416C128.747 208.949 128.443 208.319 128.384 207.644C128.324 206.969 128.514 206.295 128.916 205.75C129.343 205.289 129.914 204.989 130.536 204.9C131.081 204.82 131.638 204.904 132.136 205.14L133.256 202.65L124.376 194.22L120.716 198.02C120.192 198.45 119.529 198.673 118.852 198.649C118.174 198.624 117.529 198.353 117.038 197.886C116.547 197.419 116.243 196.789 116.184 196.114C116.124 195.439 116.313 194.765 116.716 194.22C117.141 193.76 117.714 193.463 118.336 193.38C118.84 193.299 119.356 193.362 119.826 193.56L121.346 191.31L112.076 182.52L109.286 184.36C109.311 184.532 109.311 184.707 109.286 184.88C109.235 185.504 108.974 186.093 108.546 186.55C108.041 187.084 107.345 187.396 106.611 187.419C105.876 187.441 105.162 187.172 104.626 186.67C104.359 186.421 104.144 186.122 103.994 185.79C103.843 185.458 103.76 185.099 103.749 184.735C103.737 184.37 103.799 184.007 103.929 183.667C104.059 183.326 104.255 183.014 104.506 182.75C104.928 182.289 105.497 181.989 106.116 181.9C106.562 181.834 107.018 181.875 107.446 182.02L109.036 179.65L99.6659 170.74L97.0859 172.89C97.1009 173.063 97.1009 173.237 97.0859 173.41C97.0329 174.031 96.7722 174.615 96.3459 175.07C95.8424 175.605 95.1473 175.92 94.4127 175.944C93.6781 175.968 92.9638 175.701 92.4259 175.2C92.1602 174.951 91.9464 174.651 91.7966 174.319C91.6467 173.987 91.5639 173.629 91.5527 173.265C91.5416 172.901 91.6024 172.538 91.7316 172.197C91.8609 171.857 92.056 171.545 92.3059 171.28C92.7285 170.819 93.2972 170.519 93.9159 170.43C94.0789 170.415 94.2429 170.415 94.4059 170.43L95.8259 167.16L87.6358 159.39L84.8559 161.27C84.8907 161.502 84.8907 161.738 84.8559 161.97C84.8029 162.591 84.5422 163.175 84.1159 163.63C83.8666 163.895 83.5673 164.109 83.2353 164.259C82.9032 164.409 82.5449 164.492 82.1808 164.503C81.8167 164.514 81.4539 164.453 81.1133 164.324C80.7727 164.195 80.461 164 80.1959 163.75C79.6604 163.246 79.3461 162.551 79.3218 161.817C79.2974 161.082 79.565 160.368 80.0659 159.83C80.4839 159.363 81.0481 159.053 81.6659 158.95C81.9109 158.91 82.1608 158.91 82.4059 158.95C82.8659 158.05 83.4059 156.9 83.9659 155.95L75.0459 147.48L72.3959 149.09C72.5884 149.534 72.6707 150.017 72.6358 150.5C72.5851 151.124 72.3242 151.713 71.8959 152.17C71.3879 152.703 70.6898 153.014 69.9535 153.035C69.2173 153.055 68.5028 152.784 67.9659 152.28C67.4342 151.774 67.1234 151.078 67.1009 150.344C67.0785 149.611 67.3461 148.898 67.8459 148.36C68.2774 147.907 68.8475 147.612 69.4659 147.52C69.9994 147.433 70.5467 147.51 71.0359 147.74L72.5659 145.14L66.9859 139.84L2.36589 211.26C0.729017 213.148 -0.114271 215.596 0.0124692 218.092C0.139209 220.587 1.22615 222.937 3.04589 224.65L54.2459 272.8L62.6659 280.75C64.4847 282.477 66.9026 283.432 69.4111 283.414C71.9195 283.395 74.3229 282.404 76.1159 280.65Z" fill="url(#paint10_linear_2271:3633)"/>
<path d="M49.4374 161.756L49.0469 162.171L121.422 230.232L121.813 229.816L49.4374 161.756Z" fill="#E54D98"/>
<path d="M41.8563 168.291L41.4658 168.707L113.841 236.767L114.232 236.352L41.8563 168.291Z" fill="#C9A4AC"/>
<path d="M35.7938 176.263L35.4033 176.678L107.779 244.739L108.169 244.323L35.7938 176.263Z" fill="#C9A4AC"/>
<path d="M28.9735 183.508L28.583 183.923L100.959 251.984L101.349 251.568L28.9735 183.508Z" fill="#C9A4AC"/>
<path d="M22.1434 190.777L21.7529 191.192L94.1285 259.253L94.5189 258.837L22.1434 190.777Z" fill="#C9A4AC"/>
<path d="M15.3499 198.054L14.9541 198.464L85.6243 266.662L86.0201 266.251L15.3499 198.054Z" fill="#C9A4AC"/>
<path d="M8.4866 205.269L8.09961 205.687L80.1984 272.358L80.5854 271.939L8.4866 205.269Z" fill="#C9A4AC"/>
<path d="M3.63665 214.365L3.24805 214.782L73.1224 279.895L73.511 279.478L3.63665 214.365Z" fill="#C9A4AC"/>
<path d="M127.442 197.248L54.0547 272.608L54.4631 273.006L127.85 197.645L127.442 197.248Z" fill="#E54D98"/>
<path fill-rule="evenodd" clip-rule="evenodd" d="M50.5664 78.1798C50.5664 78.1798 89.3564 28.6498 93.9464 26.8598C98.5364 25.0698 147.806 56.6998 147.806 56.6998L106.926 96.9498L50.5664 78.1798Z" fill="url(#paint11_linear_2271:3633)"/>
<g style="mix-blend-mode:multiply" opacity="0.5">
<path fill-rule="evenodd" clip-rule="evenodd" d="M147.806 56.6997L50.5664 78.1797L106.676 95.5697L147.806 56.6997Z" fill="#D9D0E2"/>
</g>
<path fill-rule="evenodd" clip-rule="evenodd" d="M63.2864 124.93L50.5664 78.1797L104.506 94.7897L147.806 56.6997L157.246 104.96L63.2864 124.93Z" fill="url(#paint12_linear_2271:3633)"/>
<g style="mix-blend-mode:multiply" opacity="0.5">
<path fill-rule="evenodd" clip-rule="evenodd" d="M67.9258 120.28C67.9258 120.28 84.4157 97.3899 98.0757 92.8999L67.9258 120.28Z" fill="#D9D0E2"/>
</g>
<g style="mix-blend-mode:multiply" opacity="0.5">
<path fill-rule="evenodd" clip-rule="evenodd" d="M112.296 90.25C112.296 90.25 138.296 94.41 152.456 103.13L112.296 90.25Z" fill="#D9D0E2"/>
</g>
<g style="mix-blend-mode:multiply" opacity="0.5">
<path fill-rule="evenodd" clip-rule="evenodd" d="M54.6562 79.4297L92.0862 83.9097L110.266 80.1497L147.806 56.6997L110.266 89.8597L98.0862 92.8997L54.6562 79.4297Z" fill="#D9D0E2"/>
</g>
<path fill-rule="evenodd" clip-rule="evenodd" d="M63.2861 124.93C63.2861 124.93 95.4261 92.2201 103.546 89.6401C111.666 87.0601 157.246 104.96 157.246 104.96L63.2861 124.93Z" fill="url(#paint13_linear_2271:3633)"/>
<g style="mix-blend-mode:multiply" opacity="0.3">
<path fill-rule="evenodd" clip-rule="evenodd" d="M111.716 338.65L132.586 328.59H270.926L278.306 333.53L322.406 335.65L326.176 338.65H111.716Z" fill="#728AAE"/>
</g>
<path fill-rule="evenodd" clip-rule="evenodd" d="M182.376 273.94L278.296 197.76L286.046 208.22L187.606 281.04L182.376 273.94Z" fill="url(#paint14_linear_2271:3633)"/>
<path fill-rule="evenodd" clip-rule="evenodd" d="M182.376 273.94L170.616 288.09L172.006 288.48L187.606 281.04L188.976 279.16L186.606 279.25L187.486 276.18L183.686 275.71L184.866 273.23L182.376 273.94Z" fill="url(#paint15_linear_2271:3633)"/>
<path fill-rule="evenodd" clip-rule="evenodd" d="M173.546 284.56L174.726 287.18L172.006 288.48L170.616 288.09L173.546 284.56Z" fill="url(#paint16_linear_2271:3633)"/>
<path fill-rule="evenodd" clip-rule="evenodd" d="M275.546 199.95L277.046 203.38L280.836 208.54L283.196 210.33L286.046 208.22L278.296 197.76L275.546 199.95Z" fill="url(#paint17_radial_2271:3633)"/>
<path fill-rule="evenodd" clip-rule="evenodd" d="M278.296 197.77L279.366 200.89L283.366 206.29L286.056 208.22L290.426 203.69C290.426 203.69 290.026 199.82 283.956 194.91L278.296 197.77Z" fill="#FF3E79"/>
<g style="mix-blend-mode:multiply" opacity="0.5">
<path fill-rule="evenodd" clip-rule="evenodd" d="M283.355 206.29L186.605 279.25L188.975 279.16L187.605 281.04L286.045 208.22L283.355 206.29Z" fill="#9C4C7A"/>
</g>
<path style="mix-blend-mode:screen" fill-rule="evenodd" clip-rule="evenodd" d="M182.376 273.94L170.616 288.09L171.386 288.31L184.286 275.27L279.376 200.88L278.296 197.76L182.376 273.94Z" fill="url(#paint18_linear_2271:3633)"/>
<path style="mix-blend-mode:screen" fill-rule="evenodd" clip-rule="evenodd" d="M283.946 194.91C283.946 194.91 285.416 201.49 290.416 203.69C290.416 203.65 289.846 198.42 283.946 194.91Z" fill="url(#paint19_linear_2271:3633)"/>
<defs>
<linearGradient id="paint0_linear_2271:3633" x1="227.27" y1="276.437" x2="220.174" y2="252.695" gradientUnits="userSpaceOnUse">
<stop stop-color="#FF6E27"/>
<stop offset="1" stop-color="#E03347"/>
</linearGradient>
<linearGradient id="paint1_linear_2271:3633" x1="221.33" y1="239.076" x2="237.841" y2="130.107" gradientUnits="userSpaceOnUse">
<stop stop-color="#603082"/>
<stop offset="0.99" stop-color="#2A0E51"/>
</linearGradient>
<linearGradient id="paint2_linear_2271:3633" x1="218.829" y1="255.064" x2="234.534" y2="139.819" gradientUnits="userSpaceOnUse">
<stop offset="0.02" stop-color="#FFC6B0"/>
<stop offset="1" stop-color="#FFD8C2"/>
</linearGradient>
<linearGradient id="paint3_linear_2271:3633" x1="89790" y1="54331.3" x2="92628.4" y2="40423.3" gradientUnits="userSpaceOnUse">
<stop offset="0.02" stop-color="#FFC6B0"/>
<stop offset="1" stop-color="#FFD8C2"/>
</linearGradient>
<linearGradient id="paint4_linear_2271:3633" x1="218.451" y1="251.999" x2="235.896" y2="136.862" gradientUnits="userSpaceOnUse">
<stop offset="0.02" stop-color="#FFDAC7"/>
<stop offset="1" stop-color="#FFF3C2"/>
</linearGradient>
<linearGradient id="paint5_linear_2271:3633" x1="238.032" y1="126.978" x2="255.477" y2="11.8407" gradientUnits="userSpaceOnUse">
<stop offset="0.01" stop-color="#1E0034"/>
<stop offset="1" stop-color="#7C3082"/>
</linearGradient>
<linearGradient id="paint6_linear_2271:3633" x1="237.78" y1="128.641" x2="255.225" y2="13.5035" gradientUnits="userSpaceOnUse">
<stop offset="0.01" stop-color="#2A0E51"/>
<stop offset="1" stop-color="#50306C"/>
</linearGradient>
<linearGradient id="paint7_linear_2271:3633" x1="235.833" y1="137.347" x2="236.461" y2="133.199" gradientUnits="userSpaceOnUse">
<stop offset="0.02" stop-color="#FFDAC7"/>
<stop offset="1" stop-color="#FFD8C2"/>
</linearGradient>
<linearGradient id="paint8_linear_2271:3633" x1="240.966" y1="284.9" x2="240.966" y2="256.24" gradientUnits="userSpaceOnUse">
<stop stop-color="#FFA700"/>
<stop offset="1" stop-color="#FFD328"/>
</linearGradient>
<linearGradient id="paint9_linear_2271:3633" x1="46047.5" y1="-16607.1" x2="44277.9" y2="-17792.6" gradientUnits="userSpaceOnUse">
<stop stop-color="#FFA700"/>
<stop offset="1" stop-color="#FFD328"/>
</linearGradient>
<linearGradient id="paint10_linear_2271:3633" x1="-20115.7" y1="72658.1" x2="-1166.35" y2="66559.6" gradientUnits="userSpaceOnUse">
<stop offset="0.02" stop-color="#FFDAC7"/>
<stop offset="1" stop-color="#FFF3C2"/>
</linearGradient>
<linearGradient id="paint11_linear_2271:3633" x1="104.717" y1="97.3841" x2="91.7376" y2="27.2856" gradientUnits="userSpaceOnUse">
<stop stop-color="#B6ACE0"/>
<stop offset="0.98" stop-color="#E2DCEB"/>
</linearGradient>
<linearGradient id="paint12_linear_2271:3633" x1="108.526" y1="116.581" x2="99.1131" y2="65.7455" gradientUnits="userSpaceOnUse">
<stop stop-color="#D9D6FF"/>
<stop offset="0.98" stop-color="#E2DCEB"/>
</linearGradient>
<linearGradient id="paint13_linear_2271:3633" x1="110.482" y1="116.219" x2="105.494" y2="89.2774" gradientUnits="userSpaceOnUse">
<stop offset="0.02" stop-color="#E2DCEB"/>
<stop offset="1" stop-color="#E5F6FF"/>
</linearGradient>
<linearGradient id="paint14_linear_2271:3633" x1="32136.9" y1="58371.6" x2="40345.3" y2="52322.1" gradientUnits="userSpaceOnUse">
<stop stop-color="#C93347"/>
<stop offset="1" stop-color="#FF7527"/>
</linearGradient>
<linearGradient id="paint15_linear_2271:3633" x1="5427.63" y1="10915.3" x2="5701.31" y2="10762.9" gradientUnits="userSpaceOnUse">
<stop offset="0.02" stop-color="#FFC6B0"/>
<stop offset="1" stop-color="#FFD8C2"/>
</linearGradient>
<linearGradient id="paint16_linear_2271:3633" x1="1170.05" y1="2862.86" x2="1184.72" y2="2855.02" gradientUnits="userSpaceOnUse">
<stop offset="0.01" stop-color="#2A0E51"/>
<stop offset="1" stop-color="#50306C"/>
</linearGradient>
<radialGradient id="paint17_radial_2271:3633" cx="0" cy="0" r="1" gradientUnits="userSpaceOnUse" gradientTransform="translate(4254.87 5735.98) rotate(53.61) scale(51.03 61.0902)">
<stop stop-color="#EBD7E3"/>
<stop offset="0.98" stop-color="#BDAFD2"/>
</radialGradient>
<linearGradient id="paint18_linear_2271:3633" x1="168.171" y1="284.79" x2="281.096" y2="201.565" gradientUnits="userSpaceOnUse">
<stop/>
<stop offset="1" stop-color="#CD6327"/>
</linearGradient>
<linearGradient id="paint19_linear_2271:3633" x1="283.946" y1="199.3" x2="290.416" y2="199.3" gradientUnits="userSpaceOnUse">
<stop stop-color="#DD7500"/>
<stop offset="1" stop-color="#CD6327"/>
</linearGradient>
</defs>
</svg>
