<svg width="1274" height="683" viewBox="0 0 1274 683" fill="none" xmlns="http://www.w3.org/2000/svg">
<path d="M1217.33 574.246C1201.84 490.294 1129.18 415.137 1043.84 413.484C1012.14 412.871 978.682 421.514 949.742 408.559C928.336 398.978 913.477 379.179 894.424 365.528C865.351 344.676 827.512 339.115 791.933 342.896C756.355 346.677 722.32 358.991 688.696 371.214C636.968 310.531 556.042 275.951 476.435 280.506C396.828 285.061 320.38 328.654 275.93 394.844C187.429 393.722 103.427 463.725 88.5496 550.936C80.9094 595.688 91.9738 642.175 115.851 680.678H1207.84C1219.85 645.654 1223.46 607.466 1217.33 574.246Z" fill="#F6F5F5"/>
<path d="M1118.43 681.54L1117.43 679.818C1137.44 668.282 1155.77 650.914 1171.91 628.195C1187.2 606.68 1199.93 580.852 1208.72 553.509C1226.2 499.112 1232.37 441.116 1238.24 384.966C1191.55 399.23 1147.57 436.694 1117.44 487.915C1086.98 539.716 1071.03 604.995 1073.71 666.978L1071.73 667.065C1069.03 604.716 1085.07 539.053 1115.73 486.912C1146.4 434.772 1191.39 396.731 1239.11 382.64L1240.53 382.219L1240.38 383.698C1234.45 440.407 1228.32 499.057 1210.63 554.123C1201.78 581.653 1188.95 607.682 1173.55 629.353C1157.22 652.301 1138.68 669.862 1118.43 681.54Z" fill="#DADADA"/>
<path d="M1078.33 670.182L1076.36 670.012C1078.15 649.129 1084.68 628.144 1096.29 605.865C1107.5 584.349 1121.95 564.715 1133.3 550.016C1136.04 546.432 1138.9 542.783 1141.65 539.258C1165.65 508.436 1190.48 476.543 1202.1 437.701L1204.01 438.273C1192.27 477.491 1167.33 509.512 1143.21 540.481C1140.47 544.006 1137.63 547.649 1134.87 551.229C1123.58 565.878 1109.19 585.425 1098.05 606.794C1086.56 628.826 1080.09 649.582 1078.33 670.182Z" fill="#DADADA"/>
<path d="M1130.85 567.608C1128.11 567.611 1125.38 567.429 1122.68 567.063L1122.94 565.095C1134.81 566.693 1147.35 564.637 1159.22 559.144C1171.35 553.434 1181.88 544.819 1189.89 534.062L1191.47 535.253C1183.27 546.275 1172.47 555.099 1160.04 560.943C1150.91 565.257 1140.95 567.531 1130.85 567.608Z" fill="#DADADA"/>
<path d="M1150.41 528.472C1143.91 505.583 1148.37 478.116 1161.77 458.432L1163.41 459.549C1150.33 478.776 1145.97 505.583 1152.32 527.904L1150.41 528.472Z" fill="#DADADA"/>
<path d="M1186.29 681.785L1185.59 679.927C1208.1 671.426 1228.38 654.049 1242.7 631C1254.85 611.439 1263.08 587.566 1267.16 560.022C1242.19 561.139 1217.23 571.196 1198.49 587.713L1197.18 586.225C1216.55 569.145 1242.46 558.855 1268.27 557.989L1269.45 557.948L1269.28 559.12C1265.23 587.438 1256.85 611.975 1244.38 632.048C1229.83 655.468 1209.18 673.129 1186.29 681.785Z" fill="#DADADA"/>
<path d="M1125.93 676.526L1125.08 674.732C1170.34 653.353 1211.1 623.52 1245.17 586.839L1246.63 588.212C1212.39 625.07 1171.42 655.045 1125.93 676.526Z" fill="#DADADA"/>
<path d="M952.566 683C935.17 676.467 919.308 664.272 906.715 647.751C895.12 632.53 886.472 614.032 881.693 594.251C872.245 555.116 876.717 513.372 881.652 477.322L881.872 475.706L883.208 476.622C914.909 498.837 947.69 521.808 971.467 553.496C997.945 588.781 1007.35 630.264 996.645 664.46L994.75 663.87C1005.28 630.278 995.99 589.463 969.897 554.686C946.642 523.694 914.575 501.021 883.419 479.185C878.598 514.686 874.414 555.546 883.643 593.766C888.354 613.281 896.887 631.528 908.313 646.529C920.672 662.771 936.237 674.737 953.28 681.141L952.566 683Z" fill="#DADADA"/>
<path d="M903.344 513.267L901.562 514.147L978.139 669.156L979.92 668.276L903.344 513.267Z" fill="#DADADA"/>
<path d="M943.217 602.43C932.65 602.321 922.284 599.528 913.093 594.312C903.902 589.097 896.187 581.631 890.674 572.615L892.377 571.599C897.822 580.506 905.486 587.846 914.62 592.901C923.753 597.956 934.042 600.554 944.481 600.439L944.526 602.426C944.087 602.43 943.647 602.43 943.217 602.43Z" fill="#DADADA"/>
<path d="M198.582 680.165C175.968 675.518 154.828 664.271 135.757 646.747C118.6 630.977 103.887 610.583 93.2119 587.827C72.5296 543.693 66.2032 494.83 60.1285 447.574L59.918 445.94L61.4607 446.517C120.335 468.549 161.475 493.896 190.942 526.284C228.594 567.685 244.529 622.018 232.526 668.093L230.604 667.594C242.442 622.16 226.681 568.527 189.473 527.621C160.486 495.755 120.051 470.738 62.3121 448.957C68.3227 495.553 74.6995 543.643 95.0109 586.98C105.576 609.526 120.129 629.686 137.099 645.287C155.904 662.577 176.728 673.669 198.985 678.247L198.582 680.165Z" fill="#DADADA"/>
<path d="M219.191 668.583C202.903 636.786 183.659 606.593 161.713 578.402C139.77 550.22 115.224 524.164 88.4004 500.58L89.7096 499.088C116.629 522.762 141.261 548.917 163.278 577.207C185.301 605.487 204.613 635.777 220.958 667.677L219.191 668.583Z" fill="#DADADA"/>
<path d="M149.255 567.406C130.206 560.744 111.558 552.984 93.4062 544.165L94.2714 542.38C112.351 551.164 130.923 558.895 149.896 565.534L149.255 567.406Z" fill="#DADADA"/>
<path d="M184.397 556.069L179.955 600.186L181.932 600.385L186.374 556.268L184.397 556.069Z" fill="#DADADA"/>
<path d="M118.132 679.631C106.49 679.631 94.5059 676.166 83.2813 669.537C72.1436 662.963 62.036 653.515 54.0432 642.24C47.6619 633.236 40.7449 617.062 33.4892 594.201C28.092 577.204 24.5168 562.647 24.4802 562.505L24.1094 560.98L25.6429 561.296C27.7121 561.718 76.4238 571.825 93.8513 587.476L92.5237 588.955C85.5061 582.656 71.6584 576.215 52.4868 570.328C40.9188 566.776 30.596 564.405 26.7919 563.571C29.1678 572.901 42.0862 621.933 55.6592 641.091C63.4917 652.146 73.3888 661.393 84.2838 667.83C96.1264 674.82 108.82 678.189 120.979 677.571L121.08 679.553C120.105 679.604 119.116 679.631 118.132 679.631Z" fill="#DADADA"/>
<path d="M111.631 654.695C91.9983 627.403 69.3935 602.377 44.2324 580.078L45.5508 578.59C70.8207 600.99 93.5237 626.128 113.242 653.542L111.631 654.695Z" fill="#DADADA"/>
<path d="M362.299 682.423L361.004 680.916C386.411 659.04 404.208 629.655 411.824 597.004C419.44 564.353 416.481 530.127 403.375 499.267C386.46 502.247 370.049 510.748 355.867 523.872C342.592 536.159 331.605 552.039 324.098 569.801C309.907 603.337 307.192 640.921 305.485 679.699L303.498 679.612C305.219 640.646 307.948 602.871 322.267 569.027C329.889 551.009 341.036 534.891 354.517 522.417C369.198 508.825 386.245 500.096 403.815 497.175L404.584 497.047L404.89 497.761C418.37 529.065 421.51 563.854 413.853 597.066C406.196 630.277 388.142 660.18 362.317 682.423H362.299Z" fill="#DADADA"/>
<path d="M331.291 675.401L329.4 674.792C343.366 631.448 362.929 590.111 387.593 551.83L389.259 552.905C364.692 591.043 345.205 632.223 331.291 675.401Z" fill="#DADADA"/>
<path d="M360.56 601.112L359.43 599.478C372.035 590.769 386.392 584.919 401.495 582.339L401.829 584.294C387.013 586.831 372.929 592.57 360.56 601.112Z" fill="#DADADA"/>
<path d="M821.695 620.11C820.026 620.11 818.394 619.615 817.005 618.688C815.617 617.76 814.535 616.442 813.896 614.899C813.258 613.357 813.09 611.66 813.416 610.022C813.742 608.385 814.546 606.881 815.726 605.7C816.907 604.519 818.411 603.715 820.048 603.39C821.686 603.064 823.383 603.231 824.926 603.87C826.468 604.509 827.786 605.591 828.714 606.979C829.642 608.367 830.137 609.999 830.137 611.669C830.134 613.907 829.244 616.053 827.662 617.635C826.079 619.218 823.933 620.108 821.695 620.11ZM821.695 605.214C820.419 605.214 819.171 605.593 818.109 606.302C817.048 607.011 816.221 608.019 815.732 609.199C815.243 610.378 815.116 611.676 815.365 612.928C815.614 614.18 816.228 615.33 817.131 616.233C818.034 617.136 819.184 617.75 820.436 617.999C821.688 618.249 822.986 618.121 824.165 617.632C825.345 617.144 826.353 616.316 827.062 615.255C827.771 614.193 828.15 612.946 828.15 611.669C828.147 609.958 827.467 608.317 826.257 607.107C825.047 605.898 823.406 605.217 821.695 605.214Z" fill="#DADADA"/>
<path d="M1154.34 377.823C1152.67 377.824 1151.04 377.33 1149.65 376.403C1148.26 375.476 1147.18 374.158 1146.54 372.615C1145.9 371.073 1145.73 369.376 1146.06 367.738C1146.38 366.1 1147.19 364.595 1148.37 363.414C1149.55 362.233 1151.05 361.429 1152.69 361.103C1154.33 360.777 1156.02 360.944 1157.57 361.583C1159.11 362.221 1160.43 363.303 1161.35 364.692C1162.28 366.08 1162.78 367.712 1162.78 369.382C1162.77 371.619 1161.89 373.764 1160.3 375.346C1158.72 376.929 1156.58 377.819 1154.34 377.823ZM1154.34 362.927C1153.06 362.927 1151.82 363.306 1150.75 364.015C1149.69 364.724 1148.87 365.732 1148.38 366.912C1147.89 368.091 1147.76 369.389 1148.01 370.641C1148.26 371.893 1148.87 373.043 1149.78 373.946C1150.68 374.849 1151.83 375.463 1153.08 375.712C1154.33 375.961 1155.63 375.834 1156.81 375.345C1157.99 374.857 1159 374.029 1159.71 372.968C1160.42 371.906 1160.8 370.658 1160.8 369.382C1160.79 367.671 1160.11 366.03 1158.9 364.82C1157.69 363.61 1156.05 362.93 1154.34 362.927Z" fill="#DADADA"/>
<path d="M1265.56 511.379C1269.67 511.379 1273.01 508.044 1273.01 503.931C1273.01 499.817 1269.67 496.483 1265.56 496.483C1261.44 496.483 1258.11 499.817 1258.11 503.931C1258.11 508.044 1261.44 511.379 1265.56 511.379Z" fill="#DADADA"/>
<path d="M72.5046 372.362C76.618 372.362 79.9526 369.028 79.9526 364.914C79.9526 360.801 76.618 357.466 72.5046 357.466C68.3912 357.466 65.0566 360.801 65.0566 364.914C65.0566 369.028 68.3912 372.362 72.5046 372.362Z" fill="#DADADA"/>
<path d="M8.44136 502.938C6.77182 502.938 5.13977 502.443 3.75159 501.515C2.36342 500.588 1.28147 499.269 0.642563 497.727C0.00365658 496.184 -0.163509 494.487 0.162202 492.85C0.487914 491.212 1.29188 489.708 2.47242 488.528C3.65297 487.347 5.15707 486.543 6.79453 486.217C8.432 485.892 10.1293 486.059 11.6717 486.698C13.2142 487.337 14.5325 488.419 15.4601 489.807C16.3876 491.195 16.8827 492.827 16.8827 494.497C16.8803 496.735 15.9902 498.88 14.4076 500.463C12.8251 502.045 10.6794 502.935 8.44136 502.938ZM8.44136 488.042C7.16476 488.042 5.91682 488.421 4.85537 489.13C3.79391 489.839 2.96661 490.847 2.47807 492.026C1.98954 493.206 1.86171 494.504 2.11077 495.756C2.35982 497.008 2.97456 498.158 3.87726 499.061C4.77995 499.963 5.93005 500.578 7.18213 500.827C8.4342 501.076 9.73201 500.948 10.9114 500.46C12.0909 499.971 13.0989 499.144 13.8082 498.083C14.5174 497.021 14.896 495.773 14.896 494.497C14.8936 492.785 14.2127 491.145 13.0028 489.935C11.7928 488.725 10.1525 488.044 8.44136 488.042Z" fill="#DADADA"/>
<path d="M467.701 600.745C466.032 600.745 464.4 600.25 463.011 599.323C461.623 598.395 460.541 597.077 459.902 595.535C459.263 593.992 459.096 592.295 459.422 590.657C459.748 589.02 460.552 587.516 461.732 586.335C462.913 585.155 464.417 584.351 466.054 584.025C467.692 583.699 469.389 583.866 470.931 584.505C472.474 585.144 473.792 586.226 474.72 587.614C475.647 589.003 476.142 590.635 476.142 592.304C476.14 594.542 475.25 596.688 473.667 598.27C472.085 599.853 469.939 600.743 467.701 600.745ZM467.701 585.85C466.425 585.85 465.177 586.228 464.115 586.937C463.054 587.647 462.226 588.655 461.738 589.834C461.249 591.013 461.121 592.311 461.371 593.563C461.62 594.815 462.234 595.966 463.137 596.868C464.04 597.771 465.19 598.386 466.442 598.635C467.694 598.884 468.992 598.756 470.171 598.267C471.351 597.779 472.359 596.952 473.068 595.89C473.777 594.829 474.156 593.581 474.156 592.304C474.153 590.593 473.473 588.953 472.263 587.743C471.053 586.533 469.412 585.852 467.701 585.85Z" fill="#DADADA"/>
<path d="M156.759 145.801C156.759 129.715 134.534 116.673 107.113 116.673C79.6926 116.673 57.4219 129.715 57.4219 145.801C57.4219 161.887 79.6514 174.929 107.072 174.929C112.798 174.942 118.509 174.351 124.11 173.167C127.828 177.635 134.255 181.626 145.095 183.929C142.466 178.921 140.321 173.674 138.686 168.259C149.718 162.917 156.759 154.842 156.759 145.801Z" fill="white"/>
<path d="M147.974 186.057L144.81 185.398C135.197 183.356 128.07 179.8 123.579 174.81C118.153 175.895 112.632 176.436 107.099 176.426C93.5762 176.426 80.841 173.322 71.2369 167.691C61.3856 161.91 55.9609 154.141 55.9609 145.81C55.9609 137.478 61.3856 129.71 71.2369 123.928C80.8501 118.298 93.5762 115.194 107.099 115.194C120.622 115.194 133.357 118.298 142.956 123.928C152.808 129.71 158.237 137.478 158.237 145.81C158.237 154.819 151.791 163.237 140.498 169.042C142.071 173.934 144.062 178.682 146.449 183.233L147.974 186.057ZM124.719 171.518L125.291 172.214C128.843 176.485 134.575 179.685 142.361 181.74C140.327 177.527 138.631 173.158 137.289 168.676L136.937 167.467L138.067 166.922C148.999 161.621 155.266 153.922 155.266 145.801C155.266 130.561 133.664 118.165 107.108 118.165C80.5526 118.165 58.9319 130.561 58.9319 145.801C58.9319 161.04 80.5388 173.436 107.094 173.436C112.709 173.448 118.309 172.87 123.803 171.711L124.719 171.518Z" fill="#86A7FF"/>
<path d="M135.054 138.518H78.4551V140.504H135.054V138.518Z" fill="#86A7FF"/>
<path d="M120.158 149.44H78.4551V151.427H120.158V149.44Z" fill="#86A7FF"/>
<path d="M1101.88 112.041C1101.88 95.9546 1124.11 82.9126 1151.53 82.9126C1178.95 82.9126 1201.18 95.9546 1201.18 112.041C1201.18 128.127 1178.95 141.169 1151.53 141.169C1145.8 141.182 1140.09 140.591 1134.49 139.407C1130.77 143.874 1124.34 147.866 1113.5 150.169C1116.13 145.161 1118.28 139.914 1119.91 134.499C1108.9 129.157 1101.88 121.082 1101.88 112.041Z" fill="white"/>
<path d="M1110.65 152.296L1112.2 149.458C1114.59 144.907 1116.58 140.159 1118.15 135.267C1106.86 129.462 1100.41 121.044 1100.41 112.035C1100.41 103.703 1105.83 95.935 1115.69 90.1533C1125.3 84.5227 1138.03 81.4189 1151.55 81.4189C1165.07 81.4189 1177.81 84.5227 1187.41 90.1533C1197.26 95.935 1202.69 103.703 1202.69 112.035C1202.69 120.366 1197.26 128.135 1187.41 133.916C1177.8 139.547 1165.07 142.651 1151.55 142.651C1146.01 142.661 1140.49 142.119 1135.07 141.035C1130.58 146.025 1123.45 149.582 1113.84 151.623L1110.65 152.296ZM1151.53 84.4036C1124.98 84.4036 1103.37 96.8002 1103.37 112.039C1103.37 120.16 1109.64 127.86 1120.57 133.161L1121.7 133.706L1121.35 134.914C1120 139.397 1118.3 143.766 1116.26 147.979C1124.04 145.924 1129.78 142.724 1133.32 138.453L1133.9 137.757L1134.78 137.949C1140.28 139.11 1145.89 139.688 1151.51 139.675C1178.06 139.675 1199.67 127.279 1199.67 112.039C1199.67 96.8002 1178.09 84.4036 1151.53 84.4036Z" fill="#86A7FF"/>
<path d="M1180.16 104.757H1123.56V106.744H1180.16V104.757Z" fill="#86A7FF"/>
<path d="M1165.26 115.68H1123.56V117.666H1165.26V115.68Z" fill="#86A7FF"/>
<path d="M718.94 486.06H546.162V680.683H718.94V486.06Z" fill="#D3DFFF"/>
<path d="M720.425 682.171H544.672V484.568H720.425V682.171ZM547.647 679.191H717.445V487.53H547.647V679.191Z" fill="#86A7FF"/>
<path opacity="0.2" d="M718.94 486.06H546.162V569H718.94V486.06Z" fill="#1F3C88"/>
<path d="M665.078 582.471C683.045 564.504 683.045 535.375 665.078 517.408C647.112 499.442 617.982 499.442 600.016 517.408C582.049 535.375 582.049 564.504 600.016 582.471C617.982 600.437 647.112 600.437 665.078 582.471Z" fill="white"/>
<path d="M989.305 1.4873H275.795C267.366 1.4873 260.533 8.32042 260.533 16.7495V523.876C260.533 532.305 267.366 539.138 275.795 539.138H989.305C997.734 539.138 1004.57 532.305 1004.57 523.876V16.7495C1004.57 8.32042 997.734 1.4873 989.305 1.4873Z" fill="#D3DFFF"/>
<path d="M988.017 540.631H277.094C272.311 540.625 267.725 538.723 264.343 535.341C260.961 531.959 259.059 527.373 259.053 522.59V18.0409C259.059 13.2604 260.96 8.6772 264.339 5.29559C267.718 1.91397 272.299 0.00968803 277.08 0H988.003C992.786 0.00605897 997.37 1.90888 1000.75 5.29102C1004.13 8.67316 1006.03 13.2584 1006.04 18.0409V522.59C1006.03 527.371 1004.13 531.954 1000.76 535.336C997.378 538.717 992.797 540.622 988.017 540.631ZM277.08 2.98011C273.087 2.98496 269.259 4.57326 266.436 7.39666C263.612 10.22 262.024 14.048 262.019 18.0409V522.59C262.023 526.584 263.611 530.412 266.434 533.236C269.258 536.06 273.087 537.648 277.08 537.651H988.003C991.996 537.648 995.825 536.06 998.649 533.236C1001.47 530.412 1003.06 526.584 1003.06 522.59V18.0409C1003.06 14.048 1001.47 10.22 998.647 7.39666C995.824 4.57326 991.996 2.98496 988.003 2.98011H277.08Z" fill="#86A7FF"/>
<path d="M991.06 20.4492H274.039V461.977H991.06V20.4492Z" fill="white"/>
<path d="M992.55 463.468H272.549V18.9692H992.55V463.468ZM275.529 460.488H989.57V21.9402H275.529V460.488Z" fill="#86A7FF"/>
<path d="M707.288 59.0903H545.107V78.0468H707.288V59.0903Z" fill="#D3DFFF"/>
<path d="M836.454 96.5581H415.934V103.649H836.454V96.5581Z" fill="#D3DFFF"/>
<path d="M917.349 308.741H755.1V315.832H917.349V308.741Z" fill="#86A7FF"/>
<path d="M894.808 326.361H755.1V333.452H894.808V326.361Z" fill="#86A7FF"/>
<path d="M843.221 343.98H755.1V351.071H843.221V343.98Z" fill="#86A7FF"/>
<path d="M897.806 376.776H755.1V383.867H897.806V376.776Z" fill="#D3DFFF"/>
<path d="M877.985 394.396H755.1V401.487H877.985V394.396Z" fill="#D3DFFF"/>
<path d="M404.401 291.356H335.533V399.304H404.401V291.356Z" fill="#D3DFFF"/>
<path d="M499.303 291.185H421.889V326.841H499.303V291.185Z" fill="#86A7FF"/>
<path d="M499.303 344.219H421.889V399.45H499.303V344.219Z" fill="#D3DFFF"/>
<path d="M697.851 400.227H554.527C551.591 400.224 548.776 399.056 546.701 396.98C544.625 394.904 543.457 392.09 543.453 389.154V317.155C543.457 314.219 544.625 311.405 546.701 309.329C548.776 307.253 551.591 306.085 554.527 306.082H697.851C700.788 306.084 703.603 307.251 705.68 309.327C707.757 311.403 708.926 314.219 708.929 317.155V389.154C708.926 392.09 707.757 394.906 705.68 396.982C703.603 399.058 700.788 400.225 697.851 400.227ZM554.527 307.816C552.05 307.819 549.676 308.803 547.924 310.554C546.173 312.305 545.187 314.679 545.184 317.155V389.154C545.187 391.631 546.173 394.005 547.924 395.756C549.675 397.508 552.05 398.493 554.527 398.497H697.851C700.328 398.495 702.703 397.509 704.455 395.758C706.207 394.006 707.192 391.631 707.194 389.154V317.155C707.192 314.678 706.207 312.304 704.455 310.553C702.703 308.802 700.328 307.818 697.851 307.816H554.527Z" fill="#86A7FF"/>
<path d="M560.677 380.268L559.125 379.49L568.921 359.906L581.02 372.582L595.431 341.458L614.758 359.613L636.017 338.35L656.8 351.048L683.47 323.248L684.72 324.447L657.089 353.255L636.278 340.538L614.795 362.026L595.999 344.365L581.524 375.622L569.365 362.886L560.677 380.268Z" fill="#3A6BEA"/>
<path d="M650.008 376.269H633.547V384.934H650.008V376.269Z" fill="#86A7FF"/>
<path d="M689.434 379.733H660.842V381.468H689.434V379.733Z" fill="#3A6BEA"/>
<path d="M690.817 190.265C687.944 179.614 682.486 169.837 674.929 161.802C667.372 153.766 657.948 147.72 647.494 144.199L626.207 207.633L690.817 190.265Z" fill="#D3DFFF"/>
<path d="M626.202 207.65L596.584 267.66C608.125 273.352 621.063 275.597 633.848 274.124C646.632 272.651 658.721 267.524 668.666 259.357C678.61 251.189 685.99 240.327 689.919 228.073C693.849 215.819 694.162 202.691 690.821 190.264L626.202 207.65Z" fill="#86A7FF"/>
<path d="M647.496 144.199C631.413 138.81 613.882 139.73 598.451 146.773C583.019 153.816 570.839 166.457 564.372 182.139C557.905 197.82 557.635 215.373 563.617 231.246C569.598 247.119 581.384 260.128 596.592 267.643L626.21 207.633L647.496 144.199Z" fill="#3A6BEA"/>
<path d="M464.545 254.641H370.289V261.732H464.545V254.641Z" fill="#D3DFFF"/>
<path d="M500.163 239.119H334.668V143.444H500.163V239.119ZM336.403 237.384H498.428V145.179H336.403V237.384Z" fill="#86A7FF"/>
<path d="M488.041 164.341C482.547 163.238 477.109 166.813 473.634 171.208C472.03 173.331 470.578 175.566 469.29 177.896C467.873 180.494 466.292 183 464.557 185.399C461.151 189.862 455.859 193.593 450.329 192.751C441.348 191.377 436.436 179.054 427.353 179.214C423.115 179.287 419.48 182.222 416.587 185.339C413.694 188.457 411.061 192 407.298 193.968C402.039 196.715 395.547 195.827 390.095 193.488C384.643 191.148 379.864 187.486 374.664 184.593C365.927 179.78 356.157 177.15 346.186 176.925V223.728H488.649V164.488C488.439 164.433 488.247 164.373 488.041 164.341Z" fill="#D3DFFF"/>
<path d="M390.093 193.478C395.545 195.817 402.036 196.71 407.296 193.959C411.059 191.99 413.705 188.465 416.584 185.33C419.463 182.194 423.112 179.278 427.351 179.205C436.433 179.044 441.345 191.372 450.326 192.741C455.861 193.583 461.148 189.853 464.554 185.389C466.288 182.995 467.869 180.494 469.287 177.9C463.794 178.156 458.255 178.427 453.471 175.877C448.688 173.327 445.598 168.392 440.86 165.806C432.35 161.228 421.94 165.595 413.462 170.255C408.394 173.043 402.741 176.037 397.129 174.659C390.779 173.107 387.057 166.639 381.77 162.757C371.649 155.373 356.442 158.957 347.785 168.035C346.775 169.085 346.212 170.487 346.215 171.944V176.861C356.181 177.11 365.94 179.763 374.661 184.593C379.861 187.486 384.64 191.134 390.093 193.478Z" fill="#86A7FF"/>
<path d="M918.176 277.411H752.43V143.283H918.176V277.411ZM754.416 275.429H916.208V145.302H754.416V275.429Z" fill="#86A7FF"/>
<path d="M797.185 199.188H779.854V257.531H797.185V199.188Z" fill="#86A7FF"/>
<path d="M797.185 169.729H779.854V199.186H797.185V169.729Z" fill="#D3DFFF"/>
<path d="M828.374 169.729H811.043V213.483H828.374V169.729Z" fill="#D3DFFF"/>
<path d="M828.374 213.484H811.043V257.531H828.374V213.484Z" fill="#86A7FF"/>
<path d="M859.57 189.006H842.238V257.53H859.57V189.006Z" fill="#86A7FF"/>
<path d="M859.57 169.729H842.238V189.005H859.57V169.729Z" fill="#D3DFFF"/>
<path d="M890.761 214.567H873.43V257.53H890.761V214.567Z" fill="#86A7FF"/>
<path d="M890.761 169.729H873.43V214.567H890.761V169.729Z" fill="#D3DFFF"/>
<path d="M291.283 680.679L258.846 646.918L258.914 622.01L219.514 623.182L222.768 680.679H291.283Z" fill="#102048"/>
<path d="M259.179 528.423L214.496 534.384L216.259 565.549L259.079 564.51L259.179 528.423Z" fill="#E28B6D"/>
<path d="M259.074 564.51L216.254 565.549L219.513 623.183L258.914 622.011L259.074 564.51Z" fill="#F9B384"/>
<path d="M257.99 645.134L241.111 653.076L242.803 656.671L259.682 648.729L257.99 645.134Z" fill="white"/>
<path d="M353.512 518.164L310.481 516.512L304.832 549.435L346.055 555.455L353.512 518.164Z" fill="#E28B6D"/>
<path d="M363.109 647.252L336.627 602.568L340.051 585.448C328.378 582.77 310.351 578.654 300.225 576.388L291.303 628.382L363.109 647.252Z" fill="#102048"/>
<path d="M346.05 555.453L304.85 549.434L300.227 576.387C310.371 578.676 328.398 582.769 340.053 585.447L346.05 555.453Z" fill="#F9B384"/>
<path d="M336.03 600.65L319.314 606.278L320.582 610.044L337.298 604.415L336.03 600.65Z" fill="white"/>
<path d="M382.306 523.136C382.306 523.136 364.453 545.635 331.329 538.347C298.204 531.06 304.201 550.25 285.652 554.237C267.103 558.224 215.489 525.777 198.272 556.224C198.272 556.224 188.022 440.938 192.692 367.973C193.964 348.289 196.308 331.653 200.259 321.225L279.477 320.136L296.913 319.893C296.913 319.893 296.973 320.273 297.11 321.028C297.408 322.594 298.026 325.794 299.001 330.362C305.473 360.406 328.193 449.535 382.306 523.136Z" fill="#FBC343"/>
<path d="M299 330.363C281.284 342.059 244.347 362.155 192.691 367.974C193.964 348.289 196.308 331.654 200.258 321.226L279.476 320.136L297.11 321.029C297.407 322.594 298.007 325.794 299 330.363Z" fill="#E49B31"/>
<path d="M211.713 430.464L230.619 365.644L143.873 340.343L124.967 405.164L211.713 430.464Z" fill="white"/>
<path d="M212.054 430.17L123.475 404.077L143.127 337.379L231.706 363.473L212.054 430.17ZM125.942 402.704L210.708 427.689L229.239 364.846L144.468 339.856L125.942 402.704Z" fill="#86A7FF"/>
<path d="M213.476 369.111L207.793 388.396L209.699 388.958L215.382 369.673L213.476 369.111Z" fill="#86A7FF"/>
<path d="M201.566 365.599L187.883 412.03L189.789 412.591L203.471 366.161L201.566 365.599Z" fill="#86A7FF"/>
<path d="M189.675 362.103L175.992 408.534L177.898 409.095L191.581 362.664L189.675 362.103Z" fill="#86A7FF"/>
<path d="M177.761 358.579L164.078 405.01L165.984 405.571L179.667 359.14L177.761 358.579Z" fill="#86A7FF"/>
<path d="M165.862 355.084L155.406 390.563L157.312 391.125L167.768 355.645L165.862 355.084Z" fill="#86A7FF"/>
<path d="M347.018 202.731C347.018 202.731 349.467 179.133 351.669 179.531C353.87 179.929 353.628 185.697 353.628 185.697C353.628 185.697 358.778 172.536 361.172 172.55C363.566 172.564 361.122 177.929 361.122 177.929C361.122 177.929 363.781 172.55 365.768 172.966C367.755 173.383 366.121 177.947 366.121 177.947C366.121 177.947 368.199 173.534 370.213 174.317C372.227 175.1 370.959 178.711 370.959 178.711C370.959 178.711 372.062 175.855 373.935 177.759C375.807 179.664 366.185 207.295 366.185 207.295L352.621 211.168L347.018 202.731Z" fill="#F9B384"/>
<path d="M366.242 207.372C366.242 207.372 354.409 256.047 324.557 270.265C317.101 273.867 308.698 275.02 300.547 273.561L295.205 264.049L260.176 201.732L272.408 197.442C272.408 197.442 299.874 207.687 314.788 230.526C314.788 230.526 328.691 229.216 347.217 201.411L366.242 207.372Z" fill="#3A6BEA"/>
<path d="M324.56 270.266C317.103 273.867 308.7 275.021 300.549 273.562L295.207 264.049L296.58 240.794C296.58 240.794 316.837 252.294 324.56 270.266Z" fill="#102048"/>
<path d="M201.26 364.173C201.26 364.173 198.582 387.062 196.224 386.7C193.867 386.338 194.164 380.543 194.164 380.543C194.164 380.543 188.616 393.727 186.071 393.727C183.526 393.727 186.149 388.343 186.149 388.343C186.149 388.343 183.292 393.736 181.177 393.333C179.062 392.93 180.82 388.353 180.82 388.353C180.82 388.353 178.591 392.775 176.448 392.015C174.306 391.255 175.675 387.62 175.675 387.62C175.675 387.62 174.489 390.486 172.498 388.586C170.507 386.686 180.889 359.005 180.889 359.005L195.359 355.068L201.26 364.173Z" fill="#F9B384"/>
<path d="M248.775 197.932C190.025 205.046 172.73 286.47 179.432 362.928L201.277 364.255C201.277 364.255 204.898 289.45 235.042 253.703L260.174 201.736L248.775 197.932Z" fill="#3A6BEA"/>
<path d="M260.173 201.736L300.887 229.203C300.887 229.203 312.139 281.847 311.476 328.499C311.476 328.499 232.702 357.627 193.645 327.176L224.425 227.216L260.173 201.736Z" fill="#3A6BEA"/>
<path d="M283.563 154.16C287.335 141.004 274.096 125.609 248.772 138.683C248.772 138.683 223.595 142.986 228.085 186.676L254.545 187.687L283.563 154.16Z" fill="#102048"/>
<path d="M254.048 137.791C257.513 123.888 242.407 121.664 239.889 130.187C239.555 131.327 232.194 127.267 230.134 133.895C227.776 141.499 235.975 146.553 245.24 144.649L254.048 137.791Z" fill="#102048"/>
<path d="M272.413 171.285V197.442L260.996 213.487L248.76 197.937L249.414 170.791L272.413 171.285Z" fill="#F9B384"/>
<path d="M272.413 180.225V197.003C264.232 193.45 260.717 182.706 260.717 182.706L272.413 180.225Z" fill="#102048"/>
<path d="M283.565 154.16C283.565 154.16 291.699 197.103 260.745 182.706L250.582 171.038L256.904 147.453L273.173 143.484L283.565 154.16Z" fill="#F9B384"/>
<path d="M283.566 154.16C283.566 154.16 277.079 144.062 268.967 148.946C260.855 153.831 261.272 170.956 252.831 166.653C244.389 162.35 249.232 149.111 249.232 149.111L261.647 139.676L275.545 141.251L283.566 154.16Z" fill="#102048"/>
<path d="M254.007 174.029C256.816 172.407 257.593 168.494 255.742 165.289C253.892 162.083 250.114 160.799 247.305 162.421C244.496 164.043 243.719 167.956 245.57 171.162C247.42 174.367 251.198 175.651 254.007 174.029Z" fill="#F9B384"/>
<path d="M261.165 231.529C263.359 231.529 265.138 229.75 265.138 227.555C265.138 225.361 263.359 223.582 261.165 223.582C258.97 223.582 257.191 225.361 257.191 227.555C257.191 229.75 258.97 231.529 261.165 231.529Z" fill="#102048"/>
<path d="M204.548 333.828L202.598 333.448C202.63 333.301 205.518 318.566 210.38 302.077C216.935 279.838 223.765 265.162 230.687 258.451L232.06 259.879C216.093 275.37 204.662 333.26 204.548 333.828Z" fill="#102048"/>
<path d="M197.187 286.934C193.524 284.187 184.996 284.485 184.909 284.485L184.836 282.503C185.216 282.503 194.175 282.191 198.377 285.345L197.187 286.934Z" fill="#102048"/>
<path d="M1058.85 620.11L1058.18 657.839L1049.58 680.678H1096.25L1093.6 619.116L1058.85 620.11Z" fill="#102048"/>
<path d="M990.173 624.08V655.359L953.432 680.679H1027.41L1022.94 620.605L990.173 624.08Z" fill="#102048"/>
<path d="M991.381 653.809L988.975 656.97L1000.06 665.411L1002.47 662.249L991.381 653.809Z" fill="white"/>
<path d="M1052.22 317.238L1052.03 317.994L1045.43 343.991L1031.06 400.649C1028.99 410.223 1027.44 419.903 1026.43 429.645C1019.42 494.127 1028.47 576.544 1033.18 612.091C1033.47 614.289 1033.29 616.523 1032.64 618.645C1032 620.767 1030.91 622.726 1029.44 624.392C1027.98 626.058 1026.18 627.393 1024.16 628.306C1022.14 629.219 1019.95 629.69 1017.73 629.687H991.572C988.623 629.682 985.735 628.844 983.241 627.27C980.746 625.695 978.747 623.449 977.473 620.788C944.129 550.964 949.549 446.683 956.246 421.162C966.83 380.791 974.099 320.557 974.099 320.557L996.324 319.605L1052.22 317.238Z" fill="#3A6BEA"/>
<path d="M1102.29 611.471C1102.18 615.784 1100.4 619.886 1097.31 622.9C1094.22 625.915 1090.08 627.604 1085.77 627.608H1063.36C1059.36 627.612 1055.49 626.157 1052.48 623.514C1049.46 620.87 1047.52 617.221 1047 613.247C1042.73 580.677 1032.33 498.621 1026.43 429.648C1023.35 393.484 1021.52 360.895 1022.48 340.954C1022.81 333.387 1023.57 327.651 1024.82 324.213L1052.02 317.997L1079.73 311.684C1079.73 311.684 1086.6 319.008 1092.92 358.034C1099.49 398.757 1105.43 474.002 1102.29 611.471Z" fill="#3A6BEA"/>
<path d="M1023.6 484.783C1022.37 459.349 1023.15 437.664 1025.99 418.488C1026.93 412.272 1030.21 406.648 1035.15 402.763L1053.76 387.968L1055 389.525L1036.39 404.32C1031.84 407.89 1028.82 413.063 1027.95 418.781C1025.14 437.824 1024.36 459.386 1025.58 484.701L1023.6 484.783Z" fill="#102048"/>
<path d="M967.79 493.023L967.547 491.055C980.012 489.507 990.701 489.288 1000.22 490.391L999.989 492.364C990.632 491.256 980.099 491.476 967.79 493.023Z" fill="#102048"/>
<path d="M1057.15 488.368L1056.91 486.399C1069.38 484.847 1080.07 484.632 1089.58 485.735L1089.35 487.709C1080 486.614 1069.47 486.839 1057.15 488.368Z" fill="#102048"/>
<path d="M1002.31 606.092C985.33 606.092 972.746 603.066 972.559 603.021L973.016 601.089C973.305 601.162 1002.2 608.097 1031.42 600.7L1031.91 602.627C1021.61 605.25 1011.34 606.092 1002.31 606.092Z" fill="#102048"/>
<path d="M1072.28 606.222C1069.6 606.222 1067.06 606.139 1064.75 606.02C1058.22 605.689 1051.73 604.949 1045.3 603.805L1045.68 601.855C1046.01 601.919 1078.69 608.14 1100.44 600.097L1101.12 601.96C1092.13 605.302 1081.39 606.222 1072.28 606.222Z" fill="#102048"/>
<path d="M1092.91 358.043C1080.25 351.291 1062.8 346.883 1045.42 344.004C1037.62 342.694 1029.81 341.715 1022.46 340.964C999.208 338.602 980.559 338.602 980.559 338.602L996.329 319.618L1052.21 317.251L1052.01 318.007L1079.72 311.694C1079.72 311.694 1086.6 319.023 1092.91 358.043Z" fill="#1F3C88"/>
<path d="M1017.94 167.792H994.969V206.14H1017.94V167.792Z" fill="#E28B6D"/>
<path d="M1005.74 183.736C1003.78 189.478 999.997 194.423 994.969 197.817V181.077L1005.74 183.736Z" fill="#102048"/>
<path d="M983.121 148.222L981.505 164.363C981.505 164.363 973.988 174.434 978.68 174.434C983.716 174.434 982.919 176.449 982.919 176.449C982.919 176.449 980.095 197.433 1005.72 183.713L1011.16 152.237L983.121 148.222Z" fill="#E28B6D"/>
<path d="M983.117 148.223C983.117 148.223 990.075 147.307 991.893 154.677C993.71 162.048 996.132 166.579 1002.28 161.439L1009.05 150.342L997.441 145.499L983.117 148.223Z" fill="#102048"/>
<path d="M983.117 148.223C983.117 142.977 989.338 130.466 1008.94 133.794C1027.68 136.998 1030.63 163.251 1020.95 175.259C1020.95 175.259 1016 183.041 1009.35 168.804L997.945 153.469L995.527 148.626L983.117 148.223Z" fill="#102048"/>
<path d="M1010.38 167.843C1008.55 171.048 1004.76 172.343 1001.96 170.727C999.155 169.111 998.395 165.202 1000.24 161.993C1002.09 158.784 1005.87 157.493 1008.67 159.109C1011.46 160.725 1012.23 164.634 1010.38 167.843Z" fill="#E28B6D"/>
<path d="M1053.88 197.758C1097.91 211.99 1132.66 271.565 1091.95 272.558C1051.23 273.551 1026.41 235.822 1026.41 235.822L1053.88 197.758Z" fill="#E49B31"/>
<path d="M859.097 243.211C859.097 243.211 837.348 233.73 836.611 235.845C835.874 237.96 841.015 240.583 841.015 240.583C841.015 240.583 827.026 238.592 825.858 240.684C824.691 242.776 830.569 243.289 830.569 243.289C830.569 243.289 824.576 242.955 823.958 244.886C823.34 246.818 828.12 247.633 828.12 247.633C828.12 247.633 823.258 247.271 822.951 249.409C822.645 251.547 826.408 252.224 826.408 252.224C826.408 252.224 823.377 251.767 824.119 254.344C824.86 256.921 853.645 262.126 853.645 262.126L863.716 252.22L859.097 243.211Z" fill="#E28B6D"/>
<path d="M1076.5 330.636L978.212 341.362C976.262 341.571 974.29 341.36 972.428 340.744C970.567 340.127 968.859 339.119 967.419 337.787C965.98 336.455 964.842 334.83 964.083 333.022C963.324 331.214 962.961 329.264 963.019 327.304L964.25 286.749L964.827 268.063V267.605C964.153 268.372 963.438 269.101 962.685 269.789C962.685 269.789 962.684 269.789 962.643 269.83C961.728 270.681 960.478 271.734 958.949 272.888C945.903 282.739 911.107 299.659 853.615 262.144L859.076 243.215L921.137 245.76C921.137 245.76 948.96 223.279 973.667 207.847C989.812 197.776 1008.5 192.178 1027.52 192.677C1036.12 192.892 1045.38 194.265 1053.88 197.758C1074.83 206.419 1085.22 283.71 1088.63 315.543C1089.02 319.154 1087.96 322.772 1085.69 325.602C1083.41 328.433 1080.11 330.243 1076.5 330.636Z" fill="#FBC343"/>
<path d="M914.298 264.026C912.504 251.694 920.203 245.258 920.528 244.992L921.787 246.53C920.413 247.784 919.265 249.266 918.395 250.911C916.299 254.738 915.58 259.05 916.266 263.729L914.298 264.026Z" fill="#E49B31"/>
<path d="M973.623 260.653C973.623 260.653 973.005 276.675 964.248 286.746L964.825 268.06C968.103 265.4 971.856 262.305 973.623 260.653Z" fill="#E49B31"/>
<path d="M944.524 281.988L944.135 280.038C958.509 277.168 977.868 253.084 978.06 252.842L979.612 254.078C975.943 258.554 972.018 262.814 967.857 266.836C958.742 275.611 950.892 280.711 944.524 281.988Z" fill="#E49B31"/>
<path d="M1260.59 679.19H19.377V682.17H1260.59V679.19Z" fill="#102048"/>
</svg>
