<svg width="281" height="108" viewBox="0 0 281 108" fill="none" xmlns="http://www.w3.org/2000/svg">
<g clip-path="url(#clip0_3203_2976)">
<path d="M190.858 49.8347C191.302 49.7477 255.426 57.9362 255.751 60.3566C256.076 62.777 257.185 64.1948 253.366 64.1372C249.547 64.0795 229.193 61.9913 223.305 60.6878C217.416 59.3843 221.513 58.5166 209.324 57.9088C197.135 57.301 193.809 55.9115 191.816 56.4324C189.823 56.9532 186.002 56.4197 186.037 55.3966C186.073 54.3735 190.858 49.8347 190.858 49.8347Z" fill="#EAA93F"/>
<path d="M260.466 68.2625C260.466 68.2625 262.685 67.7846 263.381 71.0854C264.078 74.3862 264.506 76.8672 263.726 78.7072C262.947 80.5471 236.74 83.0691 236.74 82.5473C236.74 82.0256 230.82 70.8656 230.82 70.8656C230.82 70.8656 236.044 67.6947 236.392 67.5218C236.741 67.3488 260.466 68.2625 260.466 68.2625Z" fill="#F7CC7F"/>
<path d="M188.342 51.146C188.604 50.9603 204.362 52.9576 204.623 52.9576C204.883 52.9576 251.376 58.3593 252.856 60.2188C254.336 62.0783 220.555 59.6511 219.25 59.5182C217.944 59.3853 199.99 57.1251 199.695 57.1261C199.4 57.1271 186.949 53.3924 186.949 53.3924L188.342 51.146Z" fill="#183658"/>
<path d="M37.0174 45.7225L54.6477 37.6454C54.6477 37.6454 76.8491 26.3105 85.7298 24.7471C94.6106 23.1836 100.618 22.9227 107.538 22.4019C114.459 21.8811 143.583 22.7928 143.583 22.7928C143.583 22.7928 153.16 25.051 158.383 27.3961C163.607 29.7413 190.858 46.7651 190.858 46.7651H195.266C195.266 46.7651 194.558 49.1972 190.858 50.3805C189.329 50.8691 188.168 53.2758 188.168 53.2758C188.168 53.2758 206.529 54.4484 213.973 55.4939C220.516 56.4105 241.986 59.8422 252.858 60.2184C254.316 60.2651 255.731 60.7247 256.937 61.5436C258.144 62.3625 259.091 63.507 259.67 64.8433C260.136 65.9299 260.467 67.1073 260.467 68.2633L234.87 70.8693L204.409 75.0623L193.209 96.795H71.7559L64.4422 76.8612L32.0221 78.1461L24.255 96.795C24.255 96.795 13.7748 90.6712 8.54843 89.3687C3.32203 88.0661 3.84702 50.2828 6.06648 48.1986C8.28593 46.1143 28.5294 47.4169 37.0174 45.7225Z" fill="#F7CC7F"/>
<path d="M0.265852 68.822C0.426038 67.5252 1.08085 66.3397 2.09425 65.512C3.10766 64.6842 4.40176 64.2777 5.70773 64.377C11.5277 64.8148 21.1626 65.829 24.2548 67.8713C28.7897 70.8682 30.488 81.1604 30.488 81.1604L24.2548 96.7948L7.56086 89.2962C7.56086 89.2962 -1.66564 84.7896 0.265852 68.822Z" fill="#EAA93F"/>
<path d="M216.889 65.5264C203.811 65.5264 193.208 76.104 193.208 89.1518V96.795H240.571V89.1518C240.571 76.104 229.968 65.5264 216.889 65.5264Z" fill="#183658"/>
<path d="M47.9353 65.5264C34.8566 65.5264 24.2549 76.104 24.2549 89.1518V96.795H71.6166V89.1518C71.6166 76.104 61.014 65.5264 47.9353 65.5264Z" fill="#183658"/>
<path d="M185.852 48.7189C185.852 48.7189 187.819 50.2208 189.778 49.3052C191.737 48.3896 192.051 46.7646 192.051 46.7646H190.858L188.124 47.051L185.852 48.7189Z" fill="#EAA93F"/>
<path d="M122.274 93.1218H122.161L79.7053 91.8417V91.6961C79.9737 80.4804 75.4858 72.9847 71.6737 68.6716C67.5404 63.995 63.2866 61.9459 63.2435 61.9293L63.174 61.8961L63.1622 61.8199C62.648 58.4849 58.9398 48.1398 58.9026 48.0363L58.8291 47.8311L59.0475 47.8408L124.472 50.6159L124.488 50.7381C126.109 63.5856 125.43 74.3928 124.575 81.1967C123.648 88.5722 122.323 92.9683 122.306 93.0123L122.274 93.1218ZM80.006 91.5583L122.056 92.8286C122.264 92.1143 123.441 87.8794 124.284 81.1605C125.134 74.3967 125.808 63.6696 124.212 50.9061L59.2571 48.1369C59.7802 49.6026 62.9281 58.5259 63.4453 61.6938C64.0202 61.987 68.0096 64.079 71.8902 68.4664C74.3264 71.2132 76.2679 74.3598 77.6288 77.7669C79.3067 81.9755 80.1069 86.614 80.006 91.5583Z" fill="#EAA93F"/>
<path d="M182.758 93.6263H182.669L122.164 93.1221V92.8289L182.586 93.3341C185.035 88.7865 185.992 56.7947 186.061 54.3753L124.334 50.9094L124.35 50.6162L186.366 54.0988V54.2414C186.327 55.6612 185.407 89.0835 182.805 93.5549L182.758 93.6263Z" fill="#EAA93F"/>
<path d="M59.3926 47.243C59.3926 47.243 59.5669 43.1175 60.8725 41.2932C62.1782 39.4689 80.113 30.87 87.2964 28.9157C94.4798 26.9614 119.553 26.1797 119.553 26.1797L123.732 49.1104L59.3926 47.243Z" fill="#EAA93F"/>
<path d="M81.2447 46.9344L119.835 47.721L116.163 27.5703C116.163 27.5703 94.1256 28.2543 87.8169 29.9741C86.0401 30.4578 83.3593 31.4867 80.3975 32.7511C80.6756 37.2822 81.0341 43.147 81.2447 46.9344Z" fill="#183658"/>
<path d="M78.7261 33.4746C71.5153 36.6523 63.379 40.8325 62.614 41.9005C61.4661 43.504 61.0518 46.5215 61.0518 46.5215L79.1835 46.8908L78.7261 33.4746Z" fill="#183658"/>
<path d="M119.554 26.1797C119.554 26.1797 140.797 27.1353 145.586 28.3519C150.374 29.5684 162.081 35.5915 167.09 38.948C170.872 41.4828 175.644 45.917 178.531 48.7195C179.46 49.6224 178.787 51.1936 177.49 51.1438L123.733 49.1094L119.554 26.1797Z" fill="#EAA93F"/>
<path d="M122.86 27.5703C122.86 27.5703 141.739 28.4195 145.994 29.5002C150.249 30.5809 160.653 35.9337 165.105 38.9169C168.467 41.1693 174.449 45.8801 177.016 48.3728C177.197 48.5499 177.32 48.7776 177.369 49.0258C177.418 49.2741 177.391 49.5313 177.291 49.7638C177.191 49.9963 177.022 50.1932 176.808 50.3286C176.594 50.464 176.344 50.5316 176.09 50.5225L126.574 47.9438L122.86 27.5703Z" fill="#183658"/>
<path d="M159.097 27.7383L157.254 28.5835C157.179 28.6182 157.114 28.6724 157.066 28.7404C157.019 28.8084 156.99 28.8878 156.983 28.9706C156.976 29.0533 156.992 29.1364 157.028 29.2112C157.064 29.2861 157.119 29.35 157.188 29.3965L185.852 48.7196C185.852 48.7196 190.117 50.0661 190.858 46.7653C190.858 46.7653 163.597 29.8176 159.097 27.7383Z" fill="#183658"/>
<path d="M246.708 61.0361C246.708 61.0361 245.244 61.7836 244.852 62.9318C244.46 64.0799 246.021 67.3426 250.278 67.1863C254.536 67.03 246.708 61.0361 246.708 61.0361Z" fill="#CF283C"/>
<path d="M48.9307 107.959C59.5672 107.938 68.1732 99.3169 68.1528 88.7023C68.1323 78.0877 59.4932 69.4994 48.8567 69.5198C38.2202 69.5401 29.6142 78.1615 29.6346 88.7761C29.6551 99.3907 38.2942 107.979 48.9307 107.959Z" fill="#1A1A1A"/>
<path d="M48.9235 102.113C56.324 102.095 62.3087 96.0935 62.2907 88.7082C62.2726 81.323 56.2585 75.3507 48.858 75.3687C41.4574 75.3867 35.4727 81.3883 35.4908 88.7736C35.5088 96.1588 41.5229 102.131 48.9235 102.113Z" fill="#9E9DA2"/>
<path d="M48.9222 97.6848C53.8713 97.6667 57.8685 93.6482 57.8504 88.7093C57.8322 83.7703 53.8056 79.7812 48.8565 79.7993C43.9075 79.8174 39.9102 83.8358 39.9284 88.7748C39.9465 93.7138 43.9732 97.7029 48.9222 97.6848Z" fill="#D8D9DD"/>
<path d="M217.135 107.952C227.771 107.931 236.377 99.3101 236.357 88.6955C236.336 78.0809 227.697 69.4925 217.061 69.5129C206.424 69.5333 197.818 78.1546 197.839 88.7692C197.859 99.3839 206.498 107.972 217.135 107.952Z" fill="#1A1A1A"/>
<path d="M217.127 102.116C224.527 102.098 230.512 96.0964 230.494 88.7112C230.476 81.3259 224.462 75.3536 217.061 75.3716C209.66 75.3897 203.676 81.3912 203.694 88.7765C203.712 96.1617 209.726 102.134 217.127 102.116Z" fill="#9E9DA2"/>
<path d="M217.123 97.6956C222.072 97.6775 226.07 93.659 226.051 88.72C226.033 83.7811 222.007 79.7919 217.058 79.81C212.109 79.8281 208.111 83.8466 208.13 88.7855C208.148 93.7245 212.174 97.7137 217.123 97.6956Z" fill="#D8D9DD"/>
<path d="M194.744 95.2998L70.1805 93.7129C68.821 93.6953 69.0502 100.489 68.7622 101.303C68.4615 102.154 69.6908 102.94 71.347 102.94H193.247C195.638 102.94 196.381 101.722 196.071 100.485C195.92 99.9041 196.269 95.3184 194.744 95.2998Z" fill="#EAA93F"/>
<path d="M240.381 76.992C239.445 76.9548 238.723 78.3092 238.842 79.8413C238.976 81.5435 238.071 96.7948 240.571 96.7948L258.07 92.8579C264.516 89.3255 264.513 81.479 264.513 81.479C264.513 79.5247 263.568 77.9261 262.384 77.8782L240.381 76.992Z" fill="#EAA93F"/>
<path d="M82.7866 55.4949L69.038 54.7591C68.7321 54.7427 68.4452 54.6059 68.2403 54.3787C68.0354 54.1516 67.9291 53.8526 67.9449 53.5474L67.9606 53.266C67.9686 53.1147 68.0064 52.9664 68.0719 52.8297C68.1374 52.693 68.2293 52.5705 68.3422 52.4692C68.4552 52.3679 68.5871 52.2899 68.7303 52.2395C68.8736 52.1891 69.0254 52.1673 69.1771 52.1755L82.9247 52.9113C83.0763 52.9193 83.2249 52.957 83.3618 53.0223C83.4988 53.0876 83.6216 53.1791 83.7231 53.2917C83.8246 53.4043 83.9028 53.5358 83.9534 53.6786C84.004 53.8214 84.0259 53.9727 84.0178 54.1239L84.0031 54.4054C83.995 54.5566 83.9571 54.7047 83.8915 54.8414C83.826 54.978 83.7341 55.1004 83.6211 55.2015C83.5082 55.3027 83.3763 55.3807 83.2331 55.431C83.0899 55.4814 82.9382 55.5031 82.7866 55.4949Z" fill="#EAA93F"/>
<path d="M144.281 58.7859L130.532 58.0501C130.381 58.042 130.232 58.0041 130.095 57.9387C129.958 57.8734 129.836 57.7817 129.734 57.669C129.633 57.5563 129.555 57.4248 129.504 57.2819C129.454 57.1391 129.432 56.9877 129.44 56.8365L129.455 56.5551C129.463 56.4038 129.501 56.2557 129.566 56.1191C129.632 55.9825 129.724 55.8601 129.837 55.7589C129.95 55.6577 130.082 55.5797 130.225 55.5294C130.368 55.4791 130.52 55.4574 130.671 55.4655L144.42 56.2013C144.726 56.2177 145.013 56.3548 145.218 56.5824C145.423 56.81 145.529 57.1094 145.513 57.415L145.497 57.6964C145.489 57.8476 145.451 57.9958 145.386 58.1324C145.32 58.269 145.228 58.3914 145.115 58.4925C145.002 58.5937 144.871 58.6717 144.727 58.722C144.584 58.7724 144.432 58.7941 144.281 58.7859Z" fill="#EAA93F"/>
<path d="M5.05301 51.3535H18.5696C18.8366 51.3536 19.0994 51.4195 19.3348 51.5454C19.5701 51.6713 19.7707 51.8532 19.9186 52.075C20.0665 52.2968 20.1571 52.5516 20.1826 52.8168C20.208 53.082 20.1673 53.3493 20.0642 53.5951L18.546 57.2105C17.8379 58.8957 16.6465 60.3347 15.1214 61.3466C13.5963 62.3586 11.8055 62.8985 9.97382 62.8985H5.05301C4.59036 62.8985 4.14666 62.7151 3.81952 62.3888C3.49238 62.0624 3.30859 61.6198 3.30859 61.1582V53.0938C3.30859 52.6323 3.49238 52.1896 3.81952 51.8632C4.14666 51.5369 4.59036 51.3535 5.05301 51.3535Z" fill="#CF283C"/>
<path d="M249.089 60.0039C249.089 60.0039 245.65 60.4925 246.23 62.7477C246.631 64.3034 248.904 66.1746 250.279 67.1869C250.931 67.6667 251.713 67.9392 252.522 67.9686L260.465 68.2618C260.465 68.2618 261.228 65.8355 258.612 62.3334C258.111 61.665 257.464 61.1192 256.72 60.7371C255.976 60.355 255.155 60.1467 254.318 60.128L249.089 60.0039Z" fill="#EAFCFC"/>
<path d="M224.86 56.9902L225.484 57.126L229.381 3.10254L228.649 3.92334L224.86 56.9902Z" fill="#F47458"/>
<path d="M192.051 46.7652C192.051 46.7652 227.899 -0.603903 234.657 0.00583635C234.657 0.00583635 235.109 -0.177867 233.258 1.74809C227.702 7.52399 213.205 24.8527 210.735 28.2551C208.265 31.6575 194.389 48.2026 194.389 48.2026L192.051 46.7652Z" fill="#F7CC7F"/>
<path opacity="0.1" d="M93.6104 29.0151L88.3057 47.0776L98.1453 47.278L102.223 28.2656L93.6104 29.0151Z" fill="#EAFCFC"/>
<path opacity="0.1" d="M104.703 28.1066C104.703 28.1066 100.296 47.3221 100.644 47.329L103.256 47.3827L107.838 27.9297L104.703 28.1066Z" fill="#EAFCFC"/>
<path opacity="0.1" d="M137.789 28.4922L132.764 48.2696L139.732 48.6145L144.055 29.101L137.789 28.4922Z" fill="#EAFCFC"/>
<path opacity="0.1" d="M151.253 31.489C150.254 31.0434 149.307 30.6457 148.449 30.3164L144.959 48.9046C145 48.9046 145.07 48.9095 145.155 48.9144L147.57 49.0405L151.253 31.489Z" fill="#EAFCFC"/>
<path d="M221.576 25.7395C221.674 25.636 221.748 25.3594 221.854 25.2676C222.566 25.8412 222.821 27.4681 222.965 27.3772C223.153 27.258 223.051 27.1652 223.022 26.9727C222.992 26.7802 223.013 26.8447 222.985 26.6512C222.956 26.4577 223.297 26.4128 223.535 26.3581C223.773 26.3034 223.801 26.6199 223.847 26.8975C223.991 27.7564 224.337 29.8621 224.337 30.1406L231.711 36.8976C233.2 36.0211 234.548 34.9261 235.71 33.6495C235.991 34.0932 236.285 34.3589 236.566 34.269C237.128 34.0883 239.931 33.7267 242.535 33.1942C240.903 35.3033 239.136 37.3038 237.243 39.1831C234.677 41.6905 231.387 43.6164 230.756 43.2324C230.035 42.7956 222.285 32.5287 222.284 32.5268C222.283 32.5248 220.761 30.938 220.149 30.3771C219.611 29.8817 219.23 29.2749 218.974 28.8351C220.11 28.0163 220.672 26.7919 221.576 25.7395Z" fill="#F7A491"/>
<path d="M213.469 32.5491C213.483 32.6332 213.504 32.7161 213.53 32.7973C213.554 32.8677 213.593 32.8784 213.659 32.8423C213.685 32.8271 213.711 32.8098 213.735 32.7905L213.949 32.6126C214.201 32.4016 214.453 32.1885 214.707 31.9785C214.731 31.9489 214.764 31.9267 214.8 31.9143C214.836 31.9019 214.876 31.8998 214.913 31.9081C215.229 32.0058 215.545 32.1035 215.861 32.2012C215.887 32.2065 215.909 32.2193 215.927 32.238C215.945 32.2567 215.956 32.2804 215.959 32.3058C216.001 32.5452 216.047 32.7846 216.083 33.025C216.094 33.1187 216.094 33.2136 216.083 33.3074C216.075 33.3985 216.048 33.487 216.004 33.5668C215.959 33.6466 215.897 33.7158 215.823 33.7696C215.549 33.9709 215.309 34.2103 215.056 34.435C214.958 34.5229 214.966 34.5669 215.093 34.607C215.308 34.6766 215.531 34.7183 215.757 34.7311C216.008 34.7469 216.261 34.7107 216.498 34.6246C217.044 34.4226 217.492 34.0194 217.75 33.4979C217.975 33.0699 218.038 32.5751 217.927 32.1045C217.906 32.0214 217.909 31.9339 217.937 31.8528C217.965 31.7717 218.017 31.7005 218.085 31.6482C218.265 31.4918 218.45 31.3423 218.63 31.1879C219.195 30.7062 219.758 30.2206 220.325 29.7408C221.37 28.8555 222.414 27.9718 223.459 27.0898C223.77 26.8289 224.088 26.5768 224.404 26.3218C224.498 26.243 224.61 26.1906 224.731 26.1699C224.852 26.1493 224.975 26.1613 225.09 26.2045C225.439 26.3172 225.814 26.3253 226.167 26.228C226.459 26.157 226.734 26.0281 226.976 25.849C227.217 25.6699 227.42 25.4442 227.572 25.1853C227.735 24.9625 227.837 24.7007 227.866 24.4263C227.896 24.1518 227.853 23.8744 227.741 23.6219C227.719 23.5652 227.683 23.5613 227.643 23.6024C227.491 23.7401 227.344 23.8838 227.188 24.0176C227.032 24.1515 226.879 24.2717 226.72 24.3919C226.658 24.4401 226.587 24.4734 226.51 24.4892C226.434 24.505 226.354 24.5028 226.279 24.4828C226.016 24.4134 225.756 24.3382 225.495 24.2502C225.403 24.2204 225.322 24.164 225.262 24.0881C225.202 24.0123 225.166 23.9205 225.158 23.8242C225.133 23.6698 225.115 23.5142 225.106 23.3581C225.094 23.237 225.113 23.1149 225.16 23.0028C225.207 22.8906 225.281 22.7918 225.376 22.7151C225.471 22.6368 225.562 22.553 225.648 22.464C225.778 22.3291 225.902 22.1875 226.027 22.0477C226.043 22.0301 226.056 22.0112 226.068 21.991C226.073 21.9844 226.077 21.9766 226.078 21.9683C226.08 21.9601 226.079 21.9516 226.076 21.9436C226.073 21.9357 226.069 21.9286 226.063 21.9229C226.056 21.9172 226.049 21.913 226.041 21.9109C226.009 21.8996 225.976 21.8914 225.943 21.8865C225.694 21.8464 225.44 21.8464 225.192 21.8865C225.159 21.8865 225.127 21.8953 225.094 21.8982C224.64 21.9363 224.217 22.1419 223.908 22.4747C223.66 22.7244 223.481 23.0335 223.389 23.3723C223.296 23.7111 223.293 24.068 223.379 24.4085C223.398 24.4754 223.397 24.5465 223.376 24.6129C223.355 24.6792 223.314 24.7377 223.259 24.7808L222.628 25.3114C221.654 26.1335 220.68 26.9546 219.706 27.7748C219.004 28.3611 218.298 28.9473 217.594 29.5336C217.314 29.7662 217.035 29.9988 216.753 30.2294C216.701 30.2752 216.636 30.3036 216.568 30.3106C216.499 30.3176 216.43 30.3029 216.37 30.2685C216.015 30.0926 215.608 30.0526 215.226 30.1561C214.731 30.2655 214.286 30.5339 213.958 30.9202C213.56 31.3941 213.358 31.9247 213.469 32.5491Z" fill="#13375B"/>
<path d="M221.036 29.3513C220.925 29.5063 220.762 29.6157 220.576 29.6585C220.391 29.7014 220.196 29.6748 220.029 29.5838C219.378 29.2281 218.37 28.5138 218.7 27.6364C219.176 26.3661 221.719 24.8554 221.933 25.3264C222.146 25.7974 222.166 28.6399 221.639 28.8002C221.33 28.892 221.201 29.1187 221.036 29.3513Z" fill="#E59588"/>
<path d="M235.505 40.7121L233.046 36.0315C233.046 36.0315 238.2 27.3349 239.888 25.5575C246.083 19.036 247.058 26.5347 247.151 27.9681C247.359 31.1712 235.505 40.7121 235.505 40.7121Z" fill="#B75742"/>
<path d="M251.669 42.4723L260.755 29.5368C257.012 24.6511 256.196 24.272 254.853 22.9157C249.967 17.9811 248.857 18.6739 247.558 19.1205C246.677 19.4244 245.325 20.8275 245.325 20.8275C245.325 20.8275 241.691 23.4658 240.022 25.3293C238.442 27.0881 247.047 37.1459 249.523 39.9434C249.921 40.3929 250.662 41.2655 251.669 42.4723Z" fill="#F47458"/>
<path d="M263.458 101.389C263.458 101.389 263.654 104.832 263.654 104.839C263.726 105.277 264.008 106.357 264.008 106.754C264.008 108.247 257.368 105.484 258.856 104.824C258.991 104.765 259.696 104.312 259.737 103.804C259.805 103.022 259.978 101.437 259.978 101.437L263.458 101.389Z" fill="#F7A491"/>
<path d="M258.793 104.84C258.793 104.84 260.352 105.296 261.15 105.411C261.949 105.525 263.002 104.563 263.567 104.824C264.188 105.11 264.163 107.683 264.163 107.683C264.163 107.683 255.804 108.415 253.453 107.657C252.521 107.356 255.607 105.903 258.793 104.84Z" fill="#13375B"/>
<path d="M279.711 100.384L280.157 103.812C280.261 104.243 280.621 105.299 280.647 105.696C280.757 107.185 273.933 104.914 275.369 104.146C275.498 104.076 276.353 103.22 276.36 102.71C276.371 101.929 276.244 100.685 276.244 100.685L279.711 100.384Z" fill="#F7A491"/>
<path d="M275.387 104.13C275.387 104.13 276.975 104.473 277.779 104.529C278.583 104.585 279.564 103.552 280.146 103.767C280.787 104.007 281 106.571 281 106.571C281 106.571 272.746 107.514 270.267 107.328C269.29 107.255 272.289 105.423 275.387 104.13Z" fill="#13375B"/>
<path d="M270.758 43.75C270.758 43.75 274.746 46.6296 274.611 51.0561C274.476 55.4826 276.133 76.1502 276.133 76.1502L280.071 100.956L275.573 101.389C275.573 101.389 268.834 76.7912 268.974 77.4254C269.113 78.0595 266.035 59.9745 266.035 59.9745L270.876 45.633L270.758 43.75Z" fill="#0A253A"/>
<path d="M240.75 17.7773L245.326 20.828C245.326 20.828 245.633 24.8069 244.046 25.8798C242.716 26.7808 241.808 24.5548 241.808 24.5548C241.808 24.5548 240.004 22.0602 238.634 21.2833C237.263 20.5065 240.75 17.7773 240.75 17.7773Z" fill="#F7A491"/>
<path d="M241.562 19.5958C241.321 20.7035 240.895 21.763 240.303 22.7305C239.768 22.153 239.168 21.5872 238.632 21.2833C238 20.9247 238.403 20.1508 239.024 19.4209C239.893 18.517 240.753 17.7773 240.753 17.7773L241.685 18.3216C241.741 18.6744 241.623 19.3085 241.562 19.5958Z" fill="#F47458"/>
<path d="M238.222 10.6761C238.303 10.5784 242.291 15.5276 241.799 17.8503C241.306 20.173 238.897 22.2934 237.221 21.711C235.368 21.0661 231.921 15.2355 233.157 12.4047C234.393 9.57389 238.222 10.6761 238.222 10.6761Z" fill="#F7A491"/>
<path d="M233.854 9.11358C235.593 8.14914 238.429 7.87163 240.548 8.97874C243.153 10.3399 243.747 13.7668 242.931 15.852C242.115 17.9372 242.97 19.2573 242.97 19.2573L241.691 18.4053C241.691 18.4053 240.86 17.0588 240.755 16.0601C240.649 15.0615 239.187 15.2354 238.469 14.781C237.918 14.4312 237.216 13.2938 236.324 12.7046C236.324 12.7046 234.082 12.43 232.978 13.0476C231.097 14.097 231.365 10.4953 233.854 9.11358Z" fill="#13375B"/>
<path d="M239.59 15.6132C239.577 16.3558 239.929 16.9646 240.374 16.9714C240.818 16.9782 241.194 16.3851 241.206 15.6395C241.219 14.894 240.867 14.2881 240.423 14.2813C239.978 14.2745 239.603 14.8705 239.59 15.6132Z" fill="#F7A491"/>
<path d="M235.505 19.5566L237.616 17.9795C237.616 17.9795 238.174 18.8306 237.266 19.5507C236.158 20.4302 235.505 19.5566 235.505 19.5566Z" fill="white"/>
<path d="M272.547 44.8689C272.547 44.8689 265.663 36.0062 260.474 29.1671C260.135 30.4882 257.788 32.0712 257.221 32.1201C253.749 32.4132 247.88 20.6542 247.996 20.2536L247.591 19.1094C246.624 19.34 245.942 20.1227 245.942 20.1227C247.789 27.8255 254.106 34.9851 254.106 34.9851C251.951 37.0908 248.65 38.9454 248.649 38.9454C248.987 39.3363 249.283 39.6744 249.521 39.9441C250.629 41.1958 259.226 51.7294 259.226 51.7294L257.94 80.0335L258.985 102.586L263.813 102.731C263.813 102.731 266.123 82.446 266.216 80.6149C266.309 78.7837 273.412 56.3269 274.174 53.9769C275.298 50.5051 274.08 46.7978 272.547 44.8689Z" fill="#13375B"/>
<path d="M236.744 58.0104C237.03 57.1027 236.923 55.9496 237.382 54.906C237.596 54.4708 237.857 54.0602 238.161 53.6817C240.978 50.6369 248.332 42.7601 248.558 42.254C248.824 41.654 251.318 29.1016 251.318 29.1016L245.978 30.1227L243.509 41.1771C243.17 41.6657 236.591 50.5138 236.591 50.5138C236.591 50.5138 235.305 52.344 234.57 53.242C234.224 53.6061 233.844 53.9357 233.434 54.2259C232.988 54.5504 232.183 55.3116 232.043 55.5383C231.88 55.8021 231.561 56.3571 231.374 56.6932C231.187 57.0294 230.953 57.4163 230.876 57.6069C230.828 57.7222 230.633 57.9215 230.484 58.0593C230.436 58.1051 230.403 58.1642 230.389 58.2289C230.375 58.2936 230.381 58.361 230.406 58.4223C230.431 58.4836 230.474 58.536 230.529 58.5726C230.585 58.6093 230.65 58.6286 230.716 58.628C230.998 58.6221 231.304 58.3524 231.486 58.1844C232.013 57.7085 232.526 56.702 232.595 56.7851C232.663 56.8681 232.41 58.7677 232.399 58.9866C232.387 59.2055 232.105 61.4158 232.19 61.8623C232.275 62.3089 232.569 62.3294 232.716 62.1125C232.841 61.9249 233.456 58.9016 233.456 58.9016C233.456 58.9016 233.536 58.5166 233.664 58.6837C233.792 58.8508 233.239 61.5975 233.233 62.0226C233.227 62.4477 233.422 62.7349 233.74 62.4897C234.125 62.1965 234.536 59.225 234.536 59.225C234.536 59.225 234.594 58.8537 234.732 58.9319C234.87 59.01 234.363 61.3405 234.421 61.5702C234.479 61.7998 234.755 61.9659 234.998 61.6825C235.284 61.3493 235.627 58.6964 235.627 58.6964C235.627 58.6964 235.71 58.501 235.785 58.5987C235.859 58.6964 235.566 60.7113 235.707 60.9497C235.72 60.9764 235.738 61.0002 235.76 61.0197C235.782 61.0392 235.808 61.054 235.836 61.0632C235.864 61.0723 235.894 61.0756 235.923 61.0729C235.953 61.0702 235.981 61.0615 236.007 61.0474C236.441 60.9184 236.458 58.9221 236.744 58.0104Z" fill="#F8A492"/>
<path d="M249.721 38.7135L244.259 37.2018C244.259 37.2018 243.671 26.9594 243.979 24.4833C245.107 15.3959 250.987 19.1354 251.931 20.2533C254.043 22.7548 249.721 38.7135 249.721 38.7135Z" fill="#B75742"/>
<path d="M40.4932 44.1309C40.4932 44.1309 43.9046 45.5526 46.9076 44.1309C49.9107 42.7091 75.8996 29.2607 77.7283 28.4966C79.5569 27.7324 76.3149 27.7422 76.3149 27.7422C76.3149 27.7422 65.8416 31.9439 60.9453 34.5509L40.4932 44.1309Z" fill="#183658"/>
<path d="M179.838 45.0537C179.988 45.0537 183.854 45.9752 183.854 45.9752C184.401 46.142 184.875 46.4889 185.199 46.9592C185.522 47.4295 185.677 47.9954 185.636 48.5646L185.519 50.2414C185.481 50.7859 185.267 51.3034 184.909 51.7162C184.551 52.129 184.068 52.4148 183.533 52.5308C181.099 53.0575 179.171 53.2734 179.171 53.1171C179.171 52.8963 179.838 45.0537 179.838 45.0537Z" fill="#EAA93F"/>
</g>
<defs>
<clipPath id="clip0_3203_2976">
<rect width="281" height="108" fill="white"/>
</clipPath>
</defs>
</svg>
