<svg width="76" height="19" viewBox="0 0 76 19" fill="none" xmlns="http://www.w3.org/2000/svg">
<path d="M0 18V1H6.70786C7.92746 1 9.12156 1.47793 9.96015 2.28993C10.8234 3.07875 11.3328 4.19924 11.3328 5.34611C11.3328 6.03822 11.1534 6.68318 10.8744 7.25462C11.3575 7.51756 11.8142 7.82765 12.1961 8.20968C13.3655 9.28461 14 10.7184 14 12.2465C14 13.773 13.3655 15.206 12.1961 16.3041C11.6373 16.83 10.9773 17.2591 10.24 17.546C9.50344 17.8569 8.71672 18 7.92746 18H0ZM6.68235 6.53933C7.39336 6.53933 7.95128 5.99107 7.95128 5.3453C7.95128 4.69954 7.39336 4.17446 6.68235 4.12731H3.37902V6.53933H6.68235ZM7.90025 14.8719C9.39967 14.8239 10.6193 13.6531 10.6193 12.2465C10.6193 10.8607 9.40052 9.69141 7.92746 9.66663H3.37902V14.8719H7.90025Z" fill="white"/>
<path d="M20.4752 19C19.7595 19 19.0206 18.8239 18.3296 18.4986C17.6889 18.2244 17.0961 17.7724 16.5529 17.1964C15.691 16.2455 15.1717 14.9936 15.0487 13.6888C15.0248 13.4633 15 13.2386 15 12.9878C15 12.4864 15.0743 11.9598 15.1965 11.4357C15.4194 10.4329 15.8883 9.50716 16.5529 8.80532C17.0458 8.25442 17.6146 7.82845 18.3296 7.47628C18.9958 7.15177 19.7363 7 20.5008 7C21.2893 7 22.0042 7.15177 22.6713 7.47628C23.411 7.82845 24.0029 8.27958 24.4471 8.80532C25.0877 9.50716 25.5814 10.4094 25.8283 11.4357C25.9505 11.912 26 12.4118 26 12.9878C26 13.1882 26 13.3878 26 13.5647H17.7128L17.7384 13.7392C18.0588 15.2929 19.2187 16.419 20.5017 16.419H20.5264C21.2414 16.3704 22.0306 15.9193 22.4995 15.5168L22.7703 15.2929L24.8169 17.0957L24.4479 17.4211C24.1763 17.6726 23.832 17.972 23.4613 18.1732H23.4374C22.5483 18.6973 21.5881 18.9732 20.5025 18.9992H20.4752V19ZM18.0579 11.3351L17.9589 11.5364H23.0642L22.9652 11.3351C22.3972 10.2576 21.461 9.60695 20.4992 9.60695C19.5382 9.60695 18.5764 10.2828 18.0579 11.3351Z" fill="white"/>
<path d="M30.3392 18V4.15209H26V1H38V4.15209H33.6616V18H30.3392Z" fill="white"/>
<path d="M39.7564 17.2591C38.6278 16.1004 38 14.5873 38 12.9992C38 11.4101 38.6269 9.89873 39.7564 8.73924C40.8868 7.60506 42.3953 7 44.0004 7C45.0543 7 46.009 7.37806 46.8384 8.13333L46.9628 8.23544V7.227H50V18.773H46.9628V17.865L46.8384 17.9916C45.9333 18.8734 44.9038 19 44.0004 19C42.418 18.9992 40.912 18.3941 39.7564 17.2591ZM41.0372 12.9983C41.0372 14.6624 42.3953 16.0498 44.0004 16.0498C45.6073 16.0498 46.9628 14.6624 46.9628 12.9983C46.9628 11.3586 45.6073 9.94852 44.0004 9.94852C42.3953 9.94852 41.0372 11.3595 41.0372 12.9983Z" fill="white"/>
<path d="M56.6634 17.8809C55.4346 17.646 54.279 17.1288 53.3687 16.3514L53 16.0684L54.8444 14.1139L55.1877 14.4182C56.2691 15.291 57.1556 15.4558 57.721 15.4558C58.1391 15.4558 58.4329 15.4085 58.7292 15.2681C59.0979 15.1262 59.27 14.8897 59.27 14.5617C59.27 14.2795 59.0979 13.9255 57.6469 13.6905C56.3193 13.4311 55.4831 13.1709 55.0905 12.9589C54.5737 12.6774 54.1556 12.3005 53.8601 11.8283C53.5654 11.3576 53.4173 10.8388 53.4173 10.2514C53.4173 9.63883 53.614 9.04989 54.0074 8.50903C54.3276 8.06121 54.7942 7.708 55.4831 7.37607C56.0494 7.11826 56.6872 7 57.4502 7C57.721 7 57.9909 7.02444 58.237 7.0473C59.3185 7.21287 60.4008 7.66069 61.2864 8.31981L61.6543 8.60206L59.9095 10.5337L59.5654 10.2759C58.7054 9.61597 57.9663 9.49692 57.5243 9.49692C57.2049 9.49692 56.9103 9.54422 56.6395 9.66248C56.3202 9.82648 56.1473 10.0874 56.1473 10.2514C56.1473 10.581 56.3926 10.8159 57.6708 11.099C59.3432 11.4758 59.8848 11.6643 60.228 11.8062C60.9177 12.1823 61.2115 12.4882 61.4576 12.7949C61.8272 13.29 62 13.901 62 14.5617C62 15.2445 61.8033 15.8563 61.4337 16.3522C61.0642 16.8465 60.5728 17.2707 59.8593 17.6003C59.2955 17.8589 58.5564 18 57.8197 18C57.4757 18 57.1062 17.9527 56.6634 17.8809Z" fill="white"/>
<path d="M72.1469 18L68.2218 13.0214L67.2085 14.0516V17.9992H64V0H67.2085V9.7355L70.3194 6.76888H74.6908L70.4434 10.7895L76 18H72.1469Z" fill="white"/>
</svg>
