<svg width="198" height="43" viewBox="0 0 198 43" fill="none" xmlns="http://www.w3.org/2000/svg">
<path d="M8.064 31.36C6.456 31.36 5.22 30.988 4.356 30.244C3.492 29.476 3.06 28.312 3.06 26.752V11.272H8.46V26.104C8.46 26.992 8.88 27.436 9.72 27.436C10.08 27.436 10.488 27.352 10.944 27.184L11.448 30.64C10.536 31.12 9.408 31.36 8.064 31.36ZM18.9 31.36C17.292 31.36 16.056 30.988 15.192 30.244C14.328 29.476 13.896 28.312 13.896 26.752V11.272H19.296V26.104C19.296 26.992 19.716 27.436 20.556 27.436C20.916 27.436 21.324 27.352 21.78 27.184L22.284 30.64C21.372 31.12 20.244 31.36 18.9 31.36ZM25.4377 31V24.988C25.4377 23.476 25.7377 22.312 26.3377 21.496C26.9377 20.68 27.7897 20.104 28.8937 19.768L28.9297 19.624L25.0777 18.22V17.284C25.0777 16.108 25.4257 15.028 26.1217 14.044C26.8177 13.06 27.8377 12.28 29.1817 11.704C30.5497 11.104 32.2057 10.804 34.1497 10.804C36.8617 10.804 39.0217 11.44 40.6297 12.712C42.2377 13.96 43.0417 15.856 43.0417 18.4V31H37.6417V18.724C37.6417 17.524 37.3177 16.624 36.6697 16.024C36.0457 15.424 35.1577 15.124 34.0057 15.124C32.9017 15.124 32.0737 15.364 31.5217 15.844C30.9697 16.3 30.6697 16.864 30.6217 17.536L33.8257 19.012L33.4297 21.352C32.5657 21.4 31.9177 21.712 31.4857 22.288C31.0537 22.864 30.8377 23.644 30.8377 24.628V31H25.4377ZM31.6004 8.572V6.772C31.9364 6.676 32.3084 6.544 32.7164 6.376C33.1244 6.208 33.4844 5.98 33.7964 5.692C34.1084 5.404 34.2644 5.044 34.2644 4.612C34.2644 4.276 34.1684 4.012 33.9764 3.82C33.7844 3.628 33.5444 3.532 33.2564 3.532C33.0644 3.532 32.8604 3.568 32.6444 3.64C32.4284 3.712 32.2364 3.784 32.0684 3.856L31.3844 1.444C31.8644 1.036 32.4644 0.771998 33.1844 0.651998C33.8804 0.507998 34.4684 0.435999 34.9484 0.435999C36.0284 0.435999 36.8804 0.687998 37.5044 1.192C38.1044 1.696 38.4044 2.44 38.4044 3.424C38.4044 4.048 38.2244 4.6 37.8644 5.08H43.3724V8.572H31.6004ZM54.3465 31.36C52.7385 31.36 51.5025 30.988 50.6385 30.244C49.7745 29.476 49.3425 28.312 49.3425 26.752V9.616C49.3425 8.272 49.5225 7.276 49.8825 6.628C50.2665 5.98 50.6985 5.476 51.1785 5.116L51.1425 4.972H45.5625L46.5705 1.084H58.0185V4.972C57.1305 4.972 56.3625 5.26 55.7145 5.836C55.0665 6.412 54.7425 7.468 54.7425 9.004V26.104C54.7425 26.992 55.1625 27.436 56.0025 27.436C56.3625 27.436 56.7705 27.352 57.2265 27.184L57.7305 30.64C56.8185 31.12 55.6905 31.36 54.3465 31.36ZM67.5028 31.468C64.8148 31.468 62.7868 30.868 61.4188 29.668C60.0508 28.468 59.3668 26.716 59.3668 24.412V22.972C59.3668 21.988 59.4988 21.184 59.7628 20.56C60.0268 19.912 60.3508 19.324 60.7348 18.796C61.1188 18.268 61.4308 17.8 61.6708 17.392C61.9348 16.96 62.0668 16.516 62.0668 16.06C62.0668 15.628 61.9588 15.328 61.7428 15.16C61.5508 14.968 61.2868 14.872 60.9508 14.872C60.5188 14.872 59.9908 15.016 59.3668 15.304L58.5028 11.92C59.1748 11.56 59.8948 11.32 60.6628 11.2C61.4548 11.056 62.1508 10.984 62.7508 10.984C64.3348 10.984 65.4508 11.368 66.0988 12.136C66.7708 12.88 67.1068 13.888 67.1068 15.16C67.1068 15.904 66.9988 16.564 66.7828 17.14C66.5668 17.692 66.2908 18.268 65.9548 18.868C65.6428 19.42 65.3548 19.936 65.0908 20.416C64.8508 20.896 64.7308 21.592 64.7308 22.504V23.944C64.7308 25.12 64.9708 25.972 65.4508 26.5C65.9548 27.004 66.6508 27.256 67.5388 27.256C69.3868 27.256 70.3108 26.212 70.3108 24.124V11.272H75.6748V24.268C75.6748 26.644 74.9788 28.444 73.5868 29.668C72.1948 30.868 70.1668 31.468 67.5028 31.468ZM88.8075 31.468C86.1195 31.468 84.0915 30.868 82.7235 29.668C81.3555 28.468 80.6715 26.716 80.6715 24.412V22.972C80.6715 21.988 80.8035 21.184 81.0675 20.56C81.3315 19.912 81.6555 19.324 82.0395 18.796C82.4235 18.268 82.7355 17.8 82.9755 17.392C83.2395 16.96 83.3715 16.516 83.3715 16.06C83.3715 15.628 83.2635 15.328 83.0475 15.16C82.8555 14.968 82.5915 14.872 82.2555 14.872C81.8235 14.872 81.2955 15.016 80.6715 15.304L79.8075 11.92C80.4795 11.56 81.1995 11.32 81.9675 11.2C82.7595 11.056 83.4555 10.984 84.0555 10.984C85.6395 10.984 86.7555 11.368 87.4035 12.136C88.0755 12.88 88.4115 13.888 88.4115 15.16C88.4115 15.904 88.3035 16.564 88.0875 17.14C87.8715 17.692 87.5955 18.268 87.2595 18.868C86.9475 19.42 86.6595 19.936 86.3955 20.416C86.1555 20.896 86.0355 21.592 86.0355 22.504V23.944C86.0355 25.12 86.2755 25.972 86.7555 26.5C87.2595 27.004 87.9555 27.256 88.8435 27.256C90.6915 27.256 91.6155 26.212 91.6155 24.124V11.272H96.9795V24.268C96.9795 26.644 96.2835 28.444 94.8915 29.668C93.4995 30.868 91.4715 31.468 88.8075 31.468ZM86.0926 8.572V6.772C86.4286 6.676 86.8006 6.544 87.2086 6.376C87.6166 6.208 87.9766 5.98 88.2886 5.692C88.6006 5.404 88.7566 5.044 88.7566 4.612C88.7566 4.276 88.6606 4.012 88.4686 3.82C88.2766 3.628 88.0366 3.532 87.7486 3.532C87.5566 3.532 87.3526 3.568 87.1366 3.64C86.9206 3.712 86.7286 3.784 86.5606 3.856L85.8766 1.444C86.3566 1.036 86.9566 0.771998 87.6766 0.651998C88.3726 0.507998 88.9606 0.435999 89.4406 0.435999C90.5206 0.435999 91.3726 0.687998 91.9966 1.192C92.5966 1.696 92.8966 2.44 92.8966 3.424C92.8966 4.048 92.7166 4.6 92.3566 5.08H97.8646V8.572H86.0926ZM109.86 31.468C106.932 31.468 104.76 30.76 103.344 29.344C101.928 27.904 101.22 25.78 101.22 22.972C101.22 22.492 101.232 21.916 101.256 21.244C101.304 20.548 101.364 19.936 101.436 19.408H110.076V22.828H106.512V23.332C106.512 24.772 106.776 25.828 107.304 26.5C107.856 27.148 108.696 27.472 109.824 27.472C111.024 27.472 111.96 27.052 112.632 26.212C113.304 25.348 113.64 23.788 113.64 21.532C113.64 19.396 113.268 17.8 112.524 16.744C111.78 15.664 110.412 15.124 108.42 15.124C107.34 15.124 106.224 15.292 105.072 15.628C103.92 15.964 102.972 16.336 102.228 16.744V12.244C102.996 11.836 104.052 11.5 105.396 11.236C106.764 10.948 108.108 10.804 109.428 10.804C111.756 10.804 113.628 11.236 115.044 12.1C116.484 12.94 117.528 14.14 118.176 15.7C118.848 17.26 119.184 19.108 119.184 21.244C119.184 24.508 118.452 27.028 116.988 28.804C115.524 30.58 113.148 31.468 109.86 31.468ZM134.98 31.36C133.276 31.36 131.896 31.036 130.84 30.388C129.808 29.74 129.076 28.912 128.644 27.904H128.356L127.78 31H123.676V11.272H129.076V20.704C129.076 22.744 129.424 24.256 130.12 25.24C130.816 26.2 131.8 26.68 133.072 26.68C134.08 26.68 134.848 26.38 135.376 25.78C135.904 25.18 136.168 24.22 136.168 22.9V11.272H141.568V24.088C141.568 26.416 141.004 28.216 139.876 29.488C138.772 30.736 137.14 31.36 134.98 31.36ZM135.436 40.54C133.516 40.54 132.112 40.252 131.224 39.676C130.336 39.1 129.892 38.344 129.892 37.408V36.796C129.892 36.388 129.784 36.136 129.568 36.04C129.352 35.968 129.064 35.98 128.704 36.076L128.452 33.664C128.788 33.52 129.22 33.424 129.748 33.376C130.276 33.328 130.708 33.304 131.044 33.304C132.1 33.304 132.868 33.496 133.348 33.88C133.804 34.264 134.032 34.804 134.032 35.5V36.328C134.032 36.736 134.128 37.048 134.32 37.264C134.488 37.504 134.812 37.624 135.292 37.624C135.796 37.624 136.144 37.504 136.336 37.264C136.528 37.048 136.624 36.736 136.624 36.328V33.412H141.016V36.904C141.016 38.08 140.572 38.98 139.684 39.604C138.796 40.228 137.38 40.54 135.436 40.54ZM151.953 31.36C149.889 31.36 148.293 30.868 147.165 29.884C146.061 28.9 145.509 27.52 145.509 25.744C145.509 23.824 146.193 22.288 147.561 21.136C148.953 19.984 151.137 19.288 154.113 19.048L157.857 18.76V18.184C157.857 17.032 157.545 16.204 156.921 15.7C156.297 15.196 155.337 14.944 154.041 14.944C152.793 14.944 151.569 15.136 150.369 15.52C149.193 15.88 148.173 16.312 147.309 16.816V12.352C148.005 12.016 148.989 11.68 150.261 11.344C151.533 10.984 153.009 10.804 154.689 10.804C156.321 10.804 157.773 11.044 159.045 11.524C160.317 11.98 161.313 12.76 162.033 13.864C162.777 14.968 163.149 16.48 163.149 18.4V31H157.857V22.648L154.725 22.972C153.285 23.116 152.277 23.404 151.701 23.836C151.149 24.268 150.873 24.844 150.873 25.564C150.873 26.284 151.101 26.824 151.557 27.184C152.037 27.544 152.649 27.724 153.393 27.724C153.681 27.724 153.969 27.7 154.257 27.652C154.545 27.58 154.809 27.508 155.049 27.436L155.517 30.82C155.061 30.988 154.521 31.12 153.897 31.216C153.273 31.312 152.625 31.36 151.953 31.36Z" fill="#173053"/>
<line x1="2.5" y1="41.5" x2="122.5" y2="41.5" stroke="#1B4072" stroke-width="3" stroke-linecap="round"/>
<line x1="165.5" y1="29.5" x2="196.5" y2="29.5" stroke="#173053" stroke-width="3" stroke-linecap="round" stroke-dasharray="6 6"/>
</svg>
