<svg width="185" height="53" viewBox="0 0 185 53" fill="none" xmlns="http://www.w3.org/2000/svg">
<path d="M8.064 41.36C6.456 41.36 5.22 40.988 4.356 40.244C3.492 39.476 3.06 38.312 3.06 36.752V21.272H8.46V36.104C8.46 36.992 8.88 37.436 9.72 37.436C10.08 37.436 10.488 37.352 10.944 37.184L11.448 40.64C10.536 41.12 9.408 41.36 8.064 41.36ZM16.3133 41L12.8933 21.272H18.1493L19.1213 28.22C19.1933 28.796 19.2773 29.588 19.3733 30.596C19.4933 31.58 19.6013 32.732 19.6973 34.052H19.8053C20.1173 32.732 20.3933 31.58 20.6333 30.596C20.8973 29.588 21.1133 28.76 21.2813 28.112L23.2253 21.272H26.5013L28.4453 28.112C28.6373 28.76 28.8533 29.588 29.0933 30.596C29.3333 31.58 29.6093 32.732 29.9213 34.052H30.0293C30.1493 32.732 30.2453 31.58 30.3173 30.596C30.4133 29.588 30.5093 28.796 30.6053 28.22L31.6133 21.272H36.8333L33.4493 41H28.1573L25.8893 32.972C25.6493 32.036 25.4573 31.184 25.3133 30.416C25.1933 29.624 25.0733 28.82 24.9533 28.004H24.8093C24.6653 28.82 24.5213 29.6 24.3773 30.344C24.2573 31.088 24.0533 31.964 23.7653 32.972L21.4613 41H16.3133ZM18.918 18.536V16.268L22.554 14.756H35.406V18.536H18.918ZM30.762 7.364V0.667998H35.442V7.364H30.762ZM52.0816 41.36C50.3776 41.36 48.9976 41.036 47.9416 40.388C46.9096 39.74 46.1776 38.912 45.7456 37.904H45.4576L44.8816 41H40.7776V21.272H46.1776V30.704C46.1776 32.744 46.5256 34.256 47.2216 35.24C47.9176 36.2 48.9016 36.68 50.1736 36.68C51.1816 36.68 51.9496 36.38 52.4776 35.78C53.0056 35.18 53.2696 34.22 53.2696 32.9V21.272H58.6696V34.088C58.6696 36.416 58.1056 38.216 56.9776 39.488C55.8736 40.736 54.2416 41.36 52.0816 41.36ZM71.827 41.468C69.139 41.468 67.111 40.868 65.743 39.668C64.375 38.468 63.691 36.716 63.691 34.412V32.972C63.691 31.988 63.823 31.184 64.087 30.56C64.351 29.912 64.675 29.324 65.059 28.796C65.443 28.268 65.755 27.8 65.995 27.392C66.259 26.96 66.391 26.516 66.391 26.06C66.391 25.628 66.283 25.328 66.067 25.16C65.875 24.968 65.611 24.872 65.275 24.872C64.843 24.872 64.315 25.016 63.691 25.304L62.827 21.92C63.499 21.56 64.219 21.32 64.987 21.2C65.779 21.056 66.475 20.984 67.075 20.984C68.659 20.984 69.775 21.368 70.423 22.136C71.095 22.88 71.431 23.888 71.431 25.16C71.431 25.904 71.323 26.564 71.107 27.14C70.891 27.692 70.615 28.268 70.279 28.868C69.967 29.42 69.679 29.936 69.415 30.416C69.175 30.896 69.055 31.592 69.055 32.504V33.944C69.055 35.12 69.295 35.972 69.775 36.5C70.279 37.004 70.975 37.256 71.863 37.256C73.711 37.256 74.635 36.212 74.635 34.124V21.272H79.999V34.268C79.999 36.644 79.303 38.444 77.911 39.668C76.519 40.868 74.491 41.468 71.827 41.468ZM69.1121 18.572V16.772C69.4481 16.676 69.8201 16.544 70.2281 16.376C70.6361 16.208 70.9961 15.98 71.3081 15.692C71.6201 15.404 71.7761 15.044 71.7761 14.612C71.7761 14.276 71.6801 14.012 71.4881 13.82C71.2961 13.628 71.0561 13.532 70.7681 13.532C70.5761 13.532 70.3721 13.568 70.1561 13.64C69.9401 13.712 69.7481 13.784 69.5801 13.856L68.8961 11.444C69.3761 11.036 69.9761 10.772 70.6961 10.652C71.3921 10.508 71.9801 10.436 72.4601 10.436C73.5401 10.436 74.3921 10.688 75.0161 11.192C75.6161 11.696 75.9161 12.44 75.9161 13.424C75.9161 14.048 75.7361 14.6 75.3761 15.08H80.8841V18.572H69.1121ZM92.8797 41.468C89.9517 41.468 87.7797 40.76 86.3637 39.344C84.9477 37.904 84.2397 35.78 84.2397 32.972C84.2397 32.492 84.2517 31.916 84.2757 31.244C84.3237 30.548 84.3837 29.936 84.4557 29.408H93.0957V32.828H89.5317V33.332C89.5317 34.772 89.7957 35.828 90.3237 36.5C90.8757 37.148 91.7157 37.472 92.8437 37.472C94.0437 37.472 94.9797 37.052 95.6517 36.212C96.3237 35.348 96.6597 33.788 96.6597 31.532C96.6597 29.396 96.2877 27.8 95.5437 26.744C94.7997 25.664 93.4317 25.124 91.4397 25.124C90.3597 25.124 89.2437 25.292 88.0917 25.628C86.9397 25.964 85.9917 26.336 85.2477 26.744V22.244C86.0157 21.836 87.0717 21.5 88.4157 21.236C89.7837 20.948 91.1277 20.804 92.4477 20.804C94.7757 20.804 96.6477 21.236 98.0637 22.1C99.5037 22.94 100.548 24.14 101.196 25.7C101.868 27.26 102.204 29.108 102.204 31.244C102.204 34.508 101.472 37.028 100.008 38.804C98.5437 40.58 96.1677 41.468 92.8797 41.468ZM118 41.36C116.296 41.36 114.916 41.036 113.86 40.388C112.828 39.74 112.096 38.912 111.664 37.904H111.376L110.8 41H106.696V21.272H112.096V30.704C112.096 32.744 112.444 34.256 113.14 35.24C113.836 36.2 114.82 36.68 116.092 36.68C117.1 36.68 117.868 36.38 118.396 35.78C118.924 35.18 119.188 34.22 119.188 32.9V21.272H124.588V34.088C124.588 36.416 124.024 38.216 122.896 39.488C121.792 40.736 120.16 41.36 118 41.36ZM118.456 50.54C116.536 50.54 115.132 50.252 114.244 49.676C113.356 49.1 112.912 48.344 112.912 47.408V46.796C112.912 46.388 112.804 46.136 112.588 46.04C112.372 45.968 112.084 45.98 111.724 46.076L111.472 43.664C111.808 43.52 112.24 43.424 112.768 43.376C113.296 43.328 113.728 43.304 114.064 43.304C115.12 43.304 115.888 43.496 116.368 43.88C116.824 44.264 117.052 44.804 117.052 45.5V46.328C117.052 46.736 117.148 47.048 117.34 47.264C117.508 47.504 117.832 47.624 118.312 47.624C118.816 47.624 119.164 47.504 119.356 47.264C119.548 47.048 119.644 46.736 119.644 46.328V43.412H124.036V46.904C124.036 48.08 123.592 48.98 122.704 49.604C121.816 50.228 120.4 50.54 118.456 50.54ZM134.973 41.36C132.909 41.36 131.313 40.868 130.185 39.884C129.081 38.9 128.529 37.52 128.529 35.744C128.529 33.824 129.213 32.288 130.581 31.136C131.973 29.984 134.157 29.288 137.133 29.048L140.877 28.76V28.184C140.877 27.032 140.565 26.204 139.941 25.7C139.317 25.196 138.357 24.944 137.061 24.944C135.813 24.944 134.589 25.136 133.389 25.52C132.213 25.88 131.193 26.312 130.329 26.816V22.352C131.025 22.016 132.009 21.68 133.281 21.344C134.553 20.984 136.029 20.804 137.709 20.804C139.341 20.804 140.793 21.044 142.065 21.524C143.337 21.98 144.333 22.76 145.053 23.864C145.797 24.968 146.169 26.48 146.169 28.4V41H140.877V32.648L137.745 32.972C136.305 33.116 135.297 33.404 134.721 33.836C134.169 34.268 133.893 34.844 133.893 35.564C133.893 36.284 134.121 36.824 134.577 37.184C135.057 37.544 135.669 37.724 136.413 37.724C136.701 37.724 136.989 37.7 137.277 37.652C137.565 37.58 137.829 37.508 138.069 37.436L138.537 40.82C138.081 40.988 137.541 41.12 136.917 41.216C136.293 41.312 135.645 41.36 134.973 41.36Z" fill="#173053"/>
<line x1="2.5" y1="51.5" x2="105.5" y2="51.5" stroke="#1B4072" stroke-width="3" stroke-linecap="round"/>
<line x1="152.5" y1="39.5" x2="183.5" y2="39.5" stroke="#173053" stroke-width="3" stroke-linecap="round" stroke-dasharray="6 6"/>
</svg>
