<svg width="323" height="400" viewBox="0 0 323 400" fill="none" xmlns="http://www.w3.org/2000/svg">
<g filter="url(#filter0_d)">
<path d="M33.8207 245.496L155.361 215.445L276.901 245.496L155.361 286.762L33.8207 245.496Z" fill="#173053"/>
<path opacity="0.2" d="M33.8207 245.496L155.361 215.445L276.901 245.496L155.361 286.762L33.8207 245.496Z" fill="black"/>
<path d="M155.361 286.657L33.8207 245.492L4 305.723L155.361 356.996L306.722 305.723L276.901 245.492L155.361 286.657Z" fill="#173053"/>
<path opacity="0.1" d="M276.901 245.492L155.361 286.657V356.996L306.722 305.723L276.901 245.492Z" fill="black"/>
<path d="M69.7666 172.896L155.361 151.645L240.955 172.896L155.361 201.94L69.7666 172.896Z" fill="#1B437C"/>
<path opacity="0.2" d="M69.7666 172.896L155.361 151.645L240.955 172.896L155.361 201.94L69.7666 172.896Z" fill="black"/>
<path d="M69.7666 172.898L37.8898 237.299L155.361 277.084L272.832 237.299L240.955 172.898L155.361 201.9L69.7666 172.898Z" fill="#1B437C"/>
<path opacity="0.1" d="M155.361 277.084L272.832 237.299L240.955 172.898L155.361 201.9V277.084Z" fill="black"/>
<path d="M105.698 100.304L155.361 83.582L205.024 100.304L155.361 117.127L105.698 100.304Z" fill="#B1C9EA"/>
<path opacity="0.2" d="M105.698 100.304L155.361 83.582L205.024 100.304L155.361 117.127L105.698 100.304Z" fill="black"/>
<path d="M105.698 100.301L73.8213 164.701L155.361 192.322L236.901 164.701L205.024 100.301L155.361 117.123L105.698 100.301Z" fill="#B1C9EA"/>
<path opacity="0.1" d="M155.361 192.322L236.901 164.701L205.024 100.301L155.361 117.123V192.322Z" fill="black"/>
<path d="M155.361 107.55L200.955 92.1078L155.361 0L109.767 92.1078L155.361 107.55Z" fill="#C4C4C4"/>
<path opacity="0.1" d="M155.361 107.55L200.955 92.1078L155.361 0V107.55Z" fill="black"/>
<path d="M59.5078 378.699C59.4453 379.402 59.2812 380.035 59.0156 380.598C58.7578 381.16 58.4141 381.641 57.9844 382.039C57.5625 382.438 57.0625 382.742 56.4844 382.953C55.9062 383.164 55.2734 383.27 54.5859 383.27C52.9141 383.27 51.5703 382.691 50.5547 381.535C49.5781 380.465 49.0898 379.082 49.0898 377.387C49.0898 375.668 49.5859 374.242 50.5781 373.109C51.5547 371.992 52.8906 371.434 54.5859 371.434C55.2266 371.434 55.8125 371.523 56.3438 371.703C56.875 371.875 57.3633 372.137 57.8086 372.488C58.2773 372.863 58.6445 373.309 58.9102 373.824C59.1758 374.332 59.3438 374.902 59.4141 375.535H57.0586C57.0195 375.246 56.9258 374.977 56.7773 374.727C56.6367 374.477 56.4531 374.266 56.2266 374.094C56.0078 373.914 55.7578 373.773 55.4766 373.672C55.1953 373.57 54.8984 373.52 54.5859 373.52C54.0703 373.52 53.6172 373.621 53.2266 373.824C52.8438 374.02 52.5117 374.316 52.2305 374.715C52.0039 375.066 51.832 375.465 51.7148 375.91C51.5977 376.355 51.5391 376.848 51.5391 377.387C51.5391 377.918 51.5977 378.398 51.7148 378.828C51.832 379.258 52.0039 379.648 52.2305 380C52.7852 380.781 53.5703 381.172 54.5859 381.172C56.0859 381.172 56.9414 380.348 57.1523 378.699H59.5078ZM66.1406 376.766C66.0469 376.734 65.9336 376.715 65.8008 376.707C65.6758 376.691 65.5352 376.684 65.3789 376.684C63.9023 376.684 63.1641 377.574 63.1641 379.355V383H60.9609V374.82H63.0703V376.332H63.0938C63.5781 375.191 64.4102 374.621 65.5898 374.621C65.6758 374.621 65.7656 374.625 65.8594 374.633C65.9531 374.641 66.0469 374.652 66.1406 374.668V376.766ZM68.8477 379.449C68.8945 380.84 69.5664 381.535 70.8633 381.535C71.0742 381.535 71.2695 381.508 71.4492 381.453C71.6367 381.391 71.8008 381.309 71.9414 381.207C72.0898 381.105 72.2109 380.988 72.3047 380.855C72.4062 380.723 72.4805 380.582 72.5273 380.434H74.5898C74.1289 382.285 72.8555 383.211 70.7695 383.211C70.1445 383.211 69.5781 383.109 69.0703 382.906C68.5625 382.695 68.1289 382.402 67.7695 382.027C67.4102 381.652 67.1328 381.203 66.9375 380.68C66.7422 380.148 66.6445 379.562 66.6445 378.922C66.6445 377.672 67.0273 376.641 67.793 375.828C68.5898 375.008 69.582 374.598 70.7695 374.598C72.1133 374.598 73.1445 375.094 73.8633 376.086C74.5352 376.969 74.8242 378.09 74.7305 379.449H68.8477ZM72.5039 378.031C72.3789 376.867 71.7852 376.285 70.7227 376.285C70.1133 376.285 69.625 376.492 69.2578 376.906C69.0078 377.227 68.8711 377.602 68.8477 378.031H72.5039ZM81.3047 383C81.1953 382.828 81.1406 382.562 81.1406 382.203C80.5234 382.875 79.6172 383.211 78.4219 383.211C78.0234 383.211 77.6562 383.16 77.3203 383.059C76.9844 382.957 76.6953 382.805 76.4531 382.602C76.2109 382.391 76.0234 382.133 75.8906 381.828C75.7578 381.523 75.6914 381.172 75.6914 380.773C75.6914 379.367 76.6016 378.535 78.4219 378.277C79.0156 378.191 79.4648 378.129 79.7695 378.09C80.0742 378.051 80.2344 378.023 80.25 378.008C80.7812 377.867 81.0469 377.594 81.0469 377.188C81.0469 376.453 80.5664 376.086 79.6055 376.086C78.7227 376.086 78.2344 376.512 78.1406 377.363H75.9609C76.0312 375.52 77.2695 374.598 79.6758 374.598C82.0742 374.598 83.2734 375.398 83.2734 377V381.582C83.2734 382.363 83.3711 382.836 83.5664 383H81.3047ZM81.0469 378.992C80.8594 379.164 80.4805 379.285 79.9102 379.355C79.5586 379.418 79.2695 379.473 79.043 379.52C78.8242 379.566 78.6602 379.613 78.5508 379.66C78.1133 379.863 77.8945 380.199 77.8945 380.668C77.8945 381.371 78.3438 381.723 79.2422 381.723C80.4453 381.723 81.0469 381.094 81.0469 379.836V378.992ZM89.4492 383.023C89.0586 383.07 88.6094 383.094 88.1016 383.094C86.4219 383.094 85.582 382.43 85.582 381.102V376.309H84.2344V374.82H85.582V372.348H87.7852V374.82H89.4492V376.309H87.7852V380.363C87.7852 380.801 87.8828 381.078 88.0781 381.195C88.2031 381.281 88.418 381.324 88.7227 381.324C88.9805 381.324 89.2227 381.297 89.4492 381.242V383.023ZM92.332 379.449C92.3789 380.84 93.0508 381.535 94.3477 381.535C94.5586 381.535 94.7539 381.508 94.9336 381.453C95.1211 381.391 95.2852 381.309 95.4258 381.207C95.5742 381.105 95.6953 380.988 95.7891 380.855C95.8906 380.723 95.9648 380.582 96.0117 380.434H98.0742C97.6133 382.285 96.3398 383.211 94.2539 383.211C93.6289 383.211 93.0625 383.109 92.5547 382.906C92.0469 382.695 91.6133 382.402 91.2539 382.027C90.8945 381.652 90.6172 381.203 90.4219 380.68C90.2266 380.148 90.1289 379.562 90.1289 378.922C90.1289 377.672 90.5117 376.641 91.2773 375.828C92.0742 375.008 93.0664 374.598 94.2539 374.598C95.5977 374.598 96.6289 375.094 97.3477 376.086C98.0195 376.969 98.3086 378.09 98.2148 379.449H92.332ZM95.9883 378.031C95.8633 376.867 95.2695 376.285 94.207 376.285C93.5977 376.285 93.1094 376.492 92.7422 376.906C92.4922 377.227 92.3555 377.602 92.332 378.031H95.9883ZM105.316 383V381.969H105.293C104.801 382.797 103.969 383.211 102.797 383.211C101.633 383.211 100.73 382.766 100.09 381.875C99.793 381.461 99.5664 381.004 99.4102 380.504C99.2539 379.996 99.1758 379.438 99.1758 378.828C99.1758 378.234 99.2539 377.699 99.4102 377.223C99.5664 376.738 99.793 376.297 100.09 375.898C100.73 375.031 101.617 374.598 102.75 374.598C103.867 374.598 104.684 374.973 105.199 375.723H105.223V371.691H107.402V383H105.316ZM105.293 378.875C105.293 377.148 104.645 376.285 103.348 376.285C102.035 376.285 101.379 377.156 101.379 378.898C101.379 379.258 101.418 379.586 101.496 379.883C101.582 380.18 101.703 380.449 101.859 380.691C102.227 381.254 102.723 381.535 103.348 381.535C104.645 381.535 105.293 380.648 105.293 378.875ZM123.258 378.898C123.258 380.297 122.898 381.391 122.18 382.18C121.867 382.531 121.512 382.793 121.113 382.965C120.723 383.129 120.293 383.211 119.824 383.211C118.574 383.211 117.711 382.805 117.234 381.992H117.211V383H115.102V371.691H117.305V375.758H117.352C117.602 375.367 117.941 375.078 118.371 374.891C118.801 374.695 119.309 374.598 119.895 374.598C120.801 374.598 121.562 374.941 122.18 375.629C122.898 376.434 123.258 377.523 123.258 378.898ZM121.078 378.922C121.078 378.547 121.035 378.199 120.949 377.879C120.863 377.551 120.738 377.27 120.574 377.035C120.41 376.801 120.207 376.617 119.965 376.484C119.73 376.352 119.461 376.285 119.156 376.285C118.844 376.285 118.566 376.352 118.324 376.484C118.09 376.617 117.891 376.801 117.727 377.035C117.562 377.27 117.438 377.551 117.352 377.879C117.273 378.199 117.234 378.547 117.234 378.922C117.234 379.297 117.27 379.633 117.34 379.93C117.418 380.227 117.535 380.488 117.691 380.715C118.043 381.262 118.531 381.535 119.156 381.535C119.766 381.535 120.246 381.262 120.598 380.715C120.754 380.473 120.871 380.203 120.949 379.906C121.035 379.609 121.078 379.281 121.078 378.922ZM128.766 384.031C128.305 385.266 127.344 385.883 125.883 385.883C125.414 385.883 124.965 385.859 124.535 385.812V383.914C124.691 383.953 124.836 383.98 124.969 383.996C125.109 384.02 125.246 384.031 125.379 384.031C126.246 384.031 126.68 383.695 126.68 383.023C126.68 382.938 126.672 382.852 126.656 382.766C126.641 382.68 126.613 382.59 126.574 382.496L123.75 374.82H126.07L127.922 380.363H127.945L129.703 374.82H132.105L128.766 384.031Z" fill="#173053"/>
<path fill-rule="evenodd" clip-rule="evenodd" d="M151.419 366C153.807 366 156.197 366 158.586 366C158.603 366.097 158.501 366.236 158.426 366.366C156.105 370.374 153.736 374.495 151.419 378.526C153.8 382.701 156.27 386.908 158.608 391.051C156.221 391.051 153.83 391.051 151.442 391.051C148.915 386.929 146.502 382.695 144 378.548C146.456 374.349 148.938 370.174 151.419 366Z" fill="#1B447C"/>
<path fill-rule="evenodd" clip-rule="evenodd" d="M175.39 366C173.002 366 170.613 366 168.223 366C168.205 366.097 168.308 366.236 168.383 366.366C170.704 370.374 173.073 374.495 175.39 378.526C173.009 382.701 170.539 386.908 168.2 391.051C170.589 391.051 172.979 391.051 175.369 391.051C177.894 386.929 180.309 382.695 182.81 378.548C180.354 374.349 177.872 370.174 175.39 366Z" fill="#1B447C"/>
<path fill-rule="evenodd" clip-rule="evenodd" d="M168.224 366L170.742 370.449L158.608 391.051L156.164 386.767L168.224 366Z" fill="#173154"/>
<path d="M204.048 385C204.792 385 205.536 384.856 206.232 384.544C206.928 384.256 207.552 383.824 208.08 383.296C209.184 382.192 209.784 380.752 209.784 379.216C209.784 377.68 209.184 376.24 208.08 375.16C207.72 374.776 207.288 374.464 206.832 374.2C207.096 373.624 207.264 372.976 207.264 372.28C207.264 371.128 206.784 370 205.968 369.208C205.176 368.392 204.048 367.912 202.896 367.912H196.56V385H204.048ZM199.752 381.856V376.624H204.048C205.44 376.648 206.592 377.824 206.592 379.216C206.592 380.632 205.44 381.808 204.024 381.856H199.752ZM199.752 373.48V371.056H202.872C203.544 371.104 204.072 371.632 204.072 372.28C204.072 372.928 203.544 373.48 202.872 373.48H199.752ZM216.73 385.264C217.787 385.24 218.723 384.976 219.587 384.472H219.611C219.971 384.28 220.307 383.992 220.571 383.752L220.931 383.44L218.939 381.712L218.675 381.928C218.219 382.312 217.451 382.744 216.755 382.792H216.73C215.483 382.792 214.355 381.712 214.043 380.224L214.019 380.056H222.083C222.083 379.888 222.083 379.696 222.083 379.504C222.083 378.952 222.035 378.472 221.915 378.016C221.675 377.032 221.195 376.168 220.571 375.496C220.139 374.992 219.563 374.56 218.843 374.224C218.195 373.912 217.499 373.768 216.73 373.768C215.987 373.768 215.267 373.912 214.619 374.224C213.923 374.56 213.371 374.968 212.891 375.496C212.243 376.168 211.787 377.056 211.571 378.016C211.451 378.52 211.379 379.024 211.379 379.504C211.379 379.744 211.403 379.96 211.427 380.176C211.547 381.424 212.051 382.624 212.891 383.536C213.419 384.088 213.995 384.52 214.619 384.784C215.291 385.096 216.011 385.264 216.707 385.264H216.73ZM216.73 376.264C217.667 376.264 218.579 376.888 219.131 377.92L219.227 378.112H214.259L214.355 377.92C214.859 376.912 215.795 376.264 216.73 376.264ZM229.408 385V371.08H233.608V367.912H221.992V371.08H226.192V385H229.408ZM239.262 385.216C240.126 385.216 241.11 385.096 241.974 384.256L242.094 384.136V385H244.998V374.008H242.094V374.968L241.974 374.872C241.182 374.152 240.27 373.792 239.262 373.792C237.726 373.792 236.286 374.368 235.206 375.448C234.126 376.552 233.526 377.992 233.526 379.504C233.526 381.016 234.126 382.456 235.206 383.56C236.31 384.64 237.75 385.216 239.262 385.216ZM239.262 376.6C240.798 376.6 242.094 377.944 242.094 379.504C242.094 381.088 240.798 382.408 239.262 382.408C237.726 382.408 236.43 381.088 236.43 379.504C236.43 377.944 237.726 376.6 239.262 376.6ZM252.012 385.096C252.732 385.096 253.452 384.952 254.004 384.688C254.7 384.352 255.18 383.92 255.54 383.416C255.9 382.912 256.092 382.288 256.092 381.592C256.092 380.92 255.924 380.296 255.564 379.792C255.324 379.48 255.036 379.168 254.364 378.784C254.028 378.64 253.5 378.448 251.868 378.064C250.62 377.776 250.38 377.536 250.38 377.2C250.38 377.032 250.548 376.768 250.86 376.6C251.124 376.48 251.412 376.432 251.724 376.432C252.156 376.432 252.876 376.552 253.716 377.224L254.052 377.488L255.756 375.52L255.396 375.232C254.532 374.56 253.476 374.104 252.42 373.936C252.18 373.912 251.916 373.888 251.652 373.888C250.908 373.888 250.284 374.008 249.732 374.272C249.06 374.608 248.604 374.968 248.292 375.424C247.908 375.976 247.716 376.576 247.716 377.2C247.716 377.8 247.86 378.328 248.148 378.808C248.436 379.288 248.844 379.672 249.348 379.96C249.732 380.176 250.548 380.44 251.844 380.704C253.26 380.944 253.428 381.304 253.428 381.592C253.428 381.928 253.26 382.168 252.9 382.312C252.612 382.456 252.324 382.504 251.916 382.504C251.364 382.504 250.5 382.336 249.444 381.448L249.108 381.136L247.308 383.128L247.668 383.416C248.556 384.208 249.684 384.736 250.884 384.976C251.316 385.048 251.676 385.096 252.012 385.096ZM269.713 385L264.313 377.944L268.441 374.008H264.193L261.169 376.912V367.384H258.049V385H261.169V381.136L262.153 380.128L265.969 385H269.713Z" fill="#173053"/>
</g>
<defs>
<filter id="filter0_d" x="0" y="0" width="310.722" height="399.051" filterUnits="userSpaceOnUse" color-interpolation-filters="sRGB">
<feFlood flood-opacity="0" result="BackgroundImageFix"/>
<feColorMatrix in="SourceAlpha" type="matrix" values="0 0 0 0 0 0 0 0 0 0 0 0 0 0 0 0 0 0 127 0"/>
<feOffset dy="4"/>
<feGaussianBlur stdDeviation="2"/>
<feColorMatrix type="matrix" values="0 0 0 0 0 0 0 0 0 0 0 0 0 0 0 0 0 0 0.25 0"/>
<feBlend mode="normal" in2="BackgroundImageFix" result="effect1_dropShadow"/>
<feBlend mode="normal" in="SourceGraphic" in2="effect1_dropShadow" result="shape"/>
</filter>
</defs>
</svg>
