<svg width="371" height="278" viewBox="0 0 371 278" fill="none" xmlns="http://www.w3.org/2000/svg">
<path d="M22.3997 215.012V211.884L19.6921 211.329C19.5257 210.763 19.3003 210.217 19.0195 209.698L20.5414 207.377L18.2963 205.183L15.9923 206.705C15.4806 206.415 14.9356 206.19 14.3694 206.032L13.8145 203.324H10.7285L10.1735 206.032C9.60782 206.191 9.06304 206.417 8.55061 206.705L6.24662 205.183L4.0015 207.377L5.51507 209.681C5.22949 210.203 5.00383 210.756 4.84237 211.329L2.13477 211.884V215.012L4.84237 215.567C5.00088 216.132 5.22377 216.676 5.50666 217.19L4.0015 219.494L6.21299 221.714L8.51697 220.192C9.03111 220.476 9.57546 220.702 10.1399 220.865L10.6948 223.572H13.8397L14.3947 220.865C14.9596 220.703 15.5041 220.478 16.0175 220.192L18.2963 221.714L20.5162 219.494L18.9942 217.19C19.2764 216.675 19.5019 216.131 19.6669 215.567L22.3997 215.012ZM12.3093 216.845C11.6441 216.845 10.9938 216.648 10.4407 216.279C9.88753 215.909 9.45642 215.384 9.20185 214.769C8.94728 214.155 8.88067 213.478 9.01045 212.826C9.14023 212.173 9.46057 211.574 9.93096 211.104C10.4014 210.633 11.0007 210.313 11.6531 210.183C12.3056 210.053 12.9819 210.12 13.5964 210.374C14.211 210.629 14.7364 211.06 15.1059 211.613C15.4755 212.166 15.6728 212.817 15.6728 213.482C15.6728 213.926 15.5847 214.367 15.4136 214.777C15.2424 215.187 14.9917 215.559 14.6758 215.872C14.3599 216.185 13.9851 216.432 13.5731 216.599C13.1612 216.766 12.7202 216.85 12.2757 216.845H12.3093Z" fill="#819699"/>
<path d="M40.3797 227.113H5.55078V258.89H40.3797V227.113Z" fill="#EDDBA2"/>
<path d="M15.9688 227.786L28.3211 250.473L40.4969 229.737L28.6323 245.991L15.9688 227.786Z" fill="#E0C780"/>
<path d="M15.7068 227.113H0.0917969V258.89H15.7068V227.113Z" fill="#E0C780"/>
<path d="M190.172 223.254L153.459 222.295L146.926 254.702H195.545L190.172 223.254Z" fill="#DDD1B3"/>
<path d="M189.928 221.824L153.308 223.06L149.432 242.299L192.98 239.676L189.928 221.824Z" fill="#CCBE9E"/>
<path d="M211.655 253.878H130.822V260.033H211.655V253.878Z" fill="#EDE6D1"/>
<path d="M289.705 49.5127H52.7733C47.0217 49.5127 42.3633 53.9609 42.3633 59.435V220.554C42.3633 226.028 47.0217 230.476 52.7733 230.476H289.705C295.457 230.476 300.124 226.028 300.124 220.554V59.435C300.124 53.9609 295.457 49.5127 289.705 49.5127Z" fill="#EDE6D1"/>
<path d="M89.7559 230.476H194.1L230.106 49.5127H125.77L89.7559 230.476Z" fill="#F4EEDF"/>
<path d="M289.705 227.929H52.7733C51.4055 227.929 50.0511 227.66 48.7876 227.136C47.524 226.612 46.3761 225.845 45.4093 224.877C44.4426 223.91 43.6759 222.761 43.1533 221.497C42.6306 220.233 42.3622 218.879 42.3633 217.511V220.033C42.3633 225.785 47.0217 230.452 53.6898 231.04H290.614C293.239 230.614 295.63 229.278 297.369 227.265C299.108 225.253 300.083 222.693 300.124 220.033V217.511C300.124 218.879 299.854 220.234 299.331 221.498C298.807 222.762 298.04 223.91 297.072 224.878C296.105 225.845 294.956 226.613 293.692 227.136C292.428 227.66 291.074 227.929 289.705 227.929Z" fill="#E0D4B6"/>
<path d="M289.705 49.5127H52.7733C47.0217 49.5127 42.3633 53.9609 42.3633 59.435V201.391H300.124V59.435C300.124 53.9609 295.457 49.5127 289.705 49.5127Z" fill="#514C4D"/>
<path d="M291.158 56.8955H51.3164V201.391H291.158V56.8955Z" fill="#443C3C"/>
<path d="M287.847 59.2754H54.3203V201.391H287.847V59.2754Z" fill="#B1C9EA"/>
<path d="M185.563 215.063H156.914C155.762 215.063 154.82 215.669 154.82 216.409C154.82 217.149 155.762 217.746 156.914 217.746H185.563C186.715 217.746 187.648 217.149 187.648 216.409C187.648 215.669 186.715 215.063 185.563 215.063Z" fill="#CCBE9E"/>
<g style="mix-blend-mode:overlay">
<path d="M289.705 49.5127H52.7733C50.0116 49.5149 47.3638 50.6136 45.4118 52.5672C43.4598 54.5207 42.3633 57.1694 42.3633 59.9311V62.1089C42.3633 59.3473 43.4598 56.6986 45.4118 54.745C47.3638 52.7914 50.0116 51.6928 52.7733 51.6906H289.705C292.469 51.6906 295.119 52.7882 297.072 54.742C299.026 56.6959 300.124 59.3458 300.124 62.1089V59.9311C300.124 57.168 299.026 54.518 297.072 52.5642C295.119 50.6103 292.469 49.5127 289.705 49.5127Z" fill="#F4EEE1"/>
</g>
<g style="mix-blend-mode:multiply" opacity="0.51">
<path d="M275.529 131.699L275.807 131.296C276.185 130.741 276.572 130.161 276.967 129.564C277.169 129.266 277.371 128.964 277.572 128.655C277.984 128.05 278.413 127.419 278.817 126.789C280.902 123.602 283.08 120.188 284.821 117.194C285.165 116.589 285.502 116.009 285.804 115.454C286.275 114.613 286.687 113.822 287.049 113.099C287.411 112.376 287.696 111.72 287.89 111.149C288.076 110.687 288.214 110.208 288.302 109.719C288.305 109.601 288.285 109.484 288.243 109.374C288.243 109.374 288.243 109.332 288.243 109.315C288.183 109.17 288.107 109.032 288.016 108.903C288.019 108.881 288.019 108.858 288.016 108.836C287.73 108.436 287.409 108.062 287.057 107.718C283.904 104.556 276.059 99.4688 274.982 99.7295C273.906 99.9902 264.051 113.982 259.729 120.549L259.25 121.281C259.224 121.313 259.202 121.346 259.183 121.382C259.023 121.617 258.871 121.853 258.737 122.063C257.936 123.308 257.658 124.819 257.963 126.267C258.044 126.675 258.154 127.077 258.291 127.47C258.435 127.875 258.603 128.271 258.796 128.655C258.992 129.047 259.208 129.429 259.443 129.799C259.67 130.177 259.923 130.539 260.183 130.892C260.566 131.418 260.975 131.923 261.411 132.406C261.823 132.885 262.252 133.331 262.655 133.726L263.051 134.121L263.79 134.811L264.127 135.105C264.884 135.761 265.388 136.139 265.388 136.139C265.595 136.274 265.808 136.397 266.027 136.509C266.161 136.58 266.299 136.645 266.439 136.703L240.877 157.043C239.948 156.549 239.057 155.987 238.211 155.362C238.807 154.377 239.338 153.355 239.8 152.301C239.8 152.301 222.63 132.204 192.535 110.678C191.694 110.072 190.904 109.484 190.055 108.92C189.365 108.458 188.667 108.004 187.961 107.566L187.826 107.482C187.196 107.087 186.557 106.709 185.917 106.33L185.606 106.154L184.463 105.506C186.35 104.384 187.985 102.885 189.267 101.103C190.549 99.3202 191.449 97.2927 191.913 95.1468C191.913 95.1468 178.341 80.1709 176.617 73.5532C175.608 69.6936 174.482 63.7823 172.085 59.0566L172.161 59.107C173.864 56.0694 175.223 52.8514 176.214 49.5127H124.82L123.542 50.1181C121.899 50.805 120.433 51.8542 119.253 53.1873C118.799 53.7507 118.457 54.3958 118.244 55.0877C117.851 56.728 117.978 58.4498 118.606 60.0152C119.573 62.8657 121.717 66.4731 125.08 71.1315V71.224C128.946 78.8133 134.674 85.2971 141.73 90.0679L142.747 98.0646L142.259 97.7703L138.829 102.958L139.106 103.177C138.543 103.463 137.979 103.766 137.424 104.018L137.189 104.144C136.533 104.506 135.877 104.859 135.23 105.229H135.163C131.237 107.419 127.451 109.851 123.828 112.511C111.727 118.876 102.545 135.71 94.5317 152.318C95.0446 153.31 95.5996 154.294 96.2134 155.252C95.5923 156.01 94.8965 156.703 94.1364 157.321L91.5297 155.488L46.8879 125.233C51.3614 119.927 56.3225 114.882 61.2248 111.519C61.5948 111.695 61.9731 111.863 62.3599 112.015C62.7131 112.166 63.0663 112.292 63.4279 112.418H63.5372C63.8651 112.519 64.193 112.62 64.521 112.704H64.6639C64.9919 112.788 65.3114 112.864 65.6393 112.923H65.7655C66.1018 112.982 66.4382 113.024 66.7661 113.066H66.867C67.2118 113.066 67.5565 113.116 67.8929 113.133H67.9601C68.3133 113.133 68.6581 113.133 69.0112 113.133C69.37 113.133 69.7232 113.091 70.0707 113.007C70.4247 112.949 70.7755 112.873 71.1218 112.78C73.2957 112.205 75.1617 110.81 76.3268 108.887C80.8339 101.621 74.048 100.478 74.048 100.478C74.0279 100.51 74.011 100.544 73.9976 100.579C73.6024 101.302 71.887 104.195 69.3224 105.254C68.5068 105.594 67.6161 105.714 66.7395 105.602C65.863 105.49 65.0312 105.15 64.3276 104.615C58.5844 100.789 67.3379 95.5504 67.3379 95.5504C65.9347 95.0031 64.4375 94.7374 62.9317 94.7684C62.0988 94.7917 61.2729 94.9275 60.4764 95.172H60.4007C60.0303 95.288 59.6679 95.4285 59.316 95.5924C58.6283 95.91 57.9841 96.3141 57.3988 96.7949L57.3315 96.8453C57.0625 97.0808 56.8018 97.3246 56.5579 97.5769V97.6189C56.0858 98.1288 55.6764 98.6934 55.3387 99.3007C55.3387 99.3427 55.2966 99.3763 55.2798 99.4184C55.1266 99.6893 54.9918 99.9702 54.8762 100.259C54.8762 100.259 54.8762 100.335 54.8762 100.369C54.7618 100.673 54.6663 100.985 54.5903 101.302C54.5188 101.612 54.4682 101.927 54.4389 102.244C54.4431 102.297 54.4431 102.35 54.4389 102.403C54.4222 102.709 54.4222 103.015 54.4389 103.32C54.4389 103.379 54.4389 103.429 54.4389 103.48C54.4584 103.791 54.5034 104.101 54.5735 104.405C54.6433 104.715 54.7389 105.019 54.8594 105.313C54.8594 105.372 54.9014 105.431 54.9182 105.481C55.0413 105.771 55.1846 106.052 55.3471 106.322C55.3471 106.381 55.4144 106.431 55.4396 106.482C55.6233 106.775 55.8256 107.055 56.045 107.323C56.3645 107.693 56.7177 108.054 57.0793 108.407C56.6252 109.13 56.1543 109.862 55.6666 110.602C55.49 110.863 55.2966 111.132 55.1116 111.392C54.7921 111.863 54.4726 112.334 54.1362 112.805C53.7999 113.276 53.6233 113.511 53.3626 113.865C53.102 114.218 52.8077 114.647 52.5218 115.033C52.2359 115.42 51.9247 115.824 51.622 116.211C51.3193 116.597 51.0839 116.925 50.7812 117.278C50.4784 117.632 50.1001 118.119 49.7637 118.557C49.4274 118.994 49.2424 119.204 48.9733 119.532L47.7288 121.113L46.9804 122.004L45.7023 123.476L45.2062 124.132L42.3809 122.214V152.578C46.2657 160.911 72.299 177.973 90.033 185.734C94.3803 187.811 98.8033 189.173 102.739 188.963C108.625 188.643 114.721 184.901 119.909 180.604C123.962 183.699 126.771 185.515 126.771 185.515C126.771 185.515 128.082 182.85 129.857 178.788L132.152 201.433H218.863C218.72 200.121 217.526 189.35 215.609 176.005C222.075 181.807 230.332 187.987 236.799 188.567C241.423 188.988 246.662 187.331 251.413 185.086C266.094 178.645 274.957 162.509 281.508 153.629L281.718 153.755C286.898 156.455 288.26 150.88 287.915 148.113C287.646 145.843 278.909 135.567 275.529 131.699Z" fill="#514C4D"/>
</g>
<g style="mix-blend-mode:multiply" opacity="0.51">
<path d="M284.963 178.57C284.374 178.57 283.786 178.57 283.197 178.62C281.274 178.712 279.36 178.945 277.471 179.318L270.845 180.159C269.894 180.243 268.953 180.352 268.028 180.504H267.859C249.419 183.522 234.393 199.314 233.047 218.343C232.729 222.622 233.156 226.924 234.309 231.057H291.732C294.129 230.698 296.305 229.453 297.828 227.567C299.317 225.992 300.15 223.908 300.157 221.74V181.832C295.388 179.658 290.204 178.545 284.963 178.57Z" fill="#514C4D"/>
</g>
<path d="M174.969 13.5151C168.301 5.66978 154.275 12.9181 145.446 17.8204C137.29 22.3527 136.676 28.079 143.849 43.3492L184.791 26.8934C184.791 26.8934 183.647 23.7317 174.969 13.5151Z" fill="#1B437C"/>
<path d="M148.717 16.0469C147.565 16.6523 146.472 17.2577 145.446 17.8211C137.29 22.3534 136.676 28.0797 143.849 43.3499L171.597 32.2C159.985 31.2078 150.71 24.5733 148.717 16.0469Z" fill="#173053"/>
<path d="M162.574 23.227C150.02 24.0679 143.646 43.1052 143.646 43.1052C143.646 43.1052 146.909 56.5592 157.353 65.7415L160.548 64.6315C160.548 64.6315 175.12 22.3273 162.574 23.227Z" fill="#6D2C25"/>
<path d="M235.637 135.104C235.637 135.104 243.877 145.195 246.854 146.582C249.831 147.97 260.468 140.772 260.468 140.772L269.272 169.471C269.272 169.471 249.974 186.734 237.504 185.355C225.034 183.976 208.914 156.976 208.914 156.976L235.637 135.104Z" fill="#E79B69"/>
<path d="M106.739 137.838C106.739 137.838 101.299 147.315 97.8682 148.618C94.4375 149.921 82.8671 136.005 82.8671 136.005L71.2715 162.568C71.2715 162.568 88.585 187.029 102.888 186.112C117.191 185.196 136.288 159.205 136.288 159.205L106.739 137.838Z" fill="#E79B69"/>
<path d="M204.602 89.8828L208.806 168.538C234.074 166.436 246.006 140.461 246.006 140.461C246.006 140.461 231.585 115.891 204.602 89.8828Z" fill="#EDDBA2"/>
<path d="M204.721 92.1113L208.774 168.538C214.114 168.086 219.301 166.522 224.002 163.947C225.616 155.252 225.684 144.565 223.834 133.238C220.748 114.336 213.163 98.7962 204.721 92.1113Z" fill="#D8C387"/>
<path d="M130.131 201.492H217.346C217.346 201.492 220.004 124.973 214.033 104.977C208.063 84.9807 181.366 73.9401 175.429 73.0236C163.85 71.2745 133.31 93.0279 129.45 99.3512C125.591 105.675 132.259 157.254 132.259 157.254L130.131 201.492Z" fill="#1B437C"/>
<path d="M217.676 143.177C217.171 196.152 200.522 198.448 180.03 198.448C159.227 198.448 142.367 196.152 142.367 140.747C142.367 119.456 144.89 99.7294 149.094 83.4922C139.71 89.4371 131.335 96.2902 129.435 99.4015C125.575 105.716 132.243 157.304 132.243 157.304L130.133 201.492H217.348C217.348 201.492 218.424 170.783 217.676 143.177Z" fill="#173053"/>
<path d="M148.546 201.492C151.213 187.78 152.506 173.837 152.406 159.869C152.406 128.227 146.453 101.294 138.111 91.1699C133.781 94.5334 130.543 97.5774 129.45 99.3684C125.591 105.683 132.259 157.271 132.259 157.271L130.131 201.492H148.546Z" fill="#173053"/>
<path d="M100.701 141.513C107.369 164.679 127.374 181.791 127.374 181.791C127.374 181.791 144.813 148.787 146.327 132.306C148.959 103.615 135.934 92.9697 135.934 92.9697C122.959 100.807 111.237 121.282 100.701 141.513Z" fill="#EDDBA2"/>
<path d="M121.479 167.125C113.407 164.939 111.506 146.011 117.275 124.838C120.327 113.554 124.935 103.917 129.795 97.7031C119.2 107.407 109.539 124.535 100.701 141.512C107.369 164.678 127.374 181.79 127.374 181.79C127.374 181.79 143.518 151.233 146.083 134.239C140.222 154.638 129.358 169.261 121.479 167.125Z" fill="#D8C387"/>
<path d="M135.911 92.9697C133.739 94.3221 131.705 95.8853 129.84 97.6366C133.719 99.5619 137.831 100.975 142.075 101.841C139.148 95.6185 135.911 92.9697 135.911 92.9697Z" fill="#D8C387"/>
<path d="M246.358 146.289C241.792 160.685 239.261 172.928 252.942 181C269.524 172.634 287.628 153.798 291.496 140.521L277.487 125.31L246.358 146.289Z" fill="#EDB984"/>
<path d="M277.487 125.31L267.943 131.742C270.92 131.355 271.626 133.273 273.409 134.853C279.228 140.025 276.68 153.067 265.462 165.68C260.945 170.927 255.469 175.265 249.326 178.461C250.46 179.4 251.669 180.243 252.942 180.984C269.524 172.617 287.628 153.781 291.496 140.504L277.487 125.31Z" fill="#E79B69"/>
<path d="M99.4484 147.601C112.44 161.677 106.52 175.198 91.2162 179.638C75.0127 170.212 61.3149 149.619 58.8848 139.554L73.6505 122.56L99.4484 147.601Z" fill="#EDB984"/>
<path d="M99.449 147.6L97.1702 145.389C99.8778 155.639 98.9108 164.14 93.874 167.033C86.3062 171.372 72.4318 161.424 62.9047 144.8C61.7191 142.732 60.6596 140.655 59.7178 138.595L58.877 139.553C61.3071 149.644 74.6601 172.717 90.83 182.143C106.168 177.704 112.474 161.677 99.449 147.6Z" fill="#E79B69"/>
<path d="M42.935 191.755H34.6188C33.4346 191.755 32.4746 192.715 32.4746 193.899V196.481C32.4746 197.665 33.4346 198.625 34.6188 198.625H42.935C44.1193 198.625 45.0793 197.665 45.0793 196.481V193.899C45.0793 192.715 44.1193 191.755 42.935 191.755Z" fill="#EDDBA2"/>
<path d="M40.2763 191.839H38.4684C37.2842 191.839 36.3242 192.799 36.3242 193.983V196.565C36.3242 197.749 37.2842 198.709 38.4684 198.709H40.2763C41.4605 198.709 42.4205 197.749 42.4205 196.565V193.983C42.4205 192.799 41.4605 191.839 40.2763 191.839Z" fill="#F4EEDF"/>
<path d="M348.761 158.28V153.235L344.422 152.394C344.161 151.488 343.8 150.614 343.345 149.787L345.784 146.096L342.227 142.539L338.536 144.978C337.711 144.52 336.836 144.159 335.929 143.901L335.038 139.562H329.992L329.101 143.901C328.194 144.159 327.319 144.52 326.494 144.978L322.803 142.539L319.33 146.071L321.769 149.762C321.311 150.587 320.95 151.461 320.692 152.369L316.354 153.21V158.255L320.692 159.138C320.95 160.045 321.311 160.92 321.769 161.745L319.33 165.444L322.879 168.993L326.57 166.554C327.395 167.012 328.269 167.374 329.177 167.631L330.068 171.97H335.113L336.005 167.631C336.912 167.374 337.787 167.012 338.611 166.554L342.303 168.993L345.86 165.444L343.421 161.745C343.876 160.918 344.237 160.044 344.497 159.138L348.761 158.28ZM332.532 165.007C330.711 165.007 328.931 164.467 327.416 163.455C325.902 162.444 324.722 161.006 324.025 159.323C323.328 157.641 323.146 155.789 323.501 154.003C323.857 152.217 324.733 150.577 326.021 149.289C327.309 148.001 328.949 147.124 330.736 146.769C332.522 146.414 334.373 146.596 336.055 147.293C337.738 147.99 339.176 149.17 340.188 150.684C341.199 152.198 341.739 153.979 341.739 155.8C341.72 158.23 340.744 160.554 339.025 162.271C337.305 163.987 334.979 164.958 332.549 164.974L332.532 165.007Z" fill="#819699"/>
<path d="M330.478 130.649V126.52L326.896 125.814C326.691 125.065 326.395 124.345 326.013 123.669L328.023 120.634L325.097 117.716L322.07 119.717C321.391 119.353 320.671 119.071 319.925 118.876L319.194 115.303H315.065L314.334 118.876C313.589 119.075 312.87 119.357 312.189 119.717L309.154 117.716L306.236 120.634L308.246 123.669C307.865 124.347 307.566 125.066 307.354 125.814L303.789 126.537V130.665L307.354 131.397C307.567 132.144 307.867 132.863 308.246 133.541L306.236 136.577L309.154 139.495L312.189 137.493C312.872 137.85 313.591 138.132 314.334 138.334L315.065 141.899H319.194L319.925 138.334C320.668 138.132 321.387 137.85 322.07 137.493L325.097 139.495L328.023 136.577L326.055 133.524C326.435 132.848 326.732 132.128 326.938 131.38L330.478 130.649ZM317.134 134.449C315.97 134.449 314.832 134.104 313.864 133.457C312.896 132.811 312.141 131.891 311.696 130.816C311.25 129.74 311.134 128.557 311.361 127.415C311.588 126.273 312.148 125.224 312.972 124.401C313.795 123.578 314.844 123.017 315.985 122.79C317.127 122.563 318.311 122.68 319.386 123.125C320.462 123.571 321.381 124.325 322.028 125.293C322.675 126.261 323.02 127.399 323.02 128.563C323.02 130.124 322.4 131.622 321.296 132.725C320.192 133.829 318.695 134.449 317.134 134.449Z" fill="#819699"/>
<path d="M290.337 110.047C284.333 113.601 279.279 118.554 275.605 124.485C274.66 126.024 274.285 127.845 274.545 129.632C274.805 131.418 275.682 133.057 277.026 134.264L280.313 137.274C282.718 139.486 288.672 141.479 292.725 139.604C296.979 137.67 299.452 131.607 301.369 128.193C306.355 119.246 293.666 108.096 290.337 110.047Z" fill="#E79B69"/>
<path d="M278.673 109.686L287.099 118.103L285.829 127.016L273.199 116.993L278.673 109.686Z" fill="#E88D3A"/>
<path d="M273.982 123.417C273.982 123.417 283.947 140.453 289.681 141.807C295.416 143.161 296.148 136.131 295.45 133.003C294.752 129.875 278.969 116.816 278.969 116.816L273.982 123.417Z" fill="#EDDBA2"/>
<path d="M175.432 73.0738C167.99 71.947 152.728 80.5323 141.738 88.487C153.628 105.052 156.033 126.225 155.848 139.999C155.837 140.668 155.959 141.333 156.208 141.955C156.456 142.577 156.826 143.143 157.296 143.621C157.765 144.098 158.325 144.477 158.943 144.736C159.561 144.995 160.224 145.128 160.893 145.128L202.937 145.599C204.236 145.621 205.493 145.141 206.447 144.259C207.401 143.377 207.978 142.161 208.058 140.865C208.714 130.446 209.403 105.262 202.407 87.7722C192.359 78.7244 179.35 73.6792 175.432 73.0738Z" fill="#EDDBA2"/>
<path d="M202.39 87.7722C199.867 85.5019 197.471 84.0388 198.883 85.3169C205.879 102.815 205.19 127.999 204.534 138.409C204.456 139.706 203.881 140.923 202.929 141.806C201.977 142.69 200.72 143.172 199.422 143.152L157.378 142.681C157.096 142.668 156.815 142.638 156.537 142.589C156.976 143.349 157.605 143.981 158.363 144.424C159.121 144.866 159.982 145.103 160.859 145.111L202.903 145.582C204.202 145.604 205.459 145.124 206.413 144.242C207.367 143.36 207.944 142.145 208.024 140.848C208.696 130.446 209.386 105.262 202.39 87.7722Z" fill="#D8C387"/>
<path d="M175.432 73.0738C167.99 71.947 152.728 80.5323 141.738 88.487C144.949 93.0172 147.585 97.9291 149.584 103.11C155.837 103.818 162.143 103.942 168.419 103.48C183.193 102.429 196.168 98.5269 204.274 93.3051C203.71 91.4132 203.097 89.5633 202.39 87.8059C192.359 78.7244 179.35 73.6792 175.432 73.0738Z" fill="#D8C387"/>
<path d="M156.83 78.5145L157.528 49.5633L178.415 49.3867L184.024 75.706C182.266 89.7485 162.968 92.1786 156.83 78.5145Z" fill="#D27558"/>
<path d="M152.266 81.1462L156.47 74.8312C156.47 74.8312 170.588 86.4689 175.953 85.1823C179.443 84.3415 184.193 73.4102 184.193 73.4102L189.987 78.3209L189.785 93.0193L177.87 91.3375L168.999 98.8129L152.266 81.1462Z" fill="#F4E4B8"/>
<path d="M154.148 35.4616C154.548 53.5586 159.523 71.2598 168.611 86.9145C168.611 86.9145 182.612 89.168 192.997 85.7709C203.381 82.3738 206.308 70.9884 206.308 70.9884C206.308 70.9884 195.057 53.0442 194.35 45.0896C193.644 37.1349 193.51 21.8815 185.664 19.2832C177.819 16.6849 153.904 16.5 154.148 35.4616Z" fill="#84392D"/>
<path d="M191.769 29.954C192.063 29.954 192.349 29.954 192.61 29.954C191.5 24.9088 189.507 20.5615 185.639 19.2834C177.785 16.6851 153.879 16.5506 154.123 35.4786C154.288 44.9427 155.753 54.3392 158.479 63.4039C160.505 44.5347 174.632 29.954 191.769 29.954Z" fill="#6D2C25"/>
<path d="M155.654 45.3672C152.291 43.038 149.045 43.8032 148.364 47.049C147.683 50.2947 149.844 54.8775 153.19 57.2067C156.537 59.5359 159.808 58.7707 160.481 55.5249C161.153 52.2792 159.001 47.6964 155.654 45.3672Z" fill="#EDB984"/>
<path d="M190.861 0.0276992C172.294 1.07038 149.145 23.3787 143.848 43.3494C152.256 28.6678 181.552 17.6523 192.105 27.726C192.105 27.726 209.436 -1.01498 190.861 0.0276992Z" fill="#EDDBA2"/>
<path d="M164.449 33.0314C164.449 33.0314 164.777 49.2014 167.687 52.691C170.596 56.1806 192.442 50.8327 192.618 48.2175C192.795 45.6024 190.634 31.8206 190.054 29.5502C187.859 20.9397 164.609 25.472 164.449 33.0314Z" fill="#EDB984"/>
<path d="M188.153 32.0141C188.994 32.0141 189.784 32.0141 190.583 32.0982C190.381 30.9126 190.205 29.996 190.087 29.5756C187.892 20.9651 164.642 25.4974 164.482 33.0568C164.482 33.0568 164.55 36.3026 164.878 40.1958C170.495 35.1842 178.802 32.0141 188.153 32.0141Z" fill="#E79B69"/>
<path d="M67.7579 199.541C65.9248 197.935 29.7253 195.875 29.7253 195.875C26.7486 206.42 24.9155 240.323 30.8689 258.89H86.5513C86.5513 258.89 87.4258 216.745 67.7579 199.541ZM65.8155 243.821C65.8155 243.821 61.4345 213.163 61.6111 204.755C67.0347 204.048 78.2519 228.753 78.2519 243.821H65.8155Z" fill="#EDC451"/>
<path d="M31.5579 183.657L30.5656 178.923H26.3024C25.8827 178.122 25.3721 177.371 24.7805 176.687L26.3445 172.726L22.2999 170.077L19.3064 173.104C18.4401 172.835 17.5457 172.665 16.6408 172.6L14.9339 168.698L10.1998 169.69V173.954C9.39501 174.372 8.6416 174.883 7.95464 175.476L4.00254 173.912L1.38743 177.948L4.41457 180.95C4.14424 181.816 3.97494 182.71 3.91005 183.615L0 185.297L0.992225 190.031H5.25544C5.67438 190.825 6.18521 191.568 6.77742 192.243L5.20499 196.203L9.24958 198.852L12.2515 195.825C13.1179 196.092 14.0124 196.259 14.917 196.321L16.5988 200.239L21.3329 199.247V194.984C22.1371 194.564 22.8904 194.054 23.578 193.462L27.5469 195.051L30.1873 191.007L27.1433 188.038C27.4102 187.172 27.5767 186.277 27.6394 185.373L31.5579 183.657ZM16.851 189.619C15.8351 189.832 14.7788 189.738 13.816 189.351C12.8531 188.963 12.0268 188.299 11.4417 187.441C10.8566 186.584 10.5389 185.572 10.5289 184.534C10.5189 183.496 10.8169 182.479 11.3853 181.61C11.9537 180.742 12.767 180.061 13.7222 179.655C14.6774 179.249 15.7317 179.135 16.7516 179.328C17.7714 179.521 18.7112 180.012 19.4518 180.739C20.1925 181.467 20.7008 182.397 20.9125 183.413C21.196 184.775 20.9276 186.193 20.166 187.357C19.4045 188.52 18.2122 189.334 16.851 189.619Z" fill="#819699"/>
<path d="M83.5242 230.653C85.6096 248.084 80.0009 253.197 66.177 253.197C52.3531 253.197 39.8241 241.559 33.156 219.15C30.8567 211.644 29.9365 203.784 30.44 195.95L29.7253 195.908C26.7486 206.453 24.9155 240.357 30.8689 258.923H86.5513C86.5564 249.419 85.5415 239.941 83.5242 230.653Z" fill="#EAAD42"/>
<path d="M58.339 203.014C58.1035 212.406 63.9308 246.621 63.9308 246.621H80.4707C80.4707 229.804 72.8188 203.014 58.339 203.014ZM65.8143 243.821C65.8143 243.821 61.4334 213.163 61.61 204.754C67.0336 204.048 78.2508 228.753 78.2508 243.821H65.8143Z" fill="#EAAD42"/>
<path d="M56.6991 219.47H30.4219L32.5241 243.468H58.8013L56.6991 219.47Z" fill="#EDDBA2"/>
<path d="M53.7912 213.508H30.9531L31.4072 216.661H54.2536L53.7912 213.508Z" fill="#EDDBA2"/>
<path d="M1.04297 227.828L7.02156 245.369L14.7323 227.828L7.28223 242.333L1.04297 227.828Z" fill="#C6A85C"/>
<path d="M14.64 257.284L7.26551 242.804L0.958984 257.284L7.2487 245.301L14.64 257.284Z" fill="#C6A85C"/>
<path d="M154.778 48.0412C152.668 46.4267 150.7 46.7126 150.38 48.6803C150.061 50.6479 151.499 53.5489 153.609 55.1634C155.72 56.7779 157.688 56.492 158.015 54.5243C158.343 52.5567 156.889 49.6557 154.778 48.0412Z" fill="#D27558"/>
<path d="M156.848 52.1618C155.562 51.1696 154.326 51.4219 154.04 52.7252C153.978 53.5169 154.115 54.3115 154.438 55.0369C154.761 55.7623 155.26 56.3956 155.89 56.8791C157.176 57.8714 158.412 57.6191 158.698 56.3158C158.762 55.5239 158.626 54.7288 158.303 54.0031C157.979 53.2774 157.479 52.6444 156.848 52.1618Z" fill="#EDB984"/>
<path d="M192.164 1.87791C195.326 1.70133 197.428 2.39925 198.765 3.66056C197.714 1.27249 195.343 -0.215855 190.861 0.0279976C172.294 1.07068 149.145 23.379 143.848 43.3497C144.903 41.5571 146.161 39.8924 147.598 38.3885C155.62 20.4696 175.683 2.80287 192.164 1.87791Z" fill="#DDC685"/>
<path d="M159.655 158.035C161.109 158.035 162.287 156.311 162.287 154.184C162.287 152.057 161.109 150.333 159.655 150.333C158.202 150.333 157.023 152.057 157.023 154.184C157.023 156.311 158.202 158.035 159.655 158.035Z" fill="#F4E4B8"/>
<path d="M207.652 153.42C207.652 151.292 206.475 149.568 205.028 149.568C203.582 149.568 202.396 151.292 202.396 153.42C202.396 155.547 203.574 157.279 205.028 157.279C206.483 157.279 207.652 155.547 207.652 153.42Z" fill="#F4E4B8"/>
<path d="M162.455 163.291H151.246V161.887H162.455C163.322 161.887 164.154 161.542 164.768 160.929C165.381 160.315 165.726 159.483 165.726 158.616V151.376H167.13V158.607C167.13 159.848 166.638 161.038 165.761 161.916C164.885 162.794 163.696 163.289 162.455 163.291Z" fill="#5281A0"/>
<path d="M207.533 163.291H201.765C199.797 163.291 198.191 161.197 198.191 158.616V151.376H199.596V158.607C199.596 160.382 200.588 161.878 201.765 161.878H207.533C208.401 161.878 209.233 161.534 209.846 160.92C210.46 160.307 210.804 159.475 210.804 158.607V152.536H212.209V158.607C212.21 159.222 212.09 159.831 211.855 160.399C211.621 160.967 211.277 161.484 210.842 161.919C210.408 162.354 209.892 162.699 209.325 162.934C208.757 163.17 208.148 163.291 207.533 163.291Z" fill="#5281A0"/>
<path d="M283.354 77.7973L288.855 80.1371C289.539 80.4278 290.079 80.978 290.357 81.6667C290.634 82.3555 290.627 83.1264 290.336 83.8098L286.489 92.8554L275.811 88.3139L279.661 79.2605C279.807 78.9213 280.018 78.6141 280.282 78.3567C280.547 78.0994 280.86 77.8969 281.203 77.7609C281.546 77.6249 281.913 77.5581 282.282 77.5643C282.651 77.5706 283.015 77.6497 283.354 77.7973Z" fill="#B2CCCE"/>
<path d="M293.826 63.0848L292.329 62.4541L284.492 81.0542L285.989 81.6848L293.826 63.0848Z" fill="#B2CCCE"/>
<path d="M287.502 75.6975C287.183 75.5616 286.84 75.4899 286.493 75.4865C286.146 75.483 285.802 75.548 285.481 75.6776C285.159 75.8073 284.866 75.999 284.618 76.2419C284.371 76.4848 284.173 76.7742 284.038 77.0933L282.818 79.9607L287.679 82.0292L288.898 79.1535C289.034 78.835 289.105 78.4928 289.109 78.1466C289.112 77.8004 289.047 77.4569 288.917 77.1358C288.787 76.8148 288.596 76.5225 288.353 76.2757C288.11 76.0289 287.821 75.8324 287.502 75.6975Z" fill="#B2CCCE"/>
<path d="M288.839 80.1374L283.34 77.7914C282.948 77.6292 282.524 77.5572 282.101 77.5804C281.677 77.6037 281.264 77.7218 280.893 77.9259C280.96 78.0689 281.01 78.2118 281.086 78.3463C283.331 82.4498 287.468 84.5099 290.336 82.9459C290.412 82.8974 290.485 82.8441 290.554 82.7861C290.571 82.2227 290.416 81.6674 290.11 81.1942C289.803 80.721 289.36 80.3524 288.839 80.1374Z" fill="#D3ECED"/>
<path d="M289.385 73.6208L288.267 72.082L287.477 73.9656L288.587 75.5128L289.385 73.6208Z" fill="#91AEAF"/>
<path d="M290.808 70.2575L289.689 68.7188L288.891 70.6023L290.009 72.1495L290.808 70.2575Z" fill="#91AEAF"/>
<path d="M292.219 66.8943L291.101 65.3555L290.311 67.239L291.429 68.7778L292.219 66.8943Z" fill="#91AEAF"/>
<path d="M293.64 63.5304L293.093 62.782L292.328 62.4541L291.723 63.8752L292.841 65.414L293.64 63.5304Z" fill="#91AEAF"/>
<path d="M291.118 87.9745C291.034 92.8852 281.818 115.118 278.261 123.526C277.644 124.978 276.492 126.137 275.045 126.763C273.597 127.389 271.964 127.434 270.483 126.89C270.483 126.89 258.526 121.374 261.898 112.797C264.942 105.044 274.898 81.8277 276.042 81.1046C277.412 80.2385 291.152 85.5275 291.118 87.9745Z" fill="#F9EAC0"/>
<path d="M291.117 87.9742C291.117 87.4528 290.503 86.8053 289.52 86.1074C288.706 89.2838 287.672 92.3997 286.425 95.4327C280.598 109.727 271.584 119.524 266.303 117.363C264.302 116.522 263.125 114.125 262.746 110.636C262.427 111.426 262.141 112.149 261.905 112.763C258.542 121.34 270.491 126.856 270.491 126.856C271.971 127.4 273.604 127.355 275.052 126.729C276.5 126.103 277.652 124.944 278.269 123.493C281.817 115.126 291.033 92.8932 291.117 87.9742Z" fill="#EDDBA2"/>
<path d="M329.947 247.103C345.831 230.039 344.104 202.611 326.088 185.841C308.073 169.07 280.591 169.308 264.707 186.372C248.822 203.436 250.55 230.864 268.565 247.634C286.581 264.405 314.062 264.167 329.947 247.103Z" fill="#4C4545"/>
<path d="M304.934 171.859L287.848 173.978L296.652 180.579L304.934 171.859Z" fill="#4C4545"/>
<path d="M299.107 260.034H310.283L304.531 251.322L299.107 260.034Z" fill="#4C4545"/>
<path d="M336.772 251.51C355.378 237.15 358.151 209.558 342.965 189.882C327.78 170.206 300.386 165.896 281.78 180.256C263.173 194.616 260.4 222.208 275.586 241.884C290.771 261.56 318.165 265.87 336.772 251.51Z" fill="#605757"/>
<path d="M329.193 241.692C342.671 231.29 344.679 211.303 333.679 197.049C322.678 182.796 302.835 179.673 289.357 190.075C275.879 200.477 273.871 220.464 284.871 234.717C295.872 248.971 315.715 252.093 329.193 241.692Z" fill="#4C4545"/>
<path d="M278.882 222.673C281.051 217.12 284.854 212.356 289.79 209.012C294.726 205.668 300.56 203.902 306.522 203.947C321.658 203.947 334.792 214.744 338.61 229.173C340.26 224.968 340.983 220.456 340.729 215.946C339.787 198.288 324.945 183.993 307.573 183.993C290.201 183.993 276.873 198.288 277.815 215.946C277.943 218.219 278.301 220.473 278.882 222.673Z" fill="#3D3636"/>
<path d="M324.483 233.713C333.371 224.165 332.403 208.817 322.321 199.432C312.239 190.046 296.861 190.179 287.973 199.727C279.084 209.275 280.052 224.624 290.134 234.009C300.216 243.394 315.594 243.262 324.483 233.713Z" fill="#DBC077"/>
<path d="M324.804 216.712C324.44 211.16 321.992 205.951 317.95 202.128C313.908 198.305 308.572 196.149 303.009 196.093C300.34 196.059 297.693 196.576 295.234 197.614C292.776 198.652 290.558 200.188 288.722 202.125C286.886 204.061 285.47 206.357 284.564 208.867C283.658 211.378 283.282 214.049 283.458 216.712C283.819 222.264 286.264 227.475 290.305 231.3C294.345 235.125 299.682 237.282 305.245 237.338C307.915 237.374 310.564 236.857 313.024 235.819C315.485 234.781 317.704 233.245 319.541 231.307C321.378 229.37 322.794 227.072 323.7 224.56C324.606 222.048 324.982 219.376 324.804 216.712Z" fill="#EDDBA2"/>
<path d="M341.765 215.922C340.789 197.7 325.46 182.926 307.516 182.926C289.572 182.926 275.815 197.7 276.782 215.922C277.749 234.143 293.087 248.926 311.031 248.926C328.975 248.926 342.732 234.152 341.765 215.922ZM310.922 247.252C293.894 247.252 279.339 233.227 278.414 215.922C277.489 198.616 290.556 184.599 307.592 184.599C324.628 184.599 339.175 198.625 340.1 215.922C341.025 233.218 327.975 247.252 310.922 247.252Z" fill="#DBC077"/>
<path d="M308.238 216.711C308.188 215.853 307.812 215.047 307.187 214.457C306.561 213.868 305.734 213.54 304.874 213.541C304.463 213.536 304.056 213.615 303.678 213.775C303.3 213.934 302.958 214.17 302.676 214.468C302.393 214.766 302.175 215.119 302.035 215.505C301.895 215.891 301.837 216.302 301.864 216.711C301.913 217.569 302.289 218.376 302.915 218.966C303.54 219.555 304.368 219.883 305.227 219.881C305.638 219.89 306.047 219.812 306.426 219.653C306.806 219.495 307.148 219.259 307.431 218.96C307.715 218.662 307.933 218.308 308.071 217.921C308.21 217.534 308.267 217.122 308.238 216.711Z" fill="#3D3636"/>
<path d="M303.688 196.161C303.654 195.651 303.429 195.173 303.058 194.822C302.687 194.472 302.198 194.274 301.687 194.269C301.443 194.267 301.201 194.316 300.976 194.411C300.751 194.507 300.549 194.648 300.381 194.826C300.213 195.003 300.083 195.213 300 195.443C299.916 195.672 299.881 195.917 299.896 196.161C299.93 196.67 300.155 197.148 300.526 197.499C300.897 197.849 301.387 198.047 301.897 198.053C302.141 198.054 302.384 198.006 302.608 197.91C302.833 197.814 303.036 197.673 303.204 197.495C303.371 197.318 303.501 197.108 303.585 196.878C303.668 196.649 303.703 196.404 303.688 196.161Z" fill="#4C4545"/>
<path d="M312.678 238.087C312.645 237.58 312.421 237.104 312.051 236.755C311.682 236.405 311.194 236.209 310.686 236.203C310.441 236.199 310.199 236.246 309.974 236.34C309.748 236.435 309.545 236.575 309.377 236.752C309.208 236.929 309.079 237.139 308.996 237.369C308.913 237.599 308.878 237.843 308.895 238.087C308.926 238.596 309.15 239.074 309.519 239.424C309.889 239.775 310.378 239.973 310.887 239.979C311.132 239.982 311.375 239.934 311.6 239.839C311.825 239.743 312.028 239.602 312.197 239.425C312.365 239.247 312.494 239.036 312.577 238.806C312.66 238.576 312.695 238.331 312.678 238.087Z" fill="#4C4545"/>
<path d="M327.866 210.64C327.832 210.132 327.607 209.655 327.236 209.305C326.864 208.956 326.375 208.76 325.865 208.757C325.621 208.754 325.379 208.802 325.154 208.897C324.93 208.991 324.727 209.132 324.559 209.308C324.391 209.485 324.261 209.695 324.177 209.924C324.094 210.153 324.059 210.397 324.074 210.64C324.108 211.15 324.333 211.628 324.704 211.979C325.075 212.329 325.564 212.527 326.075 212.532C326.319 212.534 326.561 212.485 326.786 212.39C327.011 212.294 327.213 212.153 327.381 211.975C327.549 211.798 327.679 211.588 327.762 211.358C327.846 211.129 327.881 210.884 327.866 210.64Z" fill="#4C4545"/>
<path d="M287.678 222.271C287.647 221.763 287.423 221.286 287.053 220.936C286.683 220.586 286.195 220.39 285.686 220.387C285.441 220.383 285.199 220.43 284.974 220.524C284.748 220.619 284.545 220.759 284.377 220.936C284.208 221.113 284.079 221.323 283.996 221.553C283.913 221.782 283.878 222.027 283.895 222.271C283.928 222.779 284.152 223.255 284.521 223.606C284.891 223.956 285.378 224.155 285.887 224.162C286.132 224.165 286.375 224.118 286.6 224.022C286.825 223.927 287.028 223.786 287.197 223.608C287.365 223.43 287.494 223.22 287.577 222.99C287.66 222.759 287.695 222.515 287.678 222.271Z" fill="#4C4545"/>
<path d="M290.831 205.453C290.799 204.944 290.576 204.466 290.206 204.115C289.836 203.764 289.348 203.566 288.838 203.561C288.593 203.558 288.351 203.606 288.125 203.701C287.9 203.796 287.697 203.937 287.529 204.115C287.361 204.293 287.231 204.503 287.148 204.733C287.065 204.964 287.031 205.208 287.047 205.453C287.073 205.97 287.295 206.457 287.669 206.815C288.043 207.173 288.539 207.375 289.057 207.378C289.303 207.379 289.547 207.329 289.772 207.23C289.998 207.132 290.201 206.987 290.368 206.806C290.535 206.625 290.662 206.411 290.742 206.178C290.822 205.945 290.852 205.698 290.831 205.453Z" fill="#4C4545"/>
<path d="M318.278 199.028C318.246 198.52 318.023 198.043 317.653 197.694C317.283 197.344 316.794 197.148 316.285 197.145C316.041 197.141 315.799 197.187 315.573 197.282C315.348 197.376 315.145 197.517 314.976 197.694C314.808 197.871 314.678 198.081 314.595 198.31C314.512 198.54 314.478 198.785 314.494 199.028C314.528 199.536 314.752 200.013 315.121 200.364C315.49 200.714 315.978 200.913 316.487 200.92C316.732 200.923 316.974 200.875 317.2 200.78C317.425 200.685 317.628 200.544 317.796 200.366C317.964 200.188 318.094 199.978 318.177 199.747C318.26 199.517 318.294 199.272 318.278 199.028Z" fill="#4C4545"/>
<path d="M326.106 228.224C326.072 227.715 325.847 227.238 325.476 226.888C325.104 226.539 324.615 226.343 324.105 226.34C323.861 226.337 323.62 226.385 323.396 226.48C323.171 226.575 322.969 226.715 322.802 226.892C322.634 227.069 322.505 227.278 322.423 227.508C322.34 227.737 322.306 227.981 322.322 228.224C322.352 228.733 322.575 229.212 322.945 229.563C323.315 229.915 323.805 230.112 324.315 230.115C324.56 230.118 324.802 230.071 325.028 229.975C325.253 229.88 325.456 229.739 325.624 229.561C325.793 229.383 325.922 229.173 326.005 228.943C326.088 228.713 326.122 228.468 326.106 228.224Z" fill="#4C4545"/>
<path d="M298.188 235.126C298.156 234.618 297.933 234.14 297.564 233.789C297.194 233.438 296.705 233.24 296.195 233.234C295.951 233.232 295.708 233.279 295.483 233.375C295.258 233.47 295.054 233.611 294.886 233.789C294.718 233.967 294.588 234.177 294.505 234.407C294.422 234.637 294.388 234.882 294.404 235.126C294.438 235.635 294.662 236.111 295.031 236.462C295.4 236.812 295.888 237.011 296.397 237.018C296.642 237.021 296.884 236.974 297.11 236.878C297.335 236.783 297.538 236.642 297.706 236.464C297.875 236.286 298.004 236.076 298.087 235.846C298.17 235.615 298.204 235.371 298.188 235.126Z" fill="#4C4545"/>
<path d="M47.5851 120.12C43.6667 117.716 43.6246 115.84 44.3225 113.949C45.0205 112.057 46.1893 110.879 50.0741 113.167C53.9589 115.454 56.8011 119.053 56.1452 121.012C55.4893 122.971 51.5961 122.593 47.5851 120.12Z" fill="#E79B69"/>
<path d="M45.2574 128.336C41.053 125.612 41.053 123.653 41.7425 121.719C42.4321 119.785 43.685 118.616 47.8305 121.214C51.976 123.812 55.0535 127.706 54.364 129.74C53.6745 131.775 49.5458 131.128 45.2574 128.336Z" fill="#E79B69"/>
<path d="M42.0595 136.552C38.0569 133.852 38.0485 131.817 38.8053 129.774C39.5621 127.731 40.7729 126.478 44.7419 129.051C48.7108 131.624 51.6034 135.576 50.8886 137.712C50.1739 139.848 46.1713 139.326 42.0595 136.552Z" fill="#E79B69"/>
<path d="M54.599 115.319C57.8195 115.614 58.3409 114.941 67.0439 120.617C68.6074 121.65 69.7586 123.199 70.2965 124.994C70.8344 126.789 70.7248 128.716 69.9869 130.438L63.8233 127.747C62.5368 130.892 64.4792 146.146 60.3758 144.069C55.6501 141.681 47.2666 138.771 43.9872 136.408C41.9018 134.769 50.6301 114.958 54.599 115.319Z" fill="#E79B69"/>
<path d="M68.2786 117.035C72.1214 117.102 75.0056 123.08 74.7365 130.135C74.4926 136.913 76.166 144.767 72.6848 144.909C69.2035 145.052 61.2321 137.249 61.1816 130.287C61.1816 123.038 64.377 116.976 68.2786 117.035Z" fill="#EDB984"/>
<path d="M176.76 44.6436C176.457 42.3649 175.137 40.5907 173.809 40.6831C172.48 40.7756 171.656 42.6844 171.95 44.9548C172.244 47.2251 173.573 49.0078 174.902 48.9153C176.23 48.8228 177.063 46.914 176.76 44.6436Z" fill="#5A4949"/>
<path d="M173.925 31.4422L165.971 34.8057C165.647 34.9479 165.392 35.2121 165.261 35.5411C165.13 35.8701 165.135 36.2373 165.273 36.5631L166.324 39.1614C166.388 39.3237 166.483 39.4717 166.605 39.5969C166.726 39.7221 166.871 39.822 167.032 39.8908C167.192 39.9596 167.364 39.996 167.539 39.9978C167.713 39.9996 167.886 39.9668 168.048 39.9014L176.002 36.5379C176.326 36.3956 176.582 36.1314 176.712 35.8024C176.843 35.4735 176.839 35.1063 176.7 34.7804L175.649 32.1822C175.585 32.0199 175.49 31.8718 175.368 31.7466C175.247 31.6214 175.102 31.5216 174.942 31.4528C174.781 31.384 174.609 31.3476 174.435 31.3458C174.26 31.344 174.087 31.3767 173.925 31.4422Z" fill="#84392D"/>
<path d="M190.676 42.0381C190.011 39.8434 188.43 38.3046 187.135 38.6073C185.841 38.9101 185.328 40.9366 185.992 43.1396C186.656 45.3427 188.245 46.8731 189.54 46.5704C190.835 46.2677 191.323 44.2496 190.676 42.0381Z" fill="#5A4949"/>
<path d="M192.173 30.2483L184.899 29.7102C184.75 29.7032 184.602 29.7269 184.463 29.7799C184.323 29.8329 184.197 29.914 184.09 30.0181C183.984 30.1223 183.9 30.2472 183.844 30.3852C183.787 30.5232 183.76 30.6712 183.764 30.8201L183.697 33.3427C183.682 33.6523 183.784 33.9561 183.984 34.1932C184.184 34.4302 184.465 34.583 184.773 34.6209L192.047 35.1674C192.196 35.1743 192.345 35.1506 192.484 35.0977C192.624 35.0448 192.751 34.9639 192.859 34.8599C192.966 34.7559 193.05 34.631 193.107 34.493C193.164 34.355 193.193 34.2068 193.19 34.0575L193.249 31.5349C193.264 31.2244 193.162 30.9195 192.963 30.6811C192.763 30.4427 192.481 30.2881 192.173 30.2483Z" fill="#84392D"/>
<path d="M182.772 42.3818C185.673 47.4271 186.808 50.6728 184.891 51.9762C183.688 52.817 181.805 52.6657 180.291 52.3714V52.4723C180.291 52.4723 185.05 54.154 187.169 52.96C189.288 51.766 187.119 48.1334 182.772 42.3818Z" fill="#D27558"/>
<path d="M174.364 56.7529L174.045 58.8972C174.264 58.9981 179.595 61.4954 186.935 58.5524L186.448 57.6527C184.501 58.4439 182.397 58.7744 180.301 58.6183C178.205 58.4622 176.173 57.8238 174.364 56.7529Z" fill="#59221E"/>
<path d="M184.168 63.5894C184.168 64.22 182.856 64.6489 181.334 64.5395C179.812 64.4302 178.602 63.8332 178.644 63.2026C178.686 62.5719 179.955 62.1431 181.477 62.2524C182.999 62.3617 184.21 62.9755 184.168 63.5894Z" fill="#59221E"/>
<path d="M294.313 124.535C290.807 127.058 291.236 128.689 292.447 130.312C293.657 131.935 295.171 132.885 298.669 130.506C302.167 128.126 304.252 124.695 303.058 122.988C301.864 121.281 297.895 121.988 294.313 124.535Z" fill="#EDB984"/>
<path d="M289.806 117.405C286.115 120.197 286.535 121.946 287.788 123.603C289.041 125.259 290.605 126.192 294.288 123.527C297.971 120.861 300.233 117.111 298.997 115.362C297.761 113.613 293.598 114.563 289.806 117.405Z" fill="#EDB984"/>
<path d="M284.39 110.384C280.867 113.142 281.371 114.959 282.708 116.708C284.045 118.457 285.601 119.466 289.116 116.834C292.631 114.202 294.674 110.418 293.379 108.585C292.084 106.752 287.989 107.559 284.39 110.384Z" fill="#EDB984"/>
<path d="M274.765 117.329C271.402 118.96 266.138 128.975 269.215 135.029C272.175 140.84 283.931 139.528 281.131 133.449C278.204 127.117 278.129 115.723 274.765 117.329Z" fill="#EDB984"/>
<path d="M288.69 113.082C287.849 112.847 284.115 114.764 277.716 115.563C273.218 116.143 270.939 122.097 273.899 126.318C277.599 126.688 290.455 120.785 291.481 118.691C292.6 116.404 290.472 113.604 288.69 113.082Z" fill="#EDB984"/>
<path d="M85.6928 81.6926C85.6928 81.6926 81.9846 92.0437 76.3844 88.3187C70.7842 84.5936 79.092 76.866 79.092 76.866C69.7499 73.9986 63.6115 86.8976 68.3877 93.0612C68.7043 93.4645 69.044 93.8491 69.4051 94.2132C62.5689 109.643 51.0405 126.94 37.8473 144.909C35.3835 144.018 30.2794 143.16 24.3008 151.746C21.8371 155.269 21.0971 158.195 21.3073 160.44C21.5764 163.282 25.7724 163.585 26.4787 160.81C26.9639 159.413 27.8394 158.185 29.0013 157.27C34.5342 152.284 38.377 159.339 38.377 159.339L36.5439 167.529C36.4546 167.912 36.4816 168.313 36.6216 168.681C36.7616 169.048 37.0082 169.366 37.3297 169.592C37.6512 169.819 38.0331 169.945 38.4264 169.953C38.8197 169.961 39.2066 169.852 39.5374 169.639C47.1053 164.552 48.3834 154.335 43.5231 148.617C46.0458 142.731 59.8697 111.426 73.517 97.0721C78.6463 99.3761 85.0369 98.4511 88.0557 91.5812C92.2936 82.0373 85.6928 81.6926 85.6928 81.6926Z" fill="#B2CCCE"/>
<path d="M69.4047 94.2141C62.6777 109.299 51.5446 126.167 38.7129 143.716C39.1795 143.808 39.6379 143.937 40.0835 144.103C53.2768 126.134 64.8051 108.828 71.6498 93.3984C71.2864 93.0365 70.9465 92.6518 70.6323 92.2464C67.0923 87.6889 69.5392 79.44 74.8367 76.623C68.0509 78.0105 64.3847 87.8991 68.3872 93.0621C68.7038 93.4654 69.0436 93.85 69.4047 94.2141Z" fill="#91B4B5"/>
<path d="M87.3751 82.2063C86.8527 81.929 86.2817 81.7548 85.6934 81.6934C85.6934 81.6934 84.0116 86.377 81.2031 88.3026C84.2134 88.1681 86.4081 84.3085 87.3751 82.2063Z" fill="#91B4B5"/>
<path d="M75.7699 96.2402L74.6348 97.4847C76.0027 98.0031 77.4619 98.2376 78.9234 98.174C80.3849 98.1104 81.8182 97.75 83.136 97.1147C80.6505 97.6246 78.0669 97.3179 75.7699 96.2402Z" fill="#91B4B5"/>
<path d="M38.7981 166.714L40.6396 158.532C40.6396 158.532 37.3518 152.537 32.5 155.539C36.0905 155.152 38.3861 159.339 38.3861 159.339L36.553 167.529C36.4637 167.913 36.4907 168.314 36.6307 168.681C36.7707 169.049 37.0172 169.366 37.3388 169.593C37.6603 169.82 38.0422 169.945 38.4355 169.954C38.8288 169.962 39.2156 169.853 39.5465 169.64C39.8072 169.472 40.0342 169.27 40.2781 169.085C39.7696 168.963 39.3295 168.646 39.0527 168.202C38.7758 167.759 38.6844 167.224 38.7981 166.714Z" fill="#91B4B5"/>
<path d="M23.5532 159.625C23.3346 157.38 24.0746 154.453 26.5383 150.938C29.0021 147.424 31.2304 145.557 33.2653 144.548C30.7427 145.078 27.6903 146.919 24.3184 151.746C21.8547 155.269 21.1147 158.195 21.3249 160.44C21.5519 162.828 24.5286 163.409 25.9077 161.903C25.3082 161.866 24.7417 161.616 24.3101 161.198C23.8785 160.781 23.6101 160.223 23.5532 159.625Z" fill="#91B4B5"/>
<path d="M48.7449 129.001C52.9492 130.43 53.0165 132.221 52.285 134.197C51.5534 136.173 50.3341 137.561 46.1634 136.249C41.9927 134.937 38.9151 132.137 39.6046 130.094C40.2941 128.051 44.4312 127.538 48.7449 129.001Z" fill="#EDB984"/>
<path d="M51.133 120.583C55.6148 122.265 55.7073 124.123 54.9505 126.141C54.1937 128.159 52.9156 129.572 48.4758 128.016C43.9099 126.427 40.6978 123.409 41.4041 121.29C42.1104 119.171 46.525 118.868 51.133 120.583Z" fill="#EDB984"/>
<path d="M54.4548 111.956C58.7516 113.638 58.7853 115.597 58.0032 117.733C57.2212 119.868 55.9431 121.348 51.6799 119.776C47.4167 118.204 44.2886 115.059 45.0286 112.847C45.7686 110.636 50.0318 110.215 54.4548 111.956Z" fill="#EDB984"/>
<path d="M64.6302 107.987C65.3954 108.424 66.6988 112.586 70.6761 117.943C73.4762 121.701 70.6761 127.722 65.4122 128.58C62.4776 126.099 57.6342 112.275 58.4582 109.988C59.358 107.499 62.9653 107.045 64.6302 107.987Z" fill="#EDB984"/>
</svg>
