<svg width="55" height="35" viewBox="0 0 55 35" fill="none" xmlns="http://www.w3.org/2000/svg">
<path fill-rule="evenodd" clip-rule="evenodd" d="M10.6646 0C14.0981 0 17.5321 0 20.9673 0C20.9925 0.13659 20.8451 0.329489 20.7367 0.512353C17.4002 6.11311 13.9948 11.8711 10.6646 17.5003C14.0878 23.3341 17.6388 29.2125 21 35C17.5665 35 14.1319 35 10.6973 35C7.06596 29.2415 3.59579 23.3257 0 17.5326C3.5304 11.6654 7.09693 5.83213 10.6646 0Z" fill="white"/>
<path fill-rule="evenodd" clip-rule="evenodd" d="M44.3357 0C40.901 0 37.4674 0 34.0333 0C34.0075 0.13659 34.1549 0.329489 34.2633 0.512353C37.5999 6.11311 41.0054 11.8711 44.3357 17.5003C40.9119 23.3341 37.3613 29.2125 34 35C37.4341 35 40.8688 35 44.303 35C47.9338 29.2415 51.4041 23.3257 55 17.5326C51.4701 11.6654 47.9029 5.83213 44.3357 0Z" fill="white"/>
<path fill-rule="evenodd" clip-rule="evenodd" d="M34.3723 0L38 6.21615L20.5219 35L17 29.0163L34.3723 0Z" fill="#CCCCCC"/>
</svg>
