<svg width="135" height="100" viewBox="0 0 135 100" fill="none" xmlns="http://www.w3.org/2000/svg">
<g style="mix-blend-mode:multiply" opacity="0.3">
<path fill-rule="evenodd" clip-rule="evenodd" d="M96.1411 96.4443H95.7172L92.1843 96.3535L91.9561 96.3695L86.9884 96.2708L87.1161 95.9451L82.8196 93.1902C82.8414 93.1448 82.7028 93.1048 82.4582 93.0701C82.0072 93.0188 81.5534 92.9956 81.0994 93.0007L29.7946 93.0968C28.8271 93.0968 28.0499 93.1822 28.0852 93.2837L23.8513 95.5554L24.2399 96.8767C24.3961 96.9256 24.5575 96.9569 24.7209 96.9702L12 97.6642L12.9022 98.1394L13.5028 98.3716L28.2891 98.2248L26.3868 98.3369L26.3188 98.4971L23.3023 98.716L23.8458 98.9829L88.252 99.9146L90.1543 99.9413L94.1682 100L94.5024 99.8025L92.4942 99.4741L92.6409 99.362L90.812 99.1111L90.6 99.0844L88.9504 98.8575L88.7412 98.8281L87.5101 98.6466L86.3144 98.449H86.2791L85.7736 98.3663H85.4013H85.7763L85.4095 98.3503H85.3008L84.904 98.2969L80.9418 98.2435H80.8902H80.8385L77.1155 98.1928H77.1019H77.034L57.6686 97.9258L99 97.5227V96.5377L96.1411 96.4443Z" fill="#792A54"/>
</g>
<path fill-rule="evenodd" clip-rule="evenodd" d="M98.1165 38.1645C109.188 55.5883 85.9911 70 68.9162 70C60.7165 69.9993 52.8528 66.7579 47.055 60.9888C41.2571 55.2197 38 47.3954 38 39.237C38 22.2482 51.8467 5 68.9162 5C85.9857 5 86.8409 20.4193 98.1165 38.1645Z" fill="#9BF4FF"/>
<path fill-rule="evenodd" clip-rule="evenodd" d="M44.9237 65.6503C44.2856 70.4585 41.5114 73.3729 36.5709 72.9615C28.6591 72.3017 23.0778 68.6741 24.1267 63.9487C25.066 59.7067 32.2658 54.4256 37.1816 55.0507C42.0975 55.6758 45.5645 60.8553 44.9237 65.6503Z" fill="#9BF4FF"/>
<path fill-rule="evenodd" clip-rule="evenodd" d="M103 21.5484C103 24.2517 99.0619 26 96.548 26C95.9504 25.9996 95.3588 25.8727 94.8068 25.6265C94.2548 25.3802 93.7534 25.0195 93.331 24.5648C92.9087 24.1101 92.5738 23.5705 92.3454 22.9766C92.117 22.3828 91.9997 21.7464 92 21.1038C92 18.4004 94.0418 15 96.5506 15C99.0594 15 103 18.8423 103 21.5484Z" fill="#9BF4FF"/>
<path fill-rule="evenodd" clip-rule="evenodd" d="M103.978 16.7266C103.798 17.3681 101.721 16.7266 101.178 16.3689C100.516 15.9261 99.8498 15.2789 100.03 14.6373C100.21 13.9958 101.61 13.8737 102.376 14.115C103.142 14.3563 104.161 16.085 103.978 16.7266Z" fill="#9BF4FF"/>
<path fill-rule="evenodd" clip-rule="evenodd" d="M25.2982 29.0052L11.0852 19L10.2063 20.217L10.862 20.9224C10.9224 20.9569 10.9747 21.003 11.0158 21.0578C11.0569 21.1127 11.0859 21.1751 11.1008 21.2413C11.1158 21.3074 11.1165 21.3758 11.1029 21.4422C11.0892 21.5086 11.0616 21.5716 11.0216 21.6272C10.9816 21.6828 10.9302 21.7299 10.8706 21.7655C10.8109 21.8011 10.7443 21.8245 10.6749 21.8341C10.6054 21.8438 10.5347 21.8395 10.467 21.8217C10.3994 21.8038 10.3363 21.7726 10.2817 21.7301C10.196 21.6703 10.1312 21.5868 10.0958 21.4906C10.0604 21.3945 10.0561 21.2902 10.0836 21.1917L9.60924 21.0516L8.3202 22.8287L9.10981 23.3672C9.17858 23.4113 9.23524 23.4708 9.27493 23.5407C9.31462 23.6106 9.33615 23.6887 9.33768 23.7684C9.33921 23.8481 9.32069 23.9269 9.28371 23.9982C9.24673 24.0694 9.19239 24.1309 9.12536 24.1775C9.05832 24.224 8.98059 24.2542 8.89883 24.2653C8.81707 24.2765 8.73372 24.2684 8.65592 24.2417C8.57812 24.215 8.50821 24.1704 8.45216 24.1119C8.39612 24.0534 8.35563 23.9826 8.33415 23.9056C8.30854 23.8176 8.30854 23.7244 8.33415 23.6364L7.88494 23.4291L6.54009 25.2815L6.95303 25.7231C6.98279 25.7135 7.01378 25.7081 7.0451 25.7069C7.12573 25.7024 7.20631 25.7164 7.28017 25.748C7.35403 25.7795 7.41903 25.8276 7.46977 25.8882C7.52052 25.9488 7.55555 26.0202 7.57195 26.0966C7.58836 26.1729 7.58567 26.2518 7.5641 26.3269C7.54253 26.4021 7.50271 26.4711 7.44795 26.5284C7.39318 26.5857 7.32505 26.6295 7.2492 26.6563C7.17336 26.6831 7.09199 26.692 7.01185 26.6823C6.93171 26.6727 6.85511 26.6447 6.78841 26.6008C6.69257 26.5354 6.6227 26.4404 6.59031 26.3315C6.56787 26.2554 6.56311 26.1754 6.57636 26.0973L6.10762 25.8738L4.74324 27.7585L5.18408 28.1624C5.21516 28.1544 5.2469 28.149 5.27894 28.1463C5.39283 28.14 5.50566 28.1703 5.59981 28.2324C5.667 28.2769 5.7221 28.3364 5.76047 28.4057C5.79884 28.4751 5.81934 28.5524 5.82024 28.631C5.82114 28.7096 5.80242 28.7873 5.76566 28.8575C5.7289 28.9277 5.67517 28.9883 5.60902 29.0342C5.54287 29.0802 5.46624 29.11 5.3856 29.1214C5.30496 29.1327 5.22268 29.1251 5.14571 29.0993C5.06874 29.0735 4.99934 29.0302 4.94337 28.973C4.8874 28.9158 4.84651 28.8465 4.82415 28.7709C4.815 28.7437 4.80846 28.7158 4.80462 28.6874L4.17126 28.5232L2.98545 30.1629L3.40118 30.5991C3.44251 30.5854 3.48583 30.5781 3.52953 30.5775C3.64352 30.5702 3.75671 30.6006 3.85039 30.6637C3.91076 30.6982 3.96312 30.7443 4.00421 30.7991C4.0453 30.854 4.07423 30.9164 4.0892 30.9826C4.10418 31.0487 4.10487 31.1171 4.09124 31.1835C4.07761 31.2499 4.04995 31.3129 4.00998 31.3685C3.97002 31.4241 3.9186 31.4712 3.85894 31.5068C3.79929 31.5424 3.73267 31.5658 3.66324 31.5754C3.59382 31.5851 3.52307 31.5808 3.45542 31.5629C3.38777 31.5451 3.32467 31.5139 3.27004 31.4714C3.17421 31.406 3.10433 31.3111 3.07194 31.2022C3.05826 31.1604 3.05166 31.1168 3.05241 31.073L2.45811 30.8791L1.16628 32.6669L1.53179 33.0869C1.60832 33.0353 1.69805 33.0049 1.79123 32.9991C1.8844 32.9933 1.97744 33.0122 2.06024 33.0538C2.14304 33.0955 2.21243 33.1582 2.26085 33.2353C2.30927 33.3123 2.33487 33.4007 2.33487 33.4908C2.33487 33.5809 2.30927 33.6693 2.26085 33.7463C2.21243 33.8233 2.14304 33.8861 2.06024 33.9277C1.97744 33.9694 1.8844 33.9883 1.79123 33.9825C1.69805 33.9766 1.60832 33.9463 1.53179 33.8946C1.43731 33.8285 1.36854 33.7337 1.33648 33.6254C1.3095 33.5375 1.3095 33.444 1.33648 33.3562L0.823092 33.1542L0 34.2824L14.7152 43.7329C15.1027 43.9702 15.5703 44.0538 16.0202 43.9659C16.4701 43.8781 16.8673 43.6257 17.1287 43.2617L24.4751 33.0304L25.6888 31.3422C25.9467 30.9786 26.05 30.5333 25.9773 30.0984C25.9046 29.6634 25.6615 29.272 25.2982 29.0052Z" fill="url(#paint0_linear_2271:3440)"/>
<path d="M14.7406 22.3715L4.64111 36.9189L4.72574 36.9777L14.8252 22.4303L14.7406 22.3715Z" fill="#E54D98"/>
<path d="M16.0339 23.5685L5.93945 38.0903L6.02393 38.1491L16.1184 23.6273L16.0339 23.5685Z" fill="#C9A4AC"/>
<path d="M17.6585 24.394L7.55908 38.9414L7.64371 39.0002L17.7432 24.4527L17.6585 24.394Z" fill="#C9A4AC"/>
<path d="M19.1145 25.4073L9.01758 39.9565L9.10222 40.0153L19.1991 25.4661L19.1145 25.4073Z" fill="#C9A4AC"/>
<path d="M20.5729 26.4119L10.4785 40.9629L10.5632 41.0216L20.6575 26.4707L20.5729 26.4119Z" fill="#C9A4AC"/>
<path d="M22.1009 27.7201L11.9351 41.9722L12.0189 42.032L22.1848 27.7799L22.1009 27.7201Z" fill="#C9A4AC"/>
<path d="M23.2475 28.5196L13.3975 42.9917L13.4826 43.0497L23.3327 28.5775L23.2475 28.5196Z" fill="#C9A4AC"/>
<path d="M24.7634 29.568L15.1343 43.6099L15.2192 43.6681L24.8483 29.6262L24.7634 29.568Z" fill="#C9A4AC"/>
<path d="M8.90538 22.1556L8.84521 22.2393L24.0665 33.189L24.1267 33.1053L8.90538 22.1556Z" fill="#E54D98"/>
<path d="M89.4268 97C89.2417 97 89.0593 97 88.8823 97C84.5487 96.8309 81.0481 95.2925 78.4811 92.4347C75.9741 89.6407 74.4197 85.6298 73.8916 80.6515C71.307 81.0771 68.7633 81.729 66.2888 82.6001L66.1091 82.1178C68.6233 81.2266 71.2092 80.5607 73.8372 80.1276C73.6687 78.2042 73.6369 76.2709 73.7419 74.3427C73.8726 71.715 72.6395 69.6998 70.0807 68.3555C62.094 64.1644 42.1654 67.6431 33.3158 74.7751L33 74.3704C37.1213 71.0442 44.1062 68.2391 51.6819 66.8559C59.5352 65.4229 66.3269 65.8026 70.3148 67.8954C73.0668 69.3423 74.3979 71.5182 74.2482 74.3677C74.1478 76.2598 74.1787 78.1568 74.3408 80.0445C78.7207 79.346 84.2466 79.0993 89.3587 80.7097C96.1123 82.833 98.5186 87.4509 97.9089 91.0821C97.2991 94.7132 93.9945 97 89.4268 97ZM74.3816 80.5573C74.8961 85.4358 76.4069 89.358 78.8459 92.0744C81.2849 94.7908 84.6984 96.307 88.8905 96.4733C93.4664 96.6535 96.8119 94.5053 97.3998 90.9961C97.9742 87.5867 95.6604 83.2349 89.2008 81.2031C84.1649 79.6065 78.7071 79.8643 74.3843 80.5573H74.3816Z" fill="url(#paint1_linear_2271:3440)"/>
<path d="M39.0242 62C30.4658 58.2971 27.6305 51.3288 26.757 46.1372C25.2828 37.3758 28.4103 28.1091 31.2098 25.5772C32.3505 24.5475 34.2132 23.8168 36.0153 23.1104C38.1507 22.2737 40.1649 21.4804 40.4543 20.3937C40.5672 19.9618 40.3992 19.4809 39.939 18.9267C38.0625 16.6637 34.7037 16.0334 32.7308 16.8647C32.2072 17.053 31.7675 17.417 31.4889 17.8928C31.2103 18.3687 31.1105 18.9261 31.207 19.4673C31.3503 20.5812 31.0775 24.2324 28.9448 26.1368C27.6994 27.2479 26.0488 27.5848 24.0374 27.1338C18.9701 25.9928 17.0799 19.6439 17 19.3722L17.496 19.231C17.5125 19.2962 19.3917 25.5527 24.1504 26.6231C25.991 27.0333 27.4872 26.7399 28.6004 25.7456C30.5567 23.9961 30.824 20.516 30.6973 19.5135C30.5871 18.8633 30.7096 18.1955 31.0439 17.6245C31.3782 17.0536 31.9034 16.615 32.5296 16.3839C34.6651 15.4819 38.316 16.1502 40.3385 18.5925C40.8896 19.269 41.1073 19.9156 40.9502 20.4942C40.5975 21.8363 38.4704 22.6676 36.2054 23.5587C34.4474 24.2487 32.6233 24.9632 31.557 25.9303C28.8401 28.3754 25.8201 37.4356 27.264 46.0339C28.1154 51.1033 30.8846 57.9059 39.2309 61.5191L39.0242 62Z" fill="url(#paint2_linear_2271:3440)"/>
<path fill-rule="evenodd" clip-rule="evenodd" d="M88.9984 29.8778L87.9595 55.3281L87.5908 64.2812C87.5701 64.7435 87.3754 65.18 87.0472 65.5C86.719 65.82 86.2824 65.9991 85.828 66H24.8458C24.3874 66.0003 23.9468 65.8192 23.6169 65.495C23.287 65.1707 23.0937 64.7287 23.0776 64.262L22.0011 29.8641C21.9928 29.6226 22.0323 29.3818 22.1172 29.1561C22.2022 28.9305 22.3309 28.7245 22.4956 28.5506C22.6604 28.3767 22.8578 28.2383 23.0761 28.1437C23.2945 28.0491 23.5293 28.0002 23.7666 28H87.2329C87.4714 28.0001 87.7073 28.0494 87.9266 28.1449C88.1459 28.2403 88.3439 28.3799 88.5089 28.5553C88.6738 28.7308 88.8022 28.9383 88.8863 29.1656C88.9704 29.3929 89.0086 29.6351 88.9984 29.8778Z" fill="url(#paint3_linear_2271:3440)"/>
<path fill-rule="evenodd" clip-rule="evenodd" d="M24 30.1292L24.545 62L85.8747 61.9368L87 30L24 30.1292Z" fill="url(#paint4_radial_2271:3440)"/>
<path fill-rule="evenodd" clip-rule="evenodd" d="M23 64.2074V63.393L88 63L87.9458 64.2271C87.9458 64.2271 87.9621 65.8699 86.1656 66H24.7721C24.7721 66 23.0569 65.8982 23 64.2074Z" fill="url(#paint5_radial_2271:3440)"/>
<path fill-rule="evenodd" clip-rule="evenodd" d="M83 64.5C83 64.5989 82.9707 64.6956 82.9157 64.7778C82.8608 64.86 82.7827 64.9241 82.6913 64.9619C82.6 64.9998 82.4994 65.0097 82.4025 64.9904C82.3055 64.9711 82.2164 64.9235 82.1464 64.8536C82.0765 64.7836 82.0289 64.6945 82.0096 64.5975C81.9903 64.5006 82.0002 64.4 82.0381 64.3087C82.0759 64.2173 82.14 64.1392 82.2222 64.0843C82.3044 64.0293 82.4011 64 82.5 64C82.6326 64 82.7598 64.0527 82.8536 64.1464C82.9473 64.2402 83 64.3674 83 64.5Z" fill="#FFFB00"/>
<path fill-rule="evenodd" clip-rule="evenodd" d="M50 66L51.2691 72H58.771L60 66H50Z" fill="url(#paint6_linear_2271:3440)"/>
<g style="mix-blend-mode:multiply" opacity="0.5">
<path fill-rule="evenodd" clip-rule="evenodd" d="M50.4406 68.0862L59.3867 69L60 66H50L50.4406 68.0862Z" fill="#401734"/>
</g>
<path d="M65 72H45V74H65V72Z" fill="url(#paint7_radial_2271:3440)"/>
<g style="mix-blend-mode:soft-light" opacity="0.8">
<path fill-rule="evenodd" clip-rule="evenodd" d="M60 74V72H64L63.7544 74H60Z" fill="#FBF9FA"/>
</g>
<g style="mix-blend-mode:soft-light" opacity="0.8">
<path fill-rule="evenodd" clip-rule="evenodd" d="M88.9984 29.8834L87.9712 55.41L87.6626 58L86.5715 56.5428L87.4896 29.482H55.4317L54 28H87.2634C87.4983 28.0016 87.7304 28.0521 87.946 28.1485C88.1616 28.2449 88.3561 28.3852 88.5181 28.561C88.68 28.7367 88.806 28.9445 88.8885 29.1717C88.9711 29.3989 89.0084 29.641 88.9984 29.8834Z" fill="#FBF9FA"/>
</g>
<g style="mix-blend-mode:soft-light" opacity="0.8">
<path fill-rule="evenodd" clip-rule="evenodd" d="M22 51L23.8611 52.2658L24.1887 61.9692H40.2665L44 66H24.2819C23.8472 66.002 23.4251 65.858 23.087 65.5923C22.7489 65.3267 22.5156 64.9556 22.4264 64.542L22 51Z" fill="#FBF9FA"/>
</g>
<g style="mix-blend-mode:soft-light" opacity="0.5">
<path fill-rule="evenodd" clip-rule="evenodd" d="M25 53L37 61.9855L25.1408 62L25 53Z" fill="#FBF9FA"/>
</g>
<path d="M24.2398 36.905L24.2383 37.0405L86.9226 37.7407L86.9241 37.6052L24.2398 36.905Z" fill="white"/>
<path d="M86.6416 42.9821L24.4175 43.2319L24.418 43.3675L86.6421 43.1177L86.6416 42.9821Z" fill="white"/>
<path d="M24.5104 48.0969L24.5083 48.2324L86.6413 49.1976L86.6435 49.0621L24.5104 48.0969Z" fill="white"/>
<path d="M86.3401 53.6727L24.5938 54.0283L24.5945 54.1639L86.3409 53.8082L86.3401 53.6727Z" fill="white"/>
<path d="M49 30H48V62H49V30Z" fill="white"/>
<path d="M63.1151 29.9321L62.4849 61.4443L62.6204 61.447L63.2507 29.9349L63.1151 29.9321Z" fill="white"/>
<path d="M76.9499 30.0652L75.3535 61.5776L75.4889 61.5845L77.0853 30.072L76.9499 30.0652Z" fill="white"/>
<g style="mix-blend-mode:overlay">
<path d="M63 53.8526L63.169 49L76 49.1947L75.7451 54L63 53.8526Z" fill="#FFEA6D"/>
</g>
<path d="M75.7348 54L63 53.8551L63.1733 49L76 49.1898L75.7348 54ZM63.2731 53.6079L75.4854 53.7478L75.7217 49.4371L63.428 49.2547L63.2731 53.6079Z" fill="#FF00A4"/>
<g style="mix-blend-mode:overlay">
<path d="M35 48.8203V43.2041L49 43V49L35 48.8203Z" fill="#FFEA6D"/>
</g>
<g style="mix-blend-mode:multiply">
<path d="M63.1265 37L63 43L76.7049 42.8865L77 37.1533L63.1265 37Z" fill="#D9D0E2"/>
</g>
<g style="mix-blend-mode:multiply">
<path d="M49.0607 54.0395L49 62H62.8391L63 54L49.0607 54.0395Z" fill="#D9D0E2"/>
</g>
<g opacity="0.5">
<path opacity="0.5" d="M69.6405 51.0547H63.4292V51.4315H69.6405V51.0547Z" fill="white"/>
<path opacity="0.5" d="M72.7991 51.749H63.4292V52.1259H72.7991V51.749Z" fill="white"/>
<path opacity="0.5" d="M69.6405 50.3877H63.4292V50.7646H69.6405V50.3877Z" fill="white"/>
<path opacity="0.5" d="M67.1544 49.6313H63.4292V50.0082H67.1544V49.6313Z" fill="white"/>
<path opacity="0.5" d="M65.9913 52.4321H63.4292V52.809H65.9913V52.4321Z" fill="white"/>
<path opacity="0.5" d="M67.3281 52.4321H66.5337V52.809H67.3281V52.4321Z" fill="white"/>
<path opacity="0.5" d="M71.3512 49.6313H67.626V50.0082H71.3512V49.6313Z" fill="white"/>
</g>
<path d="M59 33H50V34H59V33Z" fill="white"/>
<path d="M54 31H50V32H54V31Z" fill="white"/>
<path d="M58 31H54V32H58V31Z" fill="white"/>
<g opacity="0.5">
<path opacity="0.5" d="M42.9789 57.624H36.7676V58.0009H42.9789V57.624Z" fill="white"/>
<path opacity="0.5" d="M46.1375 58.3184H36.7676V58.6952H46.1375V58.3184Z" fill="white"/>
<path opacity="0.5" d="M42.9789 56.96H36.7676V57.3368H42.9789V56.96Z" fill="white"/>
<path opacity="0.5" d="M40.4928 56.2007H36.7676V56.5775H40.4928V56.2007Z" fill="white"/>
<path opacity="0.5" d="M39.3297 59.0039H36.7676V59.3808H39.3297V59.0039Z" fill="white"/>
<path opacity="0.5" d="M40.6664 59.0039H39.8721V59.3808H40.6664V59.0039Z" fill="white"/>
<path opacity="0.5" d="M44.6895 56.2007H40.9644V56.5775H44.6895V56.2007Z" fill="white"/>
</g>
<g opacity="0.5">
<path opacity="0.5" d="M73.9837 39.9038H64.6138V40.2807H73.9837V39.9038Z" fill="white"/>
<path opacity="0.5" d="M73.9837 40.5981H64.6138V40.975H73.9837V40.5981Z" fill="white"/>
<path opacity="0.5" d="M70.8251 39.2368H64.6138V39.6137H70.8251V39.2368Z" fill="white"/>
<path opacity="0.5" d="M68.339 38.4805H64.6138V38.8573H68.339V38.4805Z" fill="white"/>
<path opacity="0.5" d="M67.1758 41.2812H64.6138V41.6581H67.1758V41.2812Z" fill="white"/>
<path opacity="0.5" d="M73.9838 41.2812H73.1895V41.6581H73.9838V41.2812Z" fill="white"/>
<path opacity="0.5" d="M71.3512 41.2812H67.626V41.6581H71.3512V41.2812Z" fill="white"/>
</g>
<g opacity="0.5">
<path opacity="0.5" d="M46.4407 39.2583H37.0708V39.6352H46.4407V39.2583Z" fill="white"/>
<path opacity="0.5" d="M46.4407 39.9526H37.0708V40.3295H46.4407V39.9526Z" fill="white"/>
<path opacity="0.5" d="M43.2821 38.5913H37.0708V38.9682H43.2821V38.5913Z" fill="white"/>
<path opacity="0.5" d="M40.796 37.835H37.0708V38.2118H40.796V37.835Z" fill="white"/>
<path opacity="0.5" d="M39.6329 40.6382H37.0708V41.015H39.6329V40.6382Z" fill="white"/>
<path opacity="0.5" d="M46.4409 40.6382H45.6465V41.015H46.4409V40.6382Z" fill="white"/>
<path opacity="0.5" d="M43.8082 40.6382H40.083V41.015H43.8082V40.6382Z" fill="white"/>
</g>
<g style="mix-blend-mode:hard-light">
<path d="M49 30L63 30.0543L62.8523 37L49 36.8422V30Z" fill="#D9406F"/>
</g>
<path d="M76.3658 56L76 54L78 54.9731L76.9848 55.2422L76.3658 56Z" fill="white"/>
<g style="mix-blend-mode:soft-light" opacity="0.5">
<path fill-rule="evenodd" clip-rule="evenodd" d="M57 30.0607L86.1275 55L87 30L57 30.0607Z" fill="#FBF9FA"/>
</g>
<path fill-rule="evenodd" clip-rule="evenodd" d="M9 30.3786L11.1525 30C11.1525 30 14.2529 31.5592 16 32.1868L14.7342 34C13.0402 33.4939 11.4189 32.8254 9.90125 32.0075L9 30.3786Z" fill="url(#paint8_linear_2271:3440)"/>
<path fill-rule="evenodd" clip-rule="evenodd" d="M85 34.7926L87.0629 33.2921C87.0629 33.2921 91.6189 33.2685 94 33V35.5016C91.7761 35.8696 89.5072 36.0348 87.2367 35.9939L85 34.7926Z" fill="url(#paint9_linear_2271:3440)"/>
<path fill-rule="evenodd" clip-rule="evenodd" d="M85 40.1905L86.7165 39L93 39.3434L92.4059 42L86.5966 41.4962L85 40.1905Z" fill="url(#paint10_linear_2271:3440)"/>
<path fill-rule="evenodd" clip-rule="evenodd" d="M86.6697 48.0147L86 53.4477C86 53.4477 90.2749 53.7518 93.8971 55L95 48.9183C95 48.9183 92.0418 47.8641 86.6697 48.0147Z" fill="url(#paint11_linear_2271:3440)"/>
<g style="mix-blend-mode:multiply" opacity="0.3">
<path fill-rule="evenodd" clip-rule="evenodd" d="M88 48L87.7862 53L86 52.8285L86.6284 48.0282L88 48Z" fill="#953345"/>
</g>
<g style="mix-blend-mode:multiply" opacity="0.3">
<path fill-rule="evenodd" clip-rule="evenodd" d="M88.8681 42L89 39.1238L86.8436 39L85 40.3368L86.7147 41.803L88.8681 42Z" fill="#953345"/>
</g>
<g style="mix-blend-mode:multiply" opacity="0.3">
<path fill-rule="evenodd" clip-rule="evenodd" d="M89 33L88.8598 36L87.166 35.9667L85 34.6601L86.9971 33.0256L89 33Z" fill="#953345"/>
</g>
<g style="mix-blend-mode:multiply" opacity="0.5">
<path fill-rule="evenodd" clip-rule="evenodd" d="M22 43C25.0617 43.708 28.3196 45.9612 29.45 49.2319C29.8676 50.4362 30.0504 51.7132 29.9881 52.9902C29.9258 54.2671 29.6196 55.5189 29.0869 56.6741C28.5543 57.8293 27.8056 58.8652 26.8837 59.7227C25.9618 60.5801 24.8847 61.2424 23.714 61.6716C23.3513 61.8053 22.9807 61.915 22.6045 62L22 43Z" fill="#540041"/>
</g>
<path d="M31.2189 48.2001C32.844 41.9297 29.0783 35.5291 22.8079 33.904C16.5376 32.2789 10.137 36.0446 8.51189 42.315C6.88676 48.5853 10.6525 54.9859 16.9228 56.611C23.1932 58.2361 29.5938 54.4704 31.2189 48.2001Z" fill="#8B0C42"/>
<path d="M23.8182 55.5318C29.9014 53.3315 33.0913 46.7327 30.9429 40.793C28.7945 34.8533 22.1214 31.822 16.0381 34.0223C9.95489 36.2226 6.76506 42.8214 8.91346 48.7611C11.0619 54.7008 17.7349 57.7321 23.8182 55.5318Z" fill="url(#paint12_linear_2271:3440)"/>
<g style="mix-blend-mode:soft-light" opacity="0.5">
<path fill-rule="evenodd" clip-rule="evenodd" d="M17.2764 35.5424L17 33.4402C17 33.4402 21.9174 31.6495 26 35.2917L24.8252 37L17.2764 35.5424Z" fill="#FBF9FA"/>
</g>
<g style="mix-blend-mode:soft-light" opacity="0.5">
<path fill-rule="evenodd" clip-rule="evenodd" d="M13.6672 53L13 54.5831C14.0282 55.2964 15.228 55.7818 16.5026 56L17 54.3905L13.6672 53Z" fill="#FBF9FA"/>
</g>
<path d="M23.0249 54.1133C28.2124 52.2641 30.9545 46.6603 29.1495 41.5969C27.3446 36.5335 21.676 33.9279 16.4885 35.7772C11.301 37.6264 8.55893 43.2302 10.3639 48.2936C12.1689 53.357 17.8374 55.9625 23.0249 54.1133Z" fill="#8B0C42"/>
<path fill-rule="evenodd" clip-rule="evenodd" d="M29.4645 42.1767C31.2434 47.0917 28.4453 52.5612 23.2179 54.3969C17.9905 56.2326 12.3095 53.7374 10.5306 48.8171C10.4229 48.5171 10.3317 48.2116 10.2573 47.9019C10.2573 47.9019 10.2573 47.8804 10.2382 47.8373C10.2191 47.7942 10.2136 47.7189 10.2 47.6597C9.21077 43.0838 11.9679 38.2927 16.7854 36.6023C20.6657 35.2403 24.8 36.2658 27.396 38.8956C27.8618 39.3669 28.2741 39.8868 28.6256 40.446C28.9666 40.9921 29.2478 41.5722 29.4645 42.1767Z" fill="url(#paint13_radial_2271:3440)"/>
<path d="M20.0451 45.7618C20.395 45.6371 20.582 45.2651 20.4629 44.9308C20.3438 44.5965 19.9637 44.4266 19.6138 44.5512C19.264 44.6758 19.077 45.0478 19.1961 45.3821C19.3152 45.7164 19.6953 45.8864 20.0451 45.7618Z" fill="#A695CF"/>
<path d="M16.4329 37L17 39.8217L16.7221 40L16.2533 37.6457L16.0945 37.7466L16 37.2657L16.4329 37Z" fill="#2C0045"/>
<path d="M18.876 38.2778L19 38.5708L17.5805 39L17.6509 38.8721C17.7822 38.6368 17.894 38.4594 17.9548 38.3046C18.0206 38.1715 18.071 38.0333 18.1055 37.8919C18.1373 37.7758 18.1315 37.6546 18.0885 37.5411C18.0745 37.4998 18.0501 37.4616 18.0169 37.4292C17.9837 37.3968 17.9426 37.3709 17.8965 37.3533C17.8041 37.3235 17.702 37.3235 17.6096 37.3533C17.5624 37.3647 17.5186 37.3843 17.4809 37.411C17.4432 37.4376 17.4125 37.4707 17.3909 37.5081C17.3714 37.5396 17.3598 37.5742 17.3569 37.6098C17.354 37.6453 17.3598 37.6809 17.3738 37.7144C17.394 37.7651 17.4258 37.8119 17.4676 37.8519C17.5093 37.892 17.5601 37.9245 17.6169 37.9476L17.4686 38.1849C17.3677 38.1667 17.277 38.1202 17.211 38.0529C17.1358 37.9888 17.077 37.9122 17.0384 37.8279C16.9975 37.7321 16.9891 37.6284 17.0141 37.5287C17.0386 37.4218 17.0985 37.3231 17.1867 37.244C17.2888 37.1503 17.4165 37.0794 17.5586 37.0376C17.6797 36.9993 17.8109 36.99 17.9378 37.0108C18.0543 37.0311 18.1626 37.0765 18.2524 37.1426C18.3423 37.2087 18.4105 37.2934 18.4507 37.3884C18.4936 37.4915 18.5086 37.6016 18.4944 37.7103C18.4835 37.8225 18.4574 37.9333 18.4166 38.0405C18.3777 38.1478 18.317 38.2881 18.2368 38.4635L18.876 38.2778Z" fill="#2C0045"/>
<path d="M22.3115 52.0159C22.453 52.0463 22.5845 52.1183 22.6924 52.2244C22.8096 52.3335 22.8972 52.4767 22.9454 52.638C23.0046 52.8124 23.0159 53.0024 22.9781 53.184C22.9431 53.3572 22.8659 53.5164 22.7549 53.644C22.6433 53.7747 22.5057 53.8744 22.3532 53.9352C22.1883 54.0011 22.0107 54.0171 21.8384 53.9815C21.6657 53.943 21.5065 53.8499 21.3801 53.7135C21.2396 53.5541 21.1346 53.3603 21.0736 53.1476C20.9697 52.8063 20.976 52.4353 21.0915 52.0986C21.2218 51.7011 21.4098 51.33 21.648 51L22.0586 51.2416C21.8858 51.4162 21.7435 51.6249 21.639 51.8571C21.5505 52.0456 21.495 52.2511 21.4754 52.4626C21.5204 52.3654 21.5826 52.2792 21.6583 52.2092C21.734 52.1393 21.8215 52.0871 21.9158 52.0556C22.0417 52.001 22.1789 51.9872 22.3115 52.0159ZM22.4752 53.237C22.5011 53.1712 22.5145 53.1002 22.5145 53.0285C22.5145 52.9567 22.5011 52.8857 22.4752 52.82C22.4571 52.7538 22.4261 52.6928 22.3844 52.6413C22.3428 52.5899 22.2915 52.5492 22.2342 52.5222C22.1165 52.4707 21.9858 52.4707 21.8682 52.5222C21.7502 52.5662 21.65 52.6553 21.5855 52.7737C21.5568 52.8257 21.5387 52.884 21.5326 52.9447C21.5264 53.0053 21.5323 53.0666 21.5498 53.1245L21.5765 53.2072C21.602 53.2914 21.6497 53.3652 21.7134 53.419C21.7782 53.4776 21.8556 53.5167 21.9379 53.5323C22.0203 53.548 22.1049 53.5397 22.1836 53.5083C22.2464 53.488 22.3048 53.4534 22.355 53.4066C22.4052 53.3599 22.4461 53.3022 22.4752 53.237Z" fill="#2C0045"/>
<path d="M12.1577 46.0111C12.324 46.0399 12.4802 46.1167 12.6098 46.2334C12.747 46.3532 12.8512 46.5116 12.9111 46.6913C12.9997 46.9503 13.0226 47.2304 12.9774 47.5023C12.9332 47.7633 12.8487 48.0142 12.7273 48.2446C12.5822 48.5062 12.4232 48.7584 12.2511 49L11.8292 48.7711C11.987 48.6043 12.1284 48.4202 12.2511 48.2217C12.3559 48.0626 12.4382 47.8873 12.4952 47.7017C12.3956 47.8434 12.2575 47.9475 12.1005 47.9993C11.9719 48.0491 11.8328 48.0582 11.6997 48.0255C11.5582 47.9926 11.4266 47.9218 11.3169 47.8195C11.2014 47.7106 11.1141 47.5708 11.0638 47.414C10.9987 47.2318 10.983 47.0332 11.0186 46.8417C11.0504 46.6647 11.1265 46.5006 11.2386 46.3675C11.3475 46.234 11.4867 46.1337 11.6424 46.0765C11.8061 46.0066 11.9836 45.9841 12.1577 46.0111ZM11.7629 47.5055C11.8221 47.5323 11.8856 47.5461 11.9498 47.5461C12.0139 47.5461 12.0774 47.5323 12.1366 47.5055C12.2582 47.4622 12.3596 47.3696 12.4199 47.2472C12.4495 47.1911 12.4673 47.1285 12.472 47.0641C12.4766 46.9996 12.4681 46.9349 12.447 46.8744L12.4079 46.809C12.3666 46.6799 12.2805 46.5734 12.1679 46.5123C12.0552 46.4512 11.9251 46.4403 11.8051 46.482C11.7442 46.5039 11.6879 46.5389 11.6398 46.585C11.5916 46.6311 11.5525 46.6872 11.5249 46.7501C11.4979 46.8178 11.484 46.8907 11.484 46.9643C11.484 47.038 11.4979 47.1109 11.5249 47.1785C11.542 47.2477 11.5719 47.3124 11.6128 47.3687C11.6538 47.4249 11.7048 47.4715 11.7629 47.5055Z" fill="#2C0045"/>
<path d="M27.5905 42.209C27.7625 42.321 27.8883 42.4988 27.9423 42.7062C28.0013 42.8728 28.0154 43.0537 27.983 43.2284C27.9494 43.3899 27.8761 43.539 27.7707 43.6604C27.6617 43.7868 27.5248 43.8819 27.3724 43.937C27.2463 43.9837 27.1132 44.0047 26.9799 43.9991C26.8524 43.9974 26.7271 43.9645 26.6135 43.9028L26.7036 43.4397C26.7789 43.4857 26.8619 43.5153 26.9479 43.5267C27.0379 43.5398 27.1295 43.5303 27.2154 43.4987C27.2728 43.4783 27.3257 43.4457 27.3712 43.403C27.4166 43.3603 27.4536 43.3083 27.48 43.2501C27.5061 43.1864 27.5195 43.1176 27.5195 43.0481C27.5195 42.9786 27.5061 42.9098 27.48 42.8461C27.4634 42.7857 27.435 42.7297 27.3966 42.6819C27.3583 42.6341 27.3109 42.5955 27.2576 42.5688C27.2042 42.5421 27.1462 42.5277 27.0873 42.5268C27.0284 42.5258 26.97 42.5383 26.9159 42.5633C26.8617 42.5834 26.8092 42.6084 26.7589 42.6379C26.7149 42.6645 26.6722 42.6936 26.6309 42.7249L26.8287 41.6775L26.1483 41.9386L26 41.4973L27.3026 41L27.0991 42.153C27.2637 42.1064 27.4387 42.1263 27.5905 42.209Z" fill="#2C0045"/>
<g style="mix-blend-mode:multiply" opacity="0.5">
<path fill-rule="evenodd" clip-rule="evenodd" d="M19 45.4231C19.1515 45.6101 19.3424 45.7592 19.5583 45.859C19.7741 45.9588 20.0091 46.0068 20.2456 45.9992L23 38.2218C22.9374 38.1531 22.862 38.0981 22.7783 38.06C22.6947 38.0219 22.6044 38.0015 22.5129 38L19 45.4231Z" fill="#8E4072"/>
</g>
<path fill-rule="evenodd" clip-rule="evenodd" d="M19 45.4254C19.1521 45.6117 19.3435 45.7602 19.5598 45.8596C19.776 45.959 20.0115 46.0067 20.2484 45.9992L23 38.2209C22.9377 38.1521 22.8624 38.0971 22.7786 38.0591C22.6949 38.0211 22.6045 38.001 22.5129 38L19 45.4254Z" fill="url(#paint14_linear_2271:3440)"/>
<path d="M19.3537 45.9391L15.7573 52.1558L15.992 52.2915L19.5884 46.0749L19.3537 45.9391Z" fill="#FF4F4A"/>
<g style="mix-blend-mode:multiply" opacity="0.5">
<path fill-rule="evenodd" clip-rule="evenodd" d="M19 44.9758C19.2297 45.3334 19.4909 45.6758 19.7813 46L24.9938 44.3269C25.0046 44.2695 25.0013 44.2108 24.9841 44.1546C24.9669 44.0983 24.9363 44.0457 24.894 44L19 44.9758Z" fill="#8E4072"/>
</g>
<path fill-rule="evenodd" clip-rule="evenodd" d="M19.0007 44.9187C19.0007 44.9187 18.9665 45.6095 19.3628 46L24.9938 44.3047C25.0046 44.2512 25.0013 44.1966 24.9841 44.1441C24.967 44.0917 24.9363 44.0426 24.894 44L19.0007 44.9187Z" fill="url(#paint15_linear_2271:3440)"/>
<path fill-rule="evenodd" clip-rule="evenodd" d="M20.9411 44.6628C21.0081 44.8493 21.0182 45.0514 20.97 45.2436C20.9218 45.4357 20.8176 45.6092 20.6705 45.7421C20.5234 45.8749 20.3402 45.9611 20.144 45.9896C19.9478 46.0181 19.7476 45.9877 19.5687 45.9023C19.3899 45.8169 19.2405 45.6802 19.1395 45.5098C19.0385 45.3393 18.9905 45.1427 19.0016 44.9449C19.0126 44.7471 19.0823 44.557 19.2017 44.3989C19.3211 44.2407 19.4848 44.1216 19.6721 44.0566C19.9208 43.9689 20.1942 43.9835 20.4322 44.0972C20.6701 44.2109 20.8532 44.4143 20.9411 44.6628Z" fill="url(#paint16_linear_2271:3440)"/>
<path fill-rule="evenodd" clip-rule="evenodd" d="M19.9711 45.3326C20.0042 45.4258 20.009 45.5267 19.9848 45.6225C19.9605 45.7184 19.9084 45.8049 19.835 45.8712C19.7616 45.9374 19.6702 45.9804 19.5724 45.9947C19.4745 46.009 19.3746 45.994 19.2853 45.9516C19.196 45.9091 19.1213 45.8411 19.0706 45.7562C19.02 45.6713 18.9956 45.5733 19.0006 45.4745C19.0057 45.3758 19.0399 45.2807 19.0989 45.2014C19.158 45.1221 19.2392 45.0621 19.3324 45.0289C19.3943 45.0069 19.4599 44.9973 19.5255 45.0006C19.5911 45.004 19.6554 45.0202 19.7147 45.0484C19.774 45.0766 19.8272 45.1162 19.8712 45.165C19.9152 45.2138 19.9492 45.2707 19.9711 45.3326Z" fill="url(#paint17_radial_2271:3440)"/>
<g style="mix-blend-mode:multiply" opacity="0.5">
<path fill-rule="evenodd" clip-rule="evenodd" d="M26.8157 38.9167C27.2475 39.405 27.6433 39.9256 28 40.474C27.7938 40.219 24.3916 36.1847 17.6507 38.6509C15.6839 39.3349 13.9454 40.5755 12.6358 42.2297C11.3263 43.8838 10.4988 45.8841 10.2489 48C10.2489 48 10.2489 47.9783 10.2304 47.9349L10.1934 47.7558C9.23649 43.1437 11.9038 38.3144 16.5643 36.6107C20.3048 35.2324 24.315 36.2661 26.8157 38.9167Z" fill="#8E4072"/>
</g>
<path fill-rule="evenodd" clip-rule="evenodd" d="M82 21.2321C82 21.2321 82.5863 15.0841 83.8617 12L90 13.5834C90 13.5834 87.3162 18.3162 86.6755 22L82 21.2321Z" fill="url(#paint18_linear_2271:3440)"/>
<path fill-rule="evenodd" clip-rule="evenodd" d="M28 67.805C28 67.805 24.453 71.5872 22.1895 73L20 68.9411C20 68.9411 23.8376 67.1369 26.101 65L28 67.805Z" fill="url(#paint19_linear_2271:3440)"/>
<path fill-rule="evenodd" clip-rule="evenodd" d="M14 79L26.1605 75.2768L81.0031 71L97 72.9966L14 79Z" fill="url(#paint20_linear_2271:3440)"/>
<path style="mix-blend-mode:screen" fill-rule="evenodd" clip-rule="evenodd" d="M81 74.0016C81 75.6568 80.5512 77 79.9986 77C79.446 77 79 75.6568 79 74.0016C79 72.3464 79.446 71 79.9986 71C80.5512 71 81 72.3496 81 74.0016Z" fill="url(#paint21_radial_2271:3440)"/>
<g style="mix-blend-mode:multiply" opacity="0.5">
<path fill-rule="evenodd" clip-rule="evenodd" d="M66 72L43.8234 75.6399L23 76L26.5896 74.9456L66 72Z" fill="#AC2A41"/>
</g>
<path fill-rule="evenodd" clip-rule="evenodd" d="M15 80.772L15.5736 82L97 77.5514V76L15 80.772Z" fill="url(#paint22_radial_2271:3440)"/>
<path fill-rule="evenodd" clip-rule="evenodd" d="M33 77L94.2776 72L97 72.4731L33 77Z" fill="url(#paint23_linear_2271:3440)"/>
<path style="mix-blend-mode:screen" fill-rule="evenodd" clip-rule="evenodd" d="M81 71V74.0697L27.0296 78L27 75.1635L81 71Z" fill="url(#paint24_linear_2271:3440)"/>
<path fill-rule="evenodd" clip-rule="evenodd" d="M14.8483 81L14 78.6458L97 73V76.4911L14.8483 81Z" fill="url(#paint25_linear_2271:3440)"/>
<g style="mix-blend-mode:soft-light" opacity="0.5">
<path fill-rule="evenodd" clip-rule="evenodd" d="M84.6102 77L84 73.794L95 73L94.6322 76.3772L84.6102 77Z" fill="#FBF9FA"/>
</g>
<path fill-rule="evenodd" clip-rule="evenodd" d="M17.7754 81L17 78.513L24.7688 78L25 80.6159L17.7754 81Z" fill="#AC2A41"/>
<g style="mix-blend-mode:multiply" opacity="0.5">
<path fill-rule="evenodd" clip-rule="evenodd" d="M87 73.4624L90.5326 76.5885L91.9704 78L97 77.7401V72.8637L90.5972 72L87 73.4624Z" fill="#AC2A41"/>
</g>
<path fill-rule="evenodd" clip-rule="evenodd" d="M110.999 76.4889C110.913 77.1135 105.857 77.2547 99.7903 76.4047C93.7238 75.5548 88.9151 74.1019 89.0011 73.4773C89.0871 72.8527 94.1081 72.7794 100.172 73.6294C106.236 74.4794 111.085 75.8643 110.999 76.4889Z" fill="url(#paint26_linear_2271:3440)"/>
<path fill-rule="evenodd" clip-rule="evenodd" d="M88 72L88.3529 73.6459L111.235 77L112 75.5198L88 72Z" fill="url(#paint27_linear_2271:3440)"/>
<path fill-rule="evenodd" clip-rule="evenodd" d="M115.999 46.5561C115.909 47.1829 110.119 47.1802 103.801 46.3271C97.4839 45.474 91.9115 43.9423 92.0011 43.329C92.0907 42.7158 97.8395 42.9992 104.157 43.8523C110.74 44.7272 116.083 45.9265 115.999 46.5561Z" fill="url(#paint28_radial_2271:3440)"/>
<path fill-rule="evenodd" clip-rule="evenodd" d="M92 43L92.3529 44.645L115.235 48L116 46.5178L92 43Z" fill="url(#paint29_radial_2271:3440)"/>
<path d="M111.569 75.531C111.656 74.9066 106.525 73.6787 100.109 72.7884C93.6927 71.8981 88.4213 71.6825 88.3346 72.3069C88.248 72.9313 93.379 74.1592 99.795 75.0495C106.211 75.9398 111.483 76.1554 111.569 75.531Z" fill="url(#paint30_linear_2271:3440)"/>
<path fill-rule="evenodd" clip-rule="evenodd" d="M93 45C93 45 101.9 46.9991 115 48C115.008 48 108.963 45.8208 93 45Z" fill="url(#paint31_linear_2271:3440)"/>
<path opacity="0.72" fill-rule="evenodd" clip-rule="evenodd" d="M113 47.6717C105.776 46.2445 100.715 45.4713 93.2765 45C93.2765 45 90.7762 53.7908 100.813 59.8941L101.203 59.947L101.597 60C112.957 56.7935 113 47.6717 113 47.6717Z" fill="url(#paint32_linear_2271:3440)"/>
<path opacity="0.72" fill-rule="evenodd" clip-rule="evenodd" d="M90 72.3279C96.4509 73.9389 103.067 74.8352 109.723 75C109.723 75 112.224 66.2103 102.187 60.1059L101.794 60.053L101.403 60C90.0434 63.2044 90 72.3279 90 72.3279Z" fill="url(#paint33_linear_2271:3440)"/>
<path fill-rule="evenodd" clip-rule="evenodd" d="M97 55.0243C97 55.0243 99.1237 58.3806 101.587 58.9522C103.978 59.5102 109 55 109 55C109 55 102.108 57.4802 97 55.0243Z" fill="url(#paint34_linear_2271:3440)"/>
<path fill-rule="evenodd" clip-rule="evenodd" d="M97 55.5138C97 55.5138 99.4729 54.2694 101.684 55.6538C101.738 56.8982 109 55.4858 109 55.4858C109 55.4858 105.639 57.4924 101.738 56.8857C97.8369 56.2791 97 55.5138 97 55.5138Z" fill="url(#paint35_linear_2271:3440)"/>
<path fill-rule="evenodd" clip-rule="evenodd" d="M92.439 67.1759C91.531 68.649 91.0306 70.3875 91 72.1755C91 72.1755 95.6038 73.492 99.9209 74.252C102.891 74.7284 105.887 74.9783 108.887 75C108.887 75 109.576 69.752 107.547 66C107.547 66 106.575 68.5552 104.868 69.5904C103.161 70.6257 103.38 69.8447 98.573 69.016C93.7655 68.1872 92.439 67.1759 92.439 67.1759Z" fill="url(#paint36_linear_2271:3440)"/>
<path fill-rule="evenodd" clip-rule="evenodd" d="M108 66C108 66 105.94 67.4339 102.488 67.7917C99.0355 68.1494 97.9489 66.9531 95.6454 66.8972C94.4265 66.8433 93.2052 66.9107 92 67.0985C92 67.0985 93.6766 68.3283 97.8553 69.0551C102.034 69.7818 104.335 70.5169 106.153 69.5023C107.972 68.4876 108 66 108 66Z" fill="url(#paint37_linear_2271:3440)"/>
<path fill-rule="evenodd" clip-rule="evenodd" d="M97 68.4217C97 68.4217 102.565 69.7229 105 68.4217C105 68.4217 102.369 65.453 101.545 65.0418C100.72 64.6306 97.1927 67.3654 97 68.4217Z" fill="url(#paint38_linear_2271:3440)"/>
<path fill-rule="evenodd" clip-rule="evenodd" d="M101 59C101.433 60.9546 101.433 62.9514 101 64.906L101.804 65C101.804 65 101.178 61.1879 102 59.1154L101 59Z" fill="url(#paint39_linear_2271:3440)"/>
<path fill-rule="evenodd" clip-rule="evenodd" d="M102 55.6487C102 55.6487 100.115 56.5284 97 55.5037C97 55.5037 99.6138 54.2792 102 55.6487Z" fill="#FFE74C"/>
<path fill-rule="evenodd" clip-rule="evenodd" d="M102.605 55.7876L101 56.6167C101 56.6167 101.8 57.168 104.478 56.9483C106.056 56.8354 107.6 56.1704 109 55C109 55 106.153 55.7959 104.561 55.7959L102.605 55.7876Z" fill="#FFE74C"/>
<g style="mix-blend-mode:soft-light" opacity="0.5">
<path fill-rule="evenodd" clip-rule="evenodd" d="M94 44.7827V43.0133C95.0008 42.9792 96.0024 43.0108 97 43.1079L96.8839 45C96.8839 45 95.1161 44.8594 94 44.7827Z" fill="#FBF9FA"/>
</g>
<g style="mix-blend-mode:soft-light" opacity="0.5">
<path fill-rule="evenodd" clip-rule="evenodd" d="M89.38 74.4994L89 73L91 73.5315V75C90.4497 74.8631 89.9088 74.6959 89.38 74.4994Z" fill="#FBF9FA"/>
</g>
<g style="mix-blend-mode:soft-light" opacity="0.5">
<path fill-rule="evenodd" clip-rule="evenodd" d="M108 77L108.422 76.0396C109.281 76.0892 110.146 76.0759 111 76L110.079 76.8993C110.079 76.8993 108.763 76.9928 108 77Z" fill="#FBF9FA"/>
</g>
<path style="mix-blend-mode:screen" fill-rule="evenodd" clip-rule="evenodd" d="M90 72.5615C90 72.5615 90.4732 67.6629 93.5908 64.31C96.7084 60.9572 101.106 60 101.106 60L102 60.2475C102 60.2475 98.3145 65.5367 97.1037 74C97.1009 74.0055 91.0995 73.0456 90 72.5615Z" fill="url(#paint40_linear_2271:3440)"/>
<path style="mix-blend-mode:screen" fill-rule="evenodd" clip-rule="evenodd" d="M101 60C101 60 97.0997 57.3649 95.7965 52.6443C94.4932 47.9236 95.1818 45 95.1818 45L98.0885 45.5056C98.0885 45.5056 96.9044 52.3283 101 60Z" fill="url(#paint41_linear_2271:3440)"/>
<path style="mix-blend-mode:screen" fill-rule="evenodd" clip-rule="evenodd" d="M113 47.316C113 47.316 112.694 56.8236 102 60C102 60 111.273 57.0497 111.478 47L113 47.316Z" fill="url(#paint42_linear_2271:3440)"/>
<path style="mix-blend-mode:screen" fill-rule="evenodd" clip-rule="evenodd" d="M107 75C107 75 108.153 70.9881 108.229 69C108.949 70.9122 109.17 72.9779 108.87 75H107Z" fill="url(#paint43_linear_2271:3440)"/>
<path fill-rule="evenodd" clip-rule="evenodd" d="M95 64C95 64 96.5731 63.405 97 62C97 62 95.9119 62.1494 95 64Z" fill="white"/>
<path fill-rule="evenodd" clip-rule="evenodd" d="M95.1771 48C95.1771 48 94.4688 49.653 95.8853 51C95.8853 51.006 96.421 48.633 95.1771 48Z" fill="white"/>
<path fill-rule="evenodd" clip-rule="evenodd" d="M109 55C109 55 109.956 53.4202 111 53C110.993 53 110.286 54.5324 109 55Z" fill="white"/>
<path fill-rule="evenodd" clip-rule="evenodd" d="M25.5128 85.4332L25 84L92 89.9187L91.6869 91L25.5128 85.4332Z" fill="url(#paint44_linear_2271:3440)"/>
<path fill-rule="evenodd" clip-rule="evenodd" d="M25 84.264L37.7949 79L83.7957 82.452L92 90L25 84.264Z" fill="url(#paint45_radial_2271:3440)"/>
<path fill-rule="evenodd" clip-rule="evenodd" d="M28 83.9226L90.6543 89L91 87.5883L83.6646 82.196L38.9963 79L28.1198 82.3718L28 83.9226Z" fill="url(#paint46_linear_2271:3440)"/>
<path fill-rule="evenodd" clip-rule="evenodd" d="M28 82.5335L91 88L83.6506 82.3492L38.8972 79L28 82.5335Z" fill="url(#paint47_radial_2271:3440)"/>
<path d="M89 86L30 81.1093L30.3365 81L88.8003 85.847L89 86Z" fill="url(#paint48_linear_2271:3440)"/>
<path d="M87 85L33 80.1099L33.3029 80L86.8025 84.8291L87 85Z" fill="url(#paint49_linear_2271:3440)"/>
<path d="M86 84L35 80.0941L35.308 80L85.8406 83.8589L86 84Z" fill="url(#paint50_linear_2271:3440)"/>
<path d="M85 83L37 79.1179L37.3407 79L84.8378 82.8408L85 83Z" fill="url(#paint51_linear_2271:3440)"/>
<path d="M84 82L38 79.0634L38.2394 79L83.6518 81.9208L84 82Z" fill="url(#paint52_linear_2271:3440)"/>
<path d="M37.0343 81L37 80.8303L37.9856 80L37.982 80.0959L38 80.1771L37.0343 81Z" fill="url(#paint53_linear_2271:3440)"/>
<path d="M40.9854 78.9902L39.7666 79.498L39.8177 79.6207L41.0365 79.1128L40.9854 78.9902Z" fill="url(#paint54_linear_2271:3440)"/>
<path d="M32.4225 83L32 82.9886L34.9331 82L35 82.1311L32.4225 83Z" fill="url(#paint55_linear_2271:3440)"/>
<path d="M44.1518 79.0287L43.8037 79.2056L43.8651 79.3264L44.2132 79.1496L44.1518 79.0287Z" fill="url(#paint56_linear_2271:3440)"/>
<path d="M38.0476 82H38.0268L38.0298 81.9295L38 81.8773L39.9524 81L39.9732 81.0026L39.9673 81.0705L40 81.1253L38.0476 82Z" fill="url(#paint57_linear_2271:3440)"/>
<path d="M41.0619 81H41.0348L41.0426 80.9128L41 80.8423L42.911 80L43 80.1477L41.0619 81Z" fill="url(#paint58_linear_2271:3440)"/>
<path d="M83.8334 83.7658L83.7432 83.8633L84.6826 84.7323L84.7728 84.6347L83.8334 83.7658Z" fill="url(#paint59_linear_2271:3440)"/>
<path d="M82.1199 82.1724L82.0298 82.27L82.5853 82.7834L82.6755 82.6858L82.1199 82.1724Z" fill="url(#paint60_linear_2271:3440)"/>
<path d="M87.6085 86.9907L86 86.0689L86.1077 86L88 87L87.6085 86.9907Z" fill="url(#paint61_linear_2271:3440)"/>
<path d="M80.3614 82.5249L80.2607 82.6157L81.2017 83.6582L81.3024 83.5674L80.3614 82.5249Z" fill="url(#paint62_linear_2271:3440)"/>
<path d="M82.9181 86L82 84.1643L82.0398 84.1002L82.042 84H82.0642L82.0819 84.0321L83 85.8677L82.9181 86Z" fill="url(#paint63_linear_2271:3440)"/>
<path d="M79.5911 81.671L79.4927 81.7603L79.7968 82.0957L79.8952 82.0065L79.5911 81.671Z" fill="url(#paint64_linear_2271:3440)"/>
<path d="M80.794 86.9794L80 85.1029L80.1254 85L81 87L80.794 86.9794Z" fill="url(#paint65_linear_2271:3440)"/>
<path d="M77.0673 84.0367L76.9443 84.0869L77.4248 85.2642L77.5478 85.214L77.0673 84.0367Z" fill="url(#paint66_linear_2271:3440)"/>
<path d="M76.8757 83L76.7927 82.9975L76 82.048L76.2383 82L77 82.9141L76.886 82.9369L76.8757 83Z" fill="url(#paint67_linear_2271:3440)"/>
<path d="M74.6713 84L74 83.0514L74.3287 83L75 83.9518L74.6713 84Z" fill="url(#paint68_linear_2271:3440)"/>
<path d="M71.6434 81.2908L71.5107 81.3188L71.5326 81.4223L71.6652 81.3943L71.6434 81.2908Z" fill="url(#paint69_linear_2271:3440)"/>
<path d="M72.1126 83.6396L71.9824 83.666L72.215 84.8112L72.3452 84.7847L72.1126 83.6396Z" fill="url(#paint70_linear_2271:3440)"/>
<path d="M69.4206 81.2442L69.2852 81.2505L69.3092 81.7651L69.4446 81.7587L69.4206 81.2442Z" fill="url(#paint71_linear_2271:3440)"/>
<path d="M69.9344 84.4346L69.7988 84.4414L69.8578 85.6208L69.9934 85.614L69.9344 84.4346Z" fill="url(#paint72_linear_2271:3440)"/>
<path d="M69.4894 82.6762L69.354 82.6826L69.3907 83.4544L69.5261 83.448L69.4894 82.6762Z" fill="url(#paint73_linear_2271:3440)"/>
<path d="M46.8083 79.2284L45.6709 79.9355L45.7425 80.0507L46.8799 79.3435L46.8083 79.2284Z" fill="url(#paint74_linear_2271:3440)"/>
<path d="M41.9833 82.2311L40.4199 83.2031L40.4915 83.3182L42.0549 82.3463L41.9833 82.2311Z" fill="url(#paint75_linear_2271:3440)"/>
<path d="M44.5228 80.6539L43.4819 81.3008L43.5535 81.4159L44.5943 80.7691L44.5228 80.6539Z" fill="url(#paint76_linear_2271:3440)"/>
<path d="M48.5975 80.1814L47.6128 80.9199L47.6941 81.0284L48.6788 80.2898L48.5975 80.1814Z" fill="url(#paint77_linear_2271:3440)"/>
<path d="M45.1277 83L45 82.9033L46.8802 82L47 82.1018L45.1277 83Z" fill="url(#paint78_linear_2271:3440)"/>
<path d="M51.6179 79.8498L51.0146 80.3413L51.1003 80.4464L51.7035 79.9549L51.6179 79.8498Z" fill="url(#paint79_linear_2271:3440)"/>
<path d="M48.0664 82.7536L47.0298 83.7798L47.1252 83.8761L48.1618 82.85L48.0664 82.7536Z" fill="url(#paint80_linear_2271:3440)"/>
<path d="M50.0916 81.0949L49.2656 81.7681L49.3513 81.8731L50.1772 81.2L50.0916 81.0949Z" fill="url(#paint81_linear_2271:3440)"/>
<path d="M53.1374 80.5057L52.3828 81.2847L52.4802 81.379L53.2347 80.6001L53.1374 80.5057Z" fill="url(#paint82_linear_2271:3440)"/>
<path d="M51.0839 83L51 82.9182L51.06 82.8575L51.9137 82L52 82.0818L51.0839 83Z" fill="url(#paint83_linear_2271:3440)"/>
<path d="M54.9371 81.5003L54.4121 82.208L54.521 82.2888L55.046 81.5811L54.9371 81.5003Z" fill="url(#paint84_linear_2271:3440)"/>
<path d="M58.3673 80.3378L58.3574 80.354L58.471 80.4228L58.4809 80.4066L58.3673 80.3378Z" fill="url(#paint85_linear_2271:3440)"/>
<path d="M57.203 82.4404L56.6445 83.439L56.7628 83.5051L57.3214 82.5066L57.203 82.4404Z" fill="url(#paint86_linear_2271:3440)"/>
<path d="M62.6334 81.2381L62.4082 82.104L62.5394 82.1381L62.7646 81.2722L62.6334 81.2381Z" fill="url(#paint87_linear_2271:3440)"/>
<path d="M62.7731 80.6874L62.7656 80.7163L62.8968 80.7504L62.9043 80.7216L62.7731 80.6874Z" fill="url(#paint88_linear_2271:3440)"/>
<path d="M65.0198 80.8752L64.9785 81.4321L65.1137 81.4422L65.155 80.8852L65.0198 80.8752Z" fill="url(#paint89_linear_2271:3440)"/>
<path d="M64.9111 82.3235L64.855 83.0806L64.9902 83.0906L65.0463 82.3335L64.9111 82.3235Z" fill="url(#paint90_linear_2271:3440)"/>
<path d="M67.3316 81.0543L67.3311 81.0977L67.4666 81.0994L67.4672 81.056L67.3316 81.0543Z" fill="url(#paint91_linear_2271:3440)"/>
<path d="M67.2949 83.2806L67.2773 84.3486L67.4129 84.3509L67.4304 83.2828L67.2949 83.2806Z" fill="url(#paint92_linear_2271:3440)"/>
<path d="M67.3117 81.6022L67.2983 82.5049L67.4339 82.5069L67.4473 81.6042L67.3117 81.6022Z" fill="url(#paint93_linear_2271:3440)"/>
<path d="M29 84L29.0027 84.3631L89.6825 89L90 88.6418L29 84Z" fill="url(#paint94_linear_2271:3440)"/>
<g style="mix-blend-mode:soft-light" opacity="0.5">
<path fill-rule="evenodd" clip-rule="evenodd" d="M84 88.6297L84.4966 87L89 87.4492L88.127 89L84 88.6297Z" fill="#FBF9FA"/>
</g>
<g style="mix-blend-mode:soft-light" opacity="0.5">
<path fill-rule="evenodd" clip-rule="evenodd" d="M82.3509 89L82 90.383L88.5135 91L89 89.662L82.3509 89Z" fill="#FBF9FA"/>
</g>
<path fill-rule="evenodd" clip-rule="evenodd" d="M22.8703 20.834C22.8703 20.834 21.0481 21.6108 17.6811 19.8037L17.5141 19.7059L17.3444 19.6082C14.0905 17.6373 14 15.7694 14 15.7694C14.6476 15.39 15.2634 14.9652 15.842 14.4986C17.8531 12.8553 19.4165 10.7888 20.403 8.46966C20.4285 8.41154 20.4511 8.35341 20.4737 8.29265C20.6368 7.90481 20.7766 7.50878 20.8925 7.10641C20.8925 7.09056 20.8925 7.07735 20.8925 7.0615C23.7842 6.7471 25.4535 7.74048 25.4535 7.74048C25.4535 7.74048 26.9956 8.58062 28 11.1275L27.9632 11.1592C27.6327 11.4386 27.3191 11.7349 27.0238 12.0469L26.8852 12.1869C24.982 14.2273 23.6769 16.693 23.0966 19.344C22.9936 19.8367 22.918 20.334 22.8703 20.834Z" fill="url(#paint95_radial_2271:3440)"/>
<path fill-rule="evenodd" clip-rule="evenodd" d="M23.007 21C22.9835 20.4755 23.0194 19.9501 23.1138 19.4335C23.3879 17.7854 24.2347 15.025 26.9203 12.0906L27.0546 11.9464C27.3286 11.6418 27.6383 11.3372 27.9644 11.0326L28 11C26.9383 13.6457 25.7269 16.2298 24.3717 18.74C23.9277 19.5423 23.4728 20.3092 23.007 21Z" fill="url(#paint96_radial_2271:3440)"/>
<path fill-rule="evenodd" clip-rule="evenodd" d="M23.4142 9L25 9.75533L22.415 13L21 12.3275L23.4142 9Z" fill="#AC88BD"/>
<path fill-rule="evenodd" clip-rule="evenodd" d="M15.9193 14.8204C15.3391 15.2952 14.6933 15.6921 14 16C14.4389 15.2518 14.9582 14.4709 15.509 13.6954C17.2062 11.3675 19.0395 9.13222 21 7C21 7.01638 21 7.03004 21 7.04642C20.868 7.47512 20.7131 7.88198 20.5754 8.27245C20.5525 8.33525 20.5295 8.39533 20.5037 8.4554C19.1811 11.7758 17.3107 13.7336 15.9193 14.8204Z" fill="url(#paint97_radial_2271:3440)"/>
<path fill-rule="evenodd" clip-rule="evenodd" d="M23.2932 9L22 12.4034L22.6456 13L24 9.65324L23.2932 9Z" fill="url(#paint98_radial_2271:3440)"/>
<path fill-rule="evenodd" clip-rule="evenodd" d="M20.0614 9L22 10.6865L21.9048 11L20 9.23809L20.0614 9Z" fill="#AC88BD"/>
<path fill-rule="evenodd" clip-rule="evenodd" d="M24.115 11L26 12.8717L25.9257 13L24 11.2723L24.115 11Z" fill="#AC88BD"/>
<g style="mix-blend-mode:multiply" opacity="0.5">
<path fill-rule="evenodd" clip-rule="evenodd" d="M22.6221 20.822C22.6221 20.822 20.8509 21.6549 17.5781 19.7171L17.4158 19.6123L17.2508 19.5075C14.088 17.394 14 15.3911 14 15.3911C14.4208 14.6148 14.9186 13.8046 15.4466 13L15.7904 14.0284L15.8399 14.1672L15.8647 14.2437C15.8647 14.2437 17.5919 18.023 22.7404 19.1902L22.8531 19.2157L24 18.4763C23.5462 19.3035 23.0897 20.1024 22.6221 20.822Z" fill="#AC437C"/>
</g>
<path style="mix-blend-mode:screen" d="M83.8362 66.1853C84.8336 65.1879 84.8336 63.5709 83.8362 62.5735C82.8388 61.5761 81.2217 61.5761 80.2244 62.5735C79.227 63.5709 79.227 65.1879 80.2244 66.1853C81.2217 67.1827 82.8388 67.1827 83.8362 66.1853Z" fill="url(#paint99_radial_2271:3440)"/>
<path style="mix-blend-mode:screen" d="M90.4216 89.1264C90.517 87.7191 87.3609 86.359 83.3721 86.0885C79.3834 85.818 76.0725 86.7395 75.977 88.1467C75.8816 89.554 79.0377 90.9141 83.0265 91.1847C87.0152 91.4552 90.3262 90.5337 90.4216 89.1264Z" fill="url(#paint100_radial_2271:3440)"/>
<path style="mix-blend-mode:screen" fill-rule="evenodd" clip-rule="evenodd" d="M39.9986 84.8737C39.9395 85.6746 37.2062 86.1576 33.8923 85.9531C30.5784 85.7485 27.9418 84.928 28.001 84.1271C28.0601 83.3262 30.7961 82.8408 34.1073 83.0478C37.4185 83.2547 40.0685 84.0803 39.9986 84.8737Z" fill="url(#paint101_radial_2271:3440)"/>
<path fill-rule="evenodd" clip-rule="evenodd" d="M70 11.3135L75.3362 13C75.3362 13 81.7505 7.44595 86 2L75.7634 2.31622C75.7634 2.31622 72.2996 9.33513 70 11.3135Z" fill="url(#paint102_linear_2271:3440)"/>
<g style="mix-blend-mode:multiply" opacity="0.5">
<path fill-rule="evenodd" clip-rule="evenodd" d="M70 11.6423L74.0896 13C74.0896 13 79.5158 8.52816 83 2L79.8757 2.099L70 11.6423Z" fill="#AC7FAC"/>
</g>
<path fill-rule="evenodd" clip-rule="evenodd" d="M69 11.7621C69 11.7621 72.0512 7.71147 71.0013 1.67432C71.0013 1.67432 77.2631 -0.403129 81 0.0701114C81 0.0701114 79.8997 7.25695 73.8239 13L69 11.7621Z" fill="url(#paint103_linear_2271:3440)"/>
<path fill-rule="evenodd" clip-rule="evenodd" d="M14.2363 61C14.2363 61 4.23873 64.2913 3 73.5059L11.7122 79C11.7122 79 14.4144 67.5713 21 65.073L14.2363 61Z" fill="url(#paint104_linear_2271:3440)"/>
<g style="mix-blend-mode:multiply" opacity="0.2">
<path fill-rule="evenodd" clip-rule="evenodd" d="M11 62.467L20.1748 66L21 65.6028L13.9526 61L11 62.467Z" fill="#AC7FAC"/>
</g>
<path fill-rule="evenodd" clip-rule="evenodd" d="M118.408 95C118.408 95 130.283 91.8896 135 81.5816L122.91 75C122.91 75 118.789 87.5971 111 89.7752L118.408 95Z" fill="url(#paint105_linear_2271:3440)"/>
<g style="mix-blend-mode:multiply" opacity="0.2">
<path fill-rule="evenodd" clip-rule="evenodd" d="M122 93.7003L111.96 89L111 89.3482L118.557 95L122 93.7003Z" fill="#AC7FAC"/>
</g>
<path d="M29.9642 33.9764L29.9414 34.0045V34.249L29.9186 34.3755L29.9642 34.4289V34.5104H29.9349L29.9186 34.6565L29.9479 34.6847L29.9023 35.0416V35.4407L29.8502 35.5082V35.9129L29.8046 36H29.2085L29.0782 35.9607L28.9935 35.9129V34.0663L29.0554 33.2681L28.886 33.7459L28.8143 34.0663L28.7003 34.3474L28.6612 34.6847L28.5375 34.7381L28.4235 34.7128L28.3127 34.3333L27.8371 33.1585L27.899 34.2237V35.2861L27.8208 35.8932L27.7915 35.9522H27.1401L27 35.5728V31.312L27.1173 31.059L27.1792 31.0197L27.7101 31L28.342 32.2029L28.4658 32.602V32.5542L28.5277 32.4278L28.7264 31.6043L28.8143 31.5368L29.0228 31.0253H29.7687L29.9251 32.1298H29.9479V32.1608L29.9088 32.1945L29.9544 32.3266V32.9786L30 33.0517L29.9479 33.1641L29.9642 33.9764Z" fill="white"/>
<path d="M32.9116 34.6824V34.795L32.8886 35.0766L32.8592 35.1273L32.8985 35.1554L32.8362 35.1807L32.8592 35.2539L32.9279 35.3609L32.8592 35.4144L32.905 35.4285L32.8657 35.6143L32.8985 35.9944H32.8493L32.7871 35.9409L32.7511 36H32.702L32.6659 35.9465L32.6266 35.9803L32.5644 35.9606H32.2369L32.1452 35.9268V35.9606H31.7817L31.4083 35.9268L31.3854 35.9662H30.7598L30.2555 35.9268L30.2325 35.9071L30.1932 35.9409H30.131L30.0164 34.6346V32.5907L30.0622 32.3767V32.2387L30.0164 32.1965L30.0688 32.0783V32.0304L30.0164 32.0051L30.0622 31.9572L30 31H32.6954L32.8264 31.0591V32.0389L32.905 32.1318V32.2106L32.8428 32.3654L32.8919 32.3964L32.8592 32.7117L32.9214 32.7427L32.8919 33.103L32.9378 33.1762V33.2776L32.869 33.3226L32.9607 33.4775L32.9148 33.5084L32.9378 33.5901L32.9148 33.6492V33.8097L32.9378 33.8744L32.905 33.9167L32.9312 33.9955V34.0546L32.9771 34.0828L32.9476 34.156V34.6289L33 34.6543L32.9116 34.6824ZM32.1124 34.6346L32.0895 34.2545L32.0371 34.1616V32.7539L31.9749 32.7342L32.0273 32.661V31.9769L32.0502 31.777H30.8057L30.8352 32.1768L30.8057 32.2303H30.8417V32.2641L30.7959 32.3232L30.8417 32.4583V33.3311L30.8908 33.3761V33.4043L30.8352 33.4296L30.9531 33.4887L30.8221 33.5816L30.9072 34.0208L30.9301 34.6346L30.8581 34.6684L30.9301 34.7416V34.888L30.8908 35.1948L30.9138 35.2342L31.595 35.1948H32.0993V34.8542L32.083 34.7753L32.1288 34.7472L32.1124 34.6346Z" fill="white"/>
<path d="M35.9726 33.9834L36 34.0092L35.9665 34.1121L35.9878 34.1322L35.9421 34.8158L35.9939 34.8902L35.9421 34.9102V34.9989L36 35.0246L35.9421 35.0932L35.9086 35.2277L35.8782 36H35.0589L35.0132 35.917L35.0345 35.857L34.7695 35.3364L34.401 34.5326L34.0051 33.5629L33.8558 33.111V33.5686L33.8985 33.6659L33.8619 33.8604L33.9198 34.2666V34.3209L33.9442 34.3696L33.8863 35.9027L33.7614 35.9371H33.4812L33.4447 35.9027L33.3868 35.9256H33.2284L33.1218 35.9027L33 32.7048V31.758L33.0853 31.0057L33.265 31.04H33.6335L33.7553 31L34.2944 32.1213L34.3401 32.1499L34.3249 32.1756L34.4041 32.3387V32.4188L34.6508 32.8993L35.0467 33.9748L35.0832 34.0092L34.9523 31.1831L35.0162 31.02H35.7746L35.8599 31.8638V32.0612L35.9178 32.5675L35.9452 32.5961V32.6648L35.9025 32.6848L35.9726 33.9834Z" fill="white"/>
<path d="M39 35.4376L38.9411 35.4854L38.7146 35.7666L38.5533 36L37.9638 35.9719H36.0434L36.0869 35.9466V35.5585L36.0434 35.221H36.0931L36.183 35.1957L36.2854 35.2492H36.5336V31.9477L36.4964 31.8015L36.0496 31.8324L36 31.8127L36.0279 31.7396V31.3515L36 31L38.4819 31.1181L38.6153 31.3121L38.9969 31.7452L39 35.4376ZM38.2306 35.2576L38.1251 34.0934L38.0817 33.8121L38.15 33.7897L38.0693 33.126V32.6535L38.1406 31.7818H37.2906L37.3402 32.2008V35.2885H37.8087L38.2306 35.2576Z" fill="white"/>
<path d="M42 35.9712L41.9715 36H41.8066L41.407 35.9454H41.3087L41.1533 35.7959V35.54L41.093 35.5055V35.4508L41.1279 35.4163L40.9947 35.2179L41.0328 35.1173L40.7918 35.1719H40.6046L40.0497 35.1921L39.9736 35.1029L39.8911 35.3013L39.7706 35.7441L39.7421 35.9827L39 35.9195L39.2854 33.7775L39.6025 32.1932L39.6755 31.9833V31.6958L39.7294 31.6412V31.4428L39.8055 31.3134L39.8499 31L40.8901 31.0403L40.9218 31.299L40.982 31.4773L41.055 31.6124L41.093 31.6412V31.9287L41.185 32.0638L41.1691 32.2133H41.223L41.3784 32.912L41.445 32.9954L41.5433 33.5187L41.6416 33.8436L41.6195 33.8982L41.7685 34.4071L41.8129 34.6544L41.8288 34.8902L41.9049 35.0196V35.0541L41.8668 35.1087L41.8953 35.1834L41.9429 35.6176L42 35.9712ZM40.5285 32.2737H40.4429L40.2495 33.8838H40.3161V33.9241L40.1956 34.1627L40.129 34.3813L40.2844 34.3525L40.8869 34.318L40.5285 32.2737Z" fill="white"/>
<path d="M44 31.0662L43.5548 32.3262L43.3475 33.1289L43.338 33.3677V34.6651L43.3592 34.7888L43.2933 34.8493L43.3098 34.9097V36H42.6761V33.3677L42.6408 33.0972L42.5253 32.6139L42 31H42.6313L42.9988 32.5305L43.338 31.0662H44Z" fill="white"/>
<defs>
<linearGradient id="paint0_linear_2271:3440" x1="6277.1" y1="4089.14" x2="5296.43" y2="2010.45" gradientUnits="userSpaceOnUse">
<stop offset="0.02" stop-color="#FFDAC7"/>
<stop offset="1" stop-color="#FFF3C2"/>
</linearGradient>
<linearGradient id="paint1_linear_2271:3440" x1="9567.85" y1="9856.73" x2="25089.2" y2="9856.73" gradientUnits="userSpaceOnUse">
<stop stop-color="#603082"/>
<stop offset="0.99" stop-color="#2A0E51"/>
</linearGradient>
<linearGradient id="paint2_linear_2271:3440" x1="2149.4" y1="7295.96" x2="4240.04" y2="7295.96" gradientUnits="userSpaceOnUse">
<stop stop-color="#603082"/>
<stop offset="0.99" stop-color="#2A0E51"/>
</linearGradient>
<linearGradient id="paint3_linear_2271:3440" x1="55.5051" y1="65.9918" x2="55.5051" y2="27.9918" gradientUnits="userSpaceOnUse">
<stop offset="0.01" stop-color="#2A0E45"/>
<stop offset="1" stop-color="#561F7D"/>
</linearGradient>
<radialGradient id="paint4_radial_2271:3440" cx="0" cy="0" r="1" gradientUnits="userSpaceOnUse" gradientTransform="translate(55.5 45.9986) scale(24.9137 25.2569)">
<stop stop-color="#00FFFF"/>
<stop offset="0.99" stop-color="#26A9FF"/>
</radialGradient>
<radialGradient id="paint5_radial_2271:3440" cx="0" cy="0" r="1" gradientUnits="userSpaceOnUse" gradientTransform="translate(65.2179 63.1408) scale(18.4061 25.5458)">
<stop stop-color="#EBD7E3"/>
<stop offset="0.98" stop-color="#BDAFD2"/>
</radialGradient>
<linearGradient id="paint6_linear_2271:3440" x1="2066.6" y1="2055.9" x2="2066.6" y2="1912.5" gradientUnits="userSpaceOnUse">
<stop stop-color="#603082"/>
<stop offset="0.99" stop-color="#2A0E51"/>
</linearGradient>
<radialGradient id="paint7_radial_2271:3440" cx="0" cy="0" r="1" gradientUnits="userSpaceOnUse" gradientTransform="translate(54.9986 72.9978) scale(7.08407 11.3392)">
<stop stop-color="#B3819D"/>
<stop offset="1" stop-color="#785CA6"/>
</radialGradient>
<linearGradient id="paint8_linear_2271:3440" x1="9.29698" y1="30.0663" x2="14.8644" y2="33.9326" gradientUnits="userSpaceOnUse">
<stop stop-color="#E03347"/>
<stop offset="1" stop-color="#FF6E27"/>
</linearGradient>
<linearGradient id="paint9_linear_2271:3440" x1="3144.82" y1="457.29" x2="3419.41" y2="457.29" gradientUnits="userSpaceOnUse">
<stop stop-color="#FFA700"/>
<stop offset="1" stop-color="#FFD328"/>
</linearGradient>
<linearGradient id="paint10_linear_2271:3440" x1="2820.68" y1="676.5" x2="2617.69" y2="747.139" gradientUnits="userSpaceOnUse">
<stop stop-color="#FF6E27"/>
<stop offset="1" stop-color="#E03347"/>
</linearGradient>
<linearGradient id="paint11_linear_2271:3440" x1="3181.55" y1="1479.92" x2="3465.77" y2="1479.92" gradientUnits="userSpaceOnUse">
<stop stop-color="#FFA700"/>
<stop offset="1" stop-color="#FFD328"/>
</linearGradient>
<linearGradient id="paint12_linear_2271:3440" x1="23.7915" y1="55.458" x2="16.0345" y2="34.0122" gradientUnits="userSpaceOnUse">
<stop stop-color="#FF3363"/>
<stop offset="1" stop-color="#FF6E27"/>
</linearGradient>
<radialGradient id="paint13_radial_2271:3440" cx="0" cy="0" r="1" gradientUnits="userSpaceOnUse" gradientTransform="translate(18.5087 41.8948) rotate(-19.3384) scale(16.2915 16.1016)">
<stop stop-color="#FAF5F8"/>
<stop offset="0.98" stop-color="#D4CBE2"/>
</radialGradient>
<linearGradient id="paint14_linear_2271:3440" x1="-131.142" y1="2122.41" x2="-33.9554" y2="1908.95" gradientUnits="userSpaceOnUse">
<stop offset="0.01" stop-color="#2A0E45"/>
<stop offset="1" stop-color="#561F7D"/>
</linearGradient>
<linearGradient id="paint15_linear_2271:3440" x1="-131.993" y1="2055.67" x2="-81.3387" y2="2038.8" gradientUnits="userSpaceOnUse">
<stop offset="0.01" stop-color="#2A0E45"/>
<stop offset="1" stop-color="#561F7D"/>
</linearGradient>
<linearGradient id="paint16_linear_2271:3440" x1="233.129" y1="132.268" x2="227.842" y2="117.42" gradientUnits="userSpaceOnUse">
<stop offset="0.01" stop-color="#2A0E45"/>
<stop offset="1" stop-color="#561F7D"/>
</linearGradient>
<radialGradient id="paint17_radial_2271:3440" cx="0" cy="0" r="1" gradientUnits="userSpaceOnUse" gradientTransform="translate(103.44 102.62) scale(1.91)">
<stop stop-color="#FAF5F8"/>
<stop offset="0.98" stop-color="#D4CBE2"/>
</radialGradient>
<linearGradient id="paint18_linear_2271:3440" x1="2822.72" y1="986.5" x2="2822.72" y2="588" gradientUnits="userSpaceOnUse">
<stop stop-color="#FFA700"/>
<stop offset="1" stop-color="#FFD328"/>
</linearGradient>
<linearGradient id="paint19_linear_2271:3440" x1="-2354.87" y1="-3598.76" x2="-2516.49" y2="-3436.33" gradientUnits="userSpaceOnUse">
<stop stop-color="#FFA700"/>
<stop offset="1" stop-color="#FFD328"/>
</linearGradient>
<linearGradient id="paint20_linear_2271:3440" x1="14" y1="75.0014" x2="97" y2="75.0014" gradientUnits="userSpaceOnUse">
<stop stop-color="#FF8647"/>
<stop offset="1" stop-color="#FFB934"/>
</linearGradient>
<radialGradient id="paint21_radial_2271:3440" cx="0" cy="0" r="1" gradientUnits="userSpaceOnUse" gradientTransform="translate(80.0032 72.7698) scale(1.0041 2.99841)">
<stop stop-color="#FFEF00"/>
<stop offset="0.01" stop-color="#FCEC00"/>
<stop offset="0.23" stop-color="#B1A500"/>
<stop offset="0.43" stop-color="#726B00"/>
<stop offset="0.62" stop-color="#413D00"/>
<stop offset="0.78" stop-color="#1D1C00"/>
<stop offset="0.91" stop-color="#080700"/>
<stop offset="1"/>
</radialGradient>
<radialGradient id="paint22_radial_2271:3440" cx="0" cy="0" r="1" gradientUnits="userSpaceOnUse" gradientTransform="translate(22702.1 -13017.9) scale(6990.5 680.295)">
<stop stop-color="#EBD7E3"/>
<stop offset="0.98" stop-color="#BDAFD2"/>
</radialGradient>
<linearGradient id="paint23_linear_2271:3440" x1="7788.52" y1="1776.75" x2="22788.8" y2="1776.75" gradientUnits="userSpaceOnUse">
<stop stop-color="#FFA700"/>
<stop offset="1" stop-color="#FFD328"/>
</linearGradient>
<linearGradient id="paint24_linear_2271:3440" x1="54.1239" y1="76.5871" x2="53.9079" y2="72.4128" gradientUnits="userSpaceOnUse">
<stop/>
<stop offset="1" stop-color="#BD9F65"/>
</linearGradient>
<linearGradient id="paint25_linear_2271:3440" x1="14" y1="76.9987" x2="97" y2="76.9987" gradientUnits="userSpaceOnUse">
<stop stop-color="#C93347"/>
<stop offset="1" stop-color="#FF7527"/>
</linearGradient>
<linearGradient id="paint26_linear_2271:3440" x1="7549.38" y1="2385.46" x2="9349.81" y2="2632.74" gradientUnits="userSpaceOnUse">
<stop offset="0.01" stop-color="#2A0E45"/>
<stop offset="1" stop-color="#561F7D"/>
</linearGradient>
<linearGradient id="paint27_linear_2271:3440" x1="8153.31" y1="2840.85" x2="10214.2" y2="3111.38" gradientUnits="userSpaceOnUse">
<stop offset="0.01" stop-color="#2A0E45"/>
<stop offset="1" stop-color="#561F7D"/>
</linearGradient>
<radialGradient id="paint28_radial_2271:3440" cx="0" cy="0" r="1" gradientUnits="userSpaceOnUse" gradientTransform="translate(103.978 45.0892) rotate(7.69186) scale(8.60922 8.38795)">
<stop stop-color="#86478A"/>
<stop offset="0.99" stop-color="#5A2B82"/>
</radialGradient>
<radialGradient id="paint29_radial_2271:3440" cx="0" cy="0" r="1" gradientUnits="userSpaceOnUse" gradientTransform="translate(9260.36 2424.39) rotate(8.33896) scale(736.404 153.083)">
<stop stop-color="#86478A"/>
<stop offset="0.99" stop-color="#5A2B82"/>
</radialGradient>
<linearGradient id="paint30_linear_2271:3440" x1="88.3312" y1="72.3119" x2="111.566" y2="75.536" gradientUnits="userSpaceOnUse">
<stop stop-color="#985997"/>
<stop offset="0.99" stop-color="#5A2B82"/>
</linearGradient>
<linearGradient id="paint31_linear_2271:3440" x1="7642.43" y1="1692.94" x2="9438.82" y2="1946.45" gradientUnits="userSpaceOnUse">
<stop offset="0.01" stop-color="#2A0E45"/>
<stop offset="1" stop-color="#561F7D"/>
</linearGradient>
<linearGradient id="paint32_linear_2271:3440" x1="101.204" y1="59.9511" x2="103.098" y2="45.9676" gradientUnits="userSpaceOnUse">
<stop offset="0.02" stop-color="#CEC4DE"/>
<stop offset="1" stop-color="#F0E1EA"/>
</linearGradient>
<linearGradient id="paint33_linear_2271:3440" x1="-13266.8" y1="-6437.44" x2="-13158" y2="-7239.86" gradientUnits="userSpaceOnUse">
<stop offset="0.02" stop-color="#CEC4DE"/>
<stop offset="1" stop-color="#F0E1EA"/>
</linearGradient>
<linearGradient id="paint34_linear_2271:3440" x1="4958.92" y1="991.2" x2="4958.92" y2="931.84" gradientUnits="userSpaceOnUse">
<stop stop-color="#FF8647"/>
<stop offset="1" stop-color="#FFB934"/>
</linearGradient>
<linearGradient id="paint35_linear_2271:3440" x1="97" y1="56.0022" x2="109" y2="56.0022" gradientUnits="userSpaceOnUse">
<stop stop-color="#FFC200"/>
<stop offset="1" stop-color="#FFD328"/>
</linearGradient>
<linearGradient id="paint36_linear_2271:3440" x1="7186.96" y1="2678.52" x2="7186.96" y2="2407.8" gradientUnits="userSpaceOnUse">
<stop stop-color="#FF8647"/>
<stop offset="1" stop-color="#FFB934"/>
</linearGradient>
<linearGradient id="paint37_linear_2271:3440" x1="5948" y1="1135.32" x2="6850.4" y2="1135.32" gradientUnits="userSpaceOnUse">
<stop stop-color="#FFC200"/>
<stop offset="1" stop-color="#FFD328"/>
</linearGradient>
<linearGradient id="paint38_linear_2271:3440" x1="101" y1="68.9991" x2="101" y2="64.9883" gradientUnits="userSpaceOnUse">
<stop stop-color="#FFB934"/>
<stop offset="1" stop-color="#FF9F47"/>
</linearGradient>
<linearGradient id="paint39_linear_2271:3440" x1="501.28" y1="1592.6" x2="501.28" y2="1458.62" gradientUnits="userSpaceOnUse">
<stop stop-color="#FFB934"/>
<stop offset="1" stop-color="#FF9F47"/>
</linearGradient>
<linearGradient id="paint40_linear_2271:3440" x1="95.9986" y1="74.0055" x2="95.9986" y2="60.0083" gradientUnits="userSpaceOnUse">
<stop/>
<stop offset="1" stop-color="#CDC8CA"/>
</linearGradient>
<linearGradient id="paint41_linear_2271:3440" x1="2414.6" y1="3575.55" x2="2414.6" y2="2756.7" gradientUnits="userSpaceOnUse">
<stop/>
<stop offset="1" stop-color="#CDC8CA"/>
</linearGradient>
<linearGradient id="paint42_linear_2271:3440" x1="102" y1="53.5" x2="113" y2="53.5" gradientUnits="userSpaceOnUse">
<stop stop-color="#CDC8CA"/>
<stop offset="1"/>
</linearGradient>
<linearGradient id="paint43_linear_2271:3440" x1="108.016" y1="75.0025" x2="108.016" y2="69.0025" gradientUnits="userSpaceOnUse">
<stop stop-color="#AB6F55"/>
<stop offset="1"/>
</linearGradient>
<linearGradient id="paint44_linear_2271:3440" x1="7670.71" y1="3151.56" x2="24324.1" y2="4334.9" gradientUnits="userSpaceOnUse">
<stop stop-color="#603082"/>
<stop offset="0.99" stop-color="#2A0E51"/>
</linearGradient>
<radialGradient id="paint45_radial_2271:3440" cx="0" cy="0" r="1" gradientUnits="userSpaceOnUse" gradientTransform="translate(40.9417 80.3821) rotate(4.28706) scale(30.5683 30.9051)">
<stop stop-color="#6D47D3"/>
<stop offset="0.99" stop-color="#713592"/>
</radialGradient>
<linearGradient id="paint46_linear_2271:3440" x1="7762.08" y1="4013.01" x2="22322.6" y2="5132.75" gradientUnits="userSpaceOnUse">
<stop stop-color="#603082"/>
<stop offset="0.99" stop-color="#2A0E51"/>
</linearGradient>
<radialGradient id="paint47_radial_2271:3440" cx="0" cy="0" r="1" gradientUnits="userSpaceOnUse" gradientTransform="translate(15352.8 3082.66) scale(5180.49 740.07)">
<stop stop-color="#6D47D3"/>
<stop offset="0.99" stop-color="#713592"/>
</radialGradient>
<linearGradient id="paint48_linear_2271:3440" x1="34.431" y1="81.5931" x2="87.6073" y2="85.6096" gradientUnits="userSpaceOnUse">
<stop offset="0.02" stop-color="#FF4C06"/>
<stop offset="0.17" stop-color="#FF0E59"/>
<stop offset="0.54" stop-color="#FF12C3"/>
<stop offset="1" stop-color="#00B3FF"/>
</linearGradient>
<linearGradient id="paint49_linear_2271:3440" x1="8260.44" y1="1746.1" x2="18783.2" y2="1886.04" gradientUnits="userSpaceOnUse">
<stop offset="0.02" stop-color="#FF4C06"/>
<stop offset="0.17" stop-color="#FF0E59"/>
<stop offset="0.54" stop-color="#FF12C3"/>
<stop offset="1" stop-color="#00B3FF"/>
</linearGradient>
<linearGradient id="paint50_linear_2271:3440" x1="7805.36" y1="1401.96" x2="17743.1" y2="1564.48" gradientUnits="userSpaceOnUse">
<stop offset="0.02" stop-color="#FF4C06"/>
<stop offset="0.17" stop-color="#FF0E59"/>
<stop offset="0.54" stop-color="#FF12C3"/>
<stop offset="1" stop-color="#00B3FF"/>
</linearGradient>
<linearGradient id="paint51_linear_2271:3440" x1="7350.28" y1="1388.16" x2="16703.9" y2="1526.37" gradientUnits="userSpaceOnUse">
<stop offset="0.02" stop-color="#FF4C06"/>
<stop offset="0.17" stop-color="#FF0E59"/>
<stop offset="0.54" stop-color="#FF12C3"/>
<stop offset="1" stop-color="#00B3FF"/>
</linearGradient>
<linearGradient id="paint52_linear_2271:3440" x1="7047.02" y1="1054.54" x2="16009" y2="1230.81" gradientUnits="userSpaceOnUse">
<stop offset="0.02" stop-color="#FF4C06"/>
<stop offset="0.17" stop-color="#FF0E59"/>
<stop offset="0.54" stop-color="#FF12C3"/>
<stop offset="1" stop-color="#00B3FF"/>
</linearGradient>
<linearGradient id="paint53_linear_2271:3440" x1="189.36" y1="411.51" x2="384.27" y2="411.75" gradientUnits="userSpaceOnUse">
<stop offset="0.02" stop-color="#FF4C06"/>
<stop offset="0.17" stop-color="#FF0E59"/>
<stop offset="0.54" stop-color="#FF12C3"/>
<stop offset="1" stop-color="#00B3FF"/>
</linearGradient>
<linearGradient id="paint54_linear_2271:3440" x1="238.175" y1="132.292" x2="494.552" y2="154.453" gradientUnits="userSpaceOnUse">
<stop offset="0.02" stop-color="#FF4C06"/>
<stop offset="0.17" stop-color="#FF0E59"/>
<stop offset="0.54" stop-color="#FF12C3"/>
<stop offset="1" stop-color="#00B3FF"/>
</linearGradient>
<linearGradient id="paint55_linear_2271:3440" x1="489.05" y1="420.42" x2="1073.77" y2="422.58" gradientUnits="userSpaceOnUse">
<stop offset="0.02" stop-color="#FF4C06"/>
<stop offset="0.17" stop-color="#FF0E59"/>
<stop offset="0.54" stop-color="#FF12C3"/>
<stop offset="1" stop-color="#00B3FF"/>
</linearGradient>
<linearGradient id="paint56_linear_2271:3440" x1="100.896" y1="122.671" x2="176.757" y2="128.577" gradientUnits="userSpaceOnUse">
<stop offset="0.02" stop-color="#FF4C06"/>
<stop offset="0.17" stop-color="#FF0E59"/>
<stop offset="0.54" stop-color="#FF12C3"/>
<stop offset="1" stop-color="#00B3FF"/>
</linearGradient>
<linearGradient id="paint57_linear_2271:3440" x1="342.7" y1="415.8" x2="732.518" y2="416.8" gradientUnits="userSpaceOnUse">
<stop offset="0.02" stop-color="#FF4C06"/>
<stop offset="0.17" stop-color="#FF0E59"/>
<stop offset="0.54" stop-color="#FF12C3"/>
<stop offset="1" stop-color="#00B3FF"/>
</linearGradient>
<linearGradient id="paint58_linear_2271:3440" x1="345.72" y1="408.82" x2="735.538" y2="409.82" gradientUnits="userSpaceOnUse">
<stop offset="0.02" stop-color="#FF4C06"/>
<stop offset="0.17" stop-color="#FF0E59"/>
<stop offset="0.54" stop-color="#FF12C3"/>
<stop offset="1" stop-color="#00B3FF"/>
</linearGradient>
<linearGradient id="paint59_linear_2271:3440" x1="73.4239" y1="507.369" x2="99.245" y2="509.292" gradientUnits="userSpaceOnUse">
<stop offset="0.02" stop-color="#FF4C06"/>
<stop offset="0.17" stop-color="#FF0E59"/>
<stop offset="0.54" stop-color="#FF12C3"/>
<stop offset="1" stop-color="#00B3FF"/>
</linearGradient>
<linearGradient id="paint60_linear_2271:3440" x1="84.9045" y1="327.843" x2="110.726" y2="329.764" gradientUnits="userSpaceOnUse">
<stop offset="0.02" stop-color="#FF4C06"/>
<stop offset="0.17" stop-color="#FF0E59"/>
<stop offset="0.54" stop-color="#FF12C3"/>
<stop offset="1" stop-color="#00B3FF"/>
</linearGradient>
<linearGradient id="paint61_linear_2271:3440" x1="390.7" y1="426.3" x2="780.498" y2="427.3" gradientUnits="userSpaceOnUse">
<stop offset="0.02" stop-color="#FF4C06"/>
<stop offset="0.17" stop-color="#FF0E59"/>
<stop offset="0.54" stop-color="#FF12C3"/>
<stop offset="1" stop-color="#00B3FF"/>
</linearGradient>
<linearGradient id="paint62_linear_2271:3440" x1="67.7341" y1="542.647" x2="94.0831" y2="544.608" gradientUnits="userSpaceOnUse">
<stop offset="0.02" stop-color="#FF4C06"/>
<stop offset="0.17" stop-color="#FF0E59"/>
<stop offset="0.54" stop-color="#FF12C3"/>
<stop offset="1" stop-color="#00B3FF"/>
</linearGradient>
<linearGradient id="paint63_linear_2271:3440" x1="234.35" y1="755.54" x2="429.26" y2="755.665" gradientUnits="userSpaceOnUse">
<stop offset="0.02" stop-color="#FF4C06"/>
<stop offset="0.17" stop-color="#FF0E59"/>
<stop offset="0.54" stop-color="#FF12C3"/>
<stop offset="1" stop-color="#00B3FF"/>
</linearGradient>
<linearGradient id="paint64_linear_2271:3440" x1="89.6639" y1="227.734" x2="115.485" y2="229.658" gradientUnits="userSpaceOnUse">
<stop offset="0.02" stop-color="#FF4C06"/>
<stop offset="0.17" stop-color="#FF0E59"/>
<stop offset="0.54" stop-color="#FF12C3"/>
<stop offset="1" stop-color="#00B3FF"/>
</linearGradient>
<linearGradient id="paint65_linear_2271:3440" x1="232.35" y1="765.06" x2="427.25" y2="765.185" gradientUnits="userSpaceOnUse">
<stop offset="0.02" stop-color="#FF4C06"/>
<stop offset="0.17" stop-color="#FF0E59"/>
<stop offset="0.54" stop-color="#FF12C3"/>
<stop offset="1" stop-color="#00B3FF"/>
</linearGradient>
<linearGradient id="paint66_linear_2271:3440" x1="66.2897" y1="508.885" x2="92.1114" y2="510.807" gradientUnits="userSpaceOnUse">
<stop offset="0.02" stop-color="#FF4C06"/>
<stop offset="0.17" stop-color="#FF0E59"/>
<stop offset="0.54" stop-color="#FF12C3"/>
<stop offset="1" stop-color="#00B3FF"/>
</linearGradient>
<linearGradient id="paint67_linear_2271:3440" x1="228.36" y1="411.03" x2="423.27" y2="411.27" gradientUnits="userSpaceOnUse">
<stop offset="0.02" stop-color="#FF4C06"/>
<stop offset="0.17" stop-color="#FF0E59"/>
<stop offset="0.54" stop-color="#FF12C3"/>
<stop offset="1" stop-color="#00B3FF"/>
</linearGradient>
<linearGradient id="paint68_linear_2271:3440" x1="226.36" y1="415.1" x2="421.26" y2="415.35" gradientUnits="userSpaceOnUse">
<stop offset="0.02" stop-color="#FF4C06"/>
<stop offset="0.17" stop-color="#FF0E59"/>
<stop offset="0.54" stop-color="#FF12C3"/>
<stop offset="1" stop-color="#00B3FF"/>
</linearGradient>
<linearGradient id="paint69_linear_2271:3440" x1="90.347" y1="114.414" x2="116.696" y2="116.411" gradientUnits="userSpaceOnUse">
<stop offset="0.02" stop-color="#FF4C06"/>
<stop offset="0.17" stop-color="#FF0E59"/>
<stop offset="0.54" stop-color="#FF12C3"/>
<stop offset="1" stop-color="#00B3FF"/>
</linearGradient>
<linearGradient id="paint70_linear_2271:3440" x1="63.8131" y1="472.154" x2="89.5644" y2="474.063" gradientUnits="userSpaceOnUse">
<stop offset="0.02" stop-color="#FF4C06"/>
<stop offset="0.17" stop-color="#FF0E59"/>
<stop offset="0.54" stop-color="#FF12C3"/>
<stop offset="1" stop-color="#00B3FF"/>
</linearGradient>
<linearGradient id="paint71_linear_2271:3440" x1="78.0435" y1="246.808" x2="104.319" y2="248.766" gradientUnits="userSpaceOnUse">
<stop offset="0.02" stop-color="#FF4C06"/>
<stop offset="0.17" stop-color="#FF0E59"/>
<stop offset="0.54" stop-color="#FF12C3"/>
<stop offset="1" stop-color="#00B3FF"/>
</linearGradient>
<linearGradient id="paint72_linear_2271:3440" x1="62.4501" y1="483.185" x2="88.8351" y2="485.069" gradientUnits="userSpaceOnUse">
<stop offset="0.02" stop-color="#FF4C06"/>
<stop offset="0.17" stop-color="#FF0E59"/>
<stop offset="0.54" stop-color="#FF12C3"/>
<stop offset="1" stop-color="#00B3FF"/>
</linearGradient>
<linearGradient id="paint73_linear_2271:3440" x1="71.6317" y1="337.199" x2="97.9778" y2="339.162" gradientUnits="userSpaceOnUse">
<stop offset="0.02" stop-color="#FF4C06"/>
<stop offset="0.17" stop-color="#FF0E59"/>
<stop offset="0.54" stop-color="#FF12C3"/>
<stop offset="1" stop-color="#00B3FF"/>
</linearGradient>
<linearGradient id="paint74_linear_2271:3440" x1="246.825" y1="134.101" x2="506.86" y2="156.696" gradientUnits="userSpaceOnUse">
<stop offset="0.02" stop-color="#FF4C06"/>
<stop offset="0.17" stop-color="#FF0E59"/>
<stop offset="0.54" stop-color="#FF12C3"/>
<stop offset="1" stop-color="#00B3FF"/>
</linearGradient>
<linearGradient id="paint75_linear_2271:3440" x1="318.151" y1="144.329" x2="676.181" y2="176.896" gradientUnits="userSpaceOnUse">
<stop offset="0.02" stop-color="#FF4C06"/>
<stop offset="0.17" stop-color="#FF0E59"/>
<stop offset="0.54" stop-color="#FF12C3"/>
<stop offset="1" stop-color="#00B3FF"/>
</linearGradient>
<linearGradient id="paint76_linear_2271:3440" x1="227.184" y1="134.816" x2="465.148" y2="155.235" gradientUnits="userSpaceOnUse">
<stop offset="0.02" stop-color="#FF4C06"/>
<stop offset="0.17" stop-color="#FF0E59"/>
<stop offset="0.54" stop-color="#FF12C3"/>
<stop offset="1" stop-color="#00B3FF"/>
</linearGradient>
<linearGradient id="paint77_linear_2271:3440" x1="231.348" y1="135.189" x2="470.049" y2="156.682" gradientUnits="userSpaceOnUse">
<stop offset="0.02" stop-color="#FF4C06"/>
<stop offset="0.17" stop-color="#FF0E59"/>
<stop offset="0.54" stop-color="#FF12C3"/>
<stop offset="1" stop-color="#00B3FF"/>
</linearGradient>
<linearGradient id="paint78_linear_2271:3440" x1="349.7" y1="416.96" x2="739.538" y2="417.92" gradientUnits="userSpaceOnUse">
<stop offset="0.02" stop-color="#FF4C06"/>
<stop offset="0.17" stop-color="#FF0E59"/>
<stop offset="0.54" stop-color="#FF12C3"/>
<stop offset="1" stop-color="#00B3FF"/>
</linearGradient>
<linearGradient id="paint79_linear_2271:3440" x1="166.861" y1="128.739" x2="318.01" y2="141.065" gradientUnits="userSpaceOnUse">
<stop offset="0.02" stop-color="#FF4C06"/>
<stop offset="0.17" stop-color="#FF0E59"/>
<stop offset="0.54" stop-color="#FF12C3"/>
<stop offset="1" stop-color="#00B3FF"/>
</linearGradient>
<linearGradient id="paint80_linear_2271:3440" x1="266.332" y1="139.442" x2="549.366" y2="162.875" gradientUnits="userSpaceOnUse">
<stop offset="0.02" stop-color="#FF4C06"/>
<stop offset="0.17" stop-color="#FF0E59"/>
<stop offset="0.54" stop-color="#FF12C3"/>
<stop offset="1" stop-color="#00B3FF"/>
</linearGradient>
<linearGradient id="paint81_linear_2271:3440" x1="208.584" y1="133.907" x2="415.524" y2="151.265" gradientUnits="userSpaceOnUse">
<stop offset="0.02" stop-color="#FF4C06"/>
<stop offset="0.17" stop-color="#FF0E59"/>
<stop offset="0.54" stop-color="#FF12C3"/>
<stop offset="1" stop-color="#00B3FF"/>
</linearGradient>
<linearGradient id="paint82_linear_2271:3440" x1="214.609" y1="133.419" x2="425.223" y2="151.208" gradientUnits="userSpaceOnUse">
<stop offset="0.02" stop-color="#FF4C06"/>
<stop offset="0.17" stop-color="#FF0E59"/>
<stop offset="0.54" stop-color="#FF12C3"/>
<stop offset="1" stop-color="#00B3FF"/>
</linearGradient>
<linearGradient id="paint83_linear_2271:3440" x1="203.35" y1="417.22" x2="398.26" y2="417.47" gradientUnits="userSpaceOnUse">
<stop offset="0.02" stop-color="#FF4C06"/>
<stop offset="0.17" stop-color="#FF0E59"/>
<stop offset="0.54" stop-color="#FF12C3"/>
<stop offset="1" stop-color="#00B3FF"/>
</linearGradient>
<linearGradient id="paint84_linear_2271:3440" x1="185.612" y1="132.653" x2="356.764" y2="146.808" gradientUnits="userSpaceOnUse">
<stop offset="0.02" stop-color="#FF4C06"/>
<stop offset="0.17" stop-color="#FF0E59"/>
<stop offset="0.54" stop-color="#FF12C3"/>
<stop offset="1" stop-color="#00B3FF"/>
</linearGradient>
<linearGradient id="paint85_linear_2271:3440" x1="58.9833" y1="119.948" x2="62.6721" y2="120.222" gradientUnits="userSpaceOnUse">
<stop offset="0.02" stop-color="#FF4C06"/>
<stop offset="0.17" stop-color="#FF0E59"/>
<stop offset="0.54" stop-color="#FF12C3"/>
<stop offset="1" stop-color="#00B3FF"/>
</linearGradient>
<linearGradient id="paint86_linear_2271:3440" x1="227.566" y1="137.302" x2="449.749" y2="156.233" gradientUnits="userSpaceOnUse">
<stop offset="0.02" stop-color="#FF4C06"/>
<stop offset="0.17" stop-color="#FF0E59"/>
<stop offset="0.54" stop-color="#FF12C3"/>
<stop offset="1" stop-color="#00B3FF"/>
</linearGradient>
<linearGradient id="paint87_linear_2271:3440" x1="195.028" y1="132.008" x2="368.204" y2="146.116" gradientUnits="userSpaceOnUse">
<stop offset="0.02" stop-color="#FF4C06"/>
<stop offset="0.17" stop-color="#FF0E59"/>
<stop offset="0.54" stop-color="#FF12C3"/>
<stop offset="1" stop-color="#00B3FF"/>
</linearGradient>
<linearGradient id="paint88_linear_2271:3440" x1="64.8647" y1="121.05" x2="70.6414" y2="121.473" gradientUnits="userSpaceOnUse">
<stop offset="0.02" stop-color="#FF4C06"/>
<stop offset="0.17" stop-color="#FF0E59"/>
<stop offset="0.54" stop-color="#FF12C3"/>
<stop offset="1" stop-color="#00B3FF"/>
</linearGradient>
<linearGradient id="paint89_linear_2271:3440" x1="147.184" y1="128.302" x2="255.681" y2="136.942" gradientUnits="userSpaceOnUse">
<stop offset="0.02" stop-color="#FF4C06"/>
<stop offset="0.17" stop-color="#FF0E59"/>
<stop offset="0.54" stop-color="#FF12C3"/>
<stop offset="1" stop-color="#00B3FF"/>
</linearGradient>
<linearGradient id="paint90_linear_2271:3440" x1="177.282" y1="132.868" x2="324.714" y2="144.89" gradientUnits="userSpaceOnUse">
<stop offset="0.02" stop-color="#FF4C06"/>
<stop offset="0.17" stop-color="#FF0E59"/>
<stop offset="0.54" stop-color="#FF12C3"/>
<stop offset="1" stop-color="#00B3FF"/>
</linearGradient>
<linearGradient id="paint91_linear_2271:3440" x1="71.5044" y1="122.463" x2="79.9368" y2="123.093" gradientUnits="userSpaceOnUse">
<stop offset="0.02" stop-color="#FF4C06"/>
<stop offset="0.17" stop-color="#FF0E59"/>
<stop offset="0.54" stop-color="#FF12C3"/>
<stop offset="1" stop-color="#00B3FF"/>
</linearGradient>
<linearGradient id="paint92_linear_2271:3440" x1="226.458" y1="138.854" x2="434.195" y2="156.857" gradientUnits="userSpaceOnUse">
<stop offset="0.02" stop-color="#FF4C06"/>
<stop offset="0.17" stop-color="#FF0E59"/>
<stop offset="0.54" stop-color="#FF12C3"/>
<stop offset="1" stop-color="#00B3FF"/>
</linearGradient>
<linearGradient id="paint93_linear_2271:3440" x1="201.541" y1="133.576" x2="376.906" y2="148.084" gradientUnits="userSpaceOnUse">
<stop offset="0.02" stop-color="#FF4C06"/>
<stop offset="0.17" stop-color="#FF0E59"/>
<stop offset="0.54" stop-color="#FF12C3"/>
<stop offset="1" stop-color="#00B3FF"/>
</linearGradient>
<linearGradient id="paint94_linear_2271:3440" x1="7959.61" y1="1824.5" x2="21720" y2="1824.5" gradientUnits="userSpaceOnUse">
<stop offset="0.02" stop-color="#FF4C06"/>
<stop offset="0.17" stop-color="#FF0E59"/>
<stop offset="0.54" stop-color="#FF12C3"/>
<stop offset="1" stop-color="#00B3FF"/>
</linearGradient>
<radialGradient id="paint95_radial_2271:3440" cx="0" cy="0" r="1" gradientUnits="userSpaceOnUse" gradientTransform="translate(334.492 2689.37) rotate(29.7298) scale(314.959 326.342)">
<stop stop-color="#EBD7E3"/>
<stop offset="0.98" stop-color="#BDAFD2"/>
</radialGradient>
<radialGradient id="paint96_radial_2271:3440" cx="0" cy="0" r="1" gradientUnits="userSpaceOnUse" gradientTransform="translate(-172.732 1672.7) rotate(31.2559) scale(72.8495 146.302)">
<stop stop-color="#00FFFF"/>
<stop offset="0.99" stop-color="#26A9FF"/>
</radialGradient>
<radialGradient id="paint97_radial_2271:3440" cx="0" cy="0" r="1" gradientUnits="userSpaceOnUse" gradientTransform="translate(-68.6811 1552.43) rotate(30.2047) scale(100.883 133.116)">
<stop stop-color="#00FFFF"/>
<stop offset="0.99" stop-color="#26A9FF"/>
</radialGradient>
<radialGradient id="paint98_radial_2271:3440" cx="0" cy="0" r="1" gradientUnits="userSpaceOnUse" gradientTransform="translate(37.332 682.56) rotate(42.7384) scale(11.3365 16.8055)">
<stop stop-color="#6D47D3"/>
<stop offset="0.99" stop-color="#713592"/>
</radialGradient>
<radialGradient id="paint99_radial_2271:3440" cx="0" cy="0" r="1" gradientUnits="userSpaceOnUse" gradientTransform="translate(82.0306 64.3787) scale(2.55394)">
<stop stop-color="#FF7E00"/>
<stop offset="0.01" stop-color="#FC7C00"/>
<stop offset="0.23" stop-color="#B15700"/>
<stop offset="0.43" stop-color="#723800"/>
<stop offset="0.62" stop-color="#412000"/>
<stop offset="0.78" stop-color="#1D0F00"/>
<stop offset="0.91" stop-color="#080400"/>
<stop offset="1"/>
</radialGradient>
<radialGradient id="paint100_radial_2271:3440" cx="0" cy="0" r="1" gradientUnits="userSpaceOnUse" gradientTransform="translate(82.8771 88.6202) rotate(3.88) scale(7.22766 2.55394)">
<stop stop-color="#0097FF"/>
<stop offset="0.01" stop-color="#0095FC"/>
<stop offset="0.23" stop-color="#0069B1"/>
<stop offset="0.43" stop-color="#004372"/>
<stop offset="0.62" stop-color="#002641"/>
<stop offset="0.78" stop-color="#00111D"/>
<stop offset="0.91" stop-color="#000508"/>
<stop offset="1"/>
</radialGradient>
<radialGradient id="paint101_radial_2271:3440" cx="0" cy="0" r="1" gradientUnits="userSpaceOnUse" gradientTransform="translate(33.987 85.0831) rotate(3.60858) scale(6.01609 1.46047)">
<stop stop-color="#FF2A13"/>
<stop offset="0.01" stop-color="#FC2913"/>
<stop offset="0.23" stop-color="#B11D0D"/>
<stop offset="0.43" stop-color="#721308"/>
<stop offset="0.62" stop-color="#410B05"/>
<stop offset="0.78" stop-color="#1D0502"/>
<stop offset="0.91" stop-color="#080101"/>
<stop offset="1"/>
</radialGradient>
<linearGradient id="paint102_linear_2271:3440" x1="77.9931" y1="12.9994" x2="77.994" y2="2.00996" gradientUnits="userSpaceOnUse">
<stop stop-color="#E6E6FF"/>
<stop offset="0.98" stop-color="#E2C5EB"/>
</linearGradient>
<linearGradient id="paint103_linear_2271:3440" x1="74.9957" y1="13.0149" x2="74.9946" y2="0.0118236" gradientUnits="userSpaceOnUse">
<stop stop-color="white"/>
<stop offset="0.98" stop-color="#E2DCEB"/>
</linearGradient>
<linearGradient id="paint104_linear_2271:3440" x1="12.0055" y1="79" x2="12.0055" y2="61" gradientUnits="userSpaceOnUse">
<stop stop-color="#E5F6FF"/>
<stop offset="0.98" stop-color="#E2DCEB"/>
</linearGradient>
<linearGradient id="paint105_linear_2271:3440" x1="-21003.7" y1="-5105.45" x2="-21122.5" y2="-3647.02" gradientUnits="userSpaceOnUse">
<stop stop-color="#E5F6FF"/>
<stop offset="0.98" stop-color="#E2DCEB"/>
</linearGradient>
</defs>
</svg>
