<svg width="175" height="35" viewBox="0 0 175 35" fill="none" xmlns="http://www.w3.org/2000/svg">
<path d="M0.515625 34V14.8047H5.22656V34H0.515625ZM26.1797 27.4141C26.1797 28.4453 25.9844 29.3828 25.5938 30.2266C25.2188 31.0703 24.6719 31.7969 23.9531 32.4062C23.2344 33.0156 22.3594 33.4922 21.3281 33.8359C20.2969 34.1641 19.1406 34.3281 17.8594 34.3281C16.5781 34.3281 15.4219 34.1641 14.3906 33.8359C13.375 33.4922 12.5078 33.0156 11.7891 32.4062C11.0703 31.7969 10.5156 31.0703 10.125 30.2266C9.75 29.3828 9.5625 28.4453 9.5625 27.4141V14.8047H14.2734V27.4141C14.2734 29.3984 15.4688 30.3906 17.8594 30.3906C20.2656 30.3906 21.4688 29.3984 21.4688 27.4141V11.2422H26.1797V27.4141ZM42.2344 34V27.1797C41.3125 25.9297 39.8125 25.3047 37.7344 25.3047C37.1719 25.3047 36.6484 25.3672 36.1641 25.4922C35.6953 25.6016 35.2891 25.7734 34.9453 26.0078C34.6016 26.2266 34.3281 26.4922 34.125 26.8047C33.9375 27.1016 33.8438 27.4375 33.8438 27.8125C33.8438 28.3906 34.0703 28.875 34.5234 29.2656C34.9922 29.6406 35.5781 29.8281 36.2812 29.8281C37.1875 29.8281 37.9609 29.6016 38.6016 29.1484L41.0391 32.5234C39.6641 33.6641 37.9062 34.2344 35.7656 34.2344C34.75 34.2344 33.8281 34.0625 33 33.7188C32.1875 33.375 31.4844 32.9062 30.8906 32.3125C30.2969 31.7188 29.8359 31.0234 29.5078 30.2266C29.1953 29.4297 29.0391 28.5781 29.0391 27.6719C29.0391 26.7031 29.2422 25.8125 29.6484 25C30.0703 24.1875 30.6562 23.4922 31.4062 22.9141C32.1719 22.3359 33.1016 21.8906 34.1953 21.5781C35.2891 21.25 36.5156 21.0859 37.875 21.0859C38.7188 21.0859 39.5078 21.1641 40.2422 21.3203C40.9766 21.4609 41.6406 21.6875 42.2344 22V20.0781C41.6562 18.9531 40.4219 18.3906 38.5312 18.3906C36.3125 18.3906 34.9375 19.2109 34.4062 20.8516H29.4141C29.8203 18.7891 30.9453 17.1875 32.7891 16.0469C34.4609 14.9844 36.4297 14.4531 38.6953 14.4531C40.8516 14.4531 42.7188 14.9375 44.2969 15.9062C45 16.3594 45.5703 16.8516 46.0078 17.3828C46.4609 17.9141 46.7734 18.5078 46.9453 19.1641V34H42.2344ZM31.125 12.3906V9.03906H42.2578V6.64844H46.9688V12.3906H31.125ZM42.2578 5.19531V0.390625H46.9688V5.19531H42.2578ZM67.125 30.6016C65.1406 33.0547 62.3906 34.2812 58.875 34.2812C57.4531 34.2812 56.1875 34.125 55.0781 33.8125C53.9844 33.5 53.0234 33.0156 52.1953 32.3594C50.6328 31.1719 49.8516 29.625 49.8516 27.7188C49.8516 25.5781 51.0391 24.1641 53.4141 23.4766C51.2891 22.9609 50.2266 21.7656 50.2266 19.8906C50.2266 18.4375 50.8672 17.1875 52.1484 16.1406C53.4453 15.0938 55 14.5703 56.8125 14.5703C58.1562 14.5703 59.4219 14.7891 60.6094 15.2266V19.1172C60.2031 18.8828 59.7656 18.7031 59.2969 18.5781C58.8281 18.4531 58.3203 18.3906 57.7734 18.3906C55.9766 18.3906 55.0781 18.9219 55.0781 19.9844C55.0781 21.0469 56.2031 21.5781 58.4531 21.5781C58.8125 21.5781 59.1719 21.5547 59.5312 21.5078C59.8906 21.4609 60.25 21.3984 60.6094 21.3203V25.3984H58.5C55.9375 25.3984 54.6562 26.2031 54.6562 27.8125C54.6562 28.2031 54.7578 28.5625 54.9609 28.8906C55.1797 29.2031 55.4766 29.4688 55.8516 29.6875C56.2266 29.9062 56.6719 30.0781 57.1875 30.2031C57.7031 30.3281 58.2656 30.3906 58.875 30.3906C60.3438 30.3906 61.5312 30.0547 62.4375 29.3828V14.8047H67.125V30.6016ZM82.9219 34V31.6094C81.5156 33.4219 79.5625 34.3281 77.0625 34.3281C75.4375 34.3281 74.0469 33.8203 72.8906 32.8047C72.2344 32.2578 71.75 31.6016 71.4375 30.8359C71.125 30.0703 70.9688 29.2188 70.9688 28.2812V14.8047H75.6797V27.7188C75.6797 28.1094 75.7578 28.4766 75.9141 28.8203C76.0703 29.1484 76.2812 29.4375 76.5469 29.6875C76.8281 29.9375 77.1641 30.1328 77.5547 30.2734C77.9453 30.4141 78.375 30.4844 78.8438 30.4844C79.8125 30.4844 80.7266 30.1484 81.5859 29.4766C82.4766 28.8203 82.9219 28.0547 82.9219 27.1797V14.8047H87.6328V34H82.9219ZM107.203 17.1953C107.797 17.8672 108.195 18.5234 108.398 19.1641V34H103.688V27.1797C102.766 25.9297 101.266 25.3047 99.1875 25.3047C98.625 25.3047 98.1016 25.3672 97.6172 25.4922C97.1484 25.6016 96.7422 25.7734 96.3984 26.0078C96.0547 26.2266 95.7812 26.4922 95.5781 26.8047C95.3906 27.1016 95.2969 27.4375 95.2969 27.8125C95.2969 28.3906 95.5234 28.875 95.9766 29.2656C96.4453 29.6406 97.0312 29.8281 97.7344 29.8281C98.6406 29.8281 99.4141 29.6016 100.055 29.1484L102.492 32.5234C101.117 33.6641 99.3594 34.2344 97.2188 34.2344C96.2031 34.2344 95.2812 34.0625 94.4531 33.7188C93.6406 33.375 92.9375 32.9062 92.3438 32.3125C91.75 31.7188 91.2891 31.0234 90.9609 30.2266C90.6484 29.4297 90.4922 28.5781 90.4922 27.6719C90.4922 26.7031 90.6953 25.8125 91.1016 25C91.5234 24.1875 92.1094 23.4922 92.8594 22.9141C93.625 22.3359 94.5547 21.8906 95.6484 21.5781C96.7422 21.25 97.9688 21.0859 99.3281 21.0859C100.172 21.0859 100.961 21.1641 101.695 21.3203C102.43 21.4609 103.094 21.6875 103.688 22V20.0781C103.109 18.9531 101.875 18.3906 99.9844 18.3906C97.7656 18.3906 96.3906 19.2109 95.8594 20.8516H90.8672C91.2734 18.7891 92.3984 17.1875 94.2422 16.0469C95.9141 14.9844 97.8828 14.4531 100.148 14.4531C100.805 14.4531 101.391 14.5 101.906 14.5938C102.438 14.6875 102.922 14.8203 103.359 14.9922L104.695 13.1172L109.172 14.7578L107.203 17.1953ZM124.266 34V21.4609C124.266 20.9922 124.172 20.5703 123.984 20.1953C123.797 19.8203 123.531 19.5 123.188 19.2344C122.859 18.9688 122.461 18.7656 121.992 18.625C121.539 18.4688 121.047 18.3906 120.516 18.3906C118.938 18.3906 117.789 18.8594 117.07 19.7969V30.1562H120.047V34H112.359V18.3906C114.328 15.7656 117.094 14.4531 120.656 14.4531C121.875 14.4531 122.992 14.6016 124.008 14.8984C125.023 15.1953 125.898 15.6328 126.633 16.2109C127.367 16.7734 127.938 17.4688 128.344 18.2969C128.766 19.125 128.977 20.0703 128.977 21.1328V34H124.266ZM139.031 34V22.1875C139.031 19.8906 137.836 18.7422 135.445 18.7422C134.102 18.7422 132.836 19.125 131.648 19.8906V15.5781C132.398 15.2188 133.156 14.9453 133.922 14.7578C134.688 14.5547 135.492 14.4531 136.336 14.4531C137.508 14.4531 138.539 14.6328 139.43 14.9922C140.32 15.3516 141.062 15.8594 141.656 16.5156C142.266 17.1562 142.727 17.9219 143.039 18.8125C143.352 19.7031 143.508 20.6875 143.508 21.7656V34H139.031ZM159.375 34V31.6094C157.969 33.4219 156.016 34.3281 153.516 34.3281C151.891 34.3281 150.5 33.8203 149.344 32.8047C148.688 32.2578 148.203 31.6016 147.891 30.8359C147.578 30.0703 147.422 29.2188 147.422 28.2812V14.8047H152.133V27.7188C152.133 28.1094 152.211 28.4766 152.367 28.8203C152.523 29.1484 152.734 29.4375 153 29.6875C153.281 29.9375 153.617 30.1328 154.008 30.2734C154.398 30.4141 154.828 30.4844 155.297 30.4844C156.266 30.4844 157.18 30.1484 158.039 29.4766C158.93 28.8203 159.375 28.0547 159.375 27.1797V14.8047H164.086V34H159.375ZM167.18 22.5391V17.1953H171.891V19.1641H174.914V22.5391H167.18ZM167.18 31.6094V26.2656H171.891V28.2344H174.914V31.6094H167.18Z" fill="#173053"/>
</svg>
