<svg width="155" height="28" viewBox="0 0 155 28" fill="none" xmlns="http://www.w3.org/2000/svg">
<path d="M26.5256 27H29.9816L37.1456 1.368H33.7616L27.7856 22.788L20.8016 10.476H17.1656L10.1456 22.788L4.20556 1.368H0.821563L7.98556 27H11.4416L18.9656 13.788L26.5256 27ZM51.6446 16.884C51.3566 15.372 50.6006 14.004 49.5926 12.888C48.1166 11.304 46.1366 10.404 43.9766 10.404C41.8526 10.404 39.8366 11.304 38.3966 12.888C37.3886 14.004 36.6686 15.372 36.3446 16.884C36.2006 17.532 36.1286 18.18 36.1286 18.828C36.1286 19.08 36.1286 19.332 36.1646 19.584C36.3086 21.564 37.1006 23.364 38.3966 24.768C39.8366 26.388 41.8166 27.288 43.9766 27.288C45.5246 27.216 47.0726 26.82 48.3326 26.064C49.1606 25.56 49.8806 24.948 50.5286 24.228L47.9366 22.68C46.8926 23.724 45.3806 24.336 43.9046 24.408C41.5286 24.372 39.4766 22.32 39.1166 19.584V19.512H51.8246C51.8606 19.188 51.8966 18.36 51.6446 16.884ZM39.3686 16.92L39.4046 16.848C40.1606 14.724 41.9966 13.284 43.9766 13.284C45.9926 13.284 47.8286 14.724 48.5486 16.848L48.5846 16.92H39.3686ZM58.0174 27V0.575999H54.9214V27H58.0174ZM74.6154 21.996C73.6074 23.4 71.9874 24.336 70.1514 24.336C67.0914 24.336 64.6074 21.816 64.6074 18.756C64.6074 15.696 67.0914 13.176 70.1514 13.176C71.9874 13.176 73.6074 14.112 74.6154 15.48L77.0994 13.644C76.8474 13.284 76.5594 12.96 76.2354 12.636C74.6154 11.016 72.4554 10.152 70.1514 10.152C67.8474 10.152 65.6514 11.016 64.0314 12.636C62.4114 14.292 61.5114 16.452 61.5114 18.756C61.5114 21.06 62.4114 23.22 64.0314 24.876C65.6514 26.496 67.8474 27.36 70.1514 27.36C72.4554 27.36 74.6154 26.496 76.2354 24.876C76.5594 24.552 76.8474 24.192 77.1354 23.832L74.6154 21.996ZM93.5683 12.636C91.9483 11.016 89.7883 10.152 87.4843 10.152C85.1803 10.152 83.0203 11.016 81.3643 12.636C79.7443 14.292 78.8442 16.452 78.8442 18.756C78.8442 21.06 79.7443 23.22 81.3643 24.876C83.0203 26.496 85.1803 27.396 87.4843 27.396C89.7883 27.396 91.9483 26.496 93.5683 24.876C95.2243 23.22 96.1243 21.06 96.1243 18.756C96.1243 16.452 95.2243 14.292 93.5683 12.636ZM87.4843 24.3C84.4243 24.3 81.9403 21.816 81.9403 18.756C81.9403 15.696 84.4243 13.248 87.4843 13.248C90.5443 13.248 93.0283 15.696 93.0283 18.756C93.0283 21.816 90.5443 24.3 87.4843 24.3ZM125.459 12.492C123.947 10.98 121.967 10.188 119.843 10.188C117.719 10.188 115.703 11.124 114.191 12.636C113.903 12.924 113.651 13.212 113.399 13.536C113.183 13.212 112.931 12.924 112.643 12.636C111.131 11.124 109.115 10.188 106.991 10.188C105.227 10.188 103.535 11.016 102.131 12.096V10.512H99.0349V27H102.131V18.144C102.131 15.444 104.327 13.212 106.991 13.212C109.691 13.212 111.851 15.444 111.851 18.144V27H114.947V18.144C114.947 15.444 117.143 13.212 119.843 13.212C122.507 13.212 124.703 15.444 124.703 18.144V27H127.799V18.144C127.799 15.984 126.971 14.004 125.459 12.492ZM146.004 16.884C145.716 15.372 144.96 14.004 143.952 12.888C142.476 11.304 140.496 10.404 138.336 10.404C136.212 10.404 134.196 11.304 132.756 12.888C131.748 14.004 131.028 15.372 130.704 16.884C130.56 17.532 130.488 18.18 130.488 18.828C130.488 19.08 130.488 19.332 130.524 19.584C130.668 21.564 131.46 23.364 132.756 24.768C134.196 26.388 136.176 27.288 138.336 27.288C139.884 27.216 141.432 26.82 142.692 26.064C143.52 25.56 144.24 24.948 144.888 24.228L142.296 22.68C141.252 23.724 139.74 24.336 138.264 24.408C135.888 24.372 133.836 22.32 133.476 19.584V19.512H146.184C146.22 19.188 146.256 18.36 146.004 16.884ZM133.728 16.92L133.764 16.848C134.52 14.724 136.356 13.284 138.336 13.284C140.352 13.284 142.188 14.724 142.908 16.848L142.944 16.92H133.728ZM153.709 19.8V0.575999H150.505V19.8H153.709ZM152.125 22.788C150.973 22.788 150.001 23.724 150.001 24.876C150.001 26.064 150.973 27 152.125 27C153.277 27 154.213 26.064 154.213 24.876C154.213 23.724 153.277 22.788 152.125 22.788Z" fill="#173053"/>
</svg>
